<?xml version="1.0" encoding="UTF-8"?>
<svg width="180px" height="40px" viewBox="0 0 180 40" version="1.1" xmlns="http://www.w3.org/2000/svg" xmlns:xlink="http://www.w3.org/1999/xlink">
    <!-- Generator: Sketch 58 (84663) - https://sketch.com -->
    <title>danish-white-medium</title>
    <desc>Created with Sketch.</desc>
    <g id="Subscription-assets" stroke="none" stroke-width="1" fill="none" fill-rule="evenodd">
        <g id="Betal-og-tilmeld---editable-Copy" transform="translate(-21.000000, -652.000000)">
            <g id="danish-white-medium" transform="translate(21.000000, 652.000000)">
                <rect id="Background" fill="#FFFFFF" x="0" y="0" width="180" height="40" rx="4"></rect>
                <path d="M49.56,25 L44.328,25 C44.253333,25 44.186667,24.970667 44.128,24.912 C44.069333,24.853333 44.04,24.7813338 44.04,24.696 L44.04,14.424 C44.04,14.3386662 44.069333,14.266667 44.128,14.208 C44.186667,14.149333 44.253333,14.12 44.328,14.12 L49.528,14.12 C50.4773381,14.12 51.2773301,14.4133304 51.928,15 C52.5786699,15.5866696 52.904,16.3119957 52.904,17.176 C52.904,17.6026688 52.8160009,17.9999982 52.64,18.368 C52.4639991,18.7360018 52.2106683,19.053332 51.88,19.32 C51.8373331,19.3626669 51.816,19.4079998 51.816,19.456 C51.816,19.5040002 51.8373331,19.5439998 51.88,19.576 C52.3280022,19.8213346 52.6719988,20.1386647 52.912,20.528 C53.1520012,20.9173353 53.272,21.3466643 53.272,21.816 C53.272,22.7333379 52.9226702,23.4933303 52.224,24.096 C51.5253298,24.6986697 50.6373387,25 49.56,25 Z M46.552,18.6 L49.288,18.6 C49.6826686,18.6 50.0079987,18.4720013 50.264,18.216 C50.5200013,17.9599987 50.648,17.6400019 50.648,17.256 C50.648,16.8613314 50.5173346,16.5493345 50.256,16.32 C49.9946654,16.0906655 49.6453355,15.976 49.208,15.976 L46.552,15.976 C46.4666662,15.976 46.4000002,15.9999998 46.352,16.048 C46.3039998,16.0960002 46.28,16.1626662 46.28,16.248 L46.28,18.344 C46.28,18.4293338 46.3039998,18.4933331 46.352,18.536 C46.4000002,18.5786669 46.4666662,18.6 46.552,18.6 Z M46.552,23.128 L49.448,23.128 C49.8853355,23.128 50.2533318,22.9893347 50.552,22.712 C50.8506682,22.4346653 51,22.0986686 51,21.704 C51,21.3306648 50.8560014,21.010668 50.568,20.744 C50.28,20.477332 49.9173355,20.344 49.48,20.344 L46.552,20.344 C46.4666662,20.344 46.4000002,20.3653331 46.352,20.408 C46.3039998,20.4506669 46.28,20.5146662 46.28,20.6 L46.28,22.872 C46.28,22.9573338 46.3013331,23.0213331 46.344,23.064 C46.3866669,23.1066669 46.4559995,23.128 46.552,23.128 Z M62.136,22.856 C61.869332,23.5600035 61.3813369,24.1279978 60.672,24.56 C59.9626631,24.9920022 59.170671,25.208 58.296,25.208 C57.0906606,25.208 56.0960039,24.8133373 55.312,24.024 C54.5279961,23.2346627 54.136,22.2320061 54.136,21.016 C54.136,19.7999939 54.535996,18.7866707 55.336,17.976 C56.136,17.1653293 57.1333274,16.76 58.328,16.76 C59.5120059,16.76 60.4959961,17.1679959 61.28,17.984 C62.0640039,18.8000041 62.456,19.8213272 62.456,21.048 C62.456,21.2293342 62.426667,21.3626662 62.368,21.448 C62.309333,21.5333338 62.2160006,21.576 62.088,21.576 L56.584,21.576 C56.5199997,21.576 56.4720002,21.5946665 56.44,21.632 C56.4079998,21.6693335 56.3973333,21.7199997 56.408,21.784 C56.4613336,22.242669 56.6719982,22.6213318 57.04,22.92 C57.4080018,23.2186682 57.8479974,23.368 58.36,23.368 C58.6586682,23.368 58.9386654,23.3093339 59.2,23.192 C59.4090677,23.0981329 59.5959465,22.9701339 59.7606398,22.8080004 L59.88,22.68 C59.9653338,22.5839995 60.0479996,22.5173335 60.128,22.48 C60.2080004,22.4426665 60.2959995,22.424 60.392,22.424 L61.864,22.424 C61.9920006,22.424 62.0799998,22.4639996 62.128,22.544 C62.1760002,22.6240004 62.1786669,22.7279994 62.136,22.856 Z M56.472,20.056 C56.4506666,20.130667 56.4506666,20.1866665 56.472,20.224 C56.4933334,20.2613335 56.5359997,20.28 56.6,20.28 L59.976,20.28 C60.0293336,20.28 60.0693332,20.2666668 60.096,20.24 C60.1226668,20.2133332 60.1306667,20.1680003 60.12,20.104 C60.0346662,19.6666645 59.821335,19.3066681 59.48,19.024 C59.138665,18.7413319 58.7440022,18.6 58.296,18.6 C57.8693312,18.6 57.485335,18.7359986 57.144,19.008 C56.802665,19.2800014 56.5786672,19.6293312 56.472,20.056 Z M67.864,25.08 L67.784,25.08 C66.5999941,25.08 65.7200029,24.8106694 65.144,24.272 C64.5679971,23.7333306 64.28,22.9146722 64.28,21.816 L64.28,19.112 C64.28,19.0266662 64.2533336,18.9573336 64.2,18.904 C64.1466664,18.8506664 64.0773338,18.824 63.992,18.824 L63.432,18.824 C63.3466662,18.824 63.274667,18.794667 63.216,18.736 C63.157333,18.677333 63.128,18.610667 63.128,18.536 L63.128,17.272 C63.128,17.1866662 63.1599997,17.114667 63.224,17.056 C63.2880003,16.997333 63.357333,16.968 63.432,16.968 L63.992,16.968 C64.0773338,16.968 64.1466664,16.938667 64.2,16.88 C64.2533336,16.821333 64.28,16.754667 64.28,16.68 L64.28,15.304 C64.28,15.2186662 64.309333,15.146667 64.368,15.088 C64.426667,15.029333 64.493333,15 64.568,15 L66.152,15 C66.2373338,15 66.309333,15.029333 66.368,15.088 C66.426667,15.146667 66.456,15.2186662 66.456,15.304 L66.456,16.68 C66.456,16.754667 66.485333,16.821333 66.544,16.88 C66.602667,16.938667 66.6746662,16.968 66.76,16.968 L67.8,16.968 C67.8853338,16.968 67.957333,16.997333 68.016,17.056 C68.074667,17.114667 68.104,17.1866662 68.104,17.272 L68.104,18.536 C68.104,18.610667 68.074667,18.677333 68.016,18.736 C67.957333,18.794667 67.8853338,18.824 67.8,18.824 L66.76,18.824 C66.685333,18.824 66.6160003,18.853333 66.552,18.912 C66.4879997,18.970667 66.456,19.0426662 66.456,19.128 L66.456,21.8 C66.456,22.2480022 66.5759988,22.5893322 66.816,22.824 C67.0560012,23.0586678 67.405331,23.176 67.864,23.176 C67.938667,23.176 68.0026664,23.1999998 68.056,23.248 C68.1093336,23.2960002 68.136,23.357333 68.136,23.432 L68.136,24.792 C68.136,24.8773338 68.1093336,24.9466664 68.056,25 C68.0026664,25.0533336 67.938667,25.08 67.864,25.08 Z M75.4545001,24.0874998 L75.4,24.136 C74.9839979,24.5200019 74.5733354,24.7946658 74.168,24.96 C73.7626646,25.1253342 73.3146691,25.208 72.824,25.208 C71.7253278,25.208 70.7946705,24.8000041 70.032,23.984 C69.2693295,23.1679959 68.888,22.1680059 68.888,20.984 C68.888,19.7999941 69.2746628,18.8000041 70.048,17.984 C70.8213372,17.1679959 71.7573278,16.76 72.856,16.76 C73.2400019,16.76 73.5999983,16.8239994 73.936,16.952 C74.2048013,17.0544005 74.4821327,17.2079993 74.7679995,17.4127995 L74.984,17.576 C75.058667,17.6400003 75.1279997,17.6666667 75.192,17.656 C75.2560003,17.6453333 75.288,17.5920005 75.288,17.496 L75.288,17.256 C75.288,17.1706662 75.317333,17.1013336 75.376,17.048 C75.434667,16.9946664 75.501333,16.968 75.576,16.968 L77.08,16.968 C77.1653338,16.968 77.237333,16.997333 77.296,17.056 C77.354667,17.114667 77.384,17.1866662 77.384,17.272 L77.384,22.568 C77.384,22.76 77.4186663,22.9039995 77.488,23 C77.5573337,23.0960005 77.6613326,23.1493333 77.8,23.16 C77.874667,23.1706667 77.9386664,23.1999998 77.992,23.248 C78.0453336,23.2960002 78.072,23.3519997 78.072,23.416 L78.072,24.808 C78.072,24.882667 78.0453336,24.9466664 77.992,25 C77.9386664,25.0533336 77.874667,25.08 77.8,25.08 C77.2879974,25.08 76.8666683,25.0053341 76.536,24.856 C76.2053317,24.7066659 75.9493342,24.4773349 75.768,24.168 C75.7146664,24.0826662 75.658667,24.0373334 75.6,24.032 C75.5559998,24.028 75.5075001,24.0464998 75.4545001,24.0874998 L75.4545001,24.0874998 Z M71.08,20.984 C71.08,21.6026698 71.2853313,22.1306645 71.696,22.568 C72.1066687,23.0053355 72.6053304,23.224 73.192,23.224 C73.7786696,23.224 74.2746646,23.0080022 74.68,22.576 C75.0853354,22.1439978 75.288,21.6133365 75.288,20.984 C75.288,20.3546635 75.0853354,19.8240022 74.68,19.392 C74.2746646,18.9599978 73.7786696,18.744 73.192,18.744 C72.6053304,18.744 72.1066687,18.9626645 71.696,19.4 C71.2853313,19.8373355 71.08,20.3653302 71.08,20.984 Z M82.264,25.08 C81.1759946,25.08 80.4106689,24.8693354 79.968,24.448 C79.5253311,24.0266646 79.304,23.3040051 79.304,22.28 L79.304,14.424 C79.304,14.3386662 79.333333,14.266667 79.392,14.208 C79.450667,14.149333 79.517333,14.12 79.592,14.12 L81.176,14.12 C81.2613338,14.12 81.333333,14.149333 81.392,14.208 C81.450667,14.266667 81.48,14.3386662 81.48,14.424 L81.48,22.328 C81.48,22.6053347 81.546666,22.8159993 81.68,22.96 C81.7911117,23.0800006 81.9448141,23.1500002 82.1411107,23.17 L82.264,23.176 C82.3493338,23.176 82.421333,23.205333 82.48,23.264 C82.538667,23.322667 82.568,23.3946662 82.568,23.48 L82.568,24.792 C82.568,24.866667 82.538667,24.933333 82.48,24.992 C82.421333,25.050667 82.3493338,25.08 82.264,25.08 Z M94.808,20.984 C94.808,22.1786726 94.4000041,23.1813293 93.584,23.992 C92.7679959,24.8026707 91.7466728,25.208 90.52,25.208 C89.3039939,25.208 88.2853374,24.8026707 87.464,23.992 C86.6426626,23.1813293 86.232,22.1786726 86.232,20.984 C86.232,19.7893274 86.6399959,18.7866707 87.456,17.976 C88.2720041,17.1653293 89.2933272,16.76 90.52,16.76 C91.7466728,16.76 92.7679959,17.1626626 93.584,17.968 C94.4000041,18.7733374 94.808,19.7786606 94.808,20.984 Z M88.408,20.984 C88.408,21.6026698 88.6159979,22.1306645 89.032,22.568 C89.4480021,23.0053355 89.9439971,23.224 90.52,23.224 C91.1066696,23.224 91.6053313,23.0053355 92.016,22.568 C92.4266687,22.1306645 92.632,21.6026698 92.632,20.984 C92.632,20.3653302 92.4266687,19.8373355 92.016,19.4 C91.6053313,18.9626645 91.1066696,18.744 90.52,18.744 C89.9439971,18.744 89.4480021,18.9626645 89.032,19.4 C88.6159979,19.8373355 88.408,20.3653302 88.408,20.984 Z M100.2,28.2 C99.207995,28.2 98.3600035,27.9733356 97.656,27.52 C96.9519965,27.0666644 96.4720013,26.4293374 96.216,25.608 C96.1839998,25.5119995 96.197333,25.4320003 96.256,25.368 C96.314667,25.3039997 96.4079994,25.272 96.536,25.272 L98.072,25.272 C98.1680005,25.272 98.2506663,25.2906665 98.32,25.328 C98.3662225,25.352889 98.4112593,25.3908147 98.455111,25.4417776 L98.52,25.528 C98.6906675,25.794668 98.9173319,25.994666 99.2,26.128 C99.4826681,26.261334 99.8106648,26.328 100.184,26.328 C100.77067,26.328 101.250665,26.1306686 101.624,25.736 C101.997335,25.3413314 102.184,24.8346698 102.184,24.216 L102.184,24.12 C102.184,24.0133328 102.152,23.9466668 102.088,23.92 C102.04,23.8999999 101.983,23.9054998 101.917,23.9364998 L101.848,23.976 C101.463998,24.2213346 101.104002,24.3999994 100.768,24.512 C100.431998,24.6240006 100.109335,24.68 99.8,24.68 C98.6906611,24.68 97.765337,24.309337 97.024,23.568 C96.282663,22.826663 95.912,21.885339 95.912,20.744 C95.912,19.5919942 96.2879962,18.6400038 97.04,17.888 C97.7920038,17.1359962 98.7226611,16.76 99.832,16.76 C100.248002,16.76 100.629332,16.8293326 100.976,16.968 C101.253335,17.0789339 101.51872,17.2342393 101.77216,17.4339195 L101.96,17.592 C102.034667,17.666667 102.104,17.6960001 102.168,17.68 C102.232,17.6639999 102.264,17.6080005 102.264,17.512 L102.264,17.256 C102.264,17.1706662 102.293333,17.1013336 102.352,17.048 C102.410667,16.9946664 102.477333,16.968 102.552,16.968 L104.056,16.968 C104.141334,16.968 104.213333,16.997333 104.272,17.056 C104.330667,17.114667 104.36,17.1866662 104.36,17.272 L104.36,24.024 C104.36,25.2293394 103.968004,26.2266627 103.184,27.016 C102.399996,27.8053373 101.405339,28.2 100.2,28.2 Z M98.104,20.824 C98.104,21.4106696 98.303998,21.9013314 98.704,22.296 C99.104,22.6906686 99.5973304,22.888 100.184,22.888 C100.781336,22.888 101.277331,22.6933353 101.672,22.304 C102.066669,21.9146647 102.264,21.4213363 102.264,20.824 C102.264,20.215997 102.064002,19.712 101.664,19.312 C101.263998,18.911998 100.77067,18.712 100.184,18.712 C99.5973304,18.712 99.104,18.9146646 98.704,19.32 C98.303998,19.7253354 98.104,20.2266637 98.104,20.824 Z M113.112,25.08 L113.032,25.08 C111.847994,25.08 110.968003,24.8106694 110.392,24.272 C109.815997,23.7333306 109.528,22.9146722 109.528,21.816 L109.528,19.112 C109.528,19.0266662 109.501334,18.9573336 109.448,18.904 C109.394666,18.8506664 109.325334,18.824 109.24,18.824 L108.68,18.824 C108.594666,18.824 108.522667,18.794667 108.464,18.736 C108.405333,18.677333 108.376,18.610667 108.376,18.536 L108.376,17.272 C108.376,17.1866662 108.408,17.114667 108.472,17.056 C108.536,16.997333 108.605333,16.968 108.68,16.968 L109.24,16.968 C109.325334,16.968 109.394666,16.938667 109.448,16.88 C109.501334,16.821333 109.528,16.754667 109.528,16.68 L109.528,15.304 C109.528,15.2186662 109.557333,15.146667 109.616,15.088 C109.674667,15.029333 109.741333,15 109.816,15 L111.4,15 C111.485334,15 111.557333,15.029333 111.616,15.088 C111.674667,15.146667 111.704,15.2186662 111.704,15.304 L111.704,16.68 C111.704,16.754667 111.733333,16.821333 111.792,16.88 C111.850667,16.938667 111.922666,16.968 112.008,16.968 L113.048,16.968 C113.133334,16.968 113.205333,16.997333 113.264,17.056 C113.322667,17.114667 113.352,17.1866662 113.352,17.272 L113.352,18.536 C113.352,18.610667 113.322667,18.677333 113.264,18.736 C113.205333,18.794667 113.133334,18.824 113.048,18.824 L112.008,18.824 C111.933333,18.824 111.864,18.853333 111.8,18.912 C111.736,18.970667 111.704,19.0426662 111.704,19.128 L111.704,21.8 C111.704,22.2480022 111.823999,22.5893322 112.064,22.824 C112.304001,23.0586678 112.653331,23.176 113.112,23.176 C113.186667,23.176 113.250666,23.1999998 113.304,23.248 C113.357334,23.2960002 113.384,23.357333 113.384,23.432 L113.384,24.792 C113.384,24.8773338 113.357334,24.9466664 113.304,25 C113.250666,25.0533336 113.186667,25.08 113.112,25.08 Z M116.792,14.872 C116.792,15.2026683 116.672001,15.4879988 116.432,15.728 C116.191999,15.9680012 115.906668,16.088 115.576,16.088 C115.245332,16.088 114.960001,15.9680012 114.72,15.728 C114.479999,15.4879988 114.36,15.2026683 114.36,14.872 C114.36,14.5413317 114.479999,14.2560012 114.72,14.016 C114.960001,13.7759988 115.245332,13.656 115.576,13.656 C115.906668,13.656 116.191999,13.7759988 116.432,14.016 C116.672001,14.2560012 116.792,14.5413317 116.792,14.872 Z M116.344,25 L114.76,25 C114.685333,25 114.618667,24.970667 114.56,24.912 C114.501333,24.853333 114.472,24.7813338 114.472,24.696 L114.472,17.272 C114.472,17.1866662 114.501333,17.114667 114.56,17.056 C114.618667,16.997333 114.685333,16.968 114.76,16.968 L116.344,16.968 C116.429334,16.968 116.501333,16.997333 116.56,17.056 C116.618667,17.114667 116.648,17.1866662 116.648,17.272 L116.648,24.696 C116.648,24.770667 116.618667,24.8399997 116.56,24.904 C116.501333,24.968 116.429334,25 116.344,25 Z M121.368,25.08 C120.279995,25.08 119.514669,24.8693354 119.072,24.448 C118.629331,24.0266646 118.408,23.3040051 118.408,22.28 L118.408,14.424 C118.408,14.3386662 118.437333,14.266667 118.496,14.208 C118.554667,14.149333 118.621333,14.12 118.696,14.12 L120.28,14.12 C120.365334,14.12 120.437333,14.149333 120.496,14.208 C120.554667,14.266667 120.584,14.3386662 120.584,14.424 L120.584,22.328 C120.584,22.6053347 120.650666,22.8159993 120.784,22.96 C120.895112,23.0800006 121.048814,23.1500002 121.245111,23.17 L121.368,23.176 C121.453334,23.176 121.525333,23.205333 121.584,23.264 C121.642667,23.322667 121.672,23.3946662 121.672,23.48 L121.672,24.792 C121.672,24.866667 121.642667,24.933333 121.584,24.992 C121.525333,25.050667 121.453334,25.08 121.368,25.08 Z M124.536,25 L122.952,25 C122.877333,25 122.810667,24.970667 122.752,24.912 C122.693333,24.853333 122.664,24.7813338 122.664,24.696 L122.664,17.272 C122.664,17.1866662 122.693333,17.114667 122.752,17.056 C122.810667,16.997333 122.877333,16.968 122.952,16.968 L124.472,16.968 C124.557334,16.968 124.629333,16.997333 124.688,17.056 C124.746667,17.114667 124.776,17.1866662 124.776,17.272 L124.776,17.528 C124.776,17.6240005 124.810666,17.6799999 124.88,17.696 C124.932,17.7080001 124.9885,17.6915003 125.0495,17.6465002 L125.112,17.592 C125.432002,17.3039986 125.749332,17.093334 126.064,16.96 C126.378668,16.826666 126.722665,16.76 127.096,16.76 C127.565336,16.76 127.983998,16.8613323 128.352,17.064 C128.658668,17.2328897 128.933851,17.472147 129.177555,17.7817771 L129.32,17.976 C129.362667,18.0400003 129.405333,18.072 129.448,18.072 C129.490667,18.072 129.538666,18.0400003 129.592,17.976 C129.890668,17.5813314 130.253331,17.280001 130.68,17.072 C131.106669,16.863999 131.581331,16.76 132.104,16.76 C132.957338,16.76 133.653331,17.055997 134.192,17.648 C134.730669,18.240003 135,19.0053286 135,19.944 L135,24.696 C135,24.770667 134.970667,24.8399997 134.912,24.904 C134.853333,24.9680003 134.781334,25 134.696,25 L133.112,25 C133.037333,25 132.970667,24.970667 132.912,24.912 C132.853333,24.853333 132.824,24.7813338 132.824,24.696 L132.824,20.328 C132.824,19.8053307 132.698668,19.3946682 132.448,19.096 C132.197332,18.7973318 131.848002,18.648 131.4,18.648 C130.973331,18.648 130.618668,18.8079984 130.336,19.128 C130.053332,19.4480016 129.912,19.8319978 129.912,20.28 L129.912,24.696 C129.912,24.770667 129.882667,24.8399997 129.824,24.904 C129.765333,24.9680003 129.693334,25 129.608,25 L128.024,25 C127.949333,25 127.882667,24.970667 127.824,24.912 C127.765333,24.853333 127.736,24.7813338 127.736,24.696 L127.736,20.328 C127.736,19.8053307 127.610668,19.3946682 127.36,19.096 C127.109332,18.7973318 126.765336,18.648 126.328,18.648 C125.890664,18.648 125.533335,18.8053318 125.256,19.12 C124.978665,19.4346682 124.84,19.8266643 124.84,20.296 L124.84,24.696 C124.84,24.770667 124.810667,24.8399997 124.752,24.904 C124.693333,24.9680003 124.621334,25 124.536,25 Z M144.424,22.856 C144.157332,23.5600035 143.669337,24.1279978 142.96,24.56 C142.250663,24.9920022 141.458671,25.208 140.584,25.208 C139.378661,25.208 138.384004,24.8133373 137.6,24.024 C136.815996,23.2346627 136.424,22.2320061 136.424,21.016 C136.424,19.7999939 136.823996,18.7866707 137.624,17.976 C138.424,17.1653293 139.421327,16.76 140.616,16.76 C141.800006,16.76 142.783996,17.1679959 143.568,17.984 C144.352004,18.8000041 144.744,19.8213272 144.744,21.048 C144.744,21.2293342 144.714667,21.3626662 144.656,21.448 C144.597333,21.5333338 144.504001,21.576 144.376,21.576 L138.872,21.576 C138.808,21.576 138.76,21.5946665 138.728,21.632 C138.696,21.6693335 138.685333,21.7199997 138.696,21.784 C138.749334,22.242669 138.959998,22.6213318 139.328,22.92 C139.696002,23.2186682 140.135997,23.368 140.648,23.368 C140.946668,23.368 141.226665,23.3093339 141.488,23.192 C141.697068,23.0981329 141.883946,22.9701339 142.04864,22.8080004 L142.168,22.68 C142.253334,22.5839995 142.336,22.5173335 142.416,22.48 C142.496,22.4426665 142.584,22.424 142.68,22.424 L144.152,22.424 C144.280001,22.424 144.368,22.4639996 144.416,22.544 C144.464,22.6240004 144.466667,22.7279994 144.424,22.856 Z M138.76,20.056 C138.738667,20.130667 138.738667,20.1866665 138.76,20.224 C138.781333,20.2613335 138.824,20.28 138.888,20.28 L142.264,20.28 C142.317334,20.28 142.357333,20.2666668 142.384,20.24 C142.410667,20.2133332 142.418667,20.1680003 142.408,20.104 C142.322666,19.6666645 142.109335,19.3066681 141.768,19.024 C141.426665,18.7413319 141.032002,18.6 140.584,18.6 C140.157331,18.6 139.773335,18.7359986 139.432,19.008 C139.090665,19.2800014 138.866667,19.6293312 138.76,20.056 Z M149.128,25.08 C148.039995,25.08 147.274669,24.8693354 146.832,24.448 C146.389331,24.0266646 146.168,23.3040051 146.168,22.28 L146.168,14.424 C146.168,14.3386662 146.197333,14.266667 146.256,14.208 C146.314667,14.149333 146.381333,14.12 146.456,14.12 L148.04,14.12 C148.125334,14.12 148.197333,14.149333 148.256,14.208 C148.314667,14.266667 148.344,14.3386662 148.344,14.424 L148.344,22.328 C148.344,22.6053347 148.410666,22.8159993 148.544,22.96 C148.655112,23.0800006 148.808814,23.1500002 149.005111,23.17 L149.128,23.176 C149.213334,23.176 149.285333,23.205333 149.344,23.264 C149.402667,23.322667 149.432,23.3946662 149.432,23.48 L149.432,24.792 C149.432,24.866667 149.402667,24.933333 149.344,24.992 C149.285333,25.050667 149.213334,25.08 149.128,25.08 Z M158.28,14.12 C158.365334,14.12 158.437333,14.149333 158.496,14.208 C158.554667,14.266667 158.584,14.3386662 158.584,14.424 L158.584,22.568 C158.584,22.760001 158.618666,22.9039995 158.688,23 C158.757334,23.0960005 158.861333,23.1493333 159,23.16 C159.074667,23.1706667 159.138666,23.1999998 159.192,23.248 C159.245334,23.2960002 159.272,23.3519997 159.272,23.416 L159.272,24.808 C159.272,24.882667 159.245334,24.9466664 159.192,25 C159.138666,25.0533336 159.074667,25.08 159,25.08 C158.487997,25.08 158.066668,25.0053341 157.736,24.856 C157.405332,24.7066659 157.149334,24.4773349 156.968,24.168 C156.914666,24.0826662 156.858667,24.0373334 156.8,24.032 C156.756,24.028 156.7075,24.0464998 156.6545,24.0874998 L156.6,24.136 C156.183998,24.5200019 155.773335,24.7946658 155.368,24.96 C154.962665,25.1253342 154.514669,25.208 154.024,25.208 C152.925328,25.208 151.99467,24.8000041 151.232,23.984 C150.46933,23.1679959 150.088,22.1680059 150.088,20.984 C150.088,19.7999941 150.474663,18.8000041 151.248,17.984 C152.021337,17.1679959 152.957328,16.76 154.056,16.76 C154.429335,16.76 154.783998,16.8186661 155.12,16.936 C155.456002,17.0533339 155.773332,17.2346654 156.072,17.48 C156.146667,17.5440003 156.221333,17.5626668 156.296,17.536 C156.370667,17.5093332 156.408,17.4426672 156.408,17.336 L156.408,14.424 C156.408,14.3386662 156.437333,14.266667 156.496,14.208 C156.554667,14.149333 156.621333,14.12 156.696,14.12 L158.28,14.12 Z M154.392,18.744 C153.80533,18.744 153.306669,18.9626645 152.896,19.4 C152.485331,19.8373355 152.28,20.3653302 152.28,20.984 C152.28,21.6026698 152.485331,22.1306645 152.896,22.568 C153.306669,23.0053355 153.80533,23.224 154.392,23.224 C154.97867,23.224 155.474665,23.0080022 155.88,22.576 C156.285335,22.1439978 156.488,21.6133365 156.488,20.984 C156.488,20.3546635 156.285335,19.8240022 155.88,19.392 C155.474665,18.9599978 154.97867,18.744 154.392,18.744 Z" id="Betalogtilmeld" fill="#5A78FF" fill-rule="nonzero"></path>
                <g id="Logo-/-Monochrome-/-Icon---MP-Blue" transform="translate(18.599998, 9.000000)" fill="#5A78FF">
                    <g id="Logo_monochrome_lines" transform="translate(0.647059, 0.323529)">
                        <path d="M10.0294118,14.1616609 C11.8215541,13.6154874 13.3377365,13.3408642 14.5779589,13.3377914 C16.6283927,13.3327111 18.3475044,13.7397219 19.7352941,14.5588235 L19.7352941,8.60222539 C18.3404585,7.87995624 16.7644391,7.49440574 15.0072358,7.44557389 C13.2500325,7.39674205 11.5907579,7.75460564 10.0294118,8.51916468 L10.0294118,14.1616609 Z" id="Path-4"></path>
                        <path d="M7.11764706,7.67626863 L9.32948248,12.9411765 L9.32948248,7.89545711 C10.4948405,7.27141609 11.7285529,6.87149072 13.0306196,6.69568101 C14.3326863,6.5198713 15.8126758,6.54821672 17.4705882,6.78071728 L16.267627,3.90650603 C14.5248603,3.79396102 12.864664,4.07473154 11.2870382,4.74881758 C9.7094123,5.42290362 8.31961526,6.39872064 7.11764706,7.67626863 Z" id="Path-4"></path>
                        <path d="M13.9117647,5.51631313 C13.9117647,5.00829462 13.9117647,4.24626686 13.9117647,3.23022985 C13.9117647,2.16094461 13.050212,1.29411765 11.9874328,1.29411765 L5.48315539,1.29411765 C4.42037625,1.29411765 3.55882353,2.16094461 3.55882353,3.23022985 L3.55882353,18.4462407 C3.55882353,19.515526 4.42037625,20.3823529 5.48315539,20.3823529 L11.9874328,20.3823529 C13.050212,20.3823529 13.9117647,19.515526 13.9117647,18.4462407 C13.9117647,17.4826081 13.9117647,16.8538027 13.9117647,16.5598246 C13.6166079,16.4172834 13.3997009,16.315314 13.2610437,16.2539166 C13.1146147,16.1890777 12.9038924,16.1016925 12.6288768,15.9917611 C12.6288768,16.3705593 12.6288768,17.1887191 12.6288768,18.4462407 C12.6288768,18.8026692 12.3416926,19.0916115 11.9874328,19.0916115 L5.48315539,19.0916115 C5.12889568,19.0916115 4.84171144,18.8026692 4.84171144,18.4462407 L4.84171144,3.23022985 C4.84171144,2.87380144 5.12889568,2.58485912 5.48315539,2.58485912 L11.9874328,2.58485912 C12.3416926,2.58485912 12.6288768,2.87380144 12.6288768,3.23022985 L12.6288768,5.54093026 C12.9305556,5.52189711 13.160039,5.51315357 13.3173272,5.51469965 C13.4746154,5.51624573 13.6727612,5.51678356 13.9117647,5.51631313 Z" id="Path-5" fill-rule="nonzero" transform="translate(8.735294, 10.838235) rotate(-22.400000) translate(-8.735294, -10.838235) "></path>
                    </g>
                </g>
            </g>
        </g>
    </g>
</svg>