<?xml version="1.0" encoding="UTF-8"?>
<svg width="92px" height="32px" viewBox="0 0 92 32" version="1.1" xmlns="http://www.w3.org/2000/svg" xmlns:xlink="http://www.w3.org/1999/xlink">
    <!-- Generator: Sketch 58 (84663) - https://sketch.com -->
    <title>danish-disabled-small</title>
    <desc>Created with Sketch.</desc>
    <g id="Subscription-assets" stroke="none" stroke-width="1" fill="none" fill-rule="evenodd">
        <g id="Tilmeld---editable-Copy" transform="translate(-21.000000, -900.000000)">
            <g id="danish-disabled-small" transform="translate(21.000000, 900.000000)">
                <rect id="Background" fill="#DDDDDD" x="0" y="0" width="92" height="32" rx="4"></rect>
                <path d="M38.248,20 L37,20 C36.9439997,20 36.8920002,19.9760002 36.844,19.928 C36.7959998,19.8799998 36.772,19.8280003 36.772,19.772 L36.772,13.532 C36.772,13.4679997 36.7500002,13.4140002 36.706,13.37 C36.6619998,13.3259998 36.6120003,13.304 36.556,13.304 L34.348,13.304 C34.2839997,13.304 34.2300002,13.2820002 34.186,13.238 C34.1419998,13.1939998 34.12,13.1440003 34.12,13.088 L34.12,12.068 C34.12,12.0039997 34.1439998,11.9500002 34.192,11.906 C34.2400002,11.8619998 34.2919997,11.84 34.348,11.84 L40.9,11.84 C40.9640003,11.84 41.0179998,11.8619998 41.062,11.906 C41.1060002,11.9500002 41.128,12.0039997 41.128,12.068 L41.128,13.088 C41.128,13.1440003 41.1060002,13.1939998 41.062,13.238 C41.0179998,13.2820002 40.9640003,13.304 40.9,13.304 L38.692,13.304 C38.6359997,13.304 38.5860002,13.3259998 38.542,13.37 C38.4979998,13.4140002 38.476,13.4679997 38.476,13.532 L38.476,19.772 C38.476,19.8280003 38.4540002,19.8799998 38.41,19.928 C38.3659998,19.9760002 38.3120003,20 38.248,20 Z M43.648,12.404 C43.648,12.6520012 43.5580009,12.8659991 43.378,13.046 C43.1979991,13.2260009 42.9840012,13.316 42.736,13.316 C42.4879988,13.316 42.2740009,13.2260009 42.094,13.046 C41.9139991,12.8659991 41.824,12.6520012 41.824,12.404 C41.824,12.1559988 41.9139991,11.9420009 42.094,11.762 C42.2740009,11.5819991 42.4879988,11.492 42.736,11.492 C42.9840012,11.492 43.1979991,11.5819991 43.378,11.762 C43.5580009,11.9420009 43.648,12.1559988 43.648,12.404 Z M43.312,20 L42.124,20 C42.0679997,20 42.0180002,19.9780002 41.974,19.934 C41.9299998,19.8899998 41.908,19.8360003 41.908,19.772 L41.908,14.204 C41.908,14.1399997 41.9299998,14.0860002 41.974,14.042 C42.0180002,13.9979998 42.0679997,13.976 42.124,13.976 L43.312,13.976 C43.3760003,13.976 43.4299998,13.9979998 43.474,14.042 C43.5180002,14.0860002 43.54,14.1399997 43.54,14.204 L43.54,19.772 C43.54,19.8280003 43.5180002,19.8799998 43.474,19.928 C43.4299998,19.976 43.3760003,20 43.312,20 Z M47.08,20.06 C46.2639959,20.06 45.6900017,19.9020016 45.358,19.586 C45.0259983,19.2699984 44.86,18.7280038 44.86,17.96 L44.86,12.068 C44.86,12.0039997 44.8819998,11.9500002 44.926,11.906 C44.9700002,11.8619998 45.0199997,11.84 45.076,11.84 L46.264,11.84 C46.3280003,11.84 46.3819998,11.8619998 46.426,11.906 C46.4700002,11.9500002 46.492,12.0039997 46.492,12.068 L46.492,17.996 C46.492,18.204001 46.5419995,18.3619995 46.642,18.47 C46.7420005,18.5780005 46.887999,18.632 47.08,18.632 C47.1440003,18.632 47.1979998,18.6539998 47.242,18.698 C47.2860002,18.7420002 47.308,18.7959997 47.308,18.86 L47.308,19.844 C47.308,19.9000003 47.2860002,19.9499998 47.242,19.994 C47.1979998,20.0380002 47.1440003,20.06 47.08,20.06 Z M49.456,20 L48.268,20 C48.2119997,20 48.1620002,19.9780002 48.118,19.934 C48.0739998,19.8899998 48.052,19.8360003 48.052,19.772 L48.052,14.204 C48.052,14.1399997 48.0739998,14.0860002 48.118,14.042 C48.1620002,13.9979998 48.2119997,13.976 48.268,13.976 L49.408,13.976 C49.4720003,13.976 49.5259998,13.9979998 49.57,14.042 C49.6140002,14.0860002 49.636,14.1399997 49.636,14.204 L49.636,14.396 C49.636,14.4680004 49.6619997,14.5099999 49.714,14.522 C49.7530002,14.531 49.7953749,14.5186252 49.8411249,14.4848751 L49.888,14.444 C50.1280012,14.2279989 50.3659988,14.0700005 50.602,13.97 C50.8380012,13.8699995 51.0959986,13.82 51.376,13.82 C51.7280018,13.82 52.0419986,13.8959992 52.318,14.048 C52.5940014,14.2000008 52.835999,14.4279985 53.044,14.732 C53.0760002,14.7800002 53.1079998,14.804 53.14,14.804 C53.1720002,14.804 53.2079998,14.7800002 53.248,14.732 C53.4720011,14.4359985 53.7439984,14.2100008 54.064,14.054 C54.3840016,13.8979992 54.739998,13.82 55.132,13.82 C55.7720032,13.82 56.293998,14.0419978 56.698,14.486 C57.102002,14.9300022 57.304,15.5039965 57.304,16.208 L57.304,19.772 C57.304,19.8280003 57.2820002,19.8799998 57.238,19.928 C57.1939998,19.9760002 57.1400003,20 57.076,20 L55.888,20 C55.8319997,20 55.7820002,19.9780002 55.738,19.934 C55.6939998,19.8899998 55.672,19.8360003 55.672,19.772 L55.672,16.496 C55.672,16.103998 55.5780009,15.7960011 55.39,15.572 C55.2019991,15.3479989 54.9400017,15.236 54.604,15.236 C54.2839984,15.236 54.0180011,15.3559988 53.806,15.596 C53.5939989,15.8360012 53.488,16.1239983 53.488,16.46 L53.488,19.772 C53.488,19.8280003 53.4660002,19.8799998 53.422,19.928 C53.3779998,19.9760002 53.3240003,20 53.26,20 L52.072,20 C52.0159997,20 51.9660002,19.9780002 51.922,19.934 C51.8779998,19.8899998 51.856,19.8360003 51.856,19.772 L51.856,16.496 C51.856,16.103998 51.7620009,15.7960011 51.574,15.572 C51.3859991,15.3479989 51.1280016,15.236 50.8,15.236 C50.4719984,15.236 50.204001,15.3539988 49.996,15.59 C49.787999,15.8260012 49.684,16.1199982 49.684,16.472 L49.684,19.772 C49.684,19.8280003 49.6620002,19.8799998 49.618,19.928 C49.5739998,19.9760002 49.5200003,20 49.456,20 Z M64.372,18.392 C64.171999,18.9200026 63.8060027,19.3459984 63.274,19.67 C62.7419973,19.9940016 62.1480033,20.156 61.492,20.156 C60.5879955,20.156 59.8420029,19.860003 59.254,19.268 C58.6659971,18.675997 58.372,17.9240046 58.372,17.012 C58.372,16.0999954 58.671997,15.340003 59.272,14.732 C59.872,14.123997 60.6199955,13.82 61.516,13.82 C62.4040044,13.82 63.1419971,14.1259969 63.73,14.738 C64.3180029,15.3500031 64.612,16.1159954 64.612,17.036 C64.612,17.1720007 64.5900002,17.2719997 64.546,17.336 C64.5019998,17.4000003 64.4320005,17.432 64.336,17.432 L60.208,17.432 C60.1599998,17.432 60.1240001,17.4459999 60.1,17.474 C60.0759999,17.5020001 60.068,17.5399998 60.076,17.588 C60.1160002,17.9320017 60.2739986,18.2159989 60.55,18.44 C60.8260014,18.6640011 61.1559981,18.776 61.54,18.776 C61.7640011,18.776 61.973999,18.7320004 62.17,18.644 C62.3170007,18.5779997 62.449375,18.4895003 62.5671248,18.3785003 L62.68,18.26 C62.7440003,18.1879996 62.8059997,18.1380001 62.866,18.11 C62.9260003,18.0819999 62.9919996,18.068 63.064,18.068 L64.168,18.068 C64.2640005,18.068 64.3299998,18.0979997 64.366,18.158 C64.4020002,18.2180003 64.4040002,18.2959995 64.372,18.392 Z M60.124,16.292 C60.1079999,16.3480003 60.1079999,16.3899999 60.124,16.418 C60.1400001,16.4460001 60.1719998,16.46 60.22,16.46 L62.752,16.46 C62.7920002,16.46 62.8219999,16.4500001 62.842,16.43 C62.8620001,16.4099999 62.868,16.3760002 62.86,16.328 C62.7959997,15.9999984 62.6360013,15.7300011 62.38,15.518 C62.1239987,15.3059989 61.8280017,15.2 61.492,15.2 C61.1719984,15.2 60.8840013,15.301999 60.628,15.506 C60.3719987,15.710001 60.2040004,15.9719984 60.124,16.292 Z M67.9,20.06 C67.0839959,20.06 66.5100017,19.9020016 66.178,19.586 C65.8459983,19.2699984 65.68,18.7280038 65.68,17.96 L65.68,12.068 C65.68,12.0039997 65.7019998,11.9500002 65.746,11.906 C65.7900002,11.8619998 65.8399997,11.84 65.896,11.84 L67.084,11.84 C67.1480003,11.84 67.2019998,11.8619998 67.246,11.906 C67.2900002,11.9500002 67.312,12.0039997 67.312,12.068 L67.312,17.996 C67.312,18.204001 67.3619995,18.3619995 67.462,18.47 C67.5620005,18.5780005 67.707999,18.632 67.9,18.632 C67.9640003,18.632 68.0179998,18.6539998 68.062,18.698 C68.1060002,18.7420002 68.128,18.7959997 68.128,18.86 L68.128,19.844 C68.128,19.9000003 68.1060002,19.9499998 68.062,19.994 C68.0179998,20.0380002 67.9640003,20.06 67.9,20.06 Z M74.764,11.84 C74.8280003,11.84 74.8819998,11.8619998 74.926,11.906 C74.9700002,11.9500002 74.992,12.0039997 74.992,12.068 L74.992,18.176 C74.992,18.3200007 75.0179997,18.4279996 75.07,18.5 C75.1220003,18.5720004 75.1999995,18.612 75.304,18.62 C75.3600003,18.628 75.4079998,18.6499998 75.448,18.686 C75.4880002,18.7220002 75.508,18.7639998 75.508,18.812 L75.508,19.856 C75.508,19.9120003 75.4880002,19.9599998 75.448,20 C75.4079998,20.0400002 75.3600003,20.06 75.304,20.06 C74.9199981,20.06 74.6040012,20.0040006 74.356,19.892 C74.1079988,19.7799994 73.9160007,19.6080012 73.78,19.376 C73.7399998,19.3119997 73.6980002,19.278 73.654,19.274 C73.6246665,19.2713333 73.5926667,19.2819999 73.5580001,19.3059999 L73.504,19.352 C73.1919984,19.6400014 72.8840015,19.8459994 72.58,19.97 C72.2759985,20.0940006 71.9400018,20.156 71.572,20.156 C70.7479959,20.156 70.0500029,19.8500031 69.478,19.238 C68.9059971,18.6259969 68.62,17.8760044 68.62,16.988 C68.62,16.0999956 68.9099971,15.3500031 69.49,14.738 C70.0700029,14.1259969 70.7719959,13.82 71.596,13.82 C71.8760014,13.82 72.1419987,13.8639996 72.394,13.952 C72.6460013,14.0400004 72.8839989,14.1759991 73.108,14.36 C73.1640003,14.4080002 73.2199997,14.4220001 73.276,14.402 C73.3320003,14.3819999 73.36,14.3320004 73.36,14.252 L73.36,12.068 C73.36,12.0039997 73.3819998,11.9500002 73.426,11.906 C73.4700002,11.8619998 73.5199997,11.84 73.576,11.84 L74.764,11.84 Z M71.848,15.308 C71.4079978,15.308 71.0340015,15.4719984 70.726,15.8 C70.4179985,16.1280016 70.264,16.5239977 70.264,16.988 C70.264,17.4520023 70.4179985,17.8479984 70.726,18.176 C71.0340015,18.5040016 71.4079978,18.668 71.848,18.668 C72.2880022,18.668 72.6599985,18.5060016 72.964,18.182 C73.2680015,17.8579984 73.42,17.4600024 73.42,16.988 C73.42,16.5159976 73.2680015,16.1180016 72.964,15.794 C72.6599985,15.4699984 72.2880022,15.308 71.848,15.308 Z" id="Tilmeld" fill="#FFFFFF" fill-rule="nonzero"></path>
                <g id="Logo-/-Monochrome-/-Icon---White" transform="translate(14.900002, 7.300003)" fill="#FFFFFF">
                    <g id="Logo_monochrome_lines" transform="translate(0.500000, 0.250000)">
                        <path d="M7.75,10.9431016 C9.13483728,10.5210584 10.3064327,10.3088496 11.2647864,10.3064752 C12.8492125,10.3025495 14.1776171,10.6170578 15.25,11.25 L15.25,6.64717416 C14.1721725,6.08905709 12.9543393,5.79113171 11.5965004,5.75339801 C10.2386615,5.71566431 8.95649471,5.99219527 7.75,6.58299089 L7.75,10.9431016 Z" id="Path-4"></path>
                        <path d="M5.5,5.93166212 L7.20914556,10 L7.20914556,6.10103504 C8.10964951,5.61882152 9.06297271,5.30978829 10.0691151,5.17393533 C11.0752576,5.03808237 12.2188859,5.05998565 13.5,5.23964517 L12.5704391,3.01866375 C11.2237557,2.93169716 9.94087675,3.14865619 8.72180222,3.66954086 C7.50272768,4.19042552 6.42879361,4.94446595 5.5,5.93166212 Z" id="Path-4"></path>
                        <path d="M10.75,4.2626056 C10.75,3.87004584 10.75,3.28120621 10.75,2.4960867 C10.75,1.66982083 10.0842547,1 9.26301629,1 L4.23698371,1 C3.41574529,1 2.75,1.66982083 2.75,2.4960867 L2.75,14.2539133 C2.75,15.0801792 3.41574529,15.75 4.23698371,15.75 L9.26301629,15.75 C10.0842547,15.75 10.75,15.0801792 10.75,14.2539133 C10.75,13.5092881 10.75,13.023393 10.75,12.7962281 C10.5219243,12.6860826 10.3543143,12.6072881 10.2471701,12.5598446 C10.1340204,12.5097419 9.97118954,12.442217 9.75867752,12.3572699 C9.75867752,12.6499776 9.75867752,13.2821921 9.75867752,14.2539133 C9.75867752,14.5293353 9.53676243,14.7526089 9.26301629,14.7526089 L4.23698371,14.7526089 C3.96323757,14.7526089 3.74132248,14.5293353 3.74132248,14.2539133 L3.74132248,2.4960867 C3.74132248,2.22066475 3.96323757,1.99739114 4.23698371,1.99739114 L9.26301629,1.99739114 C9.53676243,1.99739114 9.75867752,2.22066475 9.75867752,2.4960867 L9.75867752,4.28162793 C9.99179293,4.26692049 10.1691211,4.26016412 10.2906619,4.26135882 C10.4122028,4.26255352 10.5653155,4.26296911 10.75,4.2626056 Z" id="Path-5" fill-rule="nonzero" transform="translate(6.750000, 8.375000) rotate(-22.400000) translate(-6.750000, -8.375000) "></path>
                    </g>
                </g>
            </g>
        </g>
    </g>
</svg>