<?xml version="1.0" encoding="UTF-8"?>
<svg width="138px" height="48px" viewBox="0 0 138 48" version="1.1" xmlns="http://www.w3.org/2000/svg" xmlns:xlink="http://www.w3.org/1999/xlink">
    <!-- Generator: Sketch 58 (84663) - https://sketch.com -->
    <title>danish-blue-large</title>
    <desc>Created with Sketch.</desc>
    <g id="Subscription-assets" stroke="none" stroke-width="1" fill="none" fill-rule="evenodd">
        <g id="Tilmeld---editable-Copy" transform="translate(-21.000000, -24.000000)">
            <g id="danish-blue-large" transform="translate(21.000000, 24.000000)">
                <rect id="Background" fill="#5A78FF" x="0" y="0" width="138" height="48" rx="4"></rect>
                <path d="M57.372,30 L55.5,30 C55.4159996,30 55.3380004,29.9640004 55.266,29.892 C55.1939996,29.8199996 55.158,29.7420004 55.158,29.658 L55.158,20.298 C55.158,20.2019995 55.1250003,20.1210003 55.059,20.055 C54.9929997,19.9889997 54.9180004,19.956 54.834,19.956 L51.522,19.956 C51.4259995,19.956 51.3450003,19.9230003 51.279,19.857 C51.2129997,19.7909997 51.18,19.7160004 51.18,19.632 L51.18,18.102 C51.18,18.0059995 51.2159996,17.9250003 51.288,17.859 C51.3600004,17.7929997 51.4379996,17.76 51.522,17.76 L61.35,17.76 C61.4460005,17.76 61.5269997,17.7929997 61.593,17.859 C61.6590003,17.9250003 61.692,18.0059995 61.692,18.102 L61.692,19.632 C61.692,19.7160004 61.6590003,19.7909997 61.593,19.857 C61.5269997,19.9230003 61.4460005,19.956 61.35,19.956 L58.038,19.956 C57.9539996,19.956 57.8790003,19.9889997 57.813,20.055 C57.7469997,20.1210003 57.714,20.2019995 57.714,20.298 L57.714,29.658 C57.714,29.7420004 57.6810003,29.8199996 57.615,29.892 C57.5489997,29.9640004 57.4680005,30 57.372,30 Z M65.472,18.606 C65.472,18.9780019 65.3370014,19.2989986 65.067,19.569 C64.7969987,19.8390013 64.4760019,19.974 64.104,19.974 C63.7319981,19.974 63.4110013,19.8390013 63.141,19.569 C62.8709987,19.2989986 62.736,18.9780019 62.736,18.606 C62.736,18.2339981 62.8709987,17.9130013 63.141,17.643 C63.4110013,17.3729986 63.7319981,17.238 64.104,17.238 C64.4760019,17.238 64.7969987,17.3729986 65.067,17.643 C65.3370014,17.9130013 65.472,18.2339981 65.472,18.606 Z M64.968,30 L63.186,30 C63.1019996,30 63.0270003,29.9670003 62.961,29.901 C62.8949997,29.8349997 62.862,29.7540005 62.862,29.658 L62.862,21.306 C62.862,21.2099995 62.8949997,21.1290003 62.961,21.063 C63.0270003,20.9969997 63.1019996,20.964 63.186,20.964 L64.968,20.964 C65.0640005,20.964 65.1449997,20.9969997 65.211,21.063 C65.2770003,21.1290003 65.31,21.2099995 65.31,21.306 L65.31,29.658 C65.31,29.7420004 65.2770003,29.8199996 65.211,29.892 C65.1449997,29.964 65.0640005,30 64.968,30 Z M70.62,30.09 C69.3959939,30.09 68.5350025,29.8530024 68.037,29.379 C67.5389975,28.9049976 67.29,28.0920058 67.29,26.94 L67.29,18.102 C67.29,18.0059995 67.3229997,17.9250003 67.389,17.859 C67.4550003,17.7929997 67.5299996,17.76 67.614,17.76 L69.396,17.76 C69.4920005,17.76 69.5729997,17.7929997 69.639,17.859 C69.7050003,17.9250003 69.738,18.0059995 69.738,18.102 L69.738,26.994 C69.738,27.3060016 69.8129993,27.5429992 69.963,27.705 C70.1130007,27.8670008 70.3319986,27.948 70.62,27.948 C70.7160005,27.948 70.7969997,27.9809997 70.863,28.047 C70.9290003,28.1130003 70.962,28.1939995 70.962,28.29 L70.962,29.766 C70.962,29.8500004 70.9290003,29.9249997 70.863,29.991 C70.7969997,30.0570003 70.7160005,30.09 70.62,30.09 Z M74.184,30 L72.402,30 C72.3179996,30 72.2430003,29.9670003 72.177,29.901 C72.1109997,29.8349997 72.078,29.7540005 72.078,29.658 L72.078,21.306 C72.078,21.2099995 72.1109997,21.1290003 72.177,21.063 C72.2430003,20.9969997 72.3179996,20.964 72.402,20.964 L74.112,20.964 C74.2080005,20.964 74.2889997,20.9969997 74.355,21.063 C74.4210003,21.1290003 74.454,21.2099995 74.454,21.306 L74.454,21.594 C74.454,21.7020005 74.4929996,21.7649999 74.571,21.783 C74.6490004,21.8010001 74.7359995,21.7620005 74.832,21.666 C75.1920018,21.3419984 75.5489982,21.1050008 75.903,20.955 C76.2570018,20.8049992 76.6439979,20.73 77.064,20.73 C77.5920026,20.73 78.0629979,20.8439989 78.477,21.072 C78.8318589,21.2674295 79.1492443,21.5466108 79.4291629,21.9095504 L79.566,22.098 C79.6140002,22.1700004 79.6619998,22.206 79.71,22.206 C79.7580002,22.206 79.8119997,22.1700004 79.872,22.098 C80.2080017,21.6539978 80.6159976,21.3150012 81.096,21.081 C81.5760024,20.8469988 82.1099971,20.73 82.698,20.73 C83.6580048,20.73 84.440997,21.0629967 85.047,21.729 C85.653003,22.3950033 85.956,23.2559947 85.956,24.312 L85.956,29.658 C85.956,29.7420004 85.9230003,29.8199996 85.857,29.892 C85.7909997,29.9640004 85.7100005,30 85.614,30 L83.832,30 C83.7479996,30 83.6730003,29.9670003 83.607,29.901 C83.5409997,29.8349997 83.508,29.7540005 83.508,29.658 L83.508,24.744 C83.508,24.1559971 83.3670014,23.6940017 83.085,23.358 C82.8029986,23.0219983 82.4100025,22.854 81.906,22.854 C81.4259976,22.854 81.0270016,23.0339982 80.709,23.394 C80.3909984,23.7540018 80.232,24.1859975 80.232,24.69 L80.232,29.658 C80.232,29.7420004 80.1990003,29.8199996 80.133,29.892 C80.0669997,29.9640004 79.9860005,30 79.89,30 L78.108,30 C78.0239996,30 77.9490003,29.9670003 77.883,29.901 C77.8169997,29.8349997 77.784,29.7540005 77.784,29.658 L77.784,24.744 C77.784,24.1559971 77.6430014,23.6940017 77.361,23.358 C77.0789986,23.0219983 76.6920025,22.854 76.2,22.854 C75.7079975,22.854 75.3060016,23.0309982 74.994,23.385 C74.6819984,23.7390018 74.526,24.1799974 74.526,24.708 L74.526,29.658 C74.526,29.7420004 74.4930003,29.8199996 74.427,29.892 C74.3609997,29.9640004 74.2800005,30 74.184,30 Z M96.558,27.588 C96.2579985,28.380004 95.709004,29.0189976 94.911,29.505 C94.112996,29.9910024 93.2220049,30.234 92.238,30.234 C90.8819932,30.234 89.7630044,29.7900044 88.881,28.902 C87.9989956,28.0139956 87.558,26.8860068 87.558,25.518 C87.558,24.1499932 88.0079955,23.0100046 88.908,22.098 C89.8080045,21.1859954 90.9299933,20.73 92.274,20.73 C93.6060067,20.73 94.7129956,21.1889954 95.595,22.107 C96.4770044,23.0250046 96.918,24.1739931 96.918,25.554 C96.918,25.758001 96.8850003,25.9079995 96.819,26.004 C96.7529997,26.1000005 96.6480007,26.148 96.504,26.148 L90.312,26.148 C90.2399996,26.148 90.1860002,26.1689998 90.15,26.211 C90.1139998,26.2530002 90.1019999,26.3099996 90.114,26.382 C90.1740003,26.8980026 90.4109979,27.3239983 90.825,27.66 C91.2390021,27.9960017 91.7339971,28.164 92.31,28.164 C92.6460017,28.164 92.9609985,28.0980007 93.255,27.966 C93.4902012,27.8603995 93.7004398,27.7164006 93.8857197,27.5340004 L94.02,27.39 C94.1160005,27.2819995 94.2089996,27.2070002 94.299,27.165 C94.3890004,27.1229998 94.4879995,27.102 94.596,27.102 L96.252,27.102 C96.3960007,27.102 96.4949997,27.1469996 96.549,27.237 C96.6030003,27.3270004 96.6060002,27.4439993 96.558,27.588 Z M90.186,24.438 C90.1619999,24.5220004 90.1619999,24.5849998 90.186,24.627 C90.2100001,24.6690002 90.2579996,24.69 90.33,24.69 L94.128,24.69 C94.1880003,24.69 94.2329998,24.6750001 94.263,24.645 C94.2930002,24.6149999 94.3020001,24.5640004 94.29,24.492 C94.1939995,23.9999975 93.9540019,23.5950016 93.57,23.277 C93.1859981,22.9589984 92.7420025,22.8 92.238,22.8 C91.7579976,22.8 91.3260019,22.9529985 90.942,23.259 C90.5579981,23.5650015 90.3060006,23.9579976 90.186,24.438 Z M101.85,30.09 C100.625994,30.09 99.7650025,29.8530024 99.267,29.379 C98.7689975,28.9049976 98.52,28.0920058 98.52,26.94 L98.52,18.102 C98.52,18.0059995 98.5529997,17.9250003 98.619,17.859 C98.6850003,17.7929997 98.7599996,17.76 98.844,17.76 L100.626,17.76 C100.722,17.76 100.803,17.7929997 100.869,17.859 C100.935,17.9250003 100.968,18.0059995 100.968,18.102 L100.968,26.994 C100.968,27.3060016 101.042999,27.5429992 101.193,27.705 C101.343001,27.8670008 101.561999,27.948 101.85,27.948 C101.946,27.948 102.027,27.9809997 102.093,28.047 C102.159,28.1130003 102.192,28.1939995 102.192,28.29 L102.192,29.766 C102.192,29.8500004 102.159,29.9249997 102.093,29.991 C102.027,30.0570003 101.946,30.09 101.85,30.09 Z M112.146,17.76 C112.242,17.76 112.323,17.7929997 112.389,17.859 C112.455,17.9250003 112.488,18.0059995 112.488,18.102 L112.488,27.264 C112.488,27.4800011 112.527,27.6419995 112.605,27.75 C112.683,27.8580005 112.799999,27.9179999 112.956,27.93 C113.04,27.9420001 113.112,27.9749997 113.172,28.029 C113.232,28.0830003 113.262,28.1459996 113.262,28.218 L113.262,29.784 C113.262,29.8680004 113.232,29.9399997 113.172,30 C113.112,30.0600003 113.04,30.09 112.956,30.09 C112.379997,30.09 111.906002,30.0060008 111.534,29.838 C111.161998,29.6699992 110.874001,29.4120017 110.67,29.064 C110.61,28.9679995 110.547,28.917 110.481,28.911 C110.4315,28.9065 110.376938,28.9273123 110.317313,28.9734373 L110.256,29.028 C109.787998,29.4600022 109.326002,29.7689991 108.87,29.955 C108.413998,30.1410009 107.910003,30.234 107.358,30.234 C106.121994,30.234 105.075004,29.7750046 104.217,28.857 C103.358996,27.9389954 102.93,26.8140067 102.93,25.482 C102.93,24.1499933 103.364996,23.0250046 104.235,22.107 C105.105004,21.1889954 106.157994,20.73 107.394,20.73 C107.814002,20.73 108.212998,20.7959993 108.591,20.928 C108.969002,21.0600007 109.325998,21.2639986 109.662,21.54 C109.746,21.6120004 109.83,21.6330002 109.914,21.603 C109.998,21.5729999 110.04,21.4980006 110.04,21.378 L110.04,18.102 C110.04,18.0059995 110.073,17.9250003 110.139,17.859 C110.205,17.7929997 110.28,17.76 110.364,17.76 L112.146,17.76 Z M107.772,22.962 C107.111997,22.962 106.551002,23.2079975 106.089,23.7 C105.626998,24.1920025 105.396,24.7859965 105.396,25.482 C105.396,26.1780035 105.626998,26.7719975 106.089,27.264 C106.551002,27.7560025 107.111997,28.002 107.772,28.002 C108.432003,28.002 108.989998,27.7590024 109.446,27.273 C109.902002,26.7869976 110.13,26.1900035 110.13,25.482 C110.13,24.7739965 109.902002,24.1770024 109.446,23.691 C108.989998,23.2049976 108.432003,22.962 107.772,22.962 Z" id="Tilmeld" fill="#FFFFFF" fill-rule="nonzero"></path>
                <g id="Logo-/-monochrome-/-symbol-/-white" transform="translate(22.000000, 11.000000)" fill="#FFFFFF">
                    <g id="Logo_monochrome_lines" transform="translate(0.764706, 0.382353)">
                        <path d="M11.8529412,16.7365084 C13.9709276,16.0910306 15.7627795,15.7664759 17.2284968,15.7628444 C19.6517368,15.7568404 21.6834143,16.2378531 23.3235294,17.2058824 L23.3235294,10.1662664 C21.6750873,9.31267556 19.8125189,8.85702497 17.7358241,8.7993146 C15.6591294,8.74160424 13.6981684,9.16453394 11.8529412,10.0681037 L11.8529412,16.7365084 Z" id="Path-4"></path>
                        <path d="M8.41176471,9.07195384 L11.025752,15.2941176 L11.025752,9.33099477 C12.4029934,8.59349174 13.8610171,8.12085267 15.3998232,7.91307756 C16.9386292,7.70530244 18.6877078,7.73880158 20.6470588,8.01357497 L19.2253774,4.61677985 C17.165744,4.48377212 15.2036939,4.81559182 13.3392269,5.61223896 C11.47476,6.4088861 9.83227258,7.56212439 8.41176471,9.07195384 Z" id="Path-4"></path>
                        <path d="M16.4411765,6.51927915 C16.4411765,5.91889364 16.4411765,5.01831538 16.4411765,3.81754437 C16.4411765,2.55384363 15.4229778,1.52941176 14.1669661,1.52941176 L6.48009274,1.52941176 C5.22408102,1.52941176 4.20588235,2.55384363 4.20588235,3.81754437 L4.20588235,21.8001027 C4.20588235,23.0638034 5.22408102,24.0882353 6.48009274,24.0882353 L14.1669661,24.0882353 C15.4229778,24.0882353 16.4411765,23.0638034 16.4411765,21.8001027 C16.4411765,20.6612641 16.4411765,19.9181304 16.4411765,19.5707018 C16.0923547,19.402244 15.8360101,19.2817348 15.6721426,19.2091741 C15.49909,19.1325464 15.2500546,19.029273 14.9250362,18.899354 C14.9250362,19.3470246 14.9250362,20.3139408 14.9250362,21.8001027 C14.9250362,22.2213363 14.5856367,22.5628136 14.1669661,22.5628136 L6.48009274,22.5628136 C6.06142217,22.5628136 5.72202261,22.2213363 5.72202261,21.8001027 L5.72202261,3.81754437 C5.72202261,3.39631079 6.06142217,3.0548335 6.48009274,3.0548335 L14.1669661,3.0548335 C14.5856367,3.0548335 14.9250362,3.39631079 14.9250362,3.81754437 L14.9250362,6.54837213 C15.2815657,6.5258784 15.5527734,6.51554513 15.7386594,6.51737232 C15.9245455,6.5191995 16.1587178,6.51983512 16.4411765,6.51927915 Z" id="Path-5" fill-rule="nonzero" transform="translate(10.323529, 12.808824) rotate(-22.400000) translate(-10.323529, -12.808824) "></path>
                    </g>
                </g>
            </g>
        </g>
    </g>
</svg>