<?xml version="1.0" encoding="UTF-8"?>
<svg width="213px" height="40px" viewBox="0 0 213 40" version="1.1" xmlns="http://www.w3.org/2000/svg" xmlns:xlink="http://www.w3.org/1999/xlink">
    <!-- Generator: Sketch 58 (84663) - https://sketch.com -->
    <title>danish-dark-medium</title>
    <desc>Created with Sketch.</desc>
    <g id="Subscription-assets" stroke="none" stroke-width="1" fill="none" fill-rule="evenodd">
        <g id="Start-betalingsaftale---editable-Copy" transform="translate(-21.000000, -280.000000)">
            <g id="danish-dark-medium" transform="translate(21.000000, 280.000000)">
                <rect id="Background" fill="#3C3246" x="0" y="0" width="213" height="40" rx="4"></rect>
                <path d="M52.344,21.64 C52.344,22.7173387 51.9173376,23.5813301 51.064,24.232 C50.2106624,24.8826699 49.1013402,25.208 47.736,25.208 C46.5093272,25.208 45.4880041,24.904003 44.672,24.296 C43.8559959,23.687997 43.3786674,22.8613386 43.24,21.816 C43.2293333,21.7199995 43.2453331,21.6480002 43.288,21.6 C43.3306669,21.5519998 43.4106661,21.528 43.528,21.528 L45.112,21.528 C45.2186672,21.528 45.301333,21.5493331 45.36,21.592 C45.3991113,21.6204446 45.429926,21.6583703 45.4524445,21.7057776 L45.48,21.784 C45.6186674,22.2320022 45.9119978,22.5999986 46.36,22.888 C46.8080022,23.1760014 47.3253304,23.32 47.912,23.32 C48.5306698,23.32 49.0453313,23.1840014 49.456,22.912 C49.8666687,22.6399986 50.072,22.2906688 50.072,21.864 C50.072,21.4479979 49.8880018,21.1280011 49.52,20.904 C49.1519982,20.6799989 48.3493395,20.4880008 47.112,20.328 C45.7253264,20.1466658 44.7466695,19.8240023 44.176,19.36 C43.6053305,18.8959977 43.32,18.2373376 43.32,17.384 C43.32,16.3706616 43.7253293,15.5386699 44.536,14.888 C45.3466707,14.2373301 46.3919936,13.912 47.672,13.912 C48.8453392,13.912 49.8186628,14.1813306 50.592,14.72 C51.3653372,15.2586694 51.8319992,16.0026619 51.992,16.952 C52.0133334,17.0693339 52.0053335,17.157333 51.968,17.216 C51.9306665,17.274667 51.8586672,17.304 51.752,17.304 L50.168,17.304 C50.0613328,17.304 49.978667,17.2853335 49.92,17.248 C49.861333,17.2106665 49.8160002,17.1386672 49.784,17.032 C49.6133325,16.6479981 49.3333353,16.3493344 48.944,16.136 C48.5546647,15.9226656 48.0880027,15.816 47.544,15.816 C46.9893306,15.816 46.5226686,15.9386654 46.144,16.184 C45.7653314,16.4293346 45.576,16.7279982 45.576,17.08 C45.576,17.4426685 45.7653314,17.727999 46.144,17.936 C46.4882441,18.1250919 47.0859246,18.2811236 47.9370568,18.4040991 L48.2,18.44 C49.6720074,18.632001 50.7306634,18.9839974 51.376,19.496 C52.0213366,20.0080026 52.344,20.7226621 52.344,21.64 Z M57.432,25.08 L57.352,25.08 C56.1679941,25.08 55.2880029,24.8106694 54.712,24.272 C54.1359971,23.7333306 53.848,22.9146722 53.848,21.816 L53.848,19.112 C53.848,19.0266662 53.8213336,18.9573336 53.768,18.904 C53.7146664,18.8506664 53.6453338,18.824 53.56,18.824 L53,18.824 C52.9146662,18.824 52.842667,18.794667 52.784,18.736 C52.725333,18.677333 52.696,18.610667 52.696,18.536 L52.696,17.272 C52.696,17.1866662 52.7279997,17.114667 52.792,17.056 C52.8560003,16.997333 52.925333,16.968 53,16.968 L53.56,16.968 C53.6453338,16.968 53.7146664,16.938667 53.768,16.88 C53.8213336,16.821333 53.848,16.754667 53.848,16.68 L53.848,15.304 C53.848,15.2186662 53.877333,15.146667 53.936,15.088 C53.994667,15.029333 54.061333,15 54.136,15 L55.72,15 C55.8053338,15 55.877333,15.029333 55.936,15.088 C55.994667,15.146667 56.024,15.2186662 56.024,15.304 L56.024,16.68 C56.024,16.754667 56.053333,16.821333 56.112,16.88 C56.170667,16.938667 56.2426662,16.968 56.328,16.968 L57.368,16.968 C57.4533338,16.968 57.525333,16.997333 57.584,17.056 C57.642667,17.114667 57.672,17.1866662 57.672,17.272 L57.672,18.536 C57.672,18.610667 57.642667,18.677333 57.584,18.736 C57.525333,18.794667 57.4533338,18.824 57.368,18.824 L56.328,18.824 C56.253333,18.824 56.1840003,18.853333 56.12,18.912 C56.0559997,18.970667 56.024,19.0426662 56.024,19.128 L56.024,21.8 C56.024,22.2480022 56.1439988,22.5893322 56.384,22.824 C56.6240012,23.0586678 56.973331,23.176 57.432,23.176 C57.506667,23.176 57.5706664,23.1999998 57.624,23.248 C57.6773336,23.2960002 57.704,23.357333 57.704,23.432 L57.704,24.792 C57.704,24.8773338 57.6773336,24.9466664 57.624,25 C57.5706664,25.0533336 57.506667,25.08 57.432,25.08 Z M65.0225001,24.0874998 L64.968,24.136 C64.5519979,24.5200019 64.1413354,24.7946658 63.736,24.96 C63.3306646,25.1253342 62.8826691,25.208 62.392,25.208 C61.2933278,25.208 60.3626705,24.8000041 59.6,23.984 C58.8373295,23.1679959 58.456,22.1680059 58.456,20.984 C58.456,19.7999941 58.8426628,18.8000041 59.616,17.984 C60.3893372,17.1679959 61.3253278,16.76 62.424,16.76 C62.8080019,16.76 63.1679983,16.8239994 63.504,16.952 C63.7728013,17.0544005 64.0501327,17.2079993 64.3359995,17.4127995 L64.552,17.576 C64.626667,17.6400003 64.6959997,17.6666667 64.76,17.656 C64.8240003,17.6453333 64.856,17.5920005 64.856,17.496 L64.856,17.256 C64.856,17.1706662 64.885333,17.1013336 64.944,17.048 C65.002667,16.9946664 65.069333,16.968 65.144,16.968 L66.648,16.968 C66.7333338,16.968 66.805333,16.997333 66.864,17.056 C66.922667,17.114667 66.952,17.1866662 66.952,17.272 L66.952,22.568 C66.952,22.76 66.9866663,22.9039995 67.056,23 C67.1253337,23.0960005 67.2293326,23.1493333 67.368,23.16 C67.442667,23.1706667 67.5066664,23.1999998 67.56,23.248 C67.6133336,23.2960002 67.64,23.3519997 67.64,23.416 L67.64,24.808 C67.64,24.882667 67.6133336,24.9466664 67.56,25 C67.5066664,25.0533336 67.442667,25.08 67.368,25.08 C66.8559974,25.08 66.4346683,25.0053341 66.104,24.856 C65.7733317,24.7066659 65.5173342,24.4773349 65.336,24.168 C65.2826664,24.0826662 65.226667,24.0373334 65.168,24.032 C65.1239998,24.028 65.0755001,24.0464998 65.0225001,24.0874998 L65.0225001,24.0874998 Z M60.648,20.984 C60.648,21.6026698 60.8533313,22.1306645 61.264,22.568 C61.6746687,23.0053355 62.1733304,23.224 62.76,23.224 C63.3466696,23.224 63.8426646,23.0080022 64.248,22.576 C64.6533354,22.1439978 64.856,21.6133365 64.856,20.984 C64.856,20.3546635 64.6533354,19.8240022 64.248,19.392 C63.8426646,18.9599978 63.3466696,18.744 62.76,18.744 C62.1733304,18.744 61.6746687,18.9626645 61.264,19.4 C60.8533313,19.8373355 60.648,20.3653302 60.648,20.984 Z M70.744,25 L69.16,25 C69.085333,25 69.018667,24.970667 68.96,24.912 C68.901333,24.853333 68.872,24.7813338 68.872,24.696 L68.872,17.272 C68.872,17.1866662 68.901333,17.114667 68.96,17.056 C69.018667,16.997333 69.085333,16.968 69.16,16.968 L70.68,16.968 C70.7653338,16.968 70.837333,16.997333 70.896,17.056 C70.954667,17.114667 70.984,17.1866662 70.984,17.272 L70.984,17.592 C70.984,17.6986672 71.021333,17.7599999 71.096,17.776 C71.170667,17.7920001 71.2613328,17.7520005 71.368,17.656 C71.6880016,17.3679986 72.018665,17.1546674 72.36,17.016 C72.701335,16.8773326 73.0639981,16.808 73.448,16.808 C73.5440005,16.808 73.621333,16.8346664 73.68,16.888 C73.738667,16.9413336 73.768,17.0159995 73.768,17.112 L73.768,18.664 C73.768,18.7493338 73.738667,18.821333 73.68,18.88 C73.621333,18.938667 73.554667,18.968 73.48,18.968 C72.6159957,18.968 71.9946686,19.1439982 71.616,19.496 C71.2373314,19.8480018 71.048,20.4133294 71.048,21.192 L71.048,24.696 C71.048,24.770667 71.018667,24.8399997 70.96,24.904 C70.901333,24.9680003 70.8293338,25 70.744,25 Z M78.792,25.08 L78.712,25.08 C77.5279941,25.08 76.6480029,24.8106694 76.072,24.272 C75.4959971,23.7333306 75.208,22.9146722 75.208,21.816 L75.208,19.112 C75.208,19.0266662 75.1813336,18.9573336 75.128,18.904 C75.0746664,18.8506664 75.0053338,18.824 74.92,18.824 L74.36,18.824 C74.2746662,18.824 74.202667,18.794667 74.144,18.736 C74.085333,18.677333 74.056,18.610667 74.056,18.536 L74.056,17.272 C74.056,17.1866662 74.0879997,17.114667 74.152,17.056 C74.2160003,16.997333 74.285333,16.968 74.36,16.968 L74.92,16.968 C75.0053338,16.968 75.0746664,16.938667 75.128,16.88 C75.1813336,16.821333 75.208,16.754667 75.208,16.68 L75.208,15.304 C75.208,15.2186662 75.237333,15.146667 75.296,15.088 C75.354667,15.029333 75.421333,15 75.496,15 L77.08,15 C77.1653338,15 77.237333,15.029333 77.296,15.088 C77.354667,15.146667 77.384,15.2186662 77.384,15.304 L77.384,16.68 C77.384,16.754667 77.413333,16.821333 77.472,16.88 C77.530667,16.938667 77.6026662,16.968 77.688,16.968 L78.728,16.968 C78.8133338,16.968 78.885333,16.997333 78.944,17.056 C79.002667,17.114667 79.032,17.1866662 79.032,17.272 L79.032,18.536 C79.032,18.610667 79.002667,18.677333 78.944,18.736 C78.885333,18.794667 78.8133338,18.824 78.728,18.824 L77.688,18.824 C77.613333,18.824 77.5440003,18.853333 77.48,18.912 C77.4159997,18.970667 77.384,19.0426662 77.384,19.128 L77.384,21.8 C77.384,22.2480022 77.5039988,22.5893322 77.744,22.824 C77.9840012,23.0586678 78.333331,23.176 78.792,23.176 C78.866667,23.176 78.9306664,23.1999998 78.984,23.248 C79.0373336,23.2960002 79.064,23.357333 79.064,23.432 L79.064,24.792 C79.064,24.8773338 79.0373336,24.9466664 78.984,25 C78.9306664,25.0533336 78.866667,25.08 78.792,25.08 Z M91.672,20.984 C91.672,22.1680059 91.2933371,23.1679959 90.536,23.984 C89.7786629,24.8000041 88.8453389,25.208 87.736,25.208 C87.3519981,25.208 86.989335,25.141334 86.648,25.008 C86.306665,24.874666 85.9440019,24.6533349 85.56,24.344 C85.4746662,24.2799997 85.402667,24.2613332 85.344,24.288 C85.285333,24.3146668 85.256,24.3813328 85.256,24.488 L85.256,24.696 C85.256,24.7813338 85.226667,24.853333 85.168,24.912 C85.109333,24.970667 85.042667,25 84.968,25 L83.464,25 C83.389333,25 83.3200003,24.9680003 83.256,24.904 C83.1919997,24.8399997 83.16,24.770667 83.16,24.696 L83.16,14.424 C83.16,14.3386662 83.1919997,14.266667 83.256,14.208 C83.3200003,14.149333 83.389333,14.12 83.464,14.12 L85.048,14.12 C85.122667,14.12 85.189333,14.149333 85.248,14.208 C85.306667,14.266667 85.336,14.3386662 85.336,14.424 L85.336,17.352 C85.336,17.4586672 85.3706663,17.5226666 85.44,17.544 C85.5093337,17.5653334 85.5973328,17.538667 85.704,17.464 C86.0240016,17.2293322 86.3599982,17.0533339 86.712,16.936 C87.0640018,16.8186661 87.4266648,16.76 87.8,16.76 C88.8880054,16.76 89.8053296,17.1679959 90.552,17.984 C91.2986704,18.8000041 91.672,19.7999941 91.672,20.984 Z M85.272,20.984 C85.272,21.6026698 85.4746646,22.1279978 85.88,22.56 C86.2853354,22.9920022 86.7813304,23.208 87.368,23.208 C87.9546696,23.208 88.4559979,22.9920022 88.872,22.56 C89.2880021,22.1279978 89.496,21.6026698 89.496,20.984 C89.496,20.3653302 89.2880021,19.8373355 88.872,19.4 C88.4559979,18.9626645 87.9546696,18.744 87.368,18.744 C86.7919971,18.744 86.2986687,18.9626645 85.888,19.4 C85.4773313,19.8373355 85.272,20.3653302 85.272,20.984 Z M100.776,22.856 C100.509332,23.5600035 100.021337,24.1279978 99.312,24.56 C98.6026631,24.9920022 97.810671,25.208 96.936,25.208 C95.7306606,25.208 94.7360039,24.8133373 93.952,24.024 C93.1679961,23.2346627 92.776,22.2320061 92.776,21.016 C92.776,19.7999939 93.175996,18.7866707 93.976,17.976 C94.776,17.1653293 95.7733274,16.76 96.968,16.76 C98.1520059,16.76 99.1359961,17.1679959 99.92,17.984 C100.704004,18.8000041 101.096,19.8213272 101.096,21.048 C101.096,21.2293342 101.066667,21.3626662 101.008,21.448 C100.949333,21.5333338 100.856001,21.576 100.728,21.576 L95.224,21.576 C95.1599997,21.576 95.1120002,21.5946665 95.08,21.632 C95.0479998,21.6693335 95.0373333,21.7199997 95.048,21.784 C95.1013336,22.242669 95.3119982,22.6213318 95.68,22.92 C96.0480018,23.2186682 96.4879974,23.368 97,23.368 C97.2986682,23.368 97.5786654,23.3093339 97.84,23.192 C98.0490677,23.0981329 98.2359465,22.9701339 98.4006398,22.8080004 L98.52,22.68 C98.6053338,22.5839995 98.6879996,22.5173335 98.768,22.48 C98.8480004,22.4426665 98.9359995,22.424 99.032,22.424 L100.504,22.424 C100.632001,22.424 100.72,22.4639996 100.768,22.544 C100.816,22.6240004 100.818667,22.7279994 100.776,22.856 Z M95.112,20.056 C95.0906666,20.130667 95.0906666,20.1866665 95.112,20.224 C95.1333334,20.2613335 95.1759997,20.28 95.24,20.28 L98.616,20.28 C98.6693336,20.28 98.7093332,20.2666668 98.736,20.24 C98.7626668,20.2133332 98.7706667,20.1680003 98.76,20.104 C98.6746662,19.6666645 98.461335,19.3066681 98.12,19.024 C97.778665,18.7413319 97.3840022,18.6 96.936,18.6 C96.5093312,18.6 96.125335,18.7359986 95.784,19.008 C95.442665,19.2800014 95.2186672,19.6293312 95.112,20.056 Z M106.504,25.08 L106.424,25.08 C105.239994,25.08 104.360003,24.8106694 103.784,24.272 C103.207997,23.7333306 102.92,22.9146722 102.92,21.816 L102.92,19.112 C102.92,19.0266662 102.893334,18.9573336 102.84,18.904 C102.786666,18.8506664 102.717334,18.824 102.632,18.824 L102.072,18.824 C101.986666,18.824 101.914667,18.794667 101.856,18.736 C101.797333,18.677333 101.768,18.610667 101.768,18.536 L101.768,17.272 C101.768,17.1866662 101.8,17.114667 101.864,17.056 C101.928,16.997333 101.997333,16.968 102.072,16.968 L102.632,16.968 C102.717334,16.968 102.786666,16.938667 102.84,16.88 C102.893334,16.821333 102.92,16.754667 102.92,16.68 L102.92,15.304 C102.92,15.2186662 102.949333,15.146667 103.008,15.088 C103.066667,15.029333 103.133333,15 103.208,15 L104.792,15 C104.877334,15 104.949333,15.029333 105.008,15.088 C105.066667,15.146667 105.096,15.2186662 105.096,15.304 L105.096,16.68 C105.096,16.754667 105.125333,16.821333 105.184,16.88 C105.242667,16.938667 105.314666,16.968 105.4,16.968 L106.44,16.968 C106.525334,16.968 106.597333,16.997333 106.656,17.056 C106.714667,17.114667 106.744,17.1866662 106.744,17.272 L106.744,18.536 C106.744,18.610667 106.714667,18.677333 106.656,18.736 C106.597333,18.794667 106.525334,18.824 106.44,18.824 L105.4,18.824 C105.325333,18.824 105.256,18.853333 105.192,18.912 C105.128,18.970667 105.096,19.0426662 105.096,19.128 L105.096,21.8 C105.096,22.2480022 105.215999,22.5893322 105.456,22.824 C105.696001,23.0586678 106.045331,23.176 106.504,23.176 C106.578667,23.176 106.642666,23.1999998 106.696,23.248 C106.749334,23.2960002 106.776,23.357333 106.776,23.432 L106.776,24.792 C106.776,24.8773338 106.749334,24.9466664 106.696,25 C106.642666,25.0533336 106.578667,25.08 106.504,25.08 Z M114.0945,24.0874998 L114.04,24.136 C113.623998,24.5200019 113.213335,24.7946658 112.808,24.96 C112.402665,25.1253342 111.954669,25.208 111.464,25.208 C110.365328,25.208 109.43467,24.8000041 108.672,23.984 C107.90933,23.1679959 107.528,22.1680059 107.528,20.984 C107.528,19.7999941 107.914663,18.8000041 108.688,17.984 C109.461337,17.1679959 110.397328,16.76 111.496,16.76 C111.880002,16.76 112.239998,16.8239994 112.576,16.952 C112.844801,17.0544005 113.122133,17.2079993 113.407999,17.4127995 L113.624,17.576 C113.698667,17.6400003 113.768,17.6666667 113.832,17.656 C113.896,17.6453333 113.928,17.5920005 113.928,17.496 L113.928,17.256 C113.928,17.1706662 113.957333,17.1013336 114.016,17.048 C114.074667,16.9946664 114.141333,16.968 114.216,16.968 L115.72,16.968 C115.805334,16.968 115.877333,16.997333 115.936,17.056 C115.994667,17.114667 116.024,17.1866662 116.024,17.272 L116.024,22.568 C116.024,22.76 116.058666,22.9039995 116.128,23 C116.197334,23.0960005 116.301333,23.1493333 116.44,23.16 C116.514667,23.1706667 116.578666,23.1999998 116.632,23.248 C116.685334,23.2960002 116.712,23.3519997 116.712,23.416 L116.712,24.808 C116.712,24.882667 116.685334,24.9466664 116.632,25 C116.578666,25.0533336 116.514667,25.08 116.44,25.08 C115.927997,25.08 115.506668,25.0053341 115.176,24.856 C114.845332,24.7066659 114.589334,24.4773349 114.408,24.168 C114.354666,24.0826662 114.298667,24.0373334 114.24,24.032 C114.196,24.028 114.1475,24.0464998 114.0945,24.0874998 L114.0945,24.0874998 Z M109.72,20.984 C109.72,21.6026698 109.925331,22.1306645 110.336,22.568 C110.746669,23.0053355 111.24533,23.224 111.832,23.224 C112.41867,23.224 112.914665,23.0080022 113.32,22.576 C113.725335,22.1439978 113.928,21.6133365 113.928,20.984 C113.928,20.3546635 113.725335,19.8240022 113.32,19.392 C112.914665,18.9599978 112.41867,18.744 111.832,18.744 C111.24533,18.744 110.746669,18.9626645 110.336,19.4 C109.925331,19.8373355 109.72,20.3653302 109.72,20.984 Z M120.904,25.08 C119.815995,25.08 119.050669,24.8693354 118.608,24.448 C118.165331,24.0266646 117.944,23.3040051 117.944,22.28 L117.944,14.424 C117.944,14.3386662 117.973333,14.266667 118.032,14.208 C118.090667,14.149333 118.157333,14.12 118.232,14.12 L119.816,14.12 C119.901334,14.12 119.973333,14.149333 120.032,14.208 C120.090667,14.266667 120.12,14.3386662 120.12,14.424 L120.12,22.328 C120.12,22.6053347 120.186666,22.8159993 120.32,22.96 C120.431112,23.0800006 120.584814,23.1500002 120.781111,23.17 L120.904,23.176 C120.989334,23.176 121.061333,23.205333 121.12,23.264 C121.178667,23.322667 121.208,23.3946662 121.208,23.48 L121.208,24.792 C121.208,24.866667 121.178667,24.933333 121.12,24.992 C121.061333,25.050667 120.989334,25.08 120.904,25.08 Z M124.52,14.872 C124.52,15.2026683 124.400001,15.4879988 124.16,15.728 C123.919999,15.9680012 123.634668,16.088 123.304,16.088 C122.973332,16.088 122.688001,15.9680012 122.448,15.728 C122.207999,15.4879988 122.088,15.2026683 122.088,14.872 C122.088,14.5413317 122.207999,14.2560012 122.448,14.016 C122.688001,13.7759988 122.973332,13.656 123.304,13.656 C123.634668,13.656 123.919999,13.7759988 124.16,14.016 C124.400001,14.2560012 124.52,14.5413317 124.52,14.872 Z M124.072,25 L122.488,25 C122.413333,25 122.346667,24.970667 122.288,24.912 C122.229333,24.853333 122.2,24.7813338 122.2,24.696 L122.2,17.272 C122.2,17.1866662 122.229333,17.114667 122.288,17.056 C122.346667,16.997333 122.413333,16.968 122.488,16.968 L124.072,16.968 C124.157334,16.968 124.229333,16.997333 124.288,17.056 C124.346667,17.114667 124.376,17.1866662 124.376,17.272 L124.376,24.696 C124.376,24.770667 124.346667,24.8399997 124.288,24.904 C124.229333,24.968 124.157334,25 124.072,25 Z M128.008,25 L126.424,25 C126.349333,25 126.282667,24.970667 126.224,24.912 C126.165333,24.853333 126.136,24.7813338 126.136,24.696 L126.136,17.272 C126.136,17.1866662 126.165333,17.114667 126.224,17.056 C126.282667,16.997333 126.349333,16.968 126.424,16.968 L127.944,16.968 C128.029334,16.968 128.101333,16.997333 128.16,17.056 C128.218667,17.114667 128.248,17.1866662 128.248,17.272 L128.248,17.432 C128.248,17.5493339 128.282666,17.6213332 128.352,17.648 C128.421334,17.6746668 128.504,17.6453338 128.6,17.56 C128.994669,17.2719986 129.357332,17.0666673 129.688,16.944 C130.018668,16.8213327 130.349332,16.76 130.68,16.76 C131.544004,16.76 132.250664,17.0586637 132.8,17.656 C133.349336,18.2533363 133.624,19.0159954 133.624,19.944 L133.624,24.696 C133.624,24.770667 133.594667,24.8399997 133.536,24.904 C133.477333,24.9680003 133.405334,25 133.32,25 L131.736,25 C131.661333,25 131.594667,24.970667 131.536,24.912 C131.477333,24.853333 131.448,24.7813338 131.448,24.696 L131.448,20.328 C131.448,19.8266642 131.306668,19.4213349 131.024,19.112 C130.741332,18.8026651 130.370669,18.648 129.912,18.648 C129.463998,18.648 129.085335,18.810665 128.776,19.136 C128.466665,19.461335 128.312,19.8479978 128.312,20.296 L128.312,24.696 C128.312,24.770667 128.282667,24.8399997 128.224,24.904 C128.165333,24.9680003 128.093334,25 128.008,25 Z M139.336,28.2 C138.343995,28.2 137.496004,27.9733356 136.792,27.52 C136.087996,27.0666644 135.608001,26.4293374 135.352,25.608 C135.32,25.5119995 135.333333,25.4320003 135.392,25.368 C135.450667,25.3039997 135.543999,25.272 135.672,25.272 L137.208,25.272 C137.304,25.272 137.386666,25.2906665 137.456,25.328 C137.502222,25.352889 137.547259,25.3908147 137.591111,25.4417776 L137.656,25.528 C137.826668,25.794668 138.053332,25.994666 138.336,26.128 C138.618668,26.261334 138.946665,26.328 139.32,26.328 C139.90667,26.328 140.386665,26.1306686 140.76,25.736 C141.133335,25.3413314 141.32,24.8346698 141.32,24.216 L141.32,24.12 C141.32,24.0133328 141.288,23.9466668 141.224,23.92 C141.176,23.8999999 141.119,23.9054998 141.053,23.9364998 L140.984,23.976 C140.599998,24.2213346 140.240002,24.3999994 139.904,24.512 C139.567998,24.6240006 139.245335,24.68 138.936,24.68 C137.826661,24.68 136.901337,24.309337 136.16,23.568 C135.418663,22.826663 135.048,21.885339 135.048,20.744 C135.048,19.5919942 135.423996,18.6400038 136.176,17.888 C136.928004,17.1359962 137.858661,16.76 138.968,16.76 C139.384002,16.76 139.765332,16.8293326 140.112,16.968 C140.389335,17.0789339 140.65472,17.2342393 140.90816,17.4339195 L141.096,17.592 C141.170667,17.666667 141.24,17.6960001 141.304,17.68 C141.368,17.6639999 141.4,17.6080005 141.4,17.512 L141.4,17.256 C141.4,17.1706662 141.429333,17.1013336 141.488,17.048 C141.546667,16.9946664 141.613333,16.968 141.688,16.968 L143.192,16.968 C143.277334,16.968 143.349333,16.997333 143.408,17.056 C143.466667,17.114667 143.496,17.1866662 143.496,17.272 L143.496,24.024 C143.496,25.2293394 143.104004,26.2266627 142.32,27.016 C141.535996,27.8053373 140.541339,28.2 139.336,28.2 Z M137.24,20.824 C137.24,21.4106696 137.439998,21.9013314 137.84,22.296 C138.24,22.6906686 138.73333,22.888 139.32,22.888 C139.917336,22.888 140.413331,22.6933353 140.808,22.304 C141.202669,21.9146647 141.4,21.4213363 141.4,20.824 C141.4,20.215997 141.200002,19.712 140.8,19.312 C140.399998,18.911998 139.90667,18.712 139.32,18.712 C138.73333,18.712 138.24,18.9146646 137.84,19.32 C137.439998,19.7253354 137.24,20.2266637 137.24,20.824 Z M152.056,22.408 C152.056,23.2400042 151.717337,23.9146641 151.04,24.432 C150.362663,24.9493359 149.496005,25.208 148.44,25.208 C147.426662,25.208 146.59467,24.9946688 145.944,24.568 C145.29333,24.1413312 144.925334,23.5760035 144.84,22.872 C144.818667,22.7226659 144.832,22.6240002 144.88,22.576 C144.928,22.5279998 145.010666,22.504 145.128,22.504 L146.584,22.504 C146.690667,22.504 146.776,22.5226665 146.84,22.56 C146.904,22.5973335 146.968,22.6693328 147.032,22.776 C147.202668,23.0853349 147.407999,23.3039994 147.648,23.432 C147.888001,23.5600006 148.183998,23.624 148.536,23.624 C148.941335,23.624 149.274665,23.5360009 149.536,23.36 C149.797335,23.1839991 149.928,22.9680013 149.928,22.712 C149.928,22.4879989 149.818668,22.3146673 149.6,22.192 C149.425066,22.0938662 149.077762,21.9974402 148.558081,21.9027202 L147.709499,21.7614999 C147.312499,21.6924999 147.004001,21.6280003 146.784,21.568 C146.490665,21.4879996 146.237334,21.3893339 146.024,21.272 C145.661332,21.079999 145.394668,20.8346682 145.224,20.536 C145.053332,20.2373318 144.968,19.8800021 144.968,19.464 C144.968,18.6319958 145.279997,17.9733358 145.904,17.488 C146.528003,17.0026642 147.378661,16.76 148.456,16.76 C149.352004,16.76 150.082664,16.9519981 150.648,17.336 C151.213336,17.7200019 151.581332,18.2693298 151.752,18.984 C151.784,19.1226674 151.773334,19.221333 151.72,19.28 C151.666666,19.338667 151.576001,19.368 151.448,19.368 L150.12,19.368 C150.013333,19.368 149.928,19.3493335 149.864,19.312 C149.8,19.2746665 149.741334,19.2080005 149.688,19.112 C149.549333,18.845332 149.376001,18.6506673 149.168,18.528 C148.959999,18.4053327 148.701335,18.344 148.392,18.344 C148.018665,18.344 147.717334,18.4239992 147.488,18.584 C147.258666,18.7440008 147.144,18.9466654 147.144,19.192 C147.144,19.4053344 147.250666,19.5733327 147.464,19.696 C147.677334,19.8186673 148.15733,19.9386661 148.904,20.056 L149.330501,20.1200001 C149.727501,20.1840001 150.035999,20.2479997 150.256,20.312 C150.549335,20.3973338 150.802666,20.4933328 151.016,20.6 C151.368002,20.792001 151.629332,21.0373318 151.8,21.336 C151.970668,21.6346682 152.056,21.9919979 152.056,22.408 Z M159.5345,24.0874998 L159.48,24.136 C159.063998,24.5200019 158.653335,24.7946658 158.248,24.96 C157.842665,25.1253342 157.394669,25.208 156.904,25.208 C155.805328,25.208 154.87467,24.8000041 154.112,23.984 C153.34933,23.1679959 152.968,22.1680059 152.968,20.984 C152.968,19.7999941 153.354663,18.8000041 154.128,17.984 C154.901337,17.1679959 155.837328,16.76 156.936,16.76 C157.320002,16.76 157.679998,16.8239994 158.016,16.952 C158.284801,17.0544005 158.562133,17.2079993 158.847999,17.4127995 L159.064,17.576 C159.138667,17.6400003 159.208,17.6666667 159.272,17.656 C159.336,17.6453333 159.368,17.5920005 159.368,17.496 L159.368,17.256 C159.368,17.1706662 159.397333,17.1013336 159.456,17.048 C159.514667,16.9946664 159.581333,16.968 159.656,16.968 L161.16,16.968 C161.245334,16.968 161.317333,16.997333 161.376,17.056 C161.434667,17.114667 161.464,17.1866662 161.464,17.272 L161.464,22.568 C161.464,22.76 161.498666,22.9039995 161.568,23 C161.637334,23.0960005 161.741333,23.1493333 161.88,23.16 C161.954667,23.1706667 162.018666,23.1999998 162.072,23.248 C162.125334,23.2960002 162.152,23.3519997 162.152,23.416 L162.152,24.808 C162.152,24.882667 162.125334,24.9466664 162.072,25 C162.018666,25.0533336 161.954667,25.08 161.88,25.08 C161.367997,25.08 160.946668,25.0053341 160.616,24.856 C160.285332,24.7066659 160.029334,24.4773349 159.848,24.168 C159.794666,24.0826662 159.738667,24.0373334 159.68,24.032 C159.636,24.028 159.5875,24.0464998 159.5345,24.0874998 L159.5345,24.0874998 Z M155.16,20.984 C155.16,21.6026698 155.365331,22.1306645 155.776,22.568 C156.186669,23.0053355 156.68533,23.224 157.272,23.224 C157.85867,23.224 158.354665,23.0080022 158.76,22.576 C159.165335,22.1439978 159.368,21.6133365 159.368,20.984 C159.368,20.3546635 159.165335,19.8240022 158.76,19.392 C158.354665,18.9599978 157.85867,18.744 157.272,18.744 C156.68533,18.744 156.186669,18.9626645 155.776,19.4 C155.365331,19.8373355 155.16,20.3653302 155.16,20.984 Z M163.784,24.696 L163.784,19.112 C163.784,19.037333 163.754667,18.970667 163.696,18.912 C163.637333,18.853333 163.565334,18.824 163.48,18.824 L162.936,18.824 C162.861333,18.824 162.792,18.7920003 162.728,18.728 C162.664,18.6639997 162.632,18.594667 162.632,18.52 L162.632,17.256 C162.632,17.181333 162.661333,17.114667 162.72,17.056 C162.778667,16.997333 162.850666,16.968 162.936,16.968 L163.496,16.968 C163.592,16.968 163.664,16.9440002 163.712,16.896 C163.76,16.8479998 163.784,16.7760005 163.784,16.68 L163.784,16.632 C163.784,15.6186616 164.06933,14.8666691 164.64,14.376 C165.21067,13.8853309 166.087994,13.64 167.272,13.64 L167.432,13.64 C167.506667,13.64 167.568,13.6666664 167.616,13.72 C167.664,13.7733336 167.688,13.8426662 167.688,13.928 L167.688,15.256 C167.688,15.330667 167.664,15.3946664 167.616,15.448 C167.568,15.5013336 167.506667,15.528 167.432,15.528 C166.930664,15.528 166.560001,15.6159991 166.32,15.792 C166.079999,15.9680009 165.96,16.2319982 165.96,16.584 L165.96,16.632 C165.96,16.7173338 165.994666,16.7946663 166.064,16.864 C166.133334,16.9333337 166.216,16.968 166.312,16.968 L168.216,16.968 C168.301334,16.968 168.370666,16.938667 168.424,16.88 C168.477334,16.821333 168.504,16.754667 168.504,16.68 L168.504,15.304 C168.504,15.2186662 168.533333,15.146667 168.592,15.088 C168.650667,15.029333 168.717333,15 168.792,15 L170.376,15 C170.461334,15 170.533333,15.029333 170.592,15.088 C170.650667,15.146667 170.68,15.2186662 170.68,15.304 L170.68,16.68 C170.68,16.754667 170.709333,16.821333 170.768,16.88 C170.826667,16.938667 170.898666,16.968 170.984,16.968 L172.024,16.968 C172.109334,16.968 172.181333,16.997333 172.24,17.056 C172.298667,17.114667 172.328,17.1866662 172.328,17.272 L172.328,18.536 C172.328,18.610667 172.298667,18.677333 172.24,18.736 C172.181333,18.794667 172.109334,18.824 172.024,18.824 L170.984,18.824 C170.909333,18.824 170.84,18.853333 170.776,18.912 C170.712,18.970667 170.68,19.0426662 170.68,19.128 L170.68,21.8 C170.68,22.258669 170.799999,22.6026655 171.04,22.832 C171.280001,23.0613345 171.634664,23.176 172.104,23.176 C172.178667,23.176 172.24,23.1999998 172.288,23.248 C172.336,23.2960002 172.36,23.357333 172.36,23.432 L172.36,24.792 C172.36,24.8773338 172.333334,24.9466664 172.28,25 C172.226666,25.0533336 172.162667,25.08 172.088,25.08 L171.992,25.08 C170.818661,25.08 169.944003,24.8106694 169.368,24.272 C168.791997,23.7333306 168.504,22.9146722 168.504,21.816 L168.504,19.112 C168.504,19.0266662 168.477334,18.9573336 168.424,18.904 C168.370666,18.8506664 168.301334,18.824 168.216,18.824 L166.264,18.824 C166.178666,18.824 166.106667,18.853333 166.048,18.912 C165.989333,18.970667 165.96,19.037333 165.96,19.112 L165.96,24.696 C165.96,24.770667 165.930667,24.8399997 165.872,24.904 C165.813333,24.9680003 165.741334,25 165.656,25 L164.072,25 C163.997333,25 163.930667,24.970667 163.872,24.912 C163.813333,24.853333 163.784,24.7813338 163.784,24.696 Z M179.6785,24.0874998 L179.624,24.136 C179.207998,24.5200019 178.797335,24.7946658 178.392,24.96 C177.986665,25.1253342 177.538669,25.208 177.048,25.208 C175.949328,25.208 175.01867,24.8000041 174.256,23.984 C173.49333,23.1679959 173.112,22.1680059 173.112,20.984 C173.112,19.7999941 173.498663,18.8000041 174.272,17.984 C175.045337,17.1679959 175.981328,16.76 177.08,16.76 C177.464002,16.76 177.823998,16.8239994 178.16,16.952 C178.428801,17.0544005 178.706133,17.2079993 178.991999,17.4127995 L179.208,17.576 C179.282667,17.6400003 179.352,17.6666667 179.416,17.656 C179.48,17.6453333 179.512,17.5920005 179.512,17.496 L179.512,17.256 C179.512,17.1706662 179.541333,17.1013336 179.6,17.048 C179.658667,16.9946664 179.725333,16.968 179.8,16.968 L181.304,16.968 C181.389334,16.968 181.461333,16.997333 181.52,17.056 C181.578667,17.114667 181.608,17.1866662 181.608,17.272 L181.608,22.568 C181.608,22.76 181.642666,22.9039995 181.712,23 C181.781334,23.0960005 181.885333,23.1493333 182.024,23.16 C182.098667,23.1706667 182.162666,23.1999998 182.216,23.248 C182.269334,23.2960002 182.296,23.3519997 182.296,23.416 L182.296,24.808 C182.296,24.882667 182.269334,24.9466664 182.216,25 C182.162666,25.0533336 182.098667,25.08 182.024,25.08 C181.511997,25.08 181.090668,25.0053341 180.76,24.856 C180.429332,24.7066659 180.173334,24.4773349 179.992,24.168 C179.938666,24.0826662 179.882667,24.0373334 179.824,24.032 C179.78,24.028 179.7315,24.0464998 179.6785,24.0874998 L179.6785,24.0874998 Z M175.304,20.984 C175.304,21.6026698 175.509331,22.1306645 175.92,22.568 C176.330669,23.0053355 176.82933,23.224 177.416,23.224 C178.00267,23.224 178.498665,23.0080022 178.904,22.576 C179.309335,22.1439978 179.512,21.6133365 179.512,20.984 C179.512,20.3546635 179.309335,19.8240022 178.904,19.392 C178.498665,18.9599978 178.00267,18.744 177.416,18.744 C176.82933,18.744 176.330669,18.9626645 175.92,19.4 C175.509331,19.8373355 175.304,20.3653302 175.304,20.984 Z M186.488,25.08 C185.399995,25.08 184.634669,24.8693354 184.192,24.448 C183.749331,24.0266646 183.528,23.3040051 183.528,22.28 L183.528,14.424 C183.528,14.3386662 183.557333,14.266667 183.616,14.208 C183.674667,14.149333 183.741333,14.12 183.816,14.12 L185.4,14.12 C185.485334,14.12 185.557333,14.149333 185.616,14.208 C185.674667,14.266667 185.704,14.3386662 185.704,14.424 L185.704,22.328 C185.704,22.6053347 185.770666,22.8159993 185.904,22.96 C186.015112,23.0800006 186.168814,23.1500002 186.365111,23.17 L186.488,23.176 C186.573334,23.176 186.645333,23.205333 186.704,23.264 C186.762667,23.322667 186.792,23.3946662 186.792,23.48 L186.792,24.792 C186.792,24.866667 186.762667,24.933333 186.704,24.992 C186.645333,25.050667 186.573334,25.08 186.488,25.08 Z M191.64,16.76 C192.824006,16.76 193.807996,17.1679959 194.592,17.984 C195.376004,18.8000041 195.768,19.8213272 195.768,21.048 C195.768,21.2293342 195.738667,21.3626662 195.68,21.448 C195.621333,21.5333338 195.528001,21.576 195.4,21.576 L189.896,21.576 C189.832,21.576 189.784,21.5946665 189.752,21.632 C189.72,21.6693335 189.709333,21.7199997 189.72,21.784 C189.773334,22.242669 189.983998,22.6213318 190.352,22.92 C190.720002,23.2186682 191.159997,23.368 191.672,23.368 C191.970668,23.368 192.250665,23.3093339 192.512,23.192 C192.721068,23.0981329 192.907946,22.9701339 193.07264,22.8080004 L193.192,22.68 C193.277334,22.5839995 193.36,22.5173335 193.44,22.48 C193.52,22.4426665 193.608,22.424 193.704,22.424 L195.176,22.424 C195.304001,22.424 195.392,22.4639996 195.44,22.544 C195.488,22.6240004 195.490667,22.7279994 195.448,22.856 C195.181332,23.5600035 194.693337,24.1279978 193.984,24.56 C193.274663,24.9920022 192.482671,25.208 191.608,25.208 C190.402661,25.208 189.408004,24.8133373 188.624,24.024 C187.839996,23.2346627 187.448,22.2320061 187.448,21.016 C187.448,19.7999939 187.847996,18.7866707 188.648,17.976 C189.448,17.1653293 190.445327,16.76 191.64,16.76 Z M191.608,18.6 C191.181331,18.6 190.797335,18.7359986 190.456,19.008 C190.114665,19.2800014 189.890667,19.6293312 189.784,20.056 C189.762667,20.130667 189.762667,20.1866665 189.784,20.224 C189.805333,20.2613335 189.848,20.28 189.912,20.28 L189.912,20.28 L193.288,20.28 C193.341334,20.28 193.381333,20.2666668 193.408,20.24 C193.434667,20.2133332 193.442667,20.1680003 193.432,20.104 C193.346666,19.6666645 193.133335,19.3066681 192.792,19.024 C192.450665,18.7413319 192.056002,18.6 191.608,18.6 Z" id="Startbetalingsafale" fill="#FFFFFF" fill-rule="nonzero"></path>
                <g id="Logo-/-monochrome-/-symbol-/-white" transform="translate(18.599998, 9.000000)" fill="#FFFFFF">
                    <g id="Logo_monochrome_lines" transform="translate(0.647059, 0.323529)">
                        <path d="M10.0294118,14.1616609 C11.8215541,13.6154874 13.3377365,13.3408642 14.5779589,13.3377914 C16.6283927,13.3327111 18.3475044,13.7397219 19.7352941,14.5588235 L19.7352941,8.60222539 C18.3404585,7.87995624 16.7644391,7.49440574 15.0072358,7.44557389 C13.2500325,7.39674205 11.5907579,7.75460564 10.0294118,8.51916468 L10.0294118,14.1616609 Z" id="Path-4"></path>
                        <path d="M7.11764706,7.67626863 L9.32948248,12.9411765 L9.32948248,7.89545711 C10.4948405,7.27141609 11.7285529,6.87149072 13.0306196,6.69568101 C14.3326863,6.5198713 15.8126758,6.54821672 17.4705882,6.78071728 L16.267627,3.90650603 C14.5248603,3.79396102 12.864664,4.07473154 11.2870382,4.74881758 C9.7094123,5.42290362 8.31961526,6.39872064 7.11764706,7.67626863 Z" id="Path-4"></path>
                        <path d="M13.9117647,5.51631313 C13.9117647,5.00829462 13.9117647,4.24626686 13.9117647,3.23022985 C13.9117647,2.16094461 13.050212,1.29411765 11.9874328,1.29411765 L5.48315539,1.29411765 C4.42037625,1.29411765 3.55882353,2.16094461 3.55882353,3.23022985 L3.55882353,18.4462407 C3.55882353,19.515526 4.42037625,20.3823529 5.48315539,20.3823529 L11.9874328,20.3823529 C13.050212,20.3823529 13.9117647,19.515526 13.9117647,18.4462407 C13.9117647,17.4826081 13.9117647,16.8538027 13.9117647,16.5598246 C13.6166079,16.4172834 13.3997009,16.315314 13.2610437,16.2539166 C13.1146147,16.1890777 12.9038924,16.1016925 12.6288768,15.9917611 C12.6288768,16.3705593 12.6288768,17.1887191 12.6288768,18.4462407 C12.6288768,18.8026692 12.3416926,19.0916115 11.9874328,19.0916115 L5.48315539,19.0916115 C5.12889568,19.0916115 4.84171144,18.8026692 4.84171144,18.4462407 L4.84171144,3.23022985 C4.84171144,2.87380144 5.12889568,2.58485912 5.48315539,2.58485912 L11.9874328,2.58485912 C12.3416926,2.58485912 12.6288768,2.87380144 12.6288768,3.23022985 L12.6288768,5.54093026 C12.9305556,5.52189711 13.160039,5.51315357 13.3173272,5.51469965 C13.4746154,5.51624573 13.6727612,5.51678356 13.9117647,5.51631313 Z" id="Path-5" fill-rule="nonzero" transform="translate(8.735294, 10.838235) rotate(-22.400000) translate(-8.735294, -10.838235) "></path>
                    </g>
                </g>
            </g>
        </g>
    </g>
</svg>