<?xml version="1.0" encoding="UTF-8"?>
<svg width="248px" height="48px" viewBox="0 0 248 48" version="1.1" xmlns="http://www.w3.org/2000/svg" xmlns:xlink="http://www.w3.org/1999/xlink">
    <!-- Generator: Sketch 58 (84663) - https://sketch.com -->
    <title>danish-white-large</title>
    <desc>Created with Sketch.</desc>
    <g id="Subscription-assets" stroke="none" stroke-width="1" fill="none" fill-rule="evenodd">
        <g id="Start-betalingsaftale---editable-Copy" transform="translate(-21.000000, -582.000000)">
            <g id="danish-white-large" transform="translate(21.000000, 582.000000)">
                <rect id="Background" fill="#FFFFFF" x="0" y="0" width="248" height="48" rx="4"></rect>
                <path d="M61.512,26.22 C61.512,27.4320061 61.0320048,28.4039963 60.072,29.136 C59.1119952,29.8680037 57.8640077,30.234 56.328,30.234 C54.9479931,30.234 53.7990046,29.8920034 52.881,29.208 C51.9629954,28.5239966 51.4260008,27.5940059 51.27,26.418 C51.2579999,26.3099995 51.2759998,26.2290003 51.324,26.175 C51.3720002,26.1209997 51.4619993,26.094 51.594,26.094 L53.376,26.094 C53.4960006,26.094 53.5889997,26.1179998 53.655,26.166 C53.7045002,26.2020002 53.7421876,26.2514998 53.7680625,26.3144998 L53.79,26.382 C53.9460008,26.8860025 54.2759975,27.2999984 54.78,27.624 C55.2840025,27.9480016 55.8659967,28.11 56.526,28.11 C57.2220035,28.11 57.8009977,27.9570015 58.263,27.651 C58.7250023,27.3449985 58.956,26.9520024 58.956,26.472 C58.956,26.0039977 58.7490021,25.6440013 58.335,25.392 C57.9761982,25.1735989 57.2501114,24.9822404 56.156722,24.8179202 L55.626,24.744 C54.0659922,24.539999 52.9650032,24.1770026 52.323,23.655 C51.6809968,23.1329974 51.36,22.3920048 51.36,21.432 C51.36,20.2919943 51.8159954,19.3560037 52.728,18.624 C53.6400046,17.8919963 54.8159928,17.526 56.256,17.526 C57.5760066,17.526 58.6709957,17.828997 59.541,18.435 C60.4110043,19.041003 60.9359991,19.8779947 61.116,20.946 C61.1400001,21.0780007 61.1310002,21.1769997 61.089,21.243 C61.0469998,21.3090003 60.9660006,21.342 60.846,21.342 L59.064,21.342 C58.9439994,21.342 58.8510003,21.3210002 58.785,21.279 C58.7189997,21.2369998 58.6680002,21.1560006 58.632,21.036 C58.439999,20.6039978 58.1250022,20.2680012 57.687,20.028 C57.2489978,19.7879988 56.7240031,19.668 56.112,19.668 C55.4879969,19.668 54.9630021,19.8059986 54.537,20.082 C54.1109979,20.3580014 53.898,20.693998 53.898,21.09 C53.898,21.498002 54.1109979,21.8189988 54.537,22.053 C54.927502,22.2675011 55.6078915,22.4441871 56.5781864,22.5830624 L56.85,22.62 C58.5060083,22.8360011 59.6969964,23.2319971 60.423,23.808 C61.1490036,24.3840029 61.512,25.1879948 61.512,26.22 Z M67.236,30.09 L67.146,30.09 C65.8139933,30.09 64.8240032,29.787003 64.176,29.181 C63.5279968,28.574997 63.204,27.6540062 63.204,26.418 L63.204,23.376 C63.204,23.2799995 63.1740003,23.2020003 63.114,23.142 C63.0539997,23.0819997 62.9760005,23.052 62.88,23.052 L62.25,23.052 C62.1539995,23.052 62.0730003,23.0190003 62.007,22.953 C61.9409997,22.8869997 61.908,22.8120004 61.908,22.728 L61.908,21.306 C61.908,21.2099995 61.9439996,21.1290003 62.016,21.063 C62.0880004,20.9969997 62.1659996,20.964 62.25,20.964 L62.88,20.964 C62.9760005,20.964 63.0539997,20.9310003 63.114,20.865 C63.1740003,20.7989997 63.204,20.7240004 63.204,20.64 L63.204,19.092 C63.204,18.9959995 63.2369997,18.9150003 63.303,18.849 C63.3690003,18.7829997 63.4439996,18.75 63.528,18.75 L65.31,18.75 C65.4060005,18.75 65.4869997,18.7829997 65.553,18.849 C65.6190003,18.9150003 65.652,18.9959995 65.652,19.092 L65.652,20.64 C65.652,20.7240004 65.6849997,20.7989997 65.751,20.865 C65.8170003,20.9310003 65.8979995,20.964 65.994,20.964 L67.164,20.964 C67.2600005,20.964 67.3409997,20.9969997 67.407,21.063 C67.4730003,21.1290003 67.506,21.2099995 67.506,21.306 L67.506,22.728 C67.506,22.8120004 67.4730003,22.8869997 67.407,22.953 C67.3409997,23.0190003 67.2600005,23.052 67.164,23.052 L65.994,23.052 C65.9099996,23.052 65.8320004,23.0849997 65.76,23.151 C65.6879996,23.2170003 65.652,23.2979995 65.652,23.394 L65.652,26.4 C65.652,26.9040025 65.7869987,27.2879987 66.057,27.552 C66.3270014,27.8160013 66.7199974,27.948 67.236,27.948 C67.3200004,27.948 67.3919997,27.9749997 67.452,28.029 C67.5120003,28.0830003 67.542,28.1519996 67.542,28.236 L67.542,29.766 C67.542,29.8620005 67.5120003,29.9399997 67.452,30 C67.3919997,30.0600003 67.3200004,30.09 67.236,30.09 Z M75.7753126,28.9734373 L75.714,29.028 C75.2459977,29.4600022 74.7840023,29.7689991 74.328,29.955 C73.8719977,30.1410009 73.3680028,30.234 72.816,30.234 C71.5799938,30.234 70.5330043,29.7750046 69.675,28.857 C68.8169957,27.9389954 68.388,26.8140067 68.388,25.482 C68.388,24.1499933 68.8229957,23.0250046 69.693,22.107 C70.5630043,21.1889954 71.6159938,20.73 72.852,20.73 C73.2840022,20.73 73.6889981,20.8019993 74.067,20.946 C74.3820016,21.0660006 74.7074158,21.2484991 75.0432494,21.4934995 L75.246,21.648 C75.3300004,21.7200004 75.4079996,21.7500001 75.48,21.738 C75.5520004,21.7259999 75.588,21.6660005 75.588,21.558 L75.588,21.288 C75.588,21.1919995 75.6209997,21.1140003 75.687,21.054 C75.7530003,20.9939997 75.8279996,20.964 75.912,20.964 L77.604,20.964 C77.7000005,20.964 77.7809997,20.9969997 77.847,21.063 C77.9130003,21.1290003 77.946,21.2099995 77.946,21.306 L77.946,27.264 C77.946,27.4800011 77.9849996,27.6419995 78.063,27.75 C78.1410004,27.8580005 78.2579992,27.9179999 78.414,27.93 C78.4980004,27.9420001 78.5699997,27.9749997 78.63,28.029 C78.6900003,28.0830003 78.72,28.1459996 78.72,28.218 L78.72,29.784 C78.72,29.8680004 78.6900003,29.9399997 78.63,30 C78.5699997,30.0600003 78.4980004,30.09 78.414,30.09 C77.8379971,30.09 77.3640019,30.0060008 76.992,29.838 C76.6199981,29.6699992 76.332001,29.4120017 76.128,29.064 C76.0679997,28.9679995 76.0050003,28.917 75.939,28.911 C75.8894998,28.9065 75.8349376,28.9273123 75.7753126,28.9734373 L75.7753126,28.9734373 Z M70.854,25.482 C70.854,26.1780035 71.0849977,26.7719975 71.547,27.264 C72.0090023,27.7560025 72.5699967,28.002 73.23,28.002 C73.8900033,28.002 74.4479977,27.7590024 74.904,27.273 C75.3600023,26.7869976 75.588,26.1900035 75.588,25.482 C75.588,24.7739965 75.3600023,24.1770024 74.904,23.691 C74.4479977,23.2049976 73.8900033,22.962 73.23,22.962 C72.5699967,22.962 72.0090023,23.2079975 71.547,23.7 C71.0849977,24.1920025 70.854,24.7859965 70.854,25.482 Z M82.212,30 L80.43,30 C80.3459996,30 80.2710003,29.9670003 80.205,29.901 C80.1389997,29.8349997 80.106,29.7540005 80.106,29.658 L80.106,21.306 C80.106,21.2099995 80.1389997,21.1290003 80.205,21.063 C80.2710003,20.9969997 80.3459996,20.964 80.43,20.964 L82.14,20.964 C82.2360005,20.964 82.3169997,20.9969997 82.383,21.063 C82.4490003,21.1290003 82.482,21.2099995 82.482,21.306 L82.482,21.666 C82.482,21.7860006 82.5239996,21.8549999 82.608,21.873 C82.6920004,21.8910001 82.7939994,21.8460005 82.914,21.738 C83.2740018,21.4139984 83.6459981,21.1740008 84.03,21.018 C84.4140019,20.8619992 84.8219978,20.784 85.254,20.784 C85.3620005,20.784 85.4489997,20.8139997 85.515,20.874 C85.5810003,20.9340003 85.614,21.0179995 85.614,21.126 L85.614,22.872 C85.614,22.9680005 85.5810003,23.0489997 85.515,23.115 C85.4489997,23.1810003 85.3740004,23.214 85.29,23.214 C84.3179951,23.214 83.6190021,23.411998 83.193,23.808 C82.7669979,24.204002 82.554,24.8399956 82.554,25.716 L82.554,29.658 C82.554,29.7420004 82.5210003,29.8199996 82.455,29.892 C82.3889997,29.9640004 82.3080005,30 82.212,30 Z M91.266,30.09 L91.176,30.09 C89.8439933,30.09 88.8540032,29.787003 88.206,29.181 C87.5579968,28.574997 87.234,27.6540062 87.234,26.418 L87.234,23.376 C87.234,23.2799995 87.2040003,23.2020003 87.144,23.142 C87.0839997,23.0819997 87.0060005,23.052 86.91,23.052 L86.28,23.052 C86.1839995,23.052 86.1030003,23.0190003 86.037,22.953 C85.9709997,22.8869997 85.938,22.8120004 85.938,22.728 L85.938,21.306 C85.938,21.2099995 85.9739996,21.1290003 86.046,21.063 C86.1180004,20.9969997 86.1959996,20.964 86.28,20.964 L86.91,20.964 C87.0060005,20.964 87.0839997,20.9310003 87.144,20.865 C87.2040003,20.7989997 87.234,20.7240004 87.234,20.64 L87.234,19.092 C87.234,18.9959995 87.2669997,18.9150003 87.333,18.849 C87.3990003,18.7829997 87.4739996,18.75 87.558,18.75 L89.34,18.75 C89.4360005,18.75 89.5169997,18.7829997 89.583,18.849 C89.6490003,18.9150003 89.682,18.9959995 89.682,19.092 L89.682,20.64 C89.682,20.7240004 89.7149997,20.7989997 89.781,20.865 C89.8470003,20.9310003 89.9279995,20.964 90.024,20.964 L91.194,20.964 C91.2900005,20.964 91.3709997,20.9969997 91.437,21.063 C91.5030003,21.1290003 91.536,21.2099995 91.536,21.306 L91.536,22.728 C91.536,22.8120004 91.5030003,22.8869997 91.437,22.953 C91.3709997,23.0190003 91.2900005,23.052 91.194,23.052 L90.024,23.052 C89.9399996,23.052 89.8620004,23.0849997 89.79,23.151 C89.7179996,23.2170003 89.682,23.2979995 89.682,23.394 L89.682,26.4 C89.682,26.9040025 89.8169987,27.2879987 90.087,27.552 C90.3570014,27.8160013 90.7499974,27.948 91.266,27.948 C91.3500004,27.948 91.4219997,27.9749997 91.482,28.029 C91.5420003,28.0830003 91.572,28.1519996 91.572,28.236 L91.572,29.766 C91.572,29.8620005 91.5420003,29.9399997 91.482,30 C91.4219997,30.0600003 91.3500004,30.09 91.266,30.09 Z M105.756,25.482 C105.756,26.8140067 105.330004,27.9389954 104.478,28.857 C103.625996,29.7750046 102.576006,30.234 101.328,30.234 C100.895998,30.234 100.488002,30.1590008 100.104,30.009 C99.7199981,29.8589993 99.3120022,29.6100017 98.88,29.262 C98.7839995,29.1899996 98.7030003,29.1689998 98.637,29.199 C98.5709997,29.2290001 98.538,29.3039994 98.538,29.424 L98.538,29.658 C98.538,29.7540005 98.5050003,29.8349997 98.439,29.901 C98.3729997,29.9670003 98.2980004,30 98.214,30 L96.522,30 C96.4379996,30 96.3600004,29.9640004 96.288,29.892 C96.2159996,29.8199996 96.18,29.7420004 96.18,29.658 L96.18,18.102 C96.18,18.0059995 96.2159996,17.9250003 96.288,17.859 C96.3600004,17.7929997 96.4379996,17.76 96.522,17.76 L98.304,17.76 C98.3880004,17.76 98.4629997,17.7929997 98.529,17.859 C98.5950003,17.9250003 98.628,18.0059995 98.628,18.102 L98.628,21.396 C98.628,21.5160006 98.6669996,21.5879999 98.745,21.612 C98.8230004,21.6360001 98.9219994,21.6060004 99.042,21.522 C99.4020018,21.2579987 99.779998,21.0600007 100.176,20.928 C100.572002,20.7959993 100.979998,20.73 101.4,20.73 C102.624006,20.73 103.655996,21.1889954 104.496,22.107 C105.336004,23.0250046 105.756,24.1499933 105.756,25.482 Z M98.556,25.482 C98.556,26.1780035 98.7839977,26.7689976 99.24,27.255 C99.6960023,27.7410024 100.253997,27.984 100.914,27.984 C101.574003,27.984 102.137998,27.7410024 102.606,27.255 C103.074002,26.7689976 103.308,26.1780035 103.308,25.482 C103.308,24.7859965 103.074002,24.1920025 102.606,23.7 C102.137998,23.2079975 101.574003,22.962 100.914,22.962 C100.265997,22.962 99.7110023,23.2079975 99.249,23.7 C98.7869977,24.1920025 98.556,24.7859965 98.556,25.482 Z M115.998,27.588 C115.697999,28.380004 115.149004,29.0189976 114.351,29.505 C113.552996,29.9910024 112.662005,30.234 111.678,30.234 C110.321993,30.234 109.203004,29.7900044 108.321,28.902 C107.438996,28.0139956 106.998,26.8860068 106.998,25.518 C106.998,24.1499932 107.447996,23.0100046 108.348,22.098 C109.248005,21.1859954 110.369993,20.73 111.714,20.73 C113.046007,20.73 114.152996,21.1889954 115.035,22.107 C115.917004,23.0250046 116.358,24.1739931 116.358,25.554 C116.358,25.758001 116.325,25.9079995 116.259,26.004 C116.193,26.1000005 116.088001,26.148 115.944,26.148 L109.752,26.148 C109.68,26.148 109.626,26.1689998 109.59,26.211 C109.554,26.2530002 109.542,26.3099996 109.554,26.382 C109.614,26.8980026 109.850998,27.3239983 110.265,27.66 C110.679002,27.9960017 111.173997,28.164 111.75,28.164 C112.086002,28.164 112.400999,28.0980007 112.695,27.966 C112.930201,27.8603995 113.14044,27.7164006 113.32572,27.5340004 L113.46,27.39 C113.556,27.2819995 113.649,27.2070002 113.739,27.165 C113.829,27.1229998 113.927999,27.102 114.036,27.102 L115.692,27.102 C115.836001,27.102 115.935,27.1469996 115.989,27.237 C116.043,27.3270004 116.046,27.4439993 115.998,27.588 Z M109.626,24.438 C109.602,24.5220004 109.602,24.5849998 109.626,24.627 C109.65,24.6690002 109.698,24.69 109.77,24.69 L113.568,24.69 C113.628,24.69 113.673,24.6750001 113.703,24.645 C113.733,24.6149999 113.742,24.5640004 113.73,24.492 C113.634,23.9999975 113.394002,23.5950016 113.01,23.277 C112.625998,22.9589984 112.182003,22.8 111.678,22.8 C111.197998,22.8 110.766002,22.9529985 110.382,23.259 C109.997998,23.5650015 109.746001,23.9579976 109.626,24.438 Z M122.442,30.09 L122.352,30.09 C121.019993,30.09 120.030003,29.787003 119.382,29.181 C118.733997,28.574997 118.41,27.6540062 118.41,26.418 L118.41,23.376 C118.41,23.2799995 118.38,23.2020003 118.32,23.142 C118.26,23.0819997 118.182,23.052 118.086,23.052 L117.456,23.052 C117.36,23.052 117.279,23.0190003 117.213,22.953 C117.147,22.8869997 117.114,22.8120004 117.114,22.728 L117.114,21.306 C117.114,21.2099995 117.15,21.1290003 117.222,21.063 C117.294,20.9969997 117.372,20.964 117.456,20.964 L118.086,20.964 C118.182,20.964 118.26,20.9310003 118.32,20.865 C118.38,20.7989997 118.41,20.7240004 118.41,20.64 L118.41,19.092 C118.41,18.9959995 118.443,18.9150003 118.509,18.849 C118.575,18.7829997 118.65,18.75 118.734,18.75 L120.516,18.75 C120.612,18.75 120.693,18.7829997 120.759,18.849 C120.825,18.9150003 120.858,18.9959995 120.858,19.092 L120.858,20.64 C120.858,20.7240004 120.891,20.7989997 120.957,20.865 C121.023,20.9310003 121.104,20.964 121.2,20.964 L122.37,20.964 C122.466,20.964 122.547,20.9969997 122.613,21.063 C122.679,21.1290003 122.712,21.2099995 122.712,21.306 L122.712,22.728 C122.712,22.8120004 122.679,22.8869997 122.613,22.953 C122.547,23.0190003 122.466,23.052 122.37,23.052 L121.2,23.052 C121.116,23.052 121.038,23.0849997 120.966,23.151 C120.894,23.2170003 120.858,23.2979995 120.858,23.394 L120.858,26.4 C120.858,26.9040025 120.992999,27.2879987 121.263,27.552 C121.533001,27.8160013 121.925997,27.948 122.442,27.948 C122.526,27.948 122.598,27.9749997 122.658,28.029 C122.718,28.0830003 122.748,28.1519996 122.748,28.236 L122.748,29.766 C122.748,29.8620005 122.718,29.9399997 122.658,30 C122.598,30.0600003 122.526,30.09 122.442,30.09 Z M130.981313,28.9734373 L130.92,29.028 C130.451998,29.4600022 129.990002,29.7689991 129.534,29.955 C129.077998,30.1410009 128.574003,30.234 128.022,30.234 C126.785994,30.234 125.739004,29.7750046 124.881,28.857 C124.022996,27.9389954 123.594,26.8140067 123.594,25.482 C123.594,24.1499933 124.028996,23.0250046 124.899,22.107 C125.769004,21.1889954 126.821994,20.73 128.058,20.73 C128.490002,20.73 128.894998,20.8019993 129.273,20.946 C129.588002,21.0660006 129.913416,21.2484991 130.249249,21.4934995 L130.452,21.648 C130.536,21.7200004 130.614,21.7500001 130.686,21.738 C130.758,21.7259999 130.794,21.6660005 130.794,21.558 L130.794,21.288 C130.794,21.1919995 130.827,21.1140003 130.893,21.054 C130.959,20.9939997 131.034,20.964 131.118,20.964 L132.81,20.964 C132.906,20.964 132.987,20.9969997 133.053,21.063 C133.119,21.1290003 133.152,21.2099995 133.152,21.306 L133.152,27.264 C133.152,27.4800011 133.191,27.6419995 133.269,27.75 C133.347,27.8580005 133.463999,27.9179999 133.62,27.93 C133.704,27.9420001 133.776,27.9749997 133.836,28.029 C133.896,28.0830003 133.926,28.1459996 133.926,28.218 L133.926,29.784 C133.926,29.8680004 133.896,29.9399997 133.836,30 C133.776,30.0600003 133.704,30.09 133.62,30.09 C133.043997,30.09 132.570002,30.0060008 132.198,29.838 C131.825998,29.6699992 131.538001,29.4120017 131.334,29.064 C131.274,28.9679995 131.211,28.917 131.145,28.911 C131.0955,28.9065 131.040938,28.9273123 130.981313,28.9734373 L130.981313,28.9734373 Z M126.06,25.482 C126.06,26.1780035 126.290998,26.7719975 126.753,27.264 C127.215002,27.7560025 127.775997,28.002 128.436,28.002 C129.096003,28.002 129.653998,27.7590024 130.11,27.273 C130.566002,26.7869976 130.794,26.1900035 130.794,25.482 C130.794,24.7739965 130.566002,24.1770024 130.11,23.691 C129.653998,23.2049976 129.096003,22.962 128.436,22.962 C127.775997,22.962 127.215002,23.2079975 126.753,23.7 C126.290998,24.1920025 126.06,24.7859965 126.06,25.482 Z M138.642,30.09 C137.417994,30.09 136.557002,29.8530024 136.059,29.379 C135.560998,28.9049976 135.312,28.0920058 135.312,26.94 L135.312,18.102 C135.312,18.0059995 135.345,17.9250003 135.411,17.859 C135.477,17.7929997 135.552,17.76 135.636,17.76 L137.418,17.76 C137.514,17.76 137.595,17.7929997 137.661,17.859 C137.727,17.9250003 137.76,18.0059995 137.76,18.102 L137.76,26.994 C137.76,27.3060016 137.834999,27.5429992 137.985,27.705 C138.135001,27.8670008 138.353999,27.948 138.642,27.948 C138.738,27.948 138.819,27.9809997 138.885,28.047 C138.951,28.1130003 138.984,28.1939995 138.984,28.29 L138.984,29.766 C138.984,29.8500004 138.951,29.9249997 138.885,29.991 C138.819,30.0570003 138.738,30.09 138.642,30.09 Z M142.71,18.606 C142.71,18.9780019 142.575001,19.2989986 142.305,19.569 C142.034999,19.8390013 141.714002,19.974 141.342,19.974 C140.969998,19.974 140.649001,19.8390013 140.379,19.569 C140.108999,19.2989986 139.974,18.9780019 139.974,18.606 C139.974,18.2339981 140.108999,17.9130013 140.379,17.643 C140.649001,17.3729986 140.969998,17.238 141.342,17.238 C141.714002,17.238 142.034999,17.3729986 142.305,17.643 C142.575001,17.9130013 142.71,18.2339981 142.71,18.606 Z M142.206,30 L140.424,30 C140.34,30 140.265,29.9670003 140.199,29.901 C140.133,29.8349997 140.1,29.7540005 140.1,29.658 L140.1,21.306 C140.1,21.2099995 140.133,21.1290003 140.199,21.063 C140.265,20.9969997 140.34,20.964 140.424,20.964 L142.206,20.964 C142.302,20.964 142.383,20.9969997 142.449,21.063 C142.515,21.1290003 142.548,21.2099995 142.548,21.306 L142.548,29.658 C142.548,29.7420004 142.515,29.8199996 142.449,29.892 C142.383,29.964 142.302,30 142.206,30 Z M146.634,30 L144.852,30 C144.768,30 144.693,29.9670003 144.627,29.901 C144.561,29.8349997 144.528,29.7540005 144.528,29.658 L144.528,21.306 C144.528,21.2099995 144.561,21.1290003 144.627,21.063 C144.693,20.9969997 144.768,20.964 144.852,20.964 L146.562,20.964 C146.658,20.964 146.739,20.9969997 146.805,21.063 C146.871,21.1290003 146.904,21.2099995 146.904,21.306 L146.904,21.486 C146.904,21.6180007 146.943,21.6989998 147.021,21.729 C147.099,21.7590001 147.191999,21.7260005 147.3,21.63 C147.744002,21.3059984 148.151998,21.0750007 148.524,20.937 C148.896002,20.7989993 149.267998,20.73 149.64,20.73 C150.612005,20.73 151.406997,21.0659966 152.025,21.738 C152.643003,22.4100034 152.952,23.2679948 152.952,24.312 L152.952,29.658 C152.952,29.7420004 152.919,29.8199996 152.853,29.892 C152.787,29.9640004 152.706,30 152.61,30 L150.828,30 C150.744,30 150.669,29.9670003 150.603,29.901 C150.537,29.8349997 150.504,29.7540005 150.504,29.658 L150.504,24.744 C150.504,24.1799972 150.345002,23.7240017 150.027,23.376 C149.708998,23.0279983 149.292003,22.854 148.776,22.854 C148.271997,22.854 147.846002,23.0369982 147.498,23.403 C147.149998,23.7690018 146.976,24.2039975 146.976,24.708 L146.976,29.658 C146.976,29.7420004 146.943,29.8199996 146.877,29.892 C146.811,29.9640004 146.73,30 146.634,30 Z M159.378,33.6 C158.261994,33.6 157.308004,33.3450026 156.516,32.835 C155.723996,32.3249974 155.184001,31.6080046 154.896,30.684 C154.86,30.5759995 154.875,30.4860004 154.941,30.414 C155.007,30.3419996 155.111999,30.306 155.256,30.306 L156.984,30.306 C157.092001,30.306 157.185,30.3269998 157.263,30.369 C157.3215,30.4005002 157.378312,30.4505623 157.433437,30.5191873 L157.488,30.594 C157.680001,30.8940015 157.934998,31.1189993 158.253,31.269 C158.571002,31.4190008 158.939998,31.494 159.36,31.494 C160.020003,31.494 160.559998,31.2720022 160.98,30.828 C161.400002,30.3839978 161.61,29.8140035 161.61,29.118 L161.61,29.01 C161.61,28.8899994 161.574,28.8150001 161.502,28.785 C161.4444,28.7609999 161.37528,28.7696397 161.29464,28.8109198 L161.232,28.848 C160.799998,29.1240014 160.395002,29.3249994 160.017,29.451 C159.638998,29.5770006 159.276002,29.64 158.928,29.64 C157.679994,29.64 156.639004,29.2230042 155.805,28.389 C154.970996,27.5549958 154.554,26.4960064 154.554,25.212 C154.554,23.9159935 154.976996,22.8450042 155.823,21.999 C156.669004,21.1529958 157.715994,20.73 158.964,20.73 C159.432002,20.73 159.860998,20.8079992 160.251,20.964 C160.641002,21.1200008 161.009998,21.3539984 161.358,21.666 C161.442,21.7500004 161.52,21.7830001 161.592,21.765 C161.664,21.7469999 161.7,21.6840005 161.7,21.576 L161.7,21.288 C161.7,21.1919995 161.733,21.1140003 161.799,21.054 C161.865,20.9939997 161.94,20.964 162.024,20.964 L163.716,20.964 C163.812,20.964 163.893,20.9969997 163.959,21.063 C164.025,21.1290003 164.058,21.2099995 164.058,21.306 L164.058,28.902 C164.058,30.2580068 163.617004,31.3799956 162.735,32.268 C161.852996,33.1560044 160.734007,33.6 159.378,33.6 Z M157.02,25.302 C157.02,25.9620033 157.244998,26.5139978 157.695,26.958 C158.145002,27.4020022 158.699997,27.624 159.36,27.624 C160.032003,27.624 160.589998,27.4050022 161.034,26.967 C161.478002,26.5289978 161.7,25.9740034 161.7,25.302 C161.7,24.6179966 161.475002,24.0510022 161.025,23.601 C160.574998,23.1509977 160.02,22.926 159.36,22.926 C158.699997,22.926 158.145002,23.1539977 157.695,23.61 C157.244998,24.0660023 157.02,24.6299966 157.02,25.302 Z M173.688,27.084 C173.688,28.0200047 173.307004,28.7789971 172.545,29.361 C171.782996,29.9430029 170.808006,30.234 169.62,30.234 C168.479994,30.234 167.544004,29.9940024 166.812,29.514 C166.079996,29.0339976 165.666,28.398004 165.57,27.606 C165.546,27.4379992 165.561,27.3270003 165.615,27.273 C165.669,27.2189997 165.761999,27.192 165.894,27.192 L167.532,27.192 C167.652001,27.192 167.748,27.2129998 167.82,27.255 C167.892,27.2970002 167.964,27.3779994 168.036,27.498 C168.228001,27.8460017 168.458999,28.0919993 168.729,28.236 C168.999001,28.3800007 169.331998,28.452 169.728,28.452 C170.184002,28.452 170.558999,28.353001 170.853,28.155 C171.147001,27.956999 171.294,27.7140014 171.294,27.426 C171.294,27.1739987 171.171001,26.9790007 170.925,26.841 C170.701363,26.7155448 170.227317,26.5925707 169.502852,26.4720745 L168.798186,26.3566873 C168.351561,26.2790624 168.004501,26.2065003 167.757,26.139 C167.426998,26.0489995 167.142001,25.9380007 166.902,25.806 C166.493998,25.5899989 166.194001,25.3140017 166.002,24.978 C165.809999,24.6419983 165.714,24.2400023 165.714,23.772 C165.714,22.8359953 166.064996,22.0950027 166.767,21.549 C167.469004,21.0029973 168.425994,20.73 169.638,20.73 C170.646005,20.73 171.467997,20.9459978 172.104,21.378 C172.740003,21.8100022 173.153999,22.427996 173.346,23.232 C173.382,23.3880008 173.37,23.4989997 173.31,23.565 C173.25,23.6310003 173.148001,23.664 173.004,23.664 L171.51,23.664 C171.389999,23.664 171.294,23.6430002 171.222,23.601 C171.15,23.5589998 171.084,23.4840005 171.024,23.376 C170.867999,23.0759985 170.673001,22.8570007 170.439,22.719 C170.204999,22.5809993 169.914002,22.512 169.566,22.512 C169.145998,22.512 168.807001,22.6019991 168.549,22.782 C168.290999,22.9620009 168.162,23.1899986 168.162,23.466 C168.162,23.7060012 168.281999,23.8949993 168.522,24.033 C168.762001,24.1710007 169.301996,24.3059993 170.142,24.438 L170.621814,24.5100001 C171.068439,24.5820001 171.415499,24.6539996 171.663,24.726 C171.993002,24.8220005 172.277999,24.9299994 172.518,25.05 C172.914002,25.2660011 173.207999,25.5419983 173.4,25.878 C173.592001,26.2140017 173.688,26.6159977 173.688,27.084 Z M182.101313,28.9734373 L182.04,29.028 C181.571998,29.4600022 181.110002,29.7689991 180.654,29.955 C180.197998,30.1410009 179.694003,30.234 179.142,30.234 C177.905994,30.234 176.859004,29.7750046 176.001,28.857 C175.142996,27.9389954 174.714,26.8140067 174.714,25.482 C174.714,24.1499933 175.148996,23.0250046 176.019,22.107 C176.889004,21.1889954 177.941994,20.73 179.178,20.73 C179.610002,20.73 180.014998,20.8019993 180.393,20.946 C180.708002,21.0660006 181.033416,21.2484991 181.369249,21.4934995 L181.572,21.648 C181.656,21.7200004 181.734,21.7500001 181.806,21.738 C181.878,21.7259999 181.914,21.6660005 181.914,21.558 L181.914,21.288 C181.914,21.1919995 181.947,21.1140003 182.013,21.054 C182.079,20.9939997 182.154,20.964 182.238,20.964 L183.93,20.964 C184.026,20.964 184.107,20.9969997 184.173,21.063 C184.239,21.1290003 184.272,21.2099995 184.272,21.306 L184.272,27.264 C184.272,27.4800011 184.311,27.6419995 184.389,27.75 C184.467,27.8580005 184.583999,27.9179999 184.74,27.93 C184.824,27.9420001 184.896,27.9749997 184.956,28.029 C185.016,28.0830003 185.046,28.1459996 185.046,28.218 L185.046,29.784 C185.046,29.8680004 185.016,29.9399997 184.956,30 C184.896,30.0600003 184.824,30.09 184.74,30.09 C184.163997,30.09 183.690002,30.0060008 183.318,29.838 C182.945998,29.6699992 182.658001,29.4120017 182.454,29.064 C182.394,28.9679995 182.331,28.917 182.265,28.911 C182.2155,28.9065 182.160938,28.9273123 182.101313,28.9734373 L182.101313,28.9734373 Z M177.18,25.482 C177.18,26.1780035 177.410998,26.7719975 177.873,27.264 C178.335002,27.7560025 178.895997,28.002 179.556,28.002 C180.216003,28.002 180.773998,27.7590024 181.23,27.273 C181.686002,26.7869976 181.914,26.1900035 181.914,25.482 C181.914,24.7739965 181.686002,24.1770024 181.23,23.691 C180.773998,23.2049976 180.216003,22.962 179.556,22.962 C178.895997,22.962 178.335002,23.2079975 177.873,23.7 C177.410998,24.1920025 177.18,24.7859965 177.18,25.482 Z M186.882,29.658 L186.882,23.376 C186.882,23.2919996 186.849,23.2170003 186.783,23.151 C186.717,23.0849997 186.636,23.052 186.54,23.052 L185.928,23.052 C185.844,23.052 185.766,23.0160004 185.694,22.944 C185.622,22.8719996 185.586,22.7940004 185.586,22.71 L185.586,21.288 C185.586,21.2039996 185.619,21.1290003 185.685,21.063 C185.751,20.9969997 185.832,20.964 185.928,20.964 L186.558,20.964 C186.666001,20.964 186.747,20.9370003 186.801,20.883 C186.855,20.8289997 186.882,20.7480005 186.882,20.64 L186.882,20.586 C186.882,19.4459943 187.202997,18.6000028 187.845,18.048 C188.487003,17.4959972 189.473993,17.22 190.806,17.22 L190.986,17.22 C191.07,17.22 191.139,17.2499997 191.193,17.31 C191.247,17.3700003 191.274,17.4479995 191.274,17.544 L191.274,19.038 C191.274,19.1220004 191.247,19.1939997 191.193,19.254 C191.139,19.3140003 191.07,19.344 190.986,19.344 C190.421997,19.344 190.005001,19.442999 189.735,19.641 C189.464999,19.839001 189.33,20.135998 189.33,20.532 L189.33,20.586 C189.33,20.6820005 189.369,20.7689996 189.447,20.847 C189.525,20.9250004 189.617999,20.964 189.726,20.964 L191.868,20.964 C191.964,20.964 192.042,20.9310003 192.102,20.865 C192.162,20.7989997 192.192,20.7240004 192.192,20.64 L192.192,19.092 C192.192,18.9959995 192.225,18.9150003 192.291,18.849 C192.357,18.7829997 192.432,18.75 192.516,18.75 L194.298,18.75 C194.394,18.75 194.475,18.7829997 194.541,18.849 C194.607,18.9150003 194.64,18.9959995 194.64,19.092 L194.64,20.64 C194.64,20.7240004 194.673,20.7989997 194.739,20.865 C194.805,20.9310003 194.886,20.964 194.982,20.964 L196.152,20.964 C196.248,20.964 196.329,20.9969997 196.395,21.063 C196.461,21.1290003 196.494,21.2099995 196.494,21.306 L196.494,22.728 C196.494,22.8120004 196.461,22.8869997 196.395,22.953 C196.329,23.0190003 196.248,23.052 196.152,23.052 L194.982,23.052 C194.898,23.052 194.82,23.0849997 194.748,23.151 C194.676,23.2170003 194.64,23.2979995 194.64,23.394 L194.64,26.4 C194.64,26.9160026 194.774999,27.3029987 195.045,27.561 C195.315001,27.8190013 195.713997,27.948 196.242,27.948 C196.326,27.948 196.395,27.9749997 196.449,28.029 C196.503,28.0830003 196.53,28.1519996 196.53,28.236 L196.53,29.766 C196.53,29.8620005 196.5,29.9399997 196.44,30 C196.38,30.0600003 196.308,30.09 196.224,30.09 L196.116,30.09 C194.795993,30.09 193.812003,29.787003 193.164,29.181 C192.515997,28.574997 192.192,27.6540062 192.192,26.418 L192.192,23.376 C192.192,23.2799995 192.162,23.2020003 192.102,23.142 C192.042,23.0819997 191.964,23.052 191.868,23.052 L189.672,23.052 C189.576,23.052 189.495,23.0849997 189.429,23.151 C189.363,23.2170003 189.33,23.2919996 189.33,23.376 L189.33,29.658 C189.33,29.7420004 189.297,29.8199996 189.231,29.892 C189.165,29.9640004 189.084,30 188.988,30 L187.206,30 C187.122,30 187.047,29.9670003 186.981,29.901 C186.915,29.8349997 186.882,29.7540005 186.882,29.658 Z M204.763313,28.9734373 L204.702,29.028 C204.233998,29.4600022 203.772002,29.7689991 203.316,29.955 C202.859998,30.1410009 202.356003,30.234 201.804,30.234 C200.567994,30.234 199.521004,29.7750046 198.663,28.857 C197.804996,27.9389954 197.376,26.8140067 197.376,25.482 C197.376,24.1499933 197.810996,23.0250046 198.681,22.107 C199.551004,21.1889954 200.603994,20.73 201.84,20.73 C202.272002,20.73 202.676998,20.8019993 203.055,20.946 C203.370002,21.0660006 203.695416,21.2484991 204.031249,21.4934995 L204.234,21.648 C204.318,21.7200004 204.396,21.7500001 204.468,21.738 C204.54,21.7259999 204.576,21.6660005 204.576,21.558 L204.576,21.288 C204.576,21.1919995 204.609,21.1140003 204.675,21.054 C204.741,20.9939997 204.816,20.964 204.9,20.964 L206.592,20.964 C206.688,20.964 206.769,20.9969997 206.835,21.063 C206.901,21.1290003 206.934,21.2099995 206.934,21.306 L206.934,27.264 C206.934,27.4800011 206.973,27.6419995 207.051,27.75 C207.129,27.8580005 207.245999,27.9179999 207.402,27.93 C207.486,27.9420001 207.558,27.9749997 207.618,28.029 C207.678,28.0830003 207.708,28.1459996 207.708,28.218 L207.708,29.784 C207.708,29.8680004 207.678,29.9399997 207.618,30 C207.558,30.0600003 207.486,30.09 207.402,30.09 C206.825997,30.09 206.352002,30.0060008 205.98,29.838 C205.607998,29.6699992 205.320001,29.4120017 205.116,29.064 C205.056,28.9679995 204.993,28.917 204.927,28.911 C204.8775,28.9065 204.822938,28.9273123 204.763313,28.9734373 L204.763313,28.9734373 Z M199.842,25.482 C199.842,26.1780035 200.072998,26.7719975 200.535,27.264 C200.997002,27.7560025 201.557997,28.002 202.218,28.002 C202.878003,28.002 203.435998,27.7590024 203.892,27.273 C204.348002,26.7869976 204.576,26.1900035 204.576,25.482 C204.576,24.7739965 204.348002,24.1770024 203.892,23.691 C203.435998,23.2049976 202.878003,22.962 202.218,22.962 C201.557997,22.962 200.997002,23.2079975 200.535,23.7 C200.072998,24.1920025 199.842,24.7859965 199.842,25.482 Z M212.424,30.09 C211.199994,30.09 210.339002,29.8530024 209.841,29.379 C209.342998,28.9049976 209.094,28.0920058 209.094,26.94 L209.094,18.102 C209.094,18.0059995 209.127,17.9250003 209.193,17.859 C209.259,17.7929997 209.334,17.76 209.418,17.76 L211.2,17.76 C211.296,17.76 211.377,17.7929997 211.443,17.859 C211.509,17.9250003 211.542,18.0059995 211.542,18.102 L211.542,26.994 C211.542,27.3060016 211.616999,27.5429992 211.767,27.705 C211.917001,27.8670008 212.135999,27.948 212.424,27.948 C212.52,27.948 212.601,27.9809997 212.667,28.047 C212.733,28.1130003 212.766,28.1939995 212.766,28.29 L212.766,29.766 C212.766,29.8500004 212.733,29.9249997 212.667,29.991 C212.601,30.0570003 212.52,30.09 212.424,30.09 Z M218.22,20.73 C219.552007,20.73 220.658996,21.1889954 221.541,22.107 C222.423004,23.0250046 222.864,24.1739931 222.864,25.554 C222.864,25.758001 222.831,25.9079995 222.765,26.004 C222.699,26.1000005 222.594001,26.148 222.45,26.148 L216.258,26.148 C216.186,26.148 216.132,26.1689998 216.096,26.211 C216.06,26.2530002 216.048,26.3099996 216.06,26.382 C216.12,26.8980026 216.356998,27.3239983 216.771,27.66 C217.185002,27.9960017 217.679997,28.164 218.256,28.164 C218.592002,28.164 218.906999,28.0980007 219.201,27.966 C219.436201,27.8603995 219.64644,27.7164006 219.83172,27.5340004 L219.966,27.39 C220.062,27.2819995 220.155,27.2070002 220.245,27.165 C220.335,27.1229998 220.433999,27.102 220.542,27.102 L222.198,27.102 C222.342001,27.102 222.441,27.1469996 222.495,27.237 C222.549,27.3270004 222.552,27.4439993 222.504,27.588 C222.203999,28.380004 221.655004,29.0189976 220.857,29.505 C220.058996,29.9910024 219.168005,30.234 218.184,30.234 C216.827993,30.234 215.709004,29.7900044 214.827,28.902 C213.944996,28.0139956 213.504,26.8860068 213.504,25.518 C213.504,24.1499932 213.953996,23.0100046 214.854,22.098 C215.754005,21.1859954 216.875993,20.73 218.22,20.73 Z M218.184,22.8 C217.703998,22.8 217.272002,22.9529985 216.888,23.259 C216.503998,23.5650015 216.252001,23.9579976 216.132,24.438 C216.108,24.5220004 216.108,24.5849998 216.132,24.627 C216.156,24.6690002 216.204,24.69 216.276,24.69 L216.276,24.69 L220.074,24.69 C220.134,24.69 220.179,24.6750001 220.209,24.645 C220.239,24.6149999 220.248,24.5640004 220.236,24.492 C220.14,23.9999975 219.900002,23.5950016 219.516,23.277 C219.131998,22.9589984 218.688003,22.8 218.184,22.8 Z" id="Startbetalingsafale" fill="#5A78FF" fill-rule="nonzero"></path>
                <g id="Logo-/-Monochrome-/-Icon---MP-Blue" transform="translate(22.000000, 11.000000)" fill="#5A78FF">
                    <g id="Logo_monochrome_lines" transform="translate(0.764706, 0.382353)">
                        <path d="M11.8529412,16.7365084 C13.9709276,16.0910306 15.7627795,15.7664759 17.2284968,15.7628444 C19.6517368,15.7568404 21.6834143,16.2378531 23.3235294,17.2058824 L23.3235294,10.1662664 C21.6750873,9.31267556 19.8125189,8.85702497 17.7358241,8.7993146 C15.6591294,8.74160424 13.6981684,9.16453394 11.8529412,10.0681037 L11.8529412,16.7365084 Z" id="Path-4"></path>
                        <path d="M8.41176471,9.07195384 L11.025752,15.2941176 L11.025752,9.33099477 C12.4029934,8.59349174 13.8610171,8.12085267 15.3998232,7.91307756 C16.9386292,7.70530244 18.6877078,7.73880158 20.6470588,8.01357497 L19.2253774,4.61677985 C17.165744,4.48377212 15.2036939,4.81559182 13.3392269,5.61223896 C11.47476,6.4088861 9.83227258,7.56212439 8.41176471,9.07195384 Z" id="Path-4"></path>
                        <path d="M16.4411765,6.51927915 C16.4411765,5.91889364 16.4411765,5.01831538 16.4411765,3.81754437 C16.4411765,2.55384363 15.4229778,1.52941176 14.1669661,1.52941176 L6.48009274,1.52941176 C5.22408102,1.52941176 4.20588235,2.55384363 4.20588235,3.81754437 L4.20588235,21.8001027 C4.20588235,23.0638034 5.22408102,24.0882353 6.48009274,24.0882353 L14.1669661,24.0882353 C15.4229778,24.0882353 16.4411765,23.0638034 16.4411765,21.8001027 C16.4411765,20.6612641 16.4411765,19.9181304 16.4411765,19.5707018 C16.0923547,19.402244 15.8360101,19.2817348 15.6721426,19.2091741 C15.49909,19.1325464 15.2500546,19.029273 14.9250362,18.899354 C14.9250362,19.3470246 14.9250362,20.3139408 14.9250362,21.8001027 C14.9250362,22.2213363 14.5856367,22.5628136 14.1669661,22.5628136 L6.48009274,22.5628136 C6.06142217,22.5628136 5.72202261,22.2213363 5.72202261,21.8001027 L5.72202261,3.81754437 C5.72202261,3.39631079 6.06142217,3.0548335 6.48009274,3.0548335 L14.1669661,3.0548335 C14.5856367,3.0548335 14.9250362,3.39631079 14.9250362,3.81754437 L14.9250362,6.54837213 C15.2815657,6.5258784 15.5527734,6.51554513 15.7386594,6.51737232 C15.9245455,6.5191995 16.1587178,6.51983512 16.4411765,6.51927915 Z" id="Path-5" fill-rule="nonzero" transform="translate(10.323529, 12.808824) rotate(-22.400000) translate(-10.323529, -12.808824) "></path>
                    </g>
                </g>
            </g>
        </g>
    </g>
</svg>