<?xml version="1.0" encoding="UTF-8"?>
<svg width="119px" height="40px" viewBox="0 0 119 40" version="1.1" xmlns="http://www.w3.org/2000/svg" xmlns:xlink="http://www.w3.org/1999/xlink">
    <!-- Generator: Sketch 58 (84663) - https://sketch.com -->
    <title>danish-white-medium</title>
    <desc>Created with Sketch.</desc>
    <g id="Subscription-assets" stroke="none" stroke-width="1" fill="none" fill-rule="evenodd">
        <g id="Tilmeld---editable-Copy" transform="translate(-21.000000, -652.000000)">
            <g id="danish-white-medium" transform="translate(21.000000, 652.000000)">
                <rect id="Background" fill="#FFFFFF" x="0" y="0" width="119" height="40" rx="4"></rect>
                <path d="M48.664,25 L47,25 C46.925333,25 46.8560003,24.9680003 46.792,24.904 C46.7279997,24.8399997 46.696,24.770667 46.696,24.696 L46.696,16.376 C46.696,16.2906662 46.666667,16.218667 46.608,16.16 C46.549333,16.101333 46.482667,16.072 46.408,16.072 L43.464,16.072 C43.3786662,16.072 43.306667,16.042667 43.248,15.984 C43.189333,15.925333 43.16,15.858667 43.16,15.784 L43.16,14.424 C43.16,14.3386662 43.1919997,14.266667 43.256,14.208 C43.3200003,14.149333 43.389333,14.12 43.464,14.12 L52.2,14.12 C52.2853338,14.12 52.357333,14.149333 52.416,14.208 C52.474667,14.266667 52.504,14.3386662 52.504,14.424 L52.504,15.784 C52.504,15.858667 52.474667,15.925333 52.416,15.984 C52.357333,16.042667 52.2853338,16.072 52.2,16.072 L49.256,16.072 C49.181333,16.072 49.114667,16.101333 49.056,16.16 C48.997333,16.218667 48.968,16.2906662 48.968,16.376 L48.968,24.696 C48.968,24.770667 48.938667,24.8399997 48.88,24.904 C48.821333,24.9680003 48.7493338,25 48.664,25 Z M55.864,14.872 C55.864,15.2026683 55.7440012,15.4879988 55.504,15.728 C55.2639988,15.9680012 54.9786683,16.088 54.648,16.088 C54.3173317,16.088 54.0320012,15.9680012 53.792,15.728 C53.5519988,15.4879988 53.432,15.2026683 53.432,14.872 C53.432,14.5413317 53.5519988,14.2560012 53.792,14.016 C54.0320012,13.7759988 54.3173317,13.656 54.648,13.656 C54.9786683,13.656 55.2639988,13.7759988 55.504,14.016 C55.7440012,14.2560012 55.864,14.5413317 55.864,14.872 Z M55.416,25 L53.832,25 C53.757333,25 53.690667,24.970667 53.632,24.912 C53.573333,24.853333 53.544,24.7813338 53.544,24.696 L53.544,17.272 C53.544,17.1866662 53.573333,17.114667 53.632,17.056 C53.690667,16.997333 53.757333,16.968 53.832,16.968 L55.416,16.968 C55.5013338,16.968 55.573333,16.997333 55.632,17.056 C55.690667,17.114667 55.72,17.1866662 55.72,17.272 L55.72,24.696 C55.72,24.770667 55.690667,24.8399997 55.632,24.904 C55.573333,24.968 55.5013338,25 55.416,25 Z M60.44,25.08 C59.3519946,25.08 58.5866689,24.8693354 58.144,24.448 C57.7013311,24.0266646 57.48,23.3040051 57.48,22.28 L57.48,14.424 C57.48,14.3386662 57.509333,14.266667 57.568,14.208 C57.626667,14.149333 57.693333,14.12 57.768,14.12 L59.352,14.12 C59.4373338,14.12 59.509333,14.149333 59.568,14.208 C59.626667,14.266667 59.656,14.3386662 59.656,14.424 L59.656,22.328 C59.656,22.6053347 59.722666,22.8159993 59.856,22.96 C59.9671117,23.0800006 60.1208141,23.1500002 60.3171107,23.17 L60.44,23.176 C60.5253338,23.176 60.597333,23.205333 60.656,23.264 C60.714667,23.322667 60.744,23.3946662 60.744,23.48 L60.744,24.792 C60.744,24.866667 60.714667,24.933333 60.656,24.992 C60.597333,25.050667 60.5253338,25.08 60.44,25.08 Z M63.608,25 L62.024,25 C61.949333,25 61.882667,24.970667 61.824,24.912 C61.765333,24.853333 61.736,24.7813338 61.736,24.696 L61.736,17.272 C61.736,17.1866662 61.765333,17.114667 61.824,17.056 C61.882667,16.997333 61.949333,16.968 62.024,16.968 L63.544,16.968 C63.6293338,16.968 63.701333,16.997333 63.76,17.056 C63.818667,17.114667 63.848,17.1866662 63.848,17.272 L63.848,17.528 C63.848,17.6240005 63.8826663,17.6799999 63.952,17.696 C64.0040003,17.7080001 64.0604999,17.6915003 64.1214999,17.6465002 L64.184,17.592 C64.5040016,17.3039986 64.8213318,17.093334 65.136,16.96 C65.4506682,16.826666 65.7946648,16.76 66.168,16.76 C66.6373357,16.76 67.0559982,16.8613323 67.424,17.064 C67.7306682,17.2328897 68.0058514,17.472147 68.2495552,17.7817771 L68.392,17.976 C68.4346669,18.0400003 68.4773331,18.072 68.52,18.072 C68.5626669,18.072 68.6106664,18.0400003 68.664,17.976 C68.9626682,17.5813314 69.3253312,17.280001 69.752,17.072 C70.1786688,16.863999 70.6533307,16.76 71.176,16.76 C72.0293376,16.76 72.7253306,17.055997 73.264,17.648 C73.8026694,18.240003 74.072,19.0053286 74.072,19.944 L74.072,24.696 C74.072,24.770667 74.042667,24.8399997 73.984,24.904 C73.925333,24.9680003 73.8533338,25 73.768,25 L72.184,25 C72.109333,25 72.042667,24.970667 71.984,24.912 C71.925333,24.853333 71.896,24.7813338 71.896,24.696 L71.896,20.328 C71.896,19.8053307 71.7706679,19.3946682 71.52,19.096 C71.2693321,18.7973318 70.9200022,18.648 70.472,18.648 C70.0453312,18.648 69.6906681,18.8079984 69.408,19.128 C69.1253319,19.4480016 68.984,19.8319978 68.984,20.28 L68.984,24.696 C68.984,24.770667 68.954667,24.8399997 68.896,24.904 C68.837333,24.9680003 68.7653338,25 68.68,25 L67.096,25 C67.021333,25 66.954667,24.970667 66.896,24.912 C66.837333,24.853333 66.808,24.7813338 66.808,24.696 L66.808,20.328 C66.808,19.8053307 66.6826679,19.3946682 66.432,19.096 C66.1813321,18.7973318 65.8373355,18.648 65.4,18.648 C64.9626645,18.648 64.6053347,18.8053318 64.328,19.12 C64.0506653,19.4346682 63.912,19.8266643 63.912,20.296 L63.912,24.696 C63.912,24.770667 63.882667,24.8399997 63.824,24.904 C63.765333,24.9680003 63.6933338,25 63.608,25 Z M83.496,22.856 C83.229332,23.5600035 82.7413369,24.1279978 82.032,24.56 C81.3226631,24.9920022 80.530671,25.208 79.656,25.208 C78.4506606,25.208 77.4560039,24.8133373 76.672,24.024 C75.8879961,23.2346627 75.496,22.2320061 75.496,21.016 C75.496,19.7999939 75.895996,18.7866707 76.696,17.976 C77.496,17.1653293 78.4933274,16.76 79.688,16.76 C80.8720059,16.76 81.8559961,17.1679959 82.64,17.984 C83.4240039,18.8000041 83.816,19.8213272 83.816,21.048 C83.816,21.2293342 83.786667,21.3626662 83.728,21.448 C83.669333,21.5333338 83.5760006,21.576 83.448,21.576 L77.944,21.576 C77.8799997,21.576 77.8320002,21.5946665 77.8,21.632 C77.7679998,21.6693335 77.7573333,21.7199997 77.768,21.784 C77.8213336,22.242669 78.0319982,22.6213318 78.4,22.92 C78.7680018,23.2186682 79.2079974,23.368 79.72,23.368 C80.0186682,23.368 80.2986654,23.3093339 80.56,23.192 C80.7690677,23.0981329 80.9559465,22.9701339 81.1206398,22.8080004 L81.24,22.68 C81.3253338,22.5839995 81.4079996,22.5173335 81.488,22.48 C81.5680004,22.4426665 81.6559995,22.424 81.752,22.424 L83.224,22.424 C83.3520006,22.424 83.4399998,22.4639996 83.488,22.544 C83.5360002,22.6240004 83.5386669,22.7279994 83.496,22.856 Z M77.832,20.056 C77.8106666,20.130667 77.8106666,20.1866665 77.832,20.224 C77.8533334,20.2613335 77.8959997,20.28 77.96,20.28 L81.336,20.28 C81.3893336,20.28 81.4293332,20.2666668 81.456,20.24 C81.4826668,20.2133332 81.4906667,20.1680003 81.48,20.104 C81.3946662,19.6666645 81.181335,19.3066681 80.84,19.024 C80.498665,18.7413319 80.1040022,18.6 79.656,18.6 C79.2293312,18.6 78.845335,18.7359986 78.504,19.008 C78.162665,19.2800014 77.9386672,19.6293312 77.832,20.056 Z M88.2,25.08 C87.1119946,25.08 86.3466689,24.8693354 85.904,24.448 C85.4613311,24.0266646 85.24,23.3040051 85.24,22.28 L85.24,14.424 C85.24,14.3386662 85.269333,14.266667 85.328,14.208 C85.386667,14.149333 85.453333,14.12 85.528,14.12 L87.112,14.12 C87.1973338,14.12 87.269333,14.149333 87.328,14.208 C87.386667,14.266667 87.416,14.3386662 87.416,14.424 L87.416,22.328 C87.416,22.6053347 87.482666,22.8159993 87.616,22.96 C87.7271117,23.0800006 87.8808141,23.1500002 88.0771107,23.17 L88.2,23.176 C88.2853338,23.176 88.357333,23.205333 88.416,23.264 C88.474667,23.322667 88.504,23.3946662 88.504,23.48 L88.504,24.792 C88.504,24.866667 88.474667,24.933333 88.416,24.992 C88.357333,25.050667 88.2853338,25.08 88.2,25.08 Z M97.352,14.12 C97.4373338,14.12 97.509333,14.149333 97.568,14.208 C97.626667,14.266667 97.656,14.3386662 97.656,14.424 L97.656,22.568 C97.656,22.760001 97.6906663,22.9039995 97.76,23 C97.8293337,23.0960005 97.9333326,23.1493333 98.072,23.16 C98.146667,23.1706667 98.2106664,23.1999998 98.264,23.248 C98.3173336,23.2960002 98.344,23.3519997 98.344,23.416 L98.344,24.808 C98.344,24.882667 98.3173336,24.9466664 98.264,25 C98.2106664,25.0533336 98.146667,25.08 98.072,25.08 C97.5599974,25.08 97.1386683,25.0053341 96.808,24.856 C96.4773317,24.7066659 96.2213342,24.4773349 96.04,24.168 C95.9866664,24.0826662 95.930667,24.0373334 95.872,24.032 C95.8279998,24.028 95.7795001,24.0464998 95.7265001,24.0874998 L95.672,24.136 C95.2559979,24.5200019 94.8453354,24.7946658 94.44,24.96 C94.0346646,25.1253342 93.5866691,25.208 93.096,25.208 C91.9973278,25.208 91.0666705,24.8000041 90.304,23.984 C89.5413295,23.1679959 89.16,22.1680059 89.16,20.984 C89.16,19.7999941 89.5466628,18.8000041 90.32,17.984 C91.0933372,17.1679959 92.0293278,16.76 93.128,16.76 C93.5013352,16.76 93.8559983,16.8186661 94.192,16.936 C94.5280017,17.0533339 94.8453318,17.2346654 95.144,17.48 C95.218667,17.5440003 95.293333,17.5626668 95.368,17.536 C95.442667,17.5093332 95.48,17.4426672 95.48,17.336 L95.48,14.424 C95.48,14.3386662 95.509333,14.266667 95.568,14.208 C95.626667,14.149333 95.693333,14.12 95.768,14.12 L97.352,14.12 Z M93.464,18.744 C92.8773304,18.744 92.3786687,18.9626645 91.968,19.4 C91.5573313,19.8373355 91.352,20.3653302 91.352,20.984 C91.352,21.6026698 91.5573313,22.1306645 91.968,22.568 C92.3786687,23.0053355 92.8773304,23.224 93.464,23.224 C94.0506696,23.224 94.5466646,23.0080022 94.952,22.576 C95.3573354,22.1439978 95.56,21.6133365 95.56,20.984 C95.56,20.3546635 95.3573354,19.8240022 94.952,19.392 C94.5466646,18.9599978 94.0506696,18.744 93.464,18.744 Z" id="Tilmeld" fill="#5A78FF" fill-rule="nonzero"></path>
                <g id="Logo-/-Monochrome-/-Icon---MP-Blue" transform="translate(18.599998, 9.000000)" fill="#5A78FF">
                    <g id="Logo_monochrome_lines" transform="translate(0.647059, 0.323529)">
                        <path d="M10.0294118,14.1616609 C11.8215541,13.6154874 13.3377365,13.3408642 14.5779589,13.3377914 C16.6283927,13.3327111 18.3475044,13.7397219 19.7352941,14.5588235 L19.7352941,8.60222539 C18.3404585,7.87995624 16.7644391,7.49440574 15.0072358,7.44557389 C13.2500325,7.39674205 11.5907579,7.75460564 10.0294118,8.51916468 L10.0294118,14.1616609 Z" id="Path-4"></path>
                        <path d="M7.11764706,7.67626863 L9.32948248,12.9411765 L9.32948248,7.89545711 C10.4948405,7.27141609 11.7285529,6.87149072 13.0306196,6.69568101 C14.3326863,6.5198713 15.8126758,6.54821672 17.4705882,6.78071728 L16.267627,3.90650603 C14.5248603,3.79396102 12.864664,4.07473154 11.2870382,4.74881758 C9.7094123,5.42290362 8.31961526,6.39872064 7.11764706,7.67626863 Z" id="Path-4"></path>
                        <path d="M13.9117647,5.51631313 C13.9117647,5.00829462 13.9117647,4.24626686 13.9117647,3.23022985 C13.9117647,2.16094461 13.050212,1.29411765 11.9874328,1.29411765 L5.48315539,1.29411765 C4.42037625,1.29411765 3.55882353,2.16094461 3.55882353,3.23022985 L3.55882353,18.4462407 C3.55882353,19.515526 4.42037625,20.3823529 5.48315539,20.3823529 L11.9874328,20.3823529 C13.050212,20.3823529 13.9117647,19.515526 13.9117647,18.4462407 C13.9117647,17.4826081 13.9117647,16.8538027 13.9117647,16.5598246 C13.6166079,16.4172834 13.3997009,16.315314 13.2610437,16.2539166 C13.1146147,16.1890777 12.9038924,16.1016925 12.6288768,15.9917611 C12.6288768,16.3705593 12.6288768,17.1887191 12.6288768,18.4462407 C12.6288768,18.8026692 12.3416926,19.0916115 11.9874328,19.0916115 L5.48315539,19.0916115 C5.12889568,19.0916115 4.84171144,18.8026692 4.84171144,18.4462407 L4.84171144,3.23022985 C4.84171144,2.87380144 5.12889568,2.58485912 5.48315539,2.58485912 L11.9874328,2.58485912 C12.3416926,2.58485912 12.6288768,2.87380144 12.6288768,3.23022985 L12.6288768,5.54093026 C12.9305556,5.52189711 13.160039,5.51315357 13.3173272,5.51469965 C13.4746154,5.51624573 13.6727612,5.51678356 13.9117647,5.51631313 Z" id="Path-5" fill-rule="nonzero" transform="translate(8.735294, 10.838235) rotate(-22.400000) translate(-8.735294, -10.838235) "></path>
                    </g>
                </g>
            </g>
        </g>
    </g>
</svg>