<?xml version="1.0" encoding="UTF-8"?>
<svg width="137px" height="32px" viewBox="0 0 137 32" version="1.1" xmlns="http://www.w3.org/2000/svg" xmlns:xlink="http://www.w3.org/1999/xlink">
    <!-- Generator: Sketch 58 (84663) - https://sketch.com -->
    <title>danish-outline-small</title>
    <desc>Created with Sketch.</desc>
    <g id="Subscription-assets" stroke="none" stroke-width="1" fill="none" fill-rule="evenodd">
        <g id="Betalingsaftale---editable-Copy" transform="translate(-21.000000, -528.000000)">
            <g id="danish-outline-small" transform="translate(21.000000, 528.000000)">
                <rect id="Background" stroke="#5A78FF" fill="#FFFFFF" x="0.5" y="0.5" width="136" height="31" rx="4"></rect>
                <path d="M38.92,20 L34.996,20 C34.9399997,20 34.8900002,19.9780002 34.846,19.934 C34.8019998,19.8899998 34.78,19.8360003 34.78,19.772 L34.78,12.068 C34.78,12.0039997 34.8019998,11.9500002 34.846,11.906 C34.8900002,11.8619998 34.9399997,11.84 34.996,11.84 L38.896,11.84 C39.6080036,11.84 40.2079976,12.0599978 40.696,12.5 C41.1840024,12.9400022 41.428,13.4839968 41.428,14.132 C41.428,14.4520016 41.3620007,14.7499986 41.23,15.026 C41.0979993,15.3020014 40.9080012,15.539999 40.66,15.74 C40.6279998,15.7720002 40.612,15.8059998 40.612,15.842 C40.612,15.8780002 40.6279998,15.9079999 40.66,15.932 C40.9960017,16.1160009 41.2539991,16.3539985 41.434,16.646 C41.6140009,16.9380015 41.704,17.2599982 41.704,17.612 C41.704,18.3000034 41.4420026,18.8699977 40.918,19.322 C40.3939974,19.7740023 39.728004,20 38.92,20 Z M36.664,15.2 L38.716,15.2 C39.0120015,15.2 39.255999,15.104001 39.448,14.912 C39.640001,14.719999 39.736,14.4800014 39.736,14.192 C39.736,13.8959985 39.638001,13.6620009 39.442,13.49 C39.245999,13.3179991 38.9840016,13.232 38.656,13.232 L36.664,13.232 C36.5999997,13.232 36.5500002,13.2499998 36.514,13.286 C36.4779998,13.3220002 36.46,13.3719997 36.46,13.436 L36.46,15.008 C36.46,15.0720003 36.4779998,15.1199998 36.514,15.152 C36.5500002,15.1840002 36.5999997,15.2 36.664,15.2 Z M36.664,18.596 L38.836,18.596 C39.1640016,18.596 39.4399989,18.492001 39.664,18.284 C39.8880011,18.075999 40,17.8240015 40,17.528 C40,17.2479986 39.8920011,17.008 39.676,16.808 C39.46,16.607999 39.1880016,16.508 38.86,16.508 L36.664,16.508 C36.5999997,16.508 36.5500002,16.5239998 36.514,16.556 C36.4779998,16.5880002 36.46,16.6359997 36.46,16.7 L36.46,18.404 C36.46,18.4680003 36.4759998,18.5159998 36.508,18.548 C36.5400002,18.5800002 36.5919996,18.596 36.664,18.596 Z M48.352,18.392 C48.151999,18.9200026 47.7860027,19.3459984 47.254,19.67 C46.7219973,19.9940016 46.1280033,20.156 45.472,20.156 C44.5679955,20.156 43.8220029,19.860003 43.234,19.268 C42.6459971,18.675997 42.352,17.9240046 42.352,17.012 C42.352,16.0999954 42.651997,15.340003 43.252,14.732 C43.852,14.123997 44.5999955,13.82 45.496,13.82 C46.3840044,13.82 47.1219971,14.1259969 47.71,14.738 C48.2980029,15.3500031 48.592,16.1159954 48.592,17.036 C48.592,17.1720007 48.5700002,17.2719997 48.526,17.336 C48.4819998,17.4000003 48.4120005,17.432 48.316,17.432 L44.188,17.432 C44.1399998,17.432 44.1040001,17.4459999 44.08,17.474 C44.0559999,17.5020001 44.048,17.5399998 44.056,17.588 C44.0960002,17.9320017 44.2539986,18.2159989 44.53,18.44 C44.8060014,18.6640011 45.1359981,18.776 45.52,18.776 C45.7440011,18.776 45.953999,18.7320004 46.15,18.644 C46.2970007,18.5779997 46.429375,18.4895003 46.5471248,18.3785003 L46.66,18.26 C46.7240003,18.1879996 46.7859997,18.1380001 46.846,18.11 C46.9060003,18.0819999 46.9719996,18.068 47.044,18.068 L48.148,18.068 C48.2440005,18.068 48.3099998,18.0979997 48.346,18.158 C48.3820002,18.2180003 48.3840002,18.2959995 48.352,18.392 Z M44.104,16.292 C44.0879999,16.3480003 44.0879999,16.3899999 44.104,16.418 C44.1200001,16.4460001 44.1519998,16.46 44.2,16.46 L46.732,16.46 C46.7720002,16.46 46.8019999,16.4500001 46.822,16.43 C46.8420001,16.4099999 46.848,16.3760002 46.84,16.328 C46.7759997,15.9999984 46.6160013,15.7300011 46.36,15.518 C46.1039987,15.3059989 45.8080017,15.2 45.472,15.2 C45.1519984,15.2 44.8640013,15.301999 44.608,15.506 C44.3519987,15.710001 44.1840004,15.9719984 44.104,16.292 Z M52.648,20.06 L52.588,20.06 C51.6999956,20.06 51.0400022,19.858002 50.608,19.454 C50.1759978,19.049998 49.96,18.4360041 49.96,17.612 L49.96,15.584 C49.96,15.5199997 49.9400002,15.4680002 49.9,15.428 C49.8599998,15.3879998 49.8080003,15.368 49.744,15.368 L49.324,15.368 C49.2599997,15.368 49.2060002,15.3460002 49.162,15.302 C49.1179998,15.2579998 49.096,15.2080003 49.096,15.152 L49.096,14.204 C49.096,14.1399997 49.1199998,14.0860002 49.168,14.042 C49.2160002,13.9979998 49.2679997,13.976 49.324,13.976 L49.744,13.976 C49.8080003,13.976 49.8599998,13.9540002 49.9,13.91 C49.9400002,13.8659998 49.96,13.8160003 49.96,13.76 L49.96,12.728 C49.96,12.6639997 49.9819998,12.6100002 50.026,12.566 C50.0700002,12.5219998 50.1199997,12.5 50.176,12.5 L51.364,12.5 C51.4280003,12.5 51.4819998,12.5219998 51.526,12.566 C51.5700002,12.6100002 51.592,12.6639997 51.592,12.728 L51.592,13.76 C51.592,13.8160003 51.6139998,13.8659998 51.658,13.91 C51.7020002,13.9540002 51.7559997,13.976 51.82,13.976 L52.6,13.976 C52.6640003,13.976 52.7179998,13.9979998 52.762,14.042 C52.8060002,14.0860002 52.828,14.1399997 52.828,14.204 L52.828,15.152 C52.828,15.2080003 52.8060002,15.2579998 52.762,15.302 C52.7179998,15.3460002 52.6640003,15.368 52.6,15.368 L51.82,15.368 C51.7639997,15.368 51.7120002,15.3899998 51.664,15.434 C51.6159998,15.4780002 51.592,15.5319997 51.592,15.596 L51.592,17.6 C51.592,17.9360017 51.6819991,18.1919991 51.862,18.368 C52.0420009,18.5440009 52.3039983,18.632 52.648,18.632 C52.7040003,18.632 52.7519998,18.6499998 52.792,18.686 C52.8320002,18.7220002 52.852,18.7679997 52.852,18.824 L52.852,19.844 C52.852,19.9080003 52.8320002,19.9599998 52.792,20 C52.7519998,20.0400002 52.7040003,20.06 52.648,20.06 Z M58.3540001,19.3059999 L58.3,19.352 C57.9879984,19.6400014 57.6800015,19.8459994 57.376,19.97 C57.0719985,20.0940006 56.7360018,20.156 56.368,20.156 C55.5439959,20.156 54.8460029,19.8500031 54.274,19.238 C53.7019971,18.6259969 53.416,17.8760044 53.416,16.988 C53.416,16.0999956 53.7059971,15.3500031 54.286,14.738 C54.8660029,14.1259969 55.5679959,13.82 56.392,13.82 C56.6800014,13.82 56.9499987,13.8679995 57.202,13.964 C57.403601,14.0408004 57.6115995,14.1559995 57.8259996,14.3095996 L57.988,14.432 C58.0440003,14.4800002 58.0959998,14.5 58.144,14.492 C58.1920002,14.484 58.216,14.4440004 58.216,14.372 L58.216,14.192 C58.216,14.1279997 58.2379998,14.0760002 58.282,14.036 C58.3260002,13.9959998 58.3759997,13.976 58.432,13.976 L59.56,13.976 C59.6240003,13.976 59.6779998,13.9979998 59.722,14.042 C59.7660002,14.0860002 59.788,14.1399997 59.788,14.204 L59.788,18.176 C59.788,18.32 59.8139997,18.4279996 59.866,18.5 C59.9180003,18.5720004 59.9959995,18.612 60.1,18.62 C60.1560003,18.628 60.2039998,18.6499998 60.244,18.686 C60.2840002,18.7220002 60.304,18.7639998 60.304,18.812 L60.304,19.856 C60.304,19.9120003 60.2840002,19.9599998 60.244,20 C60.2039998,20.0400002 60.1560003,20.06 60.1,20.06 C59.7159981,20.06 59.4000012,20.0040006 59.152,19.892 C58.9039988,19.7799994 58.7120007,19.6080012 58.576,19.376 C58.5359998,19.3119997 58.4940002,19.278 58.45,19.274 C58.4206665,19.2713333 58.3886667,19.2819999 58.3540001,19.3059999 L58.3540001,19.3059999 Z M55.06,16.988 C55.06,17.4520023 55.2139985,17.8479984 55.522,18.176 C55.8300015,18.5040016 56.2039978,18.668 56.644,18.668 C57.0840022,18.668 57.4559985,18.5060016 57.76,18.182 C58.0640015,17.8579984 58.216,17.4600024 58.216,16.988 C58.216,16.5159976 58.0640015,16.1180016 57.76,15.794 C57.4559985,15.4699984 57.0840022,15.308 56.644,15.308 C56.2039978,15.308 55.8300015,15.4719984 55.522,15.8 C55.2139985,16.1280016 55.06,16.5239977 55.06,16.988 Z M63.448,20.06 C62.6319959,20.06 62.0580017,19.9020016 61.726,19.586 C61.3939983,19.2699984 61.228,18.7280038 61.228,17.96 L61.228,12.068 C61.228,12.0039997 61.2499998,11.9500002 61.294,11.906 C61.3380002,11.8619998 61.3879997,11.84 61.444,11.84 L62.632,11.84 C62.6960003,11.84 62.7499998,11.8619998 62.794,11.906 C62.8380002,11.9500002 62.86,12.0039997 62.86,12.068 L62.86,17.996 C62.86,18.204001 62.9099995,18.3619995 63.01,18.47 C63.1100005,18.5780005 63.255999,18.632 63.448,18.632 C63.5120003,18.632 63.5659998,18.6539998 63.61,18.698 C63.6540002,18.7420002 63.676,18.7959997 63.676,18.86 L63.676,19.844 C63.676,19.9000003 63.6540002,19.9499998 63.61,19.994 C63.5659998,20.0380002 63.5120003,20.06 63.448,20.06 Z M66.16,12.404 C66.16,12.6520012 66.0700009,12.8659991 65.89,13.046 C65.7099991,13.2260009 65.4960012,13.316 65.248,13.316 C64.9999988,13.316 64.7860009,13.2260009 64.606,13.046 C64.4259991,12.8659991 64.336,12.6520012 64.336,12.404 C64.336,12.1559988 64.4259991,11.9420009 64.606,11.762 C64.7860009,11.5819991 64.9999988,11.492 65.248,11.492 C65.4960012,11.492 65.7099991,11.5819991 65.89,11.762 C66.0700009,11.9420009 66.16,12.1559988 66.16,12.404 Z M65.824,20 L64.636,20 C64.5799997,20 64.5300002,19.9780002 64.486,19.934 C64.4419998,19.8899998 64.42,19.8360003 64.42,19.772 L64.42,14.204 C64.42,14.1399997 64.4419998,14.0860002 64.486,14.042 C64.5300002,13.9979998 64.5799997,13.976 64.636,13.976 L65.824,13.976 C65.8880003,13.976 65.9419998,13.9979998 65.986,14.042 C66.0300002,14.0860002 66.052,14.1399997 66.052,14.204 L66.052,19.772 C66.052,19.8280003 66.0300002,19.8799998 65.986,19.928 C65.9419998,19.976 65.8880003,20 65.824,20 Z M68.776,20 L67.588,20 C67.5319997,20 67.4820002,19.9780002 67.438,19.934 C67.3939998,19.8899998 67.372,19.8360003 67.372,19.772 L67.372,14.204 C67.372,14.1399997 67.3939998,14.0860002 67.438,14.042 C67.4820002,13.9979998 67.5319997,13.976 67.588,13.976 L68.728,13.976 C68.7920003,13.976 68.8459998,13.9979998 68.89,14.042 C68.9340002,14.0860002 68.956,14.1399997 68.956,14.204 L68.956,14.324 C68.956,14.4120004 68.9819997,14.4659999 69.034,14.486 C69.0860003,14.5060001 69.1479996,14.4840003 69.22,14.42 C69.5160015,14.2039989 69.7879988,14.0500005 70.036,13.958 C70.2840012,13.8659995 70.5319988,13.82 70.78,13.82 C71.4280032,13.82 71.9579979,14.0439978 72.37,14.492 C72.7820021,14.9400022 72.988,15.5119965 72.988,16.208 L72.988,19.772 C72.988,19.8280003 72.9660002,19.8799998 72.922,19.928 C72.8779998,19.9760002 72.8240003,20 72.76,20 L71.572,20 C71.5159997,20 71.4660002,19.9780002 71.422,19.934 C71.3779998,19.8899998 71.356,19.8360003 71.356,19.772 L71.356,16.496 C71.356,16.1199981 71.2500011,15.8160012 71.038,15.584 C70.8259989,15.3519988 70.5480017,15.236 70.204,15.236 C69.8679983,15.236 69.5840012,15.3579988 69.352,15.602 C69.1199988,15.8460012 69.004,16.1359983 69.004,16.472 L69.004,19.772 C69.004,19.8280003 68.9820002,19.8799998 68.938,19.928 C68.8939998,19.9760002 68.8400003,20 68.776,20 Z M77.272,22.4 C76.5279963,22.4 75.8920026,22.2300017 75.364,21.89 C74.8359974,21.5499983 74.476001,21.0720031 74.284,20.456 C74.2599999,20.3839996 74.2699998,20.3240002 74.314,20.276 C74.3580002,20.2279998 74.4279995,20.204 74.524,20.204 L75.676,20.204 C75.7480004,20.204 75.8099997,20.2179999 75.862,20.246 C75.9140003,20.2740001 75.9639998,20.3239996 76.012,20.396 C76.1400006,20.596001 76.3099989,20.7459995 76.522,20.846 C76.7340011,20.9460005 76.9799986,20.996 77.26,20.996 C77.7000022,20.996 78.0599986,20.8480015 78.34,20.552 C78.6200014,20.2559985 78.76,19.8760023 78.76,19.412 L78.76,19.34 C78.76,19.2599996 78.7360002,19.2100001 78.688,19.19 C78.6519998,19.1749999 78.6092501,19.1791248 78.5597501,19.2023749 L78.508,19.232 C78.2199986,19.4160009 77.9500013,19.5499996 77.698,19.634 C77.4459987,19.7180004 77.2040012,19.76 76.972,19.76 C76.1399958,19.76 75.4460028,19.4820028 74.89,18.926 C74.3339972,18.3699972 74.056,17.6640043 74.056,16.808 C74.056,15.9439957 74.3379972,15.2300028 74.902,14.666 C75.4660028,14.1019972 76.1639958,13.82 76.996,13.82 C77.3080016,13.82 77.5939987,13.8719995 77.854,13.976 C78.062001,14.0592004 78.2610397,14.1756795 78.4511197,14.3254397 L78.592,14.444 C78.6480003,14.5000003 78.6999998,14.5220001 78.748,14.51 C78.7960002,14.4979999 78.82,14.4560004 78.82,14.384 L78.82,14.192 C78.82,14.1279997 78.8419998,14.0760002 78.886,14.036 C78.9300002,13.9959998 78.9799997,13.976 79.036,13.976 L80.164,13.976 C80.2280003,13.976 80.2819998,13.9979998 80.326,14.042 C80.3700002,14.0860002 80.392,14.1399997 80.392,14.204 L80.392,19.268 C80.392,20.1720045 80.0980029,20.919997 79.51,21.512 C78.9219971,22.104003 78.1760045,22.4 77.272,22.4 Z M75.7,16.868 C75.7,17.3080022 75.8499985,17.6759985 76.15,17.972 C76.4500015,18.2680015 76.8199978,18.416 77.26,18.416 C77.7080022,18.416 78.0799985,18.2700015 78.376,17.978 C78.6720015,17.6859985 78.82,17.3160022 78.82,16.868 C78.82,16.4119977 78.6700015,16.0340015 78.37,15.734 C78.0699985,15.4339985 77.7,15.284 77.26,15.284 C76.8199978,15.284 76.4500015,15.4359985 76.15,15.74 C75.8499985,16.0440015 75.7,16.4199978 75.7,16.868 Z M86.812,18.056 C86.812,18.6800031 86.5580025,19.1859981 86.05,19.574 C85.5419975,19.9620019 84.892004,20.156 84.1,20.156 C83.3399962,20.156 82.7160024,19.9960016 82.228,19.676 C81.7399976,19.3559984 81.4640003,18.9320026 81.4,18.404 C81.3839999,18.2919994 81.3939998,18.2180002 81.43,18.182 C81.4660002,18.1459998 81.5279996,18.128 81.616,18.128 L82.708,18.128 C82.7880004,18.128 82.8519998,18.1419999 82.9,18.17 C82.9480002,18.1980001 82.9959998,18.2519996 83.044,18.332 C83.1720006,18.5640012 83.3259991,18.7279995 83.506,18.824 C83.6860009,18.9200005 83.9079987,18.968 84.172,18.968 C84.4760015,18.968 84.725999,18.9020007 84.922,18.77 C85.118001,18.6379993 85.216,18.476001 85.216,18.284 C85.216,18.1159992 85.1340008,17.9860005 84.97,17.894 C84.8424438,17.8224441 84.5926928,17.7520989 84.2207418,17.6829631 L83.51004,17.563755 C83.2324891,17.5147754 83.0151436,17.4688574 82.858,17.426 C82.6379989,17.3659997 82.4480008,17.2920004 82.288,17.204 C82.0159986,17.0599993 81.8160006,16.8760011 81.688,16.652 C81.5599994,16.4279989 81.496,16.1600016 81.496,15.848 C81.496,15.2239969 81.7299977,14.7300018 82.198,14.366 C82.6660023,14.0019982 83.303996,13.82 84.112,13.82 C84.7840034,13.82 85.3319979,13.9639986 85.756,14.252 C86.1800021,14.5400014 86.4559994,14.9519973 86.584,15.488 C86.6080001,15.5920005 86.6000002,15.6659998 86.56,15.71 C86.5199998,15.7540002 86.4520005,15.776 86.356,15.776 L85.36,15.776 C85.2799996,15.776 85.2160002,15.7620001 85.168,15.734 C85.1199998,15.7059999 85.0760002,15.6560004 85.036,15.584 C84.9319995,15.383999 84.8020008,15.2380005 84.646,15.146 C84.4899992,15.0539995 84.2960012,15.008 84.064,15.008 C83.7839986,15.008 83.5580009,15.0679994 83.386,15.188 C83.2139991,15.3080006 83.128,15.4599991 83.128,15.644 C83.128,15.8040008 83.2079992,15.9299995 83.368,16.022 C83.5280008,16.1140005 83.8879972,16.2039996 84.448,16.292 L84.80996,16.3468572 C85.0875109,16.3925715 85.3048564,16.4382855 85.462,16.484 C85.6820011,16.5480003 85.8719992,16.6199996 86.032,16.7 C86.2960013,16.8440007 86.4919994,17.0279989 86.62,17.252 C86.7480006,17.4760011 86.812,17.7439984 86.812,18.056 Z M92.4340001,19.3059999 L92.38,19.352 C92.0679984,19.6400014 91.7600015,19.8459994 91.456,19.97 C91.1519985,20.0940006 90.8160018,20.156 90.448,20.156 C89.6239959,20.156 88.9260029,19.8500031 88.354,19.238 C87.7819971,18.6259969 87.496,17.8760044 87.496,16.988 C87.496,16.0999956 87.7859971,15.3500031 88.366,14.738 C88.9460029,14.1259969 89.6479959,13.82 90.472,13.82 C90.7600014,13.82 91.0299987,13.8679995 91.282,13.964 C91.483601,14.0408004 91.6915995,14.1559995 91.9059996,14.3095996 L92.068,14.432 C92.1240003,14.4800002 92.1759998,14.5 92.224,14.492 C92.2720002,14.484 92.296,14.4440004 92.296,14.372 L92.296,14.192 C92.296,14.1279997 92.3179998,14.0760002 92.362,14.036 C92.4060002,13.9959998 92.4559997,13.976 92.512,13.976 L93.64,13.976 C93.7040003,13.976 93.7579998,13.9979998 93.802,14.042 C93.8460002,14.0860002 93.868,14.1399997 93.868,14.204 L93.868,18.176 C93.868,18.32 93.8939997,18.4279996 93.946,18.5 C93.9980003,18.5720004 94.0759995,18.612 94.18,18.62 C94.2360003,18.628 94.2839998,18.6499998 94.324,18.686 C94.3640002,18.7220002 94.384,18.7639998 94.384,18.812 L94.384,19.856 C94.384,19.9120003 94.3640002,19.9599998 94.324,20 C94.2839998,20.0400002 94.2360003,20.06 94.18,20.06 C93.7959981,20.06 93.4800012,20.0040006 93.232,19.892 C92.9839988,19.7799994 92.7920007,19.6080012 92.656,19.376 C92.6159998,19.3119997 92.5740002,19.278 92.53,19.274 C92.5006665,19.2713333 92.4686667,19.2819999 92.4340001,19.3059999 L92.4340001,19.3059999 Z M89.14,16.988 C89.14,17.4520023 89.2939985,17.8479984 89.602,18.176 C89.9100015,18.5040016 90.2839978,18.668 90.724,18.668 C91.1640022,18.668 91.5359985,18.5060016 91.84,18.182 C92.1440015,17.8579984 92.296,17.4600024 92.296,16.988 C92.296,16.5159976 92.1440015,16.1180016 91.84,15.794 C91.5359985,15.4699984 91.1640022,15.308 90.724,15.308 C90.2839978,15.308 89.9100015,15.4719984 89.602,15.8 C89.2939985,16.1280016 89.14,16.5239977 89.14,16.988 Z M95.608,19.772 L95.608,15.584 C95.608,15.5279997 95.5860002,15.4780002 95.542,15.434 C95.4979998,15.3899998 95.4440003,15.368 95.38,15.368 L94.972,15.368 C94.9159997,15.368 94.8640002,15.3440002 94.816,15.296 C94.7679998,15.2479998 94.744,15.1960003 94.744,15.14 L94.744,14.192 C94.744,14.1359997 94.7659998,14.0860002 94.81,14.042 C94.8540002,13.9979998 94.9079997,13.976 94.972,13.976 L95.392,13.976 C95.4640004,13.976 95.5179998,13.9580002 95.554,13.922 C95.5900002,13.8859998 95.608,13.8320004 95.608,13.76 L95.608,13.724 C95.608,12.9639962 95.8219979,12.4000018 96.25,12.032 C96.6390929,11.6974529 97.2182611,11.5149749 97.9875197,11.4845619 L98.344,11.48 C98.4000003,11.48 98.4459998,11.4999998 98.482,11.54 C98.5180002,11.5800002 98.536,11.6319997 98.536,11.696 L98.536,12.692 C98.536,12.7480003 98.5180002,12.7959998 98.482,12.836 C98.4459998,12.8760002 98.4000003,12.896 98.344,12.896 C97.9679981,12.896 97.6900009,12.9619993 97.51,13.094 C97.3299991,13.2260007 97.24,13.4239987 97.24,13.688 L97.24,13.724 C97.24,13.7880003 97.2659997,13.8459997 97.318,13.898 C97.3700003,13.9500003 97.4319996,13.976 97.504,13.976 L98.932,13.976 C98.9960003,13.976 99.0479998,13.9540002 99.088,13.91 C99.1280002,13.8659998 99.148,13.8160003 99.148,13.76 L99.148,12.728 C99.148,12.6639997 99.1699998,12.6100002 99.214,12.566 C99.2580002,12.5219998 99.3079997,12.5 99.364,12.5 L100.552,12.5 C100.616,12.5 100.67,12.5219998 100.714,12.566 C100.758,12.6100002 100.78,12.6639997 100.78,12.728 L100.78,13.76 C100.78,13.8160003 100.802,13.8659998 100.846,13.91 C100.89,13.9540002 100.944,13.976 101.008,13.976 L101.788,13.976 C101.852,13.976 101.906,13.9979998 101.95,14.042 C101.994,14.0860002 102.016,14.1399997 102.016,14.204 L102.016,15.152 C102.016,15.2080003 101.994,15.2579998 101.95,15.302 C101.906,15.3460002 101.852,15.368 101.788,15.368 L101.008,15.368 C100.952,15.368 100.9,15.3899998 100.852,15.434 C100.804,15.4780002 100.78,15.5319997 100.78,15.596 L100.78,17.6 C100.78,17.9440017 100.869999,18.2019991 101.05,18.374 C101.230001,18.5460009 101.495998,18.632 101.848,18.632 C101.904,18.632 101.95,18.6499998 101.986,18.686 C102.022,18.7220002 102.04,18.7679997 102.04,18.824 L102.04,19.844 C102.04,19.9080003 102.02,19.9599998 101.98,20 C101.94,20.0400002 101.892,20.06 101.836,20.06 L101.764,20.06 C100.883996,20.06 100.228002,19.858002 99.796,19.454 C99.3639978,19.049998 99.148,18.4360041 99.148,17.612 L99.148,15.584 C99.148,15.5199997 99.1280002,15.4680002 99.088,15.428 C99.0479998,15.3879998 98.9960003,15.368 98.932,15.368 L97.468,15.368 C97.4039997,15.368 97.3500002,15.3899998 97.306,15.434 C97.2619998,15.4780002 97.24,15.5279997 97.24,15.584 L97.24,19.772 C97.24,19.8280003 97.2180002,19.8799998 97.174,19.928 C97.1299998,19.9760002 97.0760003,20 97.012,20 L95.824,20 C95.7679997,20 95.7180002,19.9780002 95.674,19.934 C95.6299998,19.8899998 95.608,19.8360003 95.608,19.772 Z M107.542,19.3059999 L107.488,19.352 C107.175998,19.6400014 106.868002,19.8459994 106.564,19.97 C106.259998,20.0940006 105.924002,20.156 105.556,20.156 C104.731996,20.156 104.034003,19.8500031 103.462,19.238 C102.889997,18.6259969 102.604,17.8760044 102.604,16.988 C102.604,16.0999956 102.893997,15.3500031 103.474,14.738 C104.054003,14.1259969 104.755996,13.82 105.58,13.82 C105.868001,13.82 106.137999,13.8679995 106.39,13.964 C106.591601,14.0408004 106.7996,14.1559995 107.014,14.3095996 L107.176,14.432 C107.232,14.4800002 107.284,14.5 107.332,14.492 C107.38,14.484 107.404,14.4440004 107.404,14.372 L107.404,14.192 C107.404,14.1279997 107.426,14.0760002 107.47,14.036 C107.514,13.9959998 107.564,13.976 107.62,13.976 L108.748,13.976 C108.812,13.976 108.866,13.9979998 108.91,14.042 C108.954,14.0860002 108.976,14.1399997 108.976,14.204 L108.976,18.176 C108.976,18.32 109.002,18.4279996 109.054,18.5 C109.106,18.5720004 109.183999,18.612 109.288,18.62 C109.344,18.628 109.392,18.6499998 109.432,18.686 C109.472,18.7220002 109.492,18.7639998 109.492,18.812 L109.492,19.856 C109.492,19.9120003 109.472,19.9599998 109.432,20 C109.392,20.0400002 109.344,20.06 109.288,20.06 C108.903998,20.06 108.588001,20.0040006 108.34,19.892 C108.091999,19.7799994 107.900001,19.6080012 107.764,19.376 C107.724,19.3119997 107.682,19.278 107.638,19.274 C107.608667,19.2713333 107.576667,19.2819999 107.542,19.3059999 L107.542,19.3059999 Z M104.248,16.988 C104.248,17.4520023 104.401998,17.8479984 104.71,18.176 C105.018002,18.5040016 105.391998,18.668 105.832,18.668 C106.272002,18.668 106.643998,18.5060016 106.948,18.182 C107.252002,17.8579984 107.404,17.4600024 107.404,16.988 C107.404,16.5159976 107.252002,16.1180016 106.948,15.794 C106.643998,15.4699984 106.272002,15.308 105.832,15.308 C105.391998,15.308 105.018002,15.4719984 104.71,15.8 C104.401998,16.1280016 104.248,16.5239977 104.248,16.988 Z M112.636,20.06 C111.819996,20.06 111.246002,19.9020016 110.914,19.586 C110.581998,19.2699984 110.416,18.7280038 110.416,17.96 L110.416,12.068 C110.416,12.0039997 110.438,11.9500002 110.482,11.906 C110.526,11.8619998 110.576,11.84 110.632,11.84 L111.82,11.84 C111.884,11.84 111.938,11.8619998 111.982,11.906 C112.026,11.9500002 112.048,12.0039997 112.048,12.068 L112.048,17.996 C112.048,18.204001 112.098,18.3619995 112.198,18.47 C112.298001,18.5780005 112.443999,18.632 112.636,18.632 C112.7,18.632 112.754,18.6539998 112.798,18.698 C112.842,18.7420002 112.864,18.7959997 112.864,18.86 L112.864,19.844 C112.864,19.9000003 112.842,19.9499998 112.798,19.994 C112.754,20.0380002 112.7,20.06 112.636,20.06 Z M116.5,13.82 C117.388004,13.82 118.125997,14.1259969 118.714,14.738 C119.302003,15.3500031 119.596,16.1159954 119.596,17.036 C119.596,17.1720007 119.574,17.2719997 119.53,17.336 C119.486,17.4000003 119.416,17.432 119.32,17.432 L115.192,17.432 C115.144,17.432 115.108,17.4459999 115.084,17.474 C115.06,17.5020001 115.052,17.5399998 115.06,17.588 C115.1,17.9320017 115.257999,18.2159989 115.534,18.44 C115.810001,18.6640011 116.139998,18.776 116.524,18.776 C116.748001,18.776 116.957999,18.7320004 117.154,18.644 C117.350001,18.5559996 117.519999,18.4280008 117.664,18.26 C117.728,18.1879996 117.79,18.1380001 117.85,18.11 C117.91,18.0819999 117.976,18.068 118.048,18.068 L119.152,18.068 C119.248,18.068 119.314,18.0979997 119.35,18.158 C119.386,18.2180003 119.388,18.2959995 119.356,18.392 C119.155999,18.9200026 118.790003,19.3459984 118.258,19.67 C117.725997,19.9940016 117.132003,20.156 116.476,20.156 C115.571995,20.156 114.826003,19.860003 114.238,19.268 C113.649997,18.675997 113.356,17.9240046 113.356,17.012 C113.356,16.0999954 113.655997,15.340003 114.256,14.732 C114.856,14.123997 115.603996,13.82 116.5,13.82 Z M116.476,15.2 C116.155998,15.2 115.868001,15.301999 115.612,15.506 C115.355999,15.710001 115.188,15.9719984 115.108,16.292 C115.092,16.3480003 115.092,16.3899999 115.108,16.418 C115.124,16.4460001 115.156,16.46 115.204,16.46 L115.204,16.46 L117.736,16.46 C117.776,16.46 117.806,16.4500001 117.826,16.43 C117.846,16.4099999 117.852,16.3760002 117.844,16.328 C117.78,15.9999984 117.620001,15.7300011 117.364,15.518 C117.107999,15.3059989 116.812002,15.2 116.476,15.2 Z" id="Betalingsafale" fill="#5A78FF" fill-rule="nonzero"></path>
                <g id="Logo-/-Monochrome-/-Icon---MP-Blue" transform="translate(14.900002, 7.300003)" fill="#5A78FF">
                    <g id="Logo_monochrome_lines" transform="translate(0.500000, 0.250000)">
                        <path d="M7.75,10.9431016 C9.13483728,10.5210584 10.3064327,10.3088496 11.2647864,10.3064752 C12.8492125,10.3025495 14.1776171,10.6170578 15.25,11.25 L15.25,6.64717416 C14.1721725,6.08905709 12.9543393,5.79113171 11.5965004,5.75339801 C10.2386615,5.71566431 8.95649471,5.99219527 7.75,6.58299089 L7.75,10.9431016 Z" id="Path-4"></path>
                        <path d="M5.5,5.93166212 L7.20914556,10 L7.20914556,6.10103504 C8.10964951,5.61882152 9.06297271,5.30978829 10.0691151,5.17393533 C11.0752576,5.03808237 12.2188859,5.05998565 13.5,5.23964517 L12.5704391,3.01866375 C11.2237557,2.93169716 9.94087675,3.14865619 8.72180222,3.66954086 C7.50272768,4.19042552 6.42879361,4.94446595 5.5,5.93166212 Z" id="Path-4"></path>
                        <path d="M10.75,4.2626056 C10.75,3.87004584 10.75,3.28120621 10.75,2.4960867 C10.75,1.66982083 10.0842547,1 9.26301629,1 L4.23698371,1 C3.41574529,1 2.75,1.66982083 2.75,2.4960867 L2.75,14.2539133 C2.75,15.0801792 3.41574529,15.75 4.23698371,15.75 L9.26301629,15.75 C10.0842547,15.75 10.75,15.0801792 10.75,14.2539133 C10.75,13.5092881 10.75,13.023393 10.75,12.7962281 C10.5219243,12.6860826 10.3543143,12.6072881 10.2471701,12.5598446 C10.1340204,12.5097419 9.97118954,12.442217 9.75867752,12.3572699 C9.75867752,12.6499776 9.75867752,13.2821921 9.75867752,14.2539133 C9.75867752,14.5293353 9.53676243,14.7526089 9.26301629,14.7526089 L4.23698371,14.7526089 C3.96323757,14.7526089 3.74132248,14.5293353 3.74132248,14.2539133 L3.74132248,2.4960867 C3.74132248,2.22066475 3.96323757,1.99739114 4.23698371,1.99739114 L9.26301629,1.99739114 C9.53676243,1.99739114 9.75867752,2.22066475 9.75867752,2.4960867 L9.75867752,4.28162793 C9.99179293,4.26692049 10.1691211,4.26016412 10.2906619,4.26135882 C10.4122028,4.26255352 10.5653155,4.26296911 10.75,4.2626056 Z" id="Path-5" fill-rule="nonzero" transform="translate(6.750000, 8.375000) rotate(-22.400000) translate(-6.750000, -8.375000) "></path>
                    </g>
                </g>
            </g>
        </g>
    </g>
</svg>