<?xml version="1.0" encoding="UTF-8"?>
<svg width="205px" height="48px" viewBox="0 0 205 48" version="1.1" xmlns="http://www.w3.org/2000/svg" xmlns:xlink="http://www.w3.org/1999/xlink">
    <!-- Generator: Sketch 58 (84663) - https://sketch.com -->
    <title>danish-white-large</title>
    <desc>Created with Sketch.</desc>
    <g id="Subscription-assets" stroke="none" stroke-width="1" fill="none" fill-rule="evenodd">
        <g id="Betalingsaftale---editable-Copy" transform="translate(-21.000000, -582.000000)">
            <g id="danish-white-large" transform="translate(21.000000, 582.000000)">
                <rect id="Background" fill="#FFFFFF" x="0" y="0" width="205" height="48" rx="4"></rect>
                <path d="M58.38,30 L52.494,30 C52.4099996,30 52.3350003,29.9670003 52.269,29.901 C52.2029997,29.8349997 52.17,29.7540005 52.17,29.658 L52.17,18.102 C52.17,18.0059995 52.2029997,17.9250003 52.269,17.859 C52.3350003,17.7929997 52.4099996,17.76 52.494,17.76 L58.344,17.76 C59.4120053,17.76 60.3119963,18.0899967 61.044,18.75 C61.7760037,19.4100033 62.142,20.2259951 62.142,21.198 C62.142,21.6780024 62.043001,22.1249979 61.845,22.539 C61.646999,22.9530021 61.3620019,23.3099985 60.99,23.61 C60.9419998,23.6580002 60.918,23.7089997 60.918,23.763 C60.918,23.8170003 60.9419998,23.8619998 60.99,23.898 C61.4940025,24.1740014 61.8809987,24.5309978 62.151,24.969 C62.4210013,25.4070022 62.556,25.8899974 62.556,26.418 C62.556,27.4500052 62.1630039,28.3049966 61.377,28.983 C60.5909961,29.6610034 59.5920061,30 58.38,30 Z M54.996,22.8 L58.074,22.8 C58.5180022,22.8 58.8839986,22.6560014 59.172,22.368 C59.4600014,22.0799986 59.604,21.7200022 59.604,21.288 C59.604,20.8439978 59.4570015,20.4930013 59.163,20.235 C58.8689985,19.9769987 58.4760025,19.848 57.984,19.848 L54.996,19.848 C54.8999995,19.848 54.8250003,19.8749997 54.771,19.929 C54.7169997,19.9830003 54.69,20.0579995 54.69,20.154 L54.69,22.512 C54.69,22.6080005 54.7169997,22.6799998 54.771,22.728 C54.8250003,22.7760002 54.8999995,22.8 54.996,22.8 Z M54.996,27.894 L58.254,27.894 C58.7460025,27.894 59.1599983,27.7380016 59.496,27.426 C59.8320017,27.1139984 60,26.7360022 60,26.292 C60,25.8719979 59.8380016,25.5120015 59.514,25.212 C59.19,24.9119985 58.7820025,24.762 58.29,24.762 L54.996,24.762 C54.8999995,24.762 54.8250003,24.7859998 54.771,24.834 C54.7169997,24.8820002 54.69,24.9539995 54.69,25.05 L54.69,27.606 C54.69,27.7020005 54.7139998,27.7739998 54.762,27.822 C54.8100002,27.8700002 54.8879995,27.894 54.996,27.894 Z M72.528,27.588 C72.2279985,28.380004 71.679004,29.0189976 70.881,29.505 C70.082996,29.9910024 69.1920049,30.234 68.208,30.234 C66.8519932,30.234 65.7330044,29.7900044 64.851,28.902 C63.9689956,28.0139956 63.528,26.8860068 63.528,25.518 C63.528,24.1499932 63.9779955,23.0100046 64.878,22.098 C65.7780045,21.1859954 66.8999933,20.73 68.244,20.73 C69.5760067,20.73 70.6829956,21.1889954 71.565,22.107 C72.4470044,23.0250046 72.888,24.1739931 72.888,25.554 C72.888,25.758001 72.8550003,25.9079995 72.789,26.004 C72.7229997,26.1000005 72.6180007,26.148 72.474,26.148 L66.282,26.148 C66.2099996,26.148 66.1560002,26.1689998 66.12,26.211 C66.0839998,26.2530002 66.0719999,26.3099996 66.084,26.382 C66.1440003,26.8980026 66.3809979,27.3239983 66.795,27.66 C67.2090021,27.9960017 67.7039971,28.164 68.28,28.164 C68.6160017,28.164 68.9309985,28.0980007 69.225,27.966 C69.4602012,27.8603995 69.6704398,27.7164006 69.8557197,27.5340004 L69.99,27.39 C70.0860005,27.2819995 70.1789996,27.2070002 70.269,27.165 C70.3590004,27.1229998 70.4579995,27.102 70.566,27.102 L72.222,27.102 C72.3660007,27.102 72.4649997,27.1469996 72.519,27.237 C72.5730003,27.3270004 72.5760002,27.4439993 72.528,27.588 Z M66.156,24.438 C66.1319999,24.5220004 66.1319999,24.5849998 66.156,24.627 C66.1800001,24.6690002 66.2279996,24.69 66.3,24.69 L70.098,24.69 C70.1580003,24.69 70.2029998,24.6750001 70.233,24.645 C70.2630002,24.6149999 70.2720001,24.5640004 70.26,24.492 C70.1639995,23.9999975 69.9240019,23.5950016 69.54,23.277 C69.1559981,22.9589984 68.7120025,22.8 68.208,22.8 C67.7279976,22.8 67.2960019,22.9529985 66.912,23.259 C66.5279981,23.5650015 66.2760006,23.9579976 66.156,24.438 Z M78.972,30.09 L78.882,30.09 C77.5499933,30.09 76.5600032,29.787003 75.912,29.181 C75.2639968,28.574997 74.94,27.6540062 74.94,26.418 L74.94,23.376 C74.94,23.2799995 74.9100003,23.2020003 74.85,23.142 C74.7899997,23.0819997 74.7120005,23.052 74.616,23.052 L73.986,23.052 C73.8899995,23.052 73.8090003,23.0190003 73.743,22.953 C73.6769997,22.8869997 73.644,22.8120004 73.644,22.728 L73.644,21.306 C73.644,21.2099995 73.6799996,21.1290003 73.752,21.063 C73.8240004,20.9969997 73.9019996,20.964 73.986,20.964 L74.616,20.964 C74.7120005,20.964 74.7899997,20.9310003 74.85,20.865 C74.9100003,20.7989997 74.94,20.7240004 74.94,20.64 L74.94,19.092 C74.94,18.9959995 74.9729997,18.9150003 75.039,18.849 C75.1050003,18.7829997 75.1799996,18.75 75.264,18.75 L77.046,18.75 C77.1420005,18.75 77.2229997,18.7829997 77.289,18.849 C77.3550003,18.9150003 77.388,18.9959995 77.388,19.092 L77.388,20.64 C77.388,20.7240004 77.4209997,20.7989997 77.487,20.865 C77.5530003,20.9310003 77.6339995,20.964 77.73,20.964 L78.9,20.964 C78.9960005,20.964 79.0769997,20.9969997 79.143,21.063 C79.2090003,21.1290003 79.242,21.2099995 79.242,21.306 L79.242,22.728 C79.242,22.8120004 79.2090003,22.8869997 79.143,22.953 C79.0769997,23.0190003 78.9960005,23.052 78.9,23.052 L77.73,23.052 C77.6459996,23.052 77.5680004,23.0849997 77.496,23.151 C77.4239996,23.2170003 77.388,23.2979995 77.388,23.394 L77.388,26.4 C77.388,26.9040025 77.5229987,27.2879987 77.793,27.552 C78.0630014,27.8160013 78.4559974,27.948 78.972,27.948 C79.0560004,27.948 79.1279997,27.9749997 79.188,28.029 C79.2480003,28.0830003 79.278,28.1519996 79.278,28.236 L79.278,29.766 C79.278,29.8620005 79.2480003,29.9399997 79.188,30 C79.1279997,30.0600003 79.0560004,30.09 78.972,30.09 Z M87.5113126,28.9734373 L87.45,29.028 C86.9819977,29.4600022 86.5200023,29.7689991 86.064,29.955 C85.6079977,30.1410009 85.1040028,30.234 84.552,30.234 C83.3159938,30.234 82.2690043,29.7750046 81.411,28.857 C80.5529957,27.9389954 80.124,26.8140067 80.124,25.482 C80.124,24.1499933 80.5589956,23.0250046 81.429,22.107 C82.2990044,21.1889954 83.3519938,20.73 84.588,20.73 C85.0200022,20.73 85.4249981,20.8019993 85.803,20.946 C86.1180016,21.0660006 86.4434158,21.2484991 86.7792494,21.4934995 L86.982,21.648 C87.0660004,21.7200004 87.1439996,21.7500001 87.216,21.738 C87.2880004,21.7259999 87.324,21.6660005 87.324,21.558 L87.324,21.288 C87.324,21.1919995 87.3569997,21.1140003 87.423,21.054 C87.4890003,20.9939997 87.5639996,20.964 87.648,20.964 L89.34,20.964 C89.4360005,20.964 89.5169997,20.9969997 89.583,21.063 C89.6490003,21.1290003 89.682,21.2099995 89.682,21.306 L89.682,27.264 C89.682,27.4800011 89.7209996,27.6419995 89.799,27.75 C89.8770004,27.8580005 89.9939992,27.9179999 90.15,27.93 C90.2340004,27.9420001 90.3059997,27.9749997 90.366,28.029 C90.4260003,28.0830003 90.456,28.1459996 90.456,28.218 L90.456,29.784 C90.456,29.8680004 90.4260003,29.9399997 90.366,30 C90.3059997,30.0600003 90.2340004,30.09 90.15,30.09 C89.5739971,30.09 89.1000019,30.0060008 88.728,29.838 C88.3559981,29.6699992 88.068001,29.4120017 87.864,29.064 C87.8039997,28.9679995 87.7410003,28.917 87.675,28.911 C87.6254998,28.9065 87.5709376,28.9273123 87.5113126,28.9734373 L87.5113126,28.9734373 Z M82.59,25.482 C82.59,26.1780035 82.8209977,26.7719975 83.283,27.264 C83.7450023,27.7560025 84.3059967,28.002 84.966,28.002 C85.6260033,28.002 86.1839977,27.7590024 86.64,27.273 C87.0960023,26.7869976 87.324,26.1900035 87.324,25.482 C87.324,24.7739965 87.0960023,24.1770024 86.64,23.691 C86.1839977,23.2049976 85.6260033,22.962 84.966,22.962 C84.3059967,22.962 83.7450023,23.2079975 83.283,23.7 C82.8209977,24.1920025 82.59,24.7859965 82.59,25.482 Z M95.172,30.09 C93.9479939,30.09 93.0870025,29.8530024 92.589,29.379 C92.0909975,28.9049976 91.842,28.0920058 91.842,26.94 L91.842,18.102 C91.842,18.0059995 91.8749997,17.9250003 91.941,17.859 C92.0070003,17.7929997 92.0819996,17.76 92.166,17.76 L93.948,17.76 C94.0440005,17.76 94.1249997,17.7929997 94.191,17.859 C94.2570003,17.9250003 94.29,18.0059995 94.29,18.102 L94.29,26.994 C94.29,27.3060016 94.3649993,27.5429992 94.515,27.705 C94.6650008,27.8670008 94.8839986,27.948 95.172,27.948 C95.2680005,27.948 95.3489997,27.9809997 95.415,28.047 C95.4810003,28.1130003 95.514,28.1939995 95.514,28.29 L95.514,29.766 C95.514,29.8500004 95.4810003,29.9249997 95.415,29.991 C95.3489997,30.0570003 95.2680005,30.09 95.172,30.09 Z M99.24,18.606 C99.24,18.9780019 99.1050014,19.2989986 98.835,19.569 C98.5649987,19.8390013 98.2440019,19.974 97.872,19.974 C97.4999981,19.974 97.1790013,19.8390013 96.909,19.569 C96.6389986,19.2989986 96.504,18.9780019 96.504,18.606 C96.504,18.2339981 96.6389986,17.9130013 96.909,17.643 C97.1790013,17.3729986 97.4999981,17.238 97.872,17.238 C98.2440019,17.238 98.5649987,17.3729986 98.835,17.643 C99.1050014,17.9130013 99.24,18.2339981 99.24,18.606 Z M98.736,30 L96.954,30 C96.8699996,30 96.7950003,29.9670003 96.729,29.901 C96.6629997,29.8349997 96.63,29.7540005 96.63,29.658 L96.63,21.306 C96.63,21.2099995 96.6629997,21.1290003 96.729,21.063 C96.7950003,20.9969997 96.8699996,20.964 96.954,20.964 L98.736,20.964 C98.8320005,20.964 98.9129997,20.9969997 98.979,21.063 C99.0450003,21.1290003 99.078,21.2099995 99.078,21.306 L99.078,29.658 C99.078,29.7420004 99.0450003,29.8199996 98.979,29.892 C98.9129997,29.964 98.8320005,30 98.736,30 Z M103.164,30 L101.382,30 C101.298,30 101.223,29.9670003 101.157,29.901 C101.091,29.8349997 101.058,29.7540005 101.058,29.658 L101.058,21.306 C101.058,21.2099995 101.091,21.1290003 101.157,21.063 C101.223,20.9969997 101.298,20.964 101.382,20.964 L103.092,20.964 C103.188,20.964 103.269,20.9969997 103.335,21.063 C103.401,21.1290003 103.434,21.2099995 103.434,21.306 L103.434,21.486 C103.434,21.6180007 103.473,21.6989998 103.551,21.729 C103.629,21.7590001 103.721999,21.7260005 103.83,21.63 C104.274002,21.3059984 104.681998,21.0750007 105.054,20.937 C105.426002,20.7989993 105.797998,20.73 106.17,20.73 C107.142005,20.73 107.936997,21.0659966 108.555,21.738 C109.173003,22.4100034 109.482,23.2679948 109.482,24.312 L109.482,29.658 C109.482,29.7420004 109.449,29.8199996 109.383,29.892 C109.317,29.9640004 109.236,30 109.14,30 L107.358,30 C107.274,30 107.199,29.9670003 107.133,29.901 C107.067,29.8349997 107.034,29.7540005 107.034,29.658 L107.034,24.744 C107.034,24.1799972 106.875002,23.7240017 106.557,23.376 C106.238998,23.0279983 105.822003,22.854 105.306,22.854 C104.801997,22.854 104.376002,23.0369982 104.028,23.403 C103.679998,23.7690018 103.506,24.2039975 103.506,24.708 L103.506,29.658 C103.506,29.7420004 103.473,29.8199996 103.407,29.892 C103.341,29.9640004 103.26,30 103.164,30 Z M115.908,33.6 C114.791994,33.6 113.838004,33.3450026 113.046,32.835 C112.253996,32.3249974 111.714001,31.6080046 111.426,30.684 C111.39,30.5759995 111.405,30.4860004 111.471,30.414 C111.537,30.3419996 111.641999,30.306 111.786,30.306 L113.514,30.306 C113.622001,30.306 113.715,30.3269998 113.793,30.369 C113.8515,30.4005002 113.908312,30.4505623 113.963437,30.5191873 L114.018,30.594 C114.210001,30.8940015 114.464998,31.1189993 114.783,31.269 C115.101002,31.4190008 115.469998,31.494 115.89,31.494 C116.550003,31.494 117.089998,31.2720022 117.51,30.828 C117.930002,30.3839978 118.14,29.8140035 118.14,29.118 L118.14,29.01 C118.14,28.8899994 118.104,28.8150001 118.032,28.785 C117.9744,28.7609999 117.90528,28.7696397 117.82464,28.8109198 L117.762,28.848 C117.329998,29.1240014 116.925002,29.3249994 116.547,29.451 C116.168998,29.5770006 115.806002,29.64 115.458,29.64 C114.209994,29.64 113.169004,29.2230042 112.335,28.389 C111.500996,27.5549958 111.084,26.4960064 111.084,25.212 C111.084,23.9159935 111.506996,22.8450042 112.353,21.999 C113.199004,21.1529958 114.245994,20.73 115.494,20.73 C115.962002,20.73 116.390998,20.8079992 116.781,20.964 C117.171002,21.1200008 117.539998,21.3539984 117.888,21.666 C117.972,21.7500004 118.05,21.7830001 118.122,21.765 C118.194,21.7469999 118.23,21.6840005 118.23,21.576 L118.23,21.288 C118.23,21.1919995 118.263,21.1140003 118.329,21.054 C118.395,20.9939997 118.47,20.964 118.554,20.964 L120.246,20.964 C120.342,20.964 120.423,20.9969997 120.489,21.063 C120.555,21.1290003 120.588,21.2099995 120.588,21.306 L120.588,28.902 C120.588,30.2580068 120.147004,31.3799956 119.265,32.268 C118.382996,33.1560044 117.264007,33.6 115.908,33.6 Z M113.55,25.302 C113.55,25.9620033 113.774998,26.5139978 114.225,26.958 C114.675002,27.4020022 115.229997,27.624 115.89,27.624 C116.562003,27.624 117.119998,27.4050022 117.564,26.967 C118.008002,26.5289978 118.23,25.9740034 118.23,25.302 C118.23,24.6179966 118.005002,24.0510022 117.555,23.601 C117.104998,23.1509977 116.55,22.926 115.89,22.926 C115.229997,22.926 114.675002,23.1539977 114.225,23.61 C113.774998,24.0660023 113.55,24.6299966 113.55,25.302 Z M130.218,27.084 C130.218,28.0200047 129.837004,28.7789971 129.075,29.361 C128.312996,29.9430029 127.338006,30.234 126.15,30.234 C125.009994,30.234 124.074004,29.9940024 123.342,29.514 C122.609996,29.0339976 122.196,28.398004 122.1,27.606 C122.076,27.4379992 122.091,27.3270003 122.145,27.273 C122.199,27.2189997 122.291999,27.192 122.424,27.192 L124.062,27.192 C124.182001,27.192 124.278,27.2129998 124.35,27.255 C124.422,27.2970002 124.494,27.3779994 124.566,27.498 C124.758001,27.8460017 124.988999,28.0919993 125.259,28.236 C125.529001,28.3800007 125.861998,28.452 126.258,28.452 C126.714002,28.452 127.088999,28.353001 127.383,28.155 C127.677001,27.956999 127.824,27.7140014 127.824,27.426 C127.824,27.1739987 127.701001,26.9790007 127.455,26.841 C127.231363,26.7155448 126.757317,26.5925707 126.032852,26.4720745 L125.328186,26.3566873 C124.881561,26.2790624 124.534501,26.2065003 124.287,26.139 C123.956998,26.0489995 123.672001,25.9380007 123.432,25.806 C123.023998,25.5899989 122.724001,25.3140017 122.532,24.978 C122.339999,24.6419983 122.244,24.2400023 122.244,23.772 C122.244,22.8359953 122.594996,22.0950027 123.297,21.549 C123.999004,21.0029973 124.955994,20.73 126.168,20.73 C127.176005,20.73 127.997997,20.9459978 128.634,21.378 C129.270003,21.8100022 129.683999,22.427996 129.876,23.232 C129.912,23.3880008 129.9,23.4989997 129.84,23.565 C129.78,23.6310003 129.678001,23.664 129.534,23.664 L128.04,23.664 C127.919999,23.664 127.824,23.6430002 127.752,23.601 C127.68,23.5589998 127.614,23.4840005 127.554,23.376 C127.397999,23.0759985 127.203001,22.8570007 126.969,22.719 C126.734999,22.5809993 126.444002,22.512 126.096,22.512 C125.675998,22.512 125.337001,22.6019991 125.079,22.782 C124.820999,22.9620009 124.692,23.1899986 124.692,23.466 C124.692,23.7060012 124.811999,23.8949993 125.052,24.033 C125.292001,24.1710007 125.831996,24.3059993 126.672,24.438 L127.151814,24.5100001 C127.598439,24.5820001 127.945499,24.6539996 128.193,24.726 C128.523002,24.8220005 128.807999,24.9299994 129.048,25.05 C129.444002,25.2660011 129.737999,25.5419983 129.93,25.878 C130.122001,26.2140017 130.218,26.6159977 130.218,27.084 Z M138.631313,28.9734373 L138.57,29.028 C138.101998,29.4600022 137.640002,29.7689991 137.184,29.955 C136.727998,30.1410009 136.224003,30.234 135.672,30.234 C134.435994,30.234 133.389004,29.7750046 132.531,28.857 C131.672996,27.9389954 131.244,26.8140067 131.244,25.482 C131.244,24.1499933 131.678996,23.0250046 132.549,22.107 C133.419004,21.1889954 134.471994,20.73 135.708,20.73 C136.140002,20.73 136.544998,20.8019993 136.923,20.946 C137.238002,21.0660006 137.563416,21.2484991 137.899249,21.4934995 L138.102,21.648 C138.186,21.7200004 138.264,21.7500001 138.336,21.738 C138.408,21.7259999 138.444,21.6660005 138.444,21.558 L138.444,21.288 C138.444,21.1919995 138.477,21.1140003 138.543,21.054 C138.609,20.9939997 138.684,20.964 138.768,20.964 L140.46,20.964 C140.556,20.964 140.637,20.9969997 140.703,21.063 C140.769,21.1290003 140.802,21.2099995 140.802,21.306 L140.802,27.264 C140.802,27.4800011 140.841,27.6419995 140.919,27.75 C140.997,27.8580005 141.113999,27.9179999 141.27,27.93 C141.354,27.9420001 141.426,27.9749997 141.486,28.029 C141.546,28.0830003 141.576,28.1459996 141.576,28.218 L141.576,29.784 C141.576,29.8680004 141.546,29.9399997 141.486,30 C141.426,30.0600003 141.354,30.09 141.27,30.09 C140.693997,30.09 140.220002,30.0060008 139.848,29.838 C139.475998,29.6699992 139.188001,29.4120017 138.984,29.064 C138.924,28.9679995 138.861,28.917 138.795,28.911 C138.7455,28.9065 138.690938,28.9273123 138.631313,28.9734373 L138.631313,28.9734373 Z M133.71,25.482 C133.71,26.1780035 133.940998,26.7719975 134.403,27.264 C134.865002,27.7560025 135.425997,28.002 136.086,28.002 C136.746003,28.002 137.303998,27.7590024 137.76,27.273 C138.216002,26.7869976 138.444,26.1900035 138.444,25.482 C138.444,24.7739965 138.216002,24.1770024 137.76,23.691 C137.303998,23.2049976 136.746003,22.962 136.086,22.962 C135.425997,22.962 134.865002,23.2079975 134.403,23.7 C133.940998,24.1920025 133.71,24.7859965 133.71,25.482 Z M143.412,29.658 L143.412,23.376 C143.412,23.2919996 143.379,23.2170003 143.313,23.151 C143.247,23.0849997 143.166,23.052 143.07,23.052 L142.458,23.052 C142.374,23.052 142.296,23.0160004 142.224,22.944 C142.152,22.8719996 142.116,22.7940004 142.116,22.71 L142.116,21.288 C142.116,21.2039996 142.149,21.1290003 142.215,21.063 C142.281,20.9969997 142.362,20.964 142.458,20.964 L143.088,20.964 C143.196001,20.964 143.277,20.9370003 143.331,20.883 C143.385,20.8289997 143.412,20.7480005 143.412,20.64 L143.412,20.586 C143.412,19.4459943 143.732997,18.6000028 144.375,18.048 C145.017003,17.4959972 146.003993,17.22 147.336,17.22 L147.516,17.22 C147.6,17.22 147.669,17.2499997 147.723,17.31 C147.777,17.3700003 147.804,17.4479995 147.804,17.544 L147.804,19.038 C147.804,19.1220004 147.777,19.1939997 147.723,19.254 C147.669,19.3140003 147.6,19.344 147.516,19.344 C146.951997,19.344 146.535001,19.442999 146.265,19.641 C145.994999,19.839001 145.86,20.135998 145.86,20.532 L145.86,20.586 C145.86,20.6820005 145.899,20.7689996 145.977,20.847 C146.055,20.9250004 146.147999,20.964 146.256,20.964 L148.398,20.964 C148.494,20.964 148.572,20.9310003 148.632,20.865 C148.692,20.7989997 148.722,20.7240004 148.722,20.64 L148.722,19.092 C148.722,18.9959995 148.755,18.9150003 148.821,18.849 C148.887,18.7829997 148.962,18.75 149.046,18.75 L150.828,18.75 C150.924,18.75 151.005,18.7829997 151.071,18.849 C151.137,18.9150003 151.17,18.9959995 151.17,19.092 L151.17,20.64 C151.17,20.7240004 151.203,20.7989997 151.269,20.865 C151.335,20.9310003 151.416,20.964 151.512,20.964 L152.682,20.964 C152.778,20.964 152.859,20.9969997 152.925,21.063 C152.991,21.1290003 153.024,21.2099995 153.024,21.306 L153.024,22.728 C153.024,22.8120004 152.991,22.8869997 152.925,22.953 C152.859,23.0190003 152.778,23.052 152.682,23.052 L151.512,23.052 C151.428,23.052 151.35,23.0849997 151.278,23.151 C151.206,23.2170003 151.17,23.2979995 151.17,23.394 L151.17,26.4 C151.17,26.9160026 151.304999,27.3029987 151.575,27.561 C151.845001,27.8190013 152.243997,27.948 152.772,27.948 C152.856,27.948 152.925,27.9749997 152.979,28.029 C153.033,28.0830003 153.06,28.1519996 153.06,28.236 L153.06,29.766 C153.06,29.8620005 153.03,29.9399997 152.97,30 C152.91,30.0600003 152.838,30.09 152.754,30.09 L152.646,30.09 C151.325993,30.09 150.342003,29.787003 149.694,29.181 C149.045997,28.574997 148.722,27.6540062 148.722,26.418 L148.722,23.376 C148.722,23.2799995 148.692,23.2020003 148.632,23.142 C148.572,23.0819997 148.494,23.052 148.398,23.052 L146.202,23.052 C146.106,23.052 146.025,23.0849997 145.959,23.151 C145.893,23.2170003 145.86,23.2919996 145.86,23.376 L145.86,29.658 C145.86,29.7420004 145.827,29.8199996 145.761,29.892 C145.695,29.9640004 145.614,30 145.518,30 L143.736,30 C143.652,30 143.577,29.9670003 143.511,29.901 C143.445,29.8349997 143.412,29.7540005 143.412,29.658 Z M161.293313,28.9734373 L161.232,29.028 C160.763998,29.4600022 160.302002,29.7689991 159.846,29.955 C159.389998,30.1410009 158.886003,30.234 158.334,30.234 C157.097994,30.234 156.051004,29.7750046 155.193,28.857 C154.334996,27.9389954 153.906,26.8140067 153.906,25.482 C153.906,24.1499933 154.340996,23.0250046 155.211,22.107 C156.081004,21.1889954 157.133994,20.73 158.37,20.73 C158.802002,20.73 159.206998,20.8019993 159.585,20.946 C159.900002,21.0660006 160.225416,21.2484991 160.561249,21.4934995 L160.764,21.648 C160.848,21.7200004 160.926,21.7500001 160.998,21.738 C161.07,21.7259999 161.106,21.6660005 161.106,21.558 L161.106,21.288 C161.106,21.1919995 161.139,21.1140003 161.205,21.054 C161.271,20.9939997 161.346,20.964 161.43,20.964 L163.122,20.964 C163.218,20.964 163.299,20.9969997 163.365,21.063 C163.431,21.1290003 163.464,21.2099995 163.464,21.306 L163.464,27.264 C163.464,27.4800011 163.503,27.6419995 163.581,27.75 C163.659,27.8580005 163.775999,27.9179999 163.932,27.93 C164.016,27.9420001 164.088,27.9749997 164.148,28.029 C164.208,28.0830003 164.238,28.1459996 164.238,28.218 L164.238,29.784 C164.238,29.8680004 164.208,29.9399997 164.148,30 C164.088,30.0600003 164.016,30.09 163.932,30.09 C163.355997,30.09 162.882002,30.0060008 162.51,29.838 C162.137998,29.6699992 161.850001,29.4120017 161.646,29.064 C161.586,28.9679995 161.523,28.917 161.457,28.911 C161.4075,28.9065 161.352938,28.9273123 161.293313,28.9734373 L161.293313,28.9734373 Z M156.372,25.482 C156.372,26.1780035 156.602998,26.7719975 157.065,27.264 C157.527002,27.7560025 158.087997,28.002 158.748,28.002 C159.408003,28.002 159.965998,27.7590024 160.422,27.273 C160.878002,26.7869976 161.106,26.1900035 161.106,25.482 C161.106,24.7739965 160.878002,24.1770024 160.422,23.691 C159.965998,23.2049976 159.408003,22.962 158.748,22.962 C158.087997,22.962 157.527002,23.2079975 157.065,23.7 C156.602998,24.1920025 156.372,24.7859965 156.372,25.482 Z M168.954,30.09 C167.729994,30.09 166.869002,29.8530024 166.371,29.379 C165.872998,28.9049976 165.624,28.0920058 165.624,26.94 L165.624,18.102 C165.624,18.0059995 165.657,17.9250003 165.723,17.859 C165.789,17.7929997 165.864,17.76 165.948,17.76 L167.73,17.76 C167.826,17.76 167.907,17.7929997 167.973,17.859 C168.039,17.9250003 168.072,18.0059995 168.072,18.102 L168.072,26.994 C168.072,27.3060016 168.146999,27.5429992 168.297,27.705 C168.447001,27.8670008 168.665999,27.948 168.954,27.948 C169.05,27.948 169.131,27.9809997 169.197,28.047 C169.263,28.1130003 169.296,28.1939995 169.296,28.29 L169.296,29.766 C169.296,29.8500004 169.263,29.9249997 169.197,29.991 C169.131,30.0570003 169.05,30.09 168.954,30.09 Z M174.75,20.73 C176.082007,20.73 177.188996,21.1889954 178.071,22.107 C178.953004,23.0250046 179.394,24.1739931 179.394,25.554 C179.394,25.758001 179.361,25.9079995 179.295,26.004 C179.229,26.1000005 179.124001,26.148 178.98,26.148 L172.788,26.148 C172.716,26.148 172.662,26.1689998 172.626,26.211 C172.59,26.2530002 172.578,26.3099996 172.59,26.382 C172.65,26.8980026 172.886998,27.3239983 173.301,27.66 C173.715002,27.9960017 174.209997,28.164 174.786,28.164 C175.122002,28.164 175.436999,28.0980007 175.731,27.966 C175.966201,27.8603995 176.17644,27.7164006 176.36172,27.5340004 L176.496,27.39 C176.592,27.2819995 176.685,27.2070002 176.775,27.165 C176.865,27.1229998 176.963999,27.102 177.072,27.102 L178.728,27.102 C178.872001,27.102 178.971,27.1469996 179.025,27.237 C179.079,27.3270004 179.082,27.4439993 179.034,27.588 C178.733999,28.380004 178.185004,29.0189976 177.387,29.505 C176.588996,29.9910024 175.698005,30.234 174.714,30.234 C173.357993,30.234 172.239004,29.7900044 171.357,28.902 C170.474996,28.0139956 170.034,26.8860068 170.034,25.518 C170.034,24.1499932 170.483995,23.0100046 171.384,22.098 C172.284005,21.1859954 173.405993,20.73 174.75,20.73 Z M174.714,22.8 C174.233998,22.8 173.802002,22.9529985 173.418,23.259 C173.033998,23.5650015 172.782001,23.9579976 172.662,24.438 C172.638,24.5220004 172.638,24.5849998 172.662,24.627 C172.686,24.6690002 172.734,24.69 172.806,24.69 L172.806,24.69 L176.604,24.69 C176.664,24.69 176.709,24.6750001 176.739,24.645 C176.769,24.6149999 176.778,24.5640004 176.766,24.492 C176.67,23.9999975 176.430002,23.5950016 176.046,23.277 C175.661998,22.9589984 175.218003,22.8 174.714,22.8 Z" id="Betalingsafale" fill="#5A78FF" fill-rule="nonzero"></path>
                <g id="Logo-/-Monochrome-/-Icon---MP-Blue" transform="translate(22.000000, 11.000000)" fill="#5A78FF">
                    <g id="Logo_monochrome_lines" transform="translate(0.764706, 0.382353)">
                        <path d="M11.8529412,16.7365084 C13.9709276,16.0910306 15.7627795,15.7664759 17.2284968,15.7628444 C19.6517368,15.7568404 21.6834143,16.2378531 23.3235294,17.2058824 L23.3235294,10.1662664 C21.6750873,9.31267556 19.8125189,8.85702497 17.7358241,8.7993146 C15.6591294,8.74160424 13.6981684,9.16453394 11.8529412,10.0681037 L11.8529412,16.7365084 Z" id="Path-4"></path>
                        <path d="M8.41176471,9.07195384 L11.025752,15.2941176 L11.025752,9.33099477 C12.4029934,8.59349174 13.8610171,8.12085267 15.3998232,7.91307756 C16.9386292,7.70530244 18.6877078,7.73880158 20.6470588,8.01357497 L19.2253774,4.61677985 C17.165744,4.48377212 15.2036939,4.81559182 13.3392269,5.61223896 C11.47476,6.4088861 9.83227258,7.56212439 8.41176471,9.07195384 Z" id="Path-4"></path>
                        <path d="M16.4411765,6.51927915 C16.4411765,5.91889364 16.4411765,5.01831538 16.4411765,3.81754437 C16.4411765,2.55384363 15.4229778,1.52941176 14.1669661,1.52941176 L6.48009274,1.52941176 C5.22408102,1.52941176 4.20588235,2.55384363 4.20588235,3.81754437 L4.20588235,21.8001027 C4.20588235,23.0638034 5.22408102,24.0882353 6.48009274,24.0882353 L14.1669661,24.0882353 C15.4229778,24.0882353 16.4411765,23.0638034 16.4411765,21.8001027 C16.4411765,20.6612641 16.4411765,19.9181304 16.4411765,19.5707018 C16.0923547,19.402244 15.8360101,19.2817348 15.6721426,19.2091741 C15.49909,19.1325464 15.2500546,19.029273 14.9250362,18.899354 C14.9250362,19.3470246 14.9250362,20.3139408 14.9250362,21.8001027 C14.9250362,22.2213363 14.5856367,22.5628136 14.1669661,22.5628136 L6.48009274,22.5628136 C6.06142217,22.5628136 5.72202261,22.2213363 5.72202261,21.8001027 L5.72202261,3.81754437 C5.72202261,3.39631079 6.06142217,3.0548335 6.48009274,3.0548335 L14.1669661,3.0548335 C14.5856367,3.0548335 14.9250362,3.39631079 14.9250362,3.81754437 L14.9250362,6.54837213 C15.2815657,6.5258784 15.5527734,6.51554513 15.7386594,6.51737232 C15.9245455,6.5191995 16.1587178,6.51983512 16.4411765,6.51927915 Z" id="Path-5" fill-rule="nonzero" transform="translate(10.323529, 12.808824) rotate(-22.400000) translate(-10.323529, -12.808824) "></path>
                    </g>
                </g>
            </g>
        </g>
    </g>
</svg>