<?xml version="1.0" encoding="UTF-8"?>
<svg width="165px" height="32px" viewBox="0 0 165 32" version="1.1" xmlns="http://www.w3.org/2000/svg" xmlns:xlink="http://www.w3.org/1999/xlink">
    <!-- Generator: Sketch 58 (84663) - https://sketch.com -->
    <title>danish-blue-small</title>
    <desc>Created with Sketch.</desc>
    <g id="Subscription-assets" stroke="none" stroke-width="1" fill="none" fill-rule="evenodd">
        <g id="Start-betalingsaftale---editable-Copy" transform="translate(-21.000000, -156.000000)">
            <g id="danish-blue-small" transform="translate(21.000000, 156.000000)">
                <rect id="Background" fill="#5A78FF" x="0" y="0" width="165" height="32" rx="4"></rect>
                <path d="M41.008,17.48 C41.008,18.288004 40.6880032,18.9359976 40.048,19.424 C39.4079968,19.9120024 38.5760051,20.156 37.552,20.156 C36.6319954,20.156 35.8660031,19.9280023 35.254,19.472 C34.6419969,19.0159977 34.2840005,18.3960039 34.18,17.612 C34.172,17.5399996 34.1839998,17.4860002 34.216,17.45 C34.2480002,17.4139998 34.3079996,17.396 34.396,17.396 L35.584,17.396 C35.6640004,17.396 35.7259998,17.4119998 35.77,17.444 C35.7993335,17.4653334 35.8224445,17.4937777 35.8393333,17.5293332 L35.86,17.588 C35.9640005,17.9240017 36.1839983,18.1999989 36.52,18.416 C36.8560017,18.6320011 37.2439978,18.74 37.684,18.74 C38.1480023,18.74 38.5339985,18.638001 38.842,18.434 C39.1500015,18.229999 39.304,17.9680016 39.304,17.648 C39.304,17.3359984 39.1660014,17.0960008 38.89,16.928 C38.6369987,16.7739992 38.1100731,16.640167 37.3092093,16.5265001 L37.084,16.496 C36.0439948,16.3599993 35.3100021,16.1180017 34.882,15.77 C34.4539979,15.4219983 34.24,14.9280032 34.24,14.288 C34.24,13.5279962 34.543997,12.9040024 35.152,12.416 C35.760003,11.9279976 36.5439952,11.684 37.504,11.684 C38.3840044,11.684 39.1139971,11.885998 39.694,12.29 C40.2740029,12.694002 40.6239994,13.2519964 40.744,13.964 C40.7600001,14.0520004 40.7540001,14.1179998 40.726,14.162 C40.6979999,14.2060002 40.6440004,14.228 40.564,14.228 L39.376,14.228 C39.2959996,14.228 39.2340002,14.2140001 39.19,14.186 C39.1459998,14.1579999 39.1120001,14.1040004 39.088,14.024 C38.9599994,13.7359986 38.7500015,13.5120008 38.458,13.352 C38.1659985,13.1919992 37.816002,13.112 37.408,13.112 C36.9919979,13.112 36.6420014,13.2039991 36.358,13.388 C36.0739986,13.5720009 35.932,13.7959987 35.932,14.06 C35.932,14.3320014 36.0739986,14.5459992 36.358,14.702 C36.6104457,14.8406674 37.0446146,14.9556294 37.6605176,15.0468888 L37.9,15.08 C39.0040055,15.2240007 39.7979976,15.4879981 40.282,15.872 C40.7660024,16.2560019 41.008,16.7919966 41.008,17.48 Z M44.824,20.06 L44.764,20.06 C43.8759956,20.06 43.2160022,19.858002 42.784,19.454 C42.3519978,19.049998 42.136,18.4360041 42.136,17.612 L42.136,15.584 C42.136,15.5199997 42.1160002,15.4680002 42.076,15.428 C42.0359998,15.3879998 41.9840003,15.368 41.92,15.368 L41.5,15.368 C41.4359997,15.368 41.3820002,15.3460002 41.338,15.302 C41.2939998,15.2579998 41.272,15.2080003 41.272,15.152 L41.272,14.204 C41.272,14.1399997 41.2959998,14.0860002 41.344,14.042 C41.3920002,13.9979998 41.4439997,13.976 41.5,13.976 L41.92,13.976 C41.9840003,13.976 42.0359998,13.9540002 42.076,13.91 C42.1160002,13.8659998 42.136,13.8160003 42.136,13.76 L42.136,12.728 C42.136,12.6639997 42.1579998,12.6100002 42.202,12.566 C42.2460002,12.5219998 42.2959997,12.5 42.352,12.5 L43.54,12.5 C43.6040003,12.5 43.6579998,12.5219998 43.702,12.566 C43.7460002,12.6100002 43.768,12.6639997 43.768,12.728 L43.768,13.76 C43.768,13.8160003 43.7899998,13.8659998 43.834,13.91 C43.8780002,13.9540002 43.9319997,13.976 43.996,13.976 L44.776,13.976 C44.8400003,13.976 44.8939998,13.9979998 44.938,14.042 C44.9820002,14.0860002 45.004,14.1399997 45.004,14.204 L45.004,15.152 C45.004,15.2080003 44.9820002,15.2579998 44.938,15.302 C44.8939998,15.3460002 44.8400003,15.368 44.776,15.368 L43.996,15.368 C43.9399997,15.368 43.8880002,15.3899998 43.84,15.434 C43.7919998,15.4780002 43.768,15.5319997 43.768,15.596 L43.768,17.6 C43.768,17.9360017 43.8579991,18.1919991 44.038,18.368 C44.2180009,18.5440009 44.4799983,18.632 44.824,18.632 C44.8800003,18.632 44.9279998,18.6499998 44.968,18.686 C45.0080002,18.7220002 45.028,18.7679997 45.028,18.824 L45.028,19.844 C45.028,19.9080003 45.0080002,19.9599998 44.968,20 C44.9279998,20.0400002 44.8800003,20.06 44.824,20.06 Z M50.5300001,19.3059999 L50.476,19.352 C50.1639984,19.6400014 49.8560015,19.8459994 49.552,19.97 C49.2479985,20.0940006 48.9120018,20.156 48.544,20.156 C47.7199959,20.156 47.0220029,19.8500031 46.45,19.238 C45.8779971,18.6259969 45.592,17.8760044 45.592,16.988 C45.592,16.0999956 45.8819971,15.3500031 46.462,14.738 C47.0420029,14.1259969 47.7439959,13.82 48.568,13.82 C48.8560014,13.82 49.1259987,13.8679995 49.378,13.964 C49.579601,14.0408004 49.7875995,14.1559995 50.0019996,14.3095996 L50.164,14.432 C50.2200003,14.4800002 50.2719998,14.5 50.32,14.492 C50.3680002,14.484 50.392,14.4440004 50.392,14.372 L50.392,14.192 C50.392,14.1279997 50.4139998,14.0760002 50.458,14.036 C50.5020002,13.9959998 50.5519997,13.976 50.608,13.976 L51.736,13.976 C51.8000003,13.976 51.8539998,13.9979998 51.898,14.042 C51.9420002,14.0860002 51.964,14.1399997 51.964,14.204 L51.964,18.176 C51.964,18.32 51.9899997,18.4279996 52.042,18.5 C52.0940003,18.5720004 52.1719995,18.612 52.276,18.62 C52.3320003,18.628 52.3799998,18.6499998 52.42,18.686 C52.4600002,18.7220002 52.48,18.7639998 52.48,18.812 L52.48,19.856 C52.48,19.9120003 52.4600002,19.9599998 52.42,20 C52.3799998,20.0400002 52.3320003,20.06 52.276,20.06 C51.8919981,20.06 51.5760012,20.0040006 51.328,19.892 C51.0799988,19.7799994 50.8880007,19.6080012 50.752,19.376 C50.7119998,19.3119997 50.6700002,19.278 50.626,19.274 C50.5966665,19.2713333 50.5646667,19.2819999 50.5300001,19.3059999 L50.5300001,19.3059999 Z M47.236,16.988 C47.236,17.4520023 47.3899985,17.8479984 47.698,18.176 C48.0060015,18.5040016 48.3799978,18.668 48.82,18.668 C49.2600022,18.668 49.6319985,18.5060016 49.936,18.182 C50.2400015,17.8579984 50.392,17.4600024 50.392,16.988 C50.392,16.5159976 50.2400015,16.1180016 49.936,15.794 C49.6319985,15.4699984 49.2600022,15.308 48.82,15.308 C48.3799978,15.308 48.0060015,15.4719984 47.698,15.8 C47.3899985,16.1280016 47.236,16.5239977 47.236,16.988 Z M54.808,20 L53.62,20 C53.5639997,20 53.5140002,19.9780002 53.47,19.934 C53.4259998,19.8899998 53.404,19.8360003 53.404,19.772 L53.404,14.204 C53.404,14.1399997 53.4259998,14.0860002 53.47,14.042 C53.5140002,13.9979998 53.5639997,13.976 53.62,13.976 L54.76,13.976 C54.8240003,13.976 54.8779998,13.9979998 54.922,14.042 C54.9660002,14.0860002 54.988,14.1399997 54.988,14.204 L54.988,14.444 C54.988,14.5240004 55.0159997,14.5699999 55.072,14.582 C55.1140002,14.591 55.1627499,14.5763752 55.2182499,14.5381252 L55.276,14.492 C55.5160012,14.2759989 55.7639987,14.1160005 56.02,14.012 C56.2760013,13.9079995 56.5479986,13.856 56.836,13.856 C56.9080004,13.856 56.9659998,13.8759998 57.01,13.916 C57.0540002,13.9560002 57.076,14.0119996 57.076,14.084 L57.076,15.248 C57.076,15.3120003 57.0540002,15.3659998 57.01,15.41 C56.9659998,15.4540002 56.9160003,15.476 56.86,15.476 C56.2119968,15.476 55.7460014,15.6079987 55.462,15.872 C55.1779986,16.1360013 55.036,16.5599971 55.036,17.144 L55.036,19.772 C55.036,19.8280003 55.0140002,19.8799998 54.97,19.928 C54.9259998,19.9760002 54.8720003,20 54.808,20 Z M60.844,20.06 L60.784,20.06 C59.8959956,20.06 59.2360022,19.858002 58.804,19.454 C58.3719978,19.049998 58.156,18.4360041 58.156,17.612 L58.156,15.584 C58.156,15.5199997 58.1360002,15.4680002 58.096,15.428 C58.0559998,15.3879998 58.0040003,15.368 57.94,15.368 L57.52,15.368 C57.4559997,15.368 57.4020002,15.3460002 57.358,15.302 C57.3139998,15.2579998 57.292,15.2080003 57.292,15.152 L57.292,14.204 C57.292,14.1399997 57.3159998,14.0860002 57.364,14.042 C57.4120002,13.9979998 57.4639997,13.976 57.52,13.976 L57.94,13.976 C58.0040003,13.976 58.0559998,13.9540002 58.096,13.91 C58.1360002,13.8659998 58.156,13.8160003 58.156,13.76 L58.156,12.728 C58.156,12.6639997 58.1779998,12.6100002 58.222,12.566 C58.2660002,12.5219998 58.3159997,12.5 58.372,12.5 L59.56,12.5 C59.6240003,12.5 59.6779998,12.5219998 59.722,12.566 C59.7660002,12.6100002 59.788,12.6639997 59.788,12.728 L59.788,13.76 C59.788,13.8160003 59.8099998,13.8659998 59.854,13.91 C59.8980002,13.9540002 59.9519997,13.976 60.016,13.976 L60.796,13.976 C60.8600003,13.976 60.9139998,13.9979998 60.958,14.042 C61.0020002,14.0860002 61.024,14.1399997 61.024,14.204 L61.024,15.152 C61.024,15.2080003 61.0020002,15.2579998 60.958,15.302 C60.9139998,15.3460002 60.8600003,15.368 60.796,15.368 L60.016,15.368 C59.9599997,15.368 59.9080002,15.3899998 59.86,15.434 C59.8119998,15.4780002 59.788,15.5319997 59.788,15.596 L59.788,17.6 C59.788,17.9360017 59.8779991,18.1919991 60.058,18.368 C60.2380009,18.5440009 60.4999983,18.632 60.844,18.632 C60.9000003,18.632 60.9479998,18.6499998 60.988,18.686 C61.0280002,18.7220002 61.048,18.7679997 61.048,18.824 L61.048,19.844 C61.048,19.9080003 61.0280002,19.9599998 60.988,20 C60.9479998,20.0400002 60.9000003,20.06 60.844,20.06 Z M70.504,16.988 C70.504,17.8760044 70.2200028,18.6259969 69.652,19.238 C69.0839972,19.8500031 68.3840042,20.156 67.552,20.156 C67.2639986,20.156 66.9920013,20.1060005 66.736,20.006 C66.4799987,19.9059995 66.2080014,19.7400012 65.92,19.508 C65.8559997,19.4599998 65.8020002,19.4459999 65.758,19.466 C65.7139998,19.4860001 65.692,19.5359996 65.692,19.616 L65.692,19.772 C65.692,19.8360003 65.6700002,19.8899998 65.626,19.934 C65.5819998,19.9780002 65.5320003,20 65.476,20 L64.348,20 C64.2919997,20 64.2400002,19.9760002 64.192,19.928 C64.1439998,19.8799998 64.12,19.8280003 64.12,19.772 L64.12,12.068 C64.12,12.0039997 64.1439998,11.9500002 64.192,11.906 C64.2400002,11.8619998 64.2919997,11.84 64.348,11.84 L65.536,11.84 C65.5920003,11.84 65.6419998,11.8619998 65.686,11.906 C65.7300002,11.9500002 65.752,12.0039997 65.752,12.068 L65.752,14.264 C65.752,14.3440004 65.7779997,14.3919999 65.83,14.408 C65.8820003,14.4240001 65.9479996,14.4040003 66.028,14.348 C66.2680012,14.1719991 66.5199987,14.0400004 66.784,13.952 C67.0480013,13.8639996 67.3199986,13.82 67.6,13.82 C68.4160041,13.82 69.1039972,14.1259969 69.664,14.738 C70.2240028,15.3500031 70.504,16.0999956 70.504,16.988 Z M65.704,16.988 C65.704,17.4520023 65.8559985,17.8459984 66.16,18.17 C66.4640015,18.4940016 66.8359978,18.656 67.276,18.656 C67.7160022,18.656 68.0919984,18.4940016 68.404,18.17 C68.7160016,17.8459984 68.872,17.4520023 68.872,16.988 C68.872,16.5239977 68.7160016,16.1280016 68.404,15.8 C68.0919984,15.4719984 67.7160022,15.308 67.276,15.308 C66.8439978,15.308 66.4740015,15.4719984 66.166,15.8 C65.8579985,16.1280016 65.704,16.5239977 65.704,16.988 Z M77.332,18.392 C77.131999,18.9200026 76.7660027,19.3459984 76.234,19.67 C75.7019973,19.9940016 75.1080033,20.156 74.452,20.156 C73.5479955,20.156 72.8020029,19.860003 72.214,19.268 C71.6259971,18.675997 71.332,17.9240046 71.332,17.012 C71.332,16.0999954 71.631997,15.340003 72.232,14.732 C72.832,14.123997 73.5799955,13.82 74.476,13.82 C75.3640044,13.82 76.1019971,14.1259969 76.69,14.738 C77.2780029,15.3500031 77.572,16.1159954 77.572,17.036 C77.572,17.1720007 77.5500002,17.2719997 77.506,17.336 C77.4619998,17.4000003 77.3920005,17.432 77.296,17.432 L73.168,17.432 C73.1199998,17.432 73.0840001,17.4459999 73.06,17.474 C73.0359999,17.5020001 73.028,17.5399998 73.036,17.588 C73.0760002,17.9320017 73.2339986,18.2159989 73.51,18.44 C73.7860014,18.6640011 74.1159981,18.776 74.5,18.776 C74.7240011,18.776 74.933999,18.7320004 75.13,18.644 C75.2770007,18.5779997 75.409375,18.4895003 75.5271248,18.3785003 L75.64,18.26 C75.7040003,18.1879996 75.7659997,18.1380001 75.826,18.11 C75.8860003,18.0819999 75.9519996,18.068 76.024,18.068 L77.128,18.068 C77.2240005,18.068 77.2899998,18.0979997 77.326,18.158 C77.3620002,18.2180003 77.3640002,18.2959995 77.332,18.392 Z M73.084,16.292 C73.0679999,16.3480003 73.0679999,16.3899999 73.084,16.418 C73.1000001,16.4460001 73.1319998,16.46 73.18,16.46 L75.712,16.46 C75.7520002,16.46 75.7819999,16.4500001 75.802,16.43 C75.8220001,16.4099999 75.828,16.3760002 75.82,16.328 C75.7559997,15.9999984 75.5960013,15.7300011 75.34,15.518 C75.0839987,15.3059989 74.7880017,15.2 74.452,15.2 C74.1319984,15.2 73.8440013,15.301999 73.588,15.506 C73.3319987,15.710001 73.1640004,15.9719984 73.084,16.292 Z M81.628,20.06 L81.568,20.06 C80.6799956,20.06 80.0200022,19.858002 79.588,19.454 C79.1559978,19.049998 78.94,18.4360041 78.94,17.612 L78.94,15.584 C78.94,15.5199997 78.9200002,15.4680002 78.88,15.428 C78.8399998,15.3879998 78.7880003,15.368 78.724,15.368 L78.304,15.368 C78.2399997,15.368 78.1860002,15.3460002 78.142,15.302 C78.0979998,15.2579998 78.076,15.2080003 78.076,15.152 L78.076,14.204 C78.076,14.1399997 78.0999998,14.0860002 78.148,14.042 C78.1960002,13.9979998 78.2479997,13.976 78.304,13.976 L78.724,13.976 C78.7880003,13.976 78.8399998,13.9540002 78.88,13.91 C78.9200002,13.8659998 78.94,13.8160003 78.94,13.76 L78.94,12.728 C78.94,12.6639997 78.9619998,12.6100002 79.006,12.566 C79.0500002,12.5219998 79.0999997,12.5 79.156,12.5 L80.344,12.5 C80.4080003,12.5 80.4619998,12.5219998 80.506,12.566 C80.5500002,12.6100002 80.572,12.6639997 80.572,12.728 L80.572,13.76 C80.572,13.8160003 80.5939998,13.8659998 80.638,13.91 C80.6820002,13.9540002 80.7359997,13.976 80.8,13.976 L81.58,13.976 C81.6440003,13.976 81.6979998,13.9979998 81.742,14.042 C81.7860002,14.0860002 81.808,14.1399997 81.808,14.204 L81.808,15.152 C81.808,15.2080003 81.7860002,15.2579998 81.742,15.302 C81.6979998,15.3460002 81.6440003,15.368 81.58,15.368 L80.8,15.368 C80.7439997,15.368 80.6920002,15.3899998 80.644,15.434 C80.5959998,15.4780002 80.572,15.5319997 80.572,15.596 L80.572,17.6 C80.572,17.9360017 80.6619991,18.1919991 80.842,18.368 C81.0220009,18.5440009 81.2839983,18.632 81.628,18.632 C81.6840003,18.632 81.7319998,18.6499998 81.772,18.686 C81.8120002,18.7220002 81.832,18.7679997 81.832,18.824 L81.832,19.844 C81.832,19.9080003 81.8120002,19.9599998 81.772,20 C81.7319998,20.0400002 81.6840003,20.06 81.628,20.06 Z M87.3340001,19.3059999 L87.28,19.352 C86.9679984,19.6400014 86.6600015,19.8459994 86.356,19.97 C86.0519985,20.0940006 85.7160018,20.156 85.348,20.156 C84.5239959,20.156 83.8260029,19.8500031 83.254,19.238 C82.6819971,18.6259969 82.396,17.8760044 82.396,16.988 C82.396,16.0999956 82.6859971,15.3500031 83.266,14.738 C83.8460029,14.1259969 84.5479959,13.82 85.372,13.82 C85.6600014,13.82 85.9299987,13.8679995 86.182,13.964 C86.383601,14.0408004 86.5915995,14.1559995 86.8059996,14.3095996 L86.968,14.432 C87.0240003,14.4800002 87.0759998,14.5 87.124,14.492 C87.1720002,14.484 87.196,14.4440004 87.196,14.372 L87.196,14.192 C87.196,14.1279997 87.2179998,14.0760002 87.262,14.036 C87.3060002,13.9959998 87.3559997,13.976 87.412,13.976 L88.54,13.976 C88.6040003,13.976 88.6579998,13.9979998 88.702,14.042 C88.7460002,14.0860002 88.768,14.1399997 88.768,14.204 L88.768,18.176 C88.768,18.32 88.7939997,18.4279996 88.846,18.5 C88.8980003,18.5720004 88.9759995,18.612 89.08,18.62 C89.1360003,18.628 89.1839998,18.6499998 89.224,18.686 C89.2640002,18.7220002 89.284,18.7639998 89.284,18.812 L89.284,19.856 C89.284,19.9120003 89.2640002,19.9599998 89.224,20 C89.1839998,20.0400002 89.1360003,20.06 89.08,20.06 C88.6959981,20.06 88.3800012,20.0040006 88.132,19.892 C87.8839988,19.7799994 87.6920007,19.6080012 87.556,19.376 C87.5159998,19.3119997 87.4740002,19.278 87.43,19.274 C87.4006665,19.2713333 87.3686667,19.2819999 87.3340001,19.3059999 L87.3340001,19.3059999 Z M84.04,16.988 C84.04,17.4520023 84.1939985,17.8479984 84.502,18.176 C84.8100015,18.5040016 85.1839978,18.668 85.624,18.668 C86.0640022,18.668 86.4359985,18.5060016 86.74,18.182 C87.0440015,17.8579984 87.196,17.4600024 87.196,16.988 C87.196,16.5159976 87.0440015,16.1180016 86.74,15.794 C86.4359985,15.4699984 86.0640022,15.308 85.624,15.308 C85.1839978,15.308 84.8100015,15.4719984 84.502,15.8 C84.1939985,16.1280016 84.04,16.5239977 84.04,16.988 Z M92.428,20.06 C91.6119959,20.06 91.0380017,19.9020016 90.706,19.586 C90.3739983,19.2699984 90.208,18.7280038 90.208,17.96 L90.208,12.068 C90.208,12.0039997 90.2299998,11.9500002 90.274,11.906 C90.3180002,11.8619998 90.3679997,11.84 90.424,11.84 L91.612,11.84 C91.6760003,11.84 91.7299998,11.8619998 91.774,11.906 C91.8180002,11.9500002 91.84,12.0039997 91.84,12.068 L91.84,17.996 C91.84,18.204001 91.8899995,18.3619995 91.99,18.47 C92.0900005,18.5780005 92.235999,18.632 92.428,18.632 C92.4920003,18.632 92.5459998,18.6539998 92.59,18.698 C92.6340002,18.7420002 92.656,18.7959997 92.656,18.86 L92.656,19.844 C92.656,19.9000003 92.6340002,19.9499998 92.59,19.994 C92.5459998,20.0380002 92.4920003,20.06 92.428,20.06 Z M95.14,12.404 C95.14,12.6520012 95.0500009,12.8659991 94.87,13.046 C94.6899991,13.2260009 94.4760012,13.316 94.228,13.316 C93.9799988,13.316 93.7660009,13.2260009 93.586,13.046 C93.4059991,12.8659991 93.316,12.6520012 93.316,12.404 C93.316,12.1559988 93.4059991,11.9420009 93.586,11.762 C93.7660009,11.5819991 93.9799988,11.492 94.228,11.492 C94.4760012,11.492 94.6899991,11.5819991 94.87,11.762 C95.0500009,11.9420009 95.14,12.1559988 95.14,12.404 Z M94.804,20 L93.616,20 C93.5599997,20 93.5100002,19.9780002 93.466,19.934 C93.4219998,19.8899998 93.4,19.8360003 93.4,19.772 L93.4,14.204 C93.4,14.1399997 93.4219998,14.0860002 93.466,14.042 C93.5100002,13.9979998 93.5599997,13.976 93.616,13.976 L94.804,13.976 C94.8680003,13.976 94.9219998,13.9979998 94.966,14.042 C95.0100002,14.0860002 95.032,14.1399997 95.032,14.204 L95.032,19.772 C95.032,19.8280003 95.0100002,19.8799998 94.966,19.928 C94.9219998,19.976 94.8680003,20 94.804,20 Z M97.756,20 L96.568,20 C96.5119997,20 96.4620002,19.9780002 96.418,19.934 C96.3739998,19.8899998 96.352,19.8360003 96.352,19.772 L96.352,14.204 C96.352,14.1399997 96.3739998,14.0860002 96.418,14.042 C96.4620002,13.9979998 96.5119997,13.976 96.568,13.976 L97.708,13.976 C97.7720003,13.976 97.8259998,13.9979998 97.87,14.042 C97.9140002,14.0860002 97.936,14.1399997 97.936,14.204 L97.936,14.324 C97.936,14.4120004 97.9619997,14.4659999 98.014,14.486 C98.0660003,14.5060001 98.1279996,14.4840003 98.2,14.42 C98.4960015,14.2039989 98.7679988,14.0500005 99.016,13.958 C99.2640012,13.8659995 99.5119988,13.82 99.76,13.82 C100.408003,13.82 100.937998,14.0439978 101.35,14.492 C101.762002,14.9400022 101.968,15.5119965 101.968,16.208 L101.968,19.772 C101.968,19.8280003 101.946,19.8799998 101.902,19.928 C101.858,19.9760002 101.804,20 101.74,20 L100.552,20 C100.496,20 100.446,19.9780002 100.402,19.934 C100.358,19.8899998 100.336,19.8360003 100.336,19.772 L100.336,16.496 C100.336,16.1199981 100.230001,15.8160012 100.018,15.584 C99.8059989,15.3519988 99.5280017,15.236 99.184,15.236 C98.8479983,15.236 98.5640012,15.3579988 98.332,15.602 C98.0999988,15.8460012 97.984,16.1359983 97.984,16.472 L97.984,19.772 C97.984,19.8280003 97.9620002,19.8799998 97.918,19.928 C97.8739998,19.9760002 97.8200003,20 97.756,20 Z M106.252,22.4 C105.507996,22.4 104.872003,22.2300017 104.344,21.89 C103.815997,21.5499983 103.456001,21.0720031 103.264,20.456 C103.24,20.3839996 103.25,20.3240002 103.294,20.276 C103.338,20.2279998 103.408,20.204 103.504,20.204 L104.656,20.204 C104.728,20.204 104.79,20.2179999 104.842,20.246 C104.876667,20.2646668 104.910444,20.293111 104.943333,20.3313332 L104.992,20.396 C105.120001,20.596001 105.289999,20.7459995 105.502,20.846 C105.714001,20.9460005 105.959999,20.996 106.24,20.996 C106.680002,20.996 107.039999,20.8480015 107.32,20.552 C107.600001,20.2559985 107.74,19.8760023 107.74,19.412 L107.74,19.34 C107.74,19.2599996 107.716,19.2100001 107.668,19.19 C107.632,19.1749999 107.58925,19.1791248 107.53975,19.2023749 L107.488,19.232 C107.199999,19.4160009 106.930001,19.5499996 106.678,19.634 C106.425999,19.7180004 106.184001,19.76 105.952,19.76 C105.119996,19.76 104.426003,19.4820028 103.87,18.926 C103.313997,18.3699972 103.036,17.6640043 103.036,16.808 C103.036,15.9439957 103.317997,15.2300028 103.882,14.666 C104.446003,14.1019972 105.143996,13.82 105.976,13.82 C106.288002,13.82 106.573999,13.8719995 106.834,13.976 C107.042001,14.0592004 107.24104,14.1756795 107.43112,14.3254397 L107.572,14.444 C107.628,14.5000003 107.68,14.5220001 107.728,14.51 C107.776,14.4979999 107.8,14.4560004 107.8,14.384 L107.8,14.192 C107.8,14.1279997 107.822,14.0760002 107.866,14.036 C107.91,13.9959998 107.96,13.976 108.016,13.976 L109.144,13.976 C109.208,13.976 109.262,13.9979998 109.306,14.042 C109.35,14.0860002 109.372,14.1399997 109.372,14.204 L109.372,19.268 C109.372,20.1720045 109.078003,20.919997 108.49,21.512 C107.901997,22.104003 107.156005,22.4 106.252,22.4 Z M104.68,16.868 C104.68,17.3080022 104.829998,17.6759985 105.13,17.972 C105.430002,18.2680015 105.799998,18.416 106.24,18.416 C106.688002,18.416 107.059999,18.2700015 107.356,17.978 C107.652001,17.6859985 107.8,17.3160022 107.8,16.868 C107.8,16.4119977 107.650002,16.0340015 107.35,15.734 C107.049998,15.4339985 106.68,15.284 106.24,15.284 C105.799998,15.284 105.430002,15.4359985 105.13,15.74 C104.829998,16.0440015 104.68,16.4199978 104.68,16.868 Z M115.792,18.056 C115.792,18.6800031 115.538003,19.1859981 115.03,19.574 C114.521997,19.9620019 113.872004,20.156 113.08,20.156 C112.319996,20.156 111.696002,19.9960016 111.208,19.676 C110.719998,19.3559984 110.444,18.9320026 110.38,18.404 C110.364,18.2919994 110.374,18.2180002 110.41,18.182 C110.446,18.1459998 110.508,18.128 110.596,18.128 L111.688,18.128 C111.768,18.128 111.832,18.1419999 111.88,18.17 C111.928,18.1980001 111.976,18.2519996 112.024,18.332 C112.152001,18.5640012 112.305999,18.7279995 112.486,18.824 C112.666001,18.9200005 112.887999,18.968 113.152,18.968 C113.456002,18.968 113.705999,18.9020007 113.902,18.77 C114.098001,18.6379993 114.196,18.476001 114.196,18.284 C114.196,18.1159992 114.114001,17.9860005 113.95,17.894 C113.822444,17.8224441 113.572693,17.7520989 113.200742,17.6829631 L112.49004,17.563755 C112.212489,17.5147754 111.995144,17.4688574 111.838,17.426 C111.617999,17.3659997 111.428001,17.2920004 111.268,17.204 C110.995999,17.0599993 110.796001,16.8760011 110.668,16.652 C110.539999,16.4279989 110.476,16.1600016 110.476,15.848 C110.476,15.2239969 110.709998,14.7300018 111.178,14.366 C111.646002,14.0019982 112.283996,13.82 113.092,13.82 C113.764003,13.82 114.311998,13.9639986 114.736,14.252 C115.160002,14.5400014 115.435999,14.9519973 115.564,15.488 C115.588,15.5920005 115.58,15.6659998 115.54,15.71 C115.5,15.7540002 115.432,15.776 115.336,15.776 L114.34,15.776 C114.26,15.776 114.196,15.7620001 114.148,15.734 C114.1,15.7059999 114.056,15.6560004 114.016,15.584 C113.911999,15.383999 113.782001,15.2380005 113.626,15.146 C113.469999,15.0539995 113.276001,15.008 113.044,15.008 C112.763999,15.008 112.538001,15.0679994 112.366,15.188 C112.193999,15.3080006 112.108,15.4599991 112.108,15.644 C112.108,15.8040008 112.187999,15.9299995 112.348,16.022 C112.508001,16.1140005 112.867997,16.2039996 113.428,16.292 L113.78996,16.3468572 C114.067511,16.3925715 114.284856,16.4382855 114.442,16.484 C114.662001,16.5480003 114.851999,16.6199996 115.012,16.7 C115.276001,16.8440007 115.471999,17.0279989 115.6,17.252 C115.728001,17.4760011 115.792,17.7439984 115.792,18.056 Z M121.414,19.3059999 L121.36,19.352 C121.047998,19.6400014 120.740002,19.8459994 120.436,19.97 C120.131998,20.0940006 119.796002,20.156 119.428,20.156 C118.603996,20.156 117.906003,19.8500031 117.334,19.238 C116.761997,18.6259969 116.476,17.8760044 116.476,16.988 C116.476,16.0999956 116.765997,15.3500031 117.346,14.738 C117.926003,14.1259969 118.627996,13.82 119.452,13.82 C119.740001,13.82 120.009999,13.8679995 120.262,13.964 C120.463601,14.0408004 120.6716,14.1559995 120.886,14.3095996 L121.048,14.432 C121.104,14.4800002 121.156,14.5 121.204,14.492 C121.252,14.484 121.276,14.4440004 121.276,14.372 L121.276,14.192 C121.276,14.1279997 121.298,14.0760002 121.342,14.036 C121.386,13.9959998 121.436,13.976 121.492,13.976 L122.62,13.976 C122.684,13.976 122.738,13.9979998 122.782,14.042 C122.826,14.0860002 122.848,14.1399997 122.848,14.204 L122.848,18.176 C122.848,18.32 122.874,18.4279996 122.926,18.5 C122.978,18.5720004 123.055999,18.612 123.16,18.62 C123.216,18.628 123.264,18.6499998 123.304,18.686 C123.344,18.7220002 123.364,18.7639998 123.364,18.812 L123.364,19.856 C123.364,19.9120003 123.344,19.9599998 123.304,20 C123.264,20.0400002 123.216,20.06 123.16,20.06 C122.775998,20.06 122.460001,20.0040006 122.212,19.892 C121.963999,19.7799994 121.772001,19.6080012 121.636,19.376 C121.596,19.3119997 121.554,19.278 121.51,19.274 C121.480667,19.2713333 121.448667,19.2819999 121.414,19.3059999 L121.414,19.3059999 Z M118.12,16.988 C118.12,17.4520023 118.273998,17.8479984 118.582,18.176 C118.890002,18.5040016 119.263998,18.668 119.704,18.668 C120.144002,18.668 120.515998,18.5060016 120.82,18.182 C121.124002,17.8579984 121.276,17.4600024 121.276,16.988 C121.276,16.5159976 121.124002,16.1180016 120.82,15.794 C120.515998,15.4699984 120.144002,15.308 119.704,15.308 C119.263998,15.308 118.890002,15.4719984 118.582,15.8 C118.273998,16.1280016 118.12,16.5239977 118.12,16.988 Z M124.588,19.772 L124.588,15.584 C124.588,15.5279997 124.566,15.4780002 124.522,15.434 C124.478,15.3899998 124.424,15.368 124.36,15.368 L123.952,15.368 C123.896,15.368 123.844,15.3440002 123.796,15.296 C123.748,15.2479998 123.724,15.1960003 123.724,15.14 L123.724,14.192 C123.724,14.1359997 123.746,14.0860002 123.79,14.042 C123.834,13.9979998 123.888,13.976 123.952,13.976 L124.372,13.976 C124.444,13.976 124.498,13.9580002 124.534,13.922 C124.57,13.8859998 124.588,13.8320004 124.588,13.76 L124.588,13.724 C124.588,12.9639962 124.801998,12.4000018 125.23,12.032 C125.619093,11.6974529 126.198261,11.5149749 126.96752,11.4845619 L127.324,11.48 C127.38,11.48 127.426,11.4999998 127.462,11.54 C127.498,11.5800002 127.516,11.6319997 127.516,11.696 L127.516,12.692 C127.516,12.7480003 127.498,12.7959998 127.462,12.836 C127.426,12.8760002 127.38,12.896 127.324,12.896 C126.947998,12.896 126.670001,12.9619993 126.49,13.094 C126.309999,13.2260007 126.22,13.4239987 126.22,13.688 L126.22,13.724 C126.22,13.7880003 126.246,13.8459997 126.298,13.898 C126.35,13.9500003 126.412,13.976 126.484,13.976 L127.912,13.976 C127.976,13.976 128.028,13.9540002 128.068,13.91 C128.108,13.8659998 128.128,13.8160003 128.128,13.76 L128.128,12.728 C128.128,12.6639997 128.15,12.6100002 128.194,12.566 C128.238,12.5219998 128.288,12.5 128.344,12.5 L129.532,12.5 C129.596,12.5 129.65,12.5219998 129.694,12.566 C129.738,12.6100002 129.76,12.6639997 129.76,12.728 L129.76,13.76 C129.76,13.8160003 129.782,13.8659998 129.826,13.91 C129.87,13.9540002 129.924,13.976 129.988,13.976 L130.768,13.976 C130.832,13.976 130.886,13.9979998 130.93,14.042 C130.974,14.0860002 130.996,14.1399997 130.996,14.204 L130.996,15.152 C130.996,15.2080003 130.974,15.2579998 130.93,15.302 C130.886,15.3460002 130.832,15.368 130.768,15.368 L129.988,15.368 C129.932,15.368 129.88,15.3899998 129.832,15.434 C129.784,15.4780002 129.76,15.5319997 129.76,15.596 L129.76,17.6 C129.76,17.9440017 129.849999,18.2019991 130.03,18.374 C130.210001,18.5460009 130.475998,18.632 130.828,18.632 C130.884,18.632 130.93,18.6499998 130.966,18.686 C131.002,18.7220002 131.02,18.7679997 131.02,18.824 L131.02,19.844 C131.02,19.9080003 131,19.9599998 130.96,20 C130.92,20.0400002 130.872,20.06 130.816,20.06 L130.744,20.06 C129.863996,20.06 129.208002,19.858002 128.776,19.454 C128.343998,19.049998 128.128,18.4360041 128.128,17.612 L128.128,15.584 C128.128,15.5199997 128.108,15.4680002 128.068,15.428 C128.028,15.3879998 127.976,15.368 127.912,15.368 L126.448,15.368 C126.384,15.368 126.33,15.3899998 126.286,15.434 C126.242,15.4780002 126.22,15.5279997 126.22,15.584 L126.22,19.772 C126.22,19.8280003 126.198,19.8799998 126.154,19.928 C126.11,19.9760002 126.056,20 125.992,20 L124.804,20 C124.748,20 124.698,19.9780002 124.654,19.934 C124.61,19.8899998 124.588,19.8360003 124.588,19.772 Z M136.522,19.3059999 L136.468,19.352 C136.155998,19.6400014 135.848002,19.8459994 135.544,19.97 C135.239998,20.0940006 134.904002,20.156 134.536,20.156 C133.711996,20.156 133.014003,19.8500031 132.442,19.238 C131.869997,18.6259969 131.584,17.8760044 131.584,16.988 C131.584,16.0999956 131.873997,15.3500031 132.454,14.738 C133.034003,14.1259969 133.735996,13.82 134.56,13.82 C134.848001,13.82 135.117999,13.8679995 135.37,13.964 C135.571601,14.0408004 135.7796,14.1559995 135.994,14.3095996 L136.156,14.432 C136.212,14.4800002 136.264,14.5 136.312,14.492 C136.36,14.484 136.384,14.4440004 136.384,14.372 L136.384,14.192 C136.384,14.1279997 136.406,14.0760002 136.45,14.036 C136.494,13.9959998 136.544,13.976 136.6,13.976 L137.728,13.976 C137.792,13.976 137.846,13.9979998 137.89,14.042 C137.934,14.0860002 137.956,14.1399997 137.956,14.204 L137.956,18.176 C137.956,18.32 137.982,18.4279996 138.034,18.5 C138.086,18.5720004 138.163999,18.612 138.268,18.62 C138.324,18.628 138.372,18.6499998 138.412,18.686 C138.452,18.7220002 138.472,18.7639998 138.472,18.812 L138.472,19.856 C138.472,19.9120003 138.452,19.9599998 138.412,20 C138.372,20.0400002 138.324,20.06 138.268,20.06 C137.883998,20.06 137.568001,20.0040006 137.32,19.892 C137.071999,19.7799994 136.880001,19.6080012 136.744,19.376 C136.704,19.3119997 136.662,19.278 136.618,19.274 C136.588667,19.2713333 136.556667,19.2819999 136.522,19.3059999 L136.522,19.3059999 Z M133.228,16.988 C133.228,17.4520023 133.381998,17.8479984 133.69,18.176 C133.998002,18.5040016 134.371998,18.668 134.812,18.668 C135.252002,18.668 135.623998,18.5060016 135.928,18.182 C136.232002,17.8579984 136.384,17.4600024 136.384,16.988 C136.384,16.5159976 136.232002,16.1180016 135.928,15.794 C135.623998,15.4699984 135.252002,15.308 134.812,15.308 C134.371998,15.308 133.998002,15.4719984 133.69,15.8 C133.381998,16.1280016 133.228,16.5239977 133.228,16.988 Z M141.616,20.06 C140.799996,20.06 140.226002,19.9020016 139.894,19.586 C139.561998,19.2699984 139.396,18.7280038 139.396,17.96 L139.396,12.068 C139.396,12.0039997 139.418,11.9500002 139.462,11.906 C139.506,11.8619998 139.556,11.84 139.612,11.84 L140.8,11.84 C140.864,11.84 140.918,11.8619998 140.962,11.906 C141.006,11.9500002 141.028,12.0039997 141.028,12.068 L141.028,17.996 C141.028,18.204001 141.078,18.3619995 141.178,18.47 C141.278001,18.5780005 141.423999,18.632 141.616,18.632 C141.68,18.632 141.734,18.6539998 141.778,18.698 C141.822,18.7420002 141.844,18.7959997 141.844,18.86 L141.844,19.844 C141.844,19.9000003 141.822,19.9499998 141.778,19.994 C141.734,20.0380002 141.68,20.06 141.616,20.06 Z M145.48,13.82 C146.368004,13.82 147.105997,14.1259969 147.694,14.738 C148.282003,15.3500031 148.576,16.1159954 148.576,17.036 C148.576,17.1720007 148.554,17.2719997 148.51,17.336 C148.466,17.4000003 148.396,17.432 148.3,17.432 L144.172,17.432 C144.124,17.432 144.088,17.4459999 144.064,17.474 C144.04,17.5020001 144.032,17.5399998 144.04,17.588 C144.08,17.9320017 144.237999,18.2159989 144.514,18.44 C144.790001,18.6640011 145.119998,18.776 145.504,18.776 C145.728001,18.776 145.937999,18.7320004 146.134,18.644 C146.281001,18.5779997 146.413375,18.4895003 146.531125,18.3785003 L146.644,18.26 C146.708,18.1879996 146.77,18.1380001 146.83,18.11 C146.89,18.0819999 146.956,18.068 147.028,18.068 L148.132,18.068 C148.228,18.068 148.294,18.0979997 148.33,18.158 C148.366,18.2180003 148.368,18.2959995 148.336,18.392 C148.135999,18.9200026 147.770003,19.3459984 147.238,19.67 C146.705997,19.9940016 146.112003,20.156 145.456,20.156 C144.551995,20.156 143.806003,19.860003 143.218,19.268 C142.629997,18.675997 142.336,17.9240046 142.336,17.012 C142.336,16.0999954 142.635997,15.340003 143.236,14.732 C143.836,14.123997 144.583996,13.82 145.48,13.82 Z M145.456,15.2 C145.135998,15.2 144.848001,15.301999 144.592,15.506 C144.335999,15.710001 144.168,15.9719984 144.088,16.292 C144.072,16.3480003 144.072,16.3899999 144.088,16.418 C144.104,16.4460001 144.136,16.46 144.184,16.46 L144.184,16.46 L146.716,16.46 C146.756,16.46 146.786,16.4500001 146.806,16.43 C146.826,16.4099999 146.832,16.3760002 146.824,16.328 C146.76,15.9999984 146.600001,15.7300011 146.344,15.518 C146.087999,15.3059989 145.792002,15.2 145.456,15.2 Z" id="Startbetalingsafale" fill="#FFFFFF" fill-rule="nonzero"></path>
                <g id="Logo-/-monochrome-/-symbol-/-white" transform="translate(14.900002, 7.300003)" fill="#FFFFFF">
                    <g id="Logo_monochrome_lines" transform="translate(0.500000, 0.250000)">
                        <path d="M7.75,10.9431016 C9.13483728,10.5210584 10.3064327,10.3088496 11.2647864,10.3064752 C12.8492125,10.3025495 14.1776171,10.6170578 15.25,11.25 L15.25,6.64717416 C14.1721725,6.08905709 12.9543393,5.79113171 11.5965004,5.75339801 C10.2386615,5.71566431 8.95649471,5.99219527 7.75,6.58299089 L7.75,10.9431016 Z" id="Path-4"></path>
                        <path d="M5.5,5.93166212 L7.20914556,10 L7.20914556,6.10103504 C8.10964951,5.61882152 9.06297271,5.30978829 10.0691151,5.17393533 C11.0752576,5.03808237 12.2188859,5.05998565 13.5,5.23964517 L12.5704391,3.01866375 C11.2237557,2.93169716 9.94087675,3.14865619 8.72180222,3.66954086 C7.50272768,4.19042552 6.42879361,4.94446595 5.5,5.93166212 Z" id="Path-4"></path>
                        <path d="M10.75,4.2626056 C10.75,3.87004584 10.75,3.28120621 10.75,2.4960867 C10.75,1.66982083 10.0842547,1 9.26301629,1 L4.23698371,1 C3.41574529,1 2.75,1.66982083 2.75,2.4960867 L2.75,14.2539133 C2.75,15.0801792 3.41574529,15.75 4.23698371,15.75 L9.26301629,15.75 C10.0842547,15.75 10.75,15.0801792 10.75,14.2539133 C10.75,13.5092881 10.75,13.023393 10.75,12.7962281 C10.5219243,12.6860826 10.3543143,12.6072881 10.2471701,12.5598446 C10.1340204,12.5097419 9.97118954,12.442217 9.75867752,12.3572699 C9.75867752,12.6499776 9.75867752,13.2821921 9.75867752,14.2539133 C9.75867752,14.5293353 9.53676243,14.7526089 9.26301629,14.7526089 L4.23698371,14.7526089 C3.96323757,14.7526089 3.74132248,14.5293353 3.74132248,14.2539133 L3.74132248,2.4960867 C3.74132248,2.22066475 3.96323757,1.99739114 4.23698371,1.99739114 L9.26301629,1.99739114 C9.53676243,1.99739114 9.75867752,2.22066475 9.75867752,2.4960867 L9.75867752,4.28162793 C9.99179293,4.26692049 10.1691211,4.26016412 10.2906619,4.26135882 C10.4122028,4.26255352 10.5653155,4.26296911 10.75,4.2626056 Z" id="Path-5" fill-rule="nonzero" transform="translate(6.750000, 8.375000) rotate(-22.400000) translate(-6.750000, -8.375000) "></path>
                    </g>
                </g>
            </g>
        </g>
    </g>
</svg>