<?xml version="1.0" encoding="UTF-8"?>
<svg width="178px" height="40px" viewBox="0 0 178 40" version="1.1" xmlns="http://www.w3.org/2000/svg" xmlns:xlink="http://www.w3.org/1999/xlink">
    <!-- Generator: Sketch 58 (84663) - https://sketch.com -->
    <title>danish-white-medium</title>
    <desc>Created with Sketch.</desc>
    <g id="Subscription-assets" stroke="none" stroke-width="1" fill="none" fill-rule="evenodd">
        <g id="Betalingsaftale---editable-Copy" transform="translate(-21.000000, -652.000000)">
            <g id="danish-white-medium" transform="translate(21.000000, 652.000000)">
                <rect id="Background" fill="#FFFFFF" x="0" y="0" width="178" height="40" rx="4"></rect>
                <path d="M49.56,25 L44.328,25 C44.253333,25 44.186667,24.970667 44.128,24.912 C44.069333,24.853333 44.04,24.7813338 44.04,24.696 L44.04,14.424 C44.04,14.3386662 44.069333,14.266667 44.128,14.208 C44.186667,14.149333 44.253333,14.12 44.328,14.12 L49.528,14.12 C50.4773381,14.12 51.2773301,14.4133304 51.928,15 C52.5786699,15.5866696 52.904,16.3119957 52.904,17.176 C52.904,17.6026688 52.8160009,17.9999982 52.64,18.368 C52.4639991,18.7360018 52.2106683,19.053332 51.88,19.32 C51.8373331,19.3626669 51.816,19.4079998 51.816,19.456 C51.816,19.5040002 51.8373331,19.5439998 51.88,19.576 C52.3280022,19.8213346 52.6719988,20.1386647 52.912,20.528 C53.1520012,20.9173353 53.272,21.3466643 53.272,21.816 C53.272,22.7333379 52.9226702,23.4933303 52.224,24.096 C51.5253298,24.6986697 50.6373387,25 49.56,25 Z M46.552,18.6 L49.288,18.6 C49.6826686,18.6 50.0079987,18.4720013 50.264,18.216 C50.5200013,17.9599987 50.648,17.6400019 50.648,17.256 C50.648,16.8613314 50.5173346,16.5493345 50.256,16.32 C49.9946654,16.0906655 49.6453355,15.976 49.208,15.976 L46.552,15.976 C46.4666662,15.976 46.4000002,15.9999998 46.352,16.048 C46.3039998,16.0960002 46.28,16.1626662 46.28,16.248 L46.28,18.344 C46.28,18.4293338 46.3039998,18.4933331 46.352,18.536 C46.4000002,18.5786669 46.4666662,18.6 46.552,18.6 Z M46.552,23.128 L49.448,23.128 C49.8853355,23.128 50.2533318,22.9893347 50.552,22.712 C50.8506682,22.4346653 51,22.0986686 51,21.704 C51,21.3306648 50.8560014,21.010668 50.568,20.744 C50.28,20.477332 49.9173355,20.344 49.48,20.344 L46.552,20.344 C46.4666662,20.344 46.4000002,20.3653331 46.352,20.408 C46.3039998,20.4506669 46.28,20.5146662 46.28,20.6 L46.28,22.872 C46.28,22.9573338 46.3013331,23.0213331 46.344,23.064 C46.3866669,23.1066669 46.4559995,23.128 46.552,23.128 Z M62.136,22.856 C61.869332,23.5600035 61.3813369,24.1279978 60.672,24.56 C59.9626631,24.9920022 59.170671,25.208 58.296,25.208 C57.0906606,25.208 56.0960039,24.8133373 55.312,24.024 C54.5279961,23.2346627 54.136,22.2320061 54.136,21.016 C54.136,19.7999939 54.535996,18.7866707 55.336,17.976 C56.136,17.1653293 57.1333274,16.76 58.328,16.76 C59.5120059,16.76 60.4959961,17.1679959 61.28,17.984 C62.0640039,18.8000041 62.456,19.8213272 62.456,21.048 C62.456,21.2293342 62.426667,21.3626662 62.368,21.448 C62.309333,21.5333338 62.2160006,21.576 62.088,21.576 L56.584,21.576 C56.5199997,21.576 56.4720002,21.5946665 56.44,21.632 C56.4079998,21.6693335 56.3973333,21.7199997 56.408,21.784 C56.4613336,22.242669 56.6719982,22.6213318 57.04,22.92 C57.4080018,23.2186682 57.8479974,23.368 58.36,23.368 C58.6586682,23.368 58.9386654,23.3093339 59.2,23.192 C59.4090677,23.0981329 59.5959465,22.9701339 59.7606398,22.8080004 L59.88,22.68 C59.9653338,22.5839995 60.0479996,22.5173335 60.128,22.48 C60.2080004,22.4426665 60.2959995,22.424 60.392,22.424 L61.864,22.424 C61.9920006,22.424 62.0799998,22.4639996 62.128,22.544 C62.1760002,22.6240004 62.1786669,22.7279994 62.136,22.856 Z M56.472,20.056 C56.4506666,20.130667 56.4506666,20.1866665 56.472,20.224 C56.4933334,20.2613335 56.5359997,20.28 56.6,20.28 L59.976,20.28 C60.0293336,20.28 60.0693332,20.2666668 60.096,20.24 C60.1226668,20.2133332 60.1306667,20.1680003 60.12,20.104 C60.0346662,19.6666645 59.821335,19.3066681 59.48,19.024 C59.138665,18.7413319 58.7440022,18.6 58.296,18.6 C57.8693312,18.6 57.485335,18.7359986 57.144,19.008 C56.802665,19.2800014 56.5786672,19.6293312 56.472,20.056 Z M67.864,25.08 L67.784,25.08 C66.5999941,25.08 65.7200029,24.8106694 65.144,24.272 C64.5679971,23.7333306 64.28,22.9146722 64.28,21.816 L64.28,19.112 C64.28,19.0266662 64.2533336,18.9573336 64.2,18.904 C64.1466664,18.8506664 64.0773338,18.824 63.992,18.824 L63.432,18.824 C63.3466662,18.824 63.274667,18.794667 63.216,18.736 C63.157333,18.677333 63.128,18.610667 63.128,18.536 L63.128,17.272 C63.128,17.1866662 63.1599997,17.114667 63.224,17.056 C63.2880003,16.997333 63.357333,16.968 63.432,16.968 L63.992,16.968 C64.0773338,16.968 64.1466664,16.938667 64.2,16.88 C64.2533336,16.821333 64.28,16.754667 64.28,16.68 L64.28,15.304 C64.28,15.2186662 64.309333,15.146667 64.368,15.088 C64.426667,15.029333 64.493333,15 64.568,15 L66.152,15 C66.2373338,15 66.309333,15.029333 66.368,15.088 C66.426667,15.146667 66.456,15.2186662 66.456,15.304 L66.456,16.68 C66.456,16.754667 66.485333,16.821333 66.544,16.88 C66.602667,16.938667 66.6746662,16.968 66.76,16.968 L67.8,16.968 C67.8853338,16.968 67.957333,16.997333 68.016,17.056 C68.074667,17.114667 68.104,17.1866662 68.104,17.272 L68.104,18.536 C68.104,18.610667 68.074667,18.677333 68.016,18.736 C67.957333,18.794667 67.8853338,18.824 67.8,18.824 L66.76,18.824 C66.685333,18.824 66.6160003,18.853333 66.552,18.912 C66.4879997,18.970667 66.456,19.0426662 66.456,19.128 L66.456,21.8 C66.456,22.2480022 66.5759988,22.5893322 66.816,22.824 C67.0560012,23.0586678 67.405331,23.176 67.864,23.176 C67.938667,23.176 68.0026664,23.1999998 68.056,23.248 C68.1093336,23.2960002 68.136,23.357333 68.136,23.432 L68.136,24.792 C68.136,24.8773338 68.1093336,24.9466664 68.056,25 C68.0026664,25.0533336 67.938667,25.08 67.864,25.08 Z M75.4545001,24.0874998 L75.4,24.136 C74.9839979,24.5200019 74.5733354,24.7946658 74.168,24.96 C73.7626646,25.1253342 73.3146691,25.208 72.824,25.208 C71.7253278,25.208 70.7946705,24.8000041 70.032,23.984 C69.2693295,23.1679959 68.888,22.1680059 68.888,20.984 C68.888,19.7999941 69.2746628,18.8000041 70.048,17.984 C70.8213372,17.1679959 71.7573278,16.76 72.856,16.76 C73.2400019,16.76 73.5999983,16.8239994 73.936,16.952 C74.2048013,17.0544005 74.4821327,17.2079993 74.7679995,17.4127995 L74.984,17.576 C75.058667,17.6400003 75.1279997,17.6666667 75.192,17.656 C75.2560003,17.6453333 75.288,17.5920005 75.288,17.496 L75.288,17.256 C75.288,17.1706662 75.317333,17.1013336 75.376,17.048 C75.434667,16.9946664 75.501333,16.968 75.576,16.968 L77.08,16.968 C77.1653338,16.968 77.237333,16.997333 77.296,17.056 C77.354667,17.114667 77.384,17.1866662 77.384,17.272 L77.384,22.568 C77.384,22.76 77.4186663,22.9039995 77.488,23 C77.5573337,23.0960005 77.6613326,23.1493333 77.8,23.16 C77.874667,23.1706667 77.9386664,23.1999998 77.992,23.248 C78.0453336,23.2960002 78.072,23.3519997 78.072,23.416 L78.072,24.808 C78.072,24.882667 78.0453336,24.9466664 77.992,25 C77.9386664,25.0533336 77.874667,25.08 77.8,25.08 C77.2879974,25.08 76.8666683,25.0053341 76.536,24.856 C76.2053317,24.7066659 75.9493342,24.4773349 75.768,24.168 C75.7146664,24.0826662 75.658667,24.0373334 75.6,24.032 C75.5559998,24.028 75.5075001,24.0464998 75.4545001,24.0874998 L75.4545001,24.0874998 Z M71.08,20.984 C71.08,21.6026698 71.2853313,22.1306645 71.696,22.568 C72.1066687,23.0053355 72.6053304,23.224 73.192,23.224 C73.7786696,23.224 74.2746646,23.0080022 74.68,22.576 C75.0853354,22.1439978 75.288,21.6133365 75.288,20.984 C75.288,20.3546635 75.0853354,19.8240022 74.68,19.392 C74.2746646,18.9599978 73.7786696,18.744 73.192,18.744 C72.6053304,18.744 72.1066687,18.9626645 71.696,19.4 C71.2853313,19.8373355 71.08,20.3653302 71.08,20.984 Z M82.264,25.08 C81.1759946,25.08 80.4106689,24.8693354 79.968,24.448 C79.5253311,24.0266646 79.304,23.3040051 79.304,22.28 L79.304,14.424 C79.304,14.3386662 79.333333,14.266667 79.392,14.208 C79.450667,14.149333 79.517333,14.12 79.592,14.12 L81.176,14.12 C81.2613338,14.12 81.333333,14.149333 81.392,14.208 C81.450667,14.266667 81.48,14.3386662 81.48,14.424 L81.48,22.328 C81.48,22.6053347 81.546666,22.8159993 81.68,22.96 C81.7911117,23.0800006 81.9448141,23.1500002 82.1411107,23.17 L82.264,23.176 C82.3493338,23.176 82.421333,23.205333 82.48,23.264 C82.538667,23.322667 82.568,23.3946662 82.568,23.48 L82.568,24.792 C82.568,24.866667 82.538667,24.933333 82.48,24.992 C82.421333,25.050667 82.3493338,25.08 82.264,25.08 Z M85.88,14.872 C85.88,15.2026683 85.7600012,15.4879988 85.52,15.728 C85.2799988,15.9680012 84.9946683,16.088 84.664,16.088 C84.3333317,16.088 84.0480012,15.9680012 83.808,15.728 C83.5679988,15.4879988 83.448,15.2026683 83.448,14.872 C83.448,14.5413317 83.5679988,14.2560012 83.808,14.016 C84.0480012,13.7759988 84.3333317,13.656 84.664,13.656 C84.9946683,13.656 85.2799988,13.7759988 85.52,14.016 C85.7600012,14.2560012 85.88,14.5413317 85.88,14.872 Z M85.432,25 L83.848,25 C83.773333,25 83.706667,24.970667 83.648,24.912 C83.589333,24.853333 83.56,24.7813338 83.56,24.696 L83.56,17.272 C83.56,17.1866662 83.589333,17.114667 83.648,17.056 C83.706667,16.997333 83.773333,16.968 83.848,16.968 L85.432,16.968 C85.5173338,16.968 85.589333,16.997333 85.648,17.056 C85.706667,17.114667 85.736,17.1866662 85.736,17.272 L85.736,24.696 C85.736,24.770667 85.706667,24.8399997 85.648,24.904 C85.589333,24.968 85.5173338,25 85.432,25 Z M89.368,25 L87.784,25 C87.709333,25 87.642667,24.970667 87.584,24.912 C87.525333,24.853333 87.496,24.7813338 87.496,24.696 L87.496,17.272 C87.496,17.1866662 87.525333,17.114667 87.584,17.056 C87.642667,16.997333 87.709333,16.968 87.784,16.968 L89.304,16.968 C89.3893338,16.968 89.461333,16.997333 89.52,17.056 C89.578667,17.114667 89.608,17.1866662 89.608,17.272 L89.608,17.432 C89.608,17.5493339 89.6426663,17.6213332 89.712,17.648 C89.7813337,17.6746668 89.8639995,17.6453338 89.96,17.56 C90.3546686,17.2719986 90.7173317,17.0666673 91.048,16.944 C91.3786683,16.8213327 91.7093317,16.76 92.04,16.76 C92.9040043,16.76 93.6106639,17.0586637 94.16,17.656 C94.7093361,18.2533363 94.984,19.0159954 94.984,19.944 L94.984,24.696 C94.984,24.770667 94.954667,24.8399997 94.896,24.904 C94.837333,24.9680003 94.7653338,25 94.68,25 L93.096,25 C93.021333,25 92.954667,24.970667 92.896,24.912 C92.837333,24.853333 92.808,24.7813338 92.808,24.696 L92.808,20.328 C92.808,19.8266642 92.6666681,19.4213349 92.384,19.112 C92.1013319,18.8026651 91.730669,18.648 91.272,18.648 C90.8239978,18.648 90.4453349,18.810665 90.136,19.136 C89.8266651,19.461335 89.672,19.8479978 89.672,20.296 L89.672,24.696 C89.672,24.770667 89.642667,24.8399997 89.584,24.904 C89.525333,24.9680003 89.4533338,25 89.368,25 Z M100.696,28.2 C99.703995,28.2 98.8560035,27.9733356 98.152,27.52 C97.4479965,27.0666644 96.9680013,26.4293374 96.712,25.608 C96.6799998,25.5119995 96.693333,25.4320003 96.752,25.368 C96.810667,25.3039997 96.9039994,25.272 97.032,25.272 L98.568,25.272 C98.6640005,25.272 98.7466663,25.2906665 98.816,25.328 C98.8622225,25.352889 98.9072593,25.3908147 98.951111,25.4417776 L99.016,25.528 C99.1866675,25.794668 99.4133319,25.994666 99.696,26.128 C99.9786681,26.261334 100.306665,26.328 100.68,26.328 C101.26667,26.328 101.746665,26.1306686 102.12,25.736 C102.493335,25.3413314 102.68,24.8346698 102.68,24.216 L102.68,24.12 C102.68,24.0133328 102.648,23.9466668 102.584,23.92 C102.536,23.8999999 102.479,23.9054998 102.413,23.9364998 L102.344,23.976 C101.959998,24.2213346 101.600002,24.3999994 101.264,24.512 C100.927998,24.6240006 100.605335,24.68 100.296,24.68 C99.1866611,24.68 98.261337,24.309337 97.52,23.568 C96.778663,22.826663 96.408,21.885339 96.408,20.744 C96.408,19.5919942 96.7839962,18.6400038 97.536,17.888 C98.2880038,17.1359962 99.2186611,16.76 100.328,16.76 C100.744002,16.76 101.125332,16.8293326 101.472,16.968 C101.749335,17.0789339 102.01472,17.2342393 102.26816,17.4339195 L102.456,17.592 C102.530667,17.666667 102.6,17.6960001 102.664,17.68 C102.728,17.6639999 102.76,17.6080005 102.76,17.512 L102.76,17.256 C102.76,17.1706662 102.789333,17.1013336 102.848,17.048 C102.906667,16.9946664 102.973333,16.968 103.048,16.968 L104.552,16.968 C104.637334,16.968 104.709333,16.997333 104.768,17.056 C104.826667,17.114667 104.856,17.1866662 104.856,17.272 L104.856,24.024 C104.856,25.2293394 104.464004,26.2266627 103.68,27.016 C102.895996,27.8053373 101.901339,28.2 100.696,28.2 Z M98.6,20.824 C98.6,21.4106696 98.799998,21.9013314 99.2,22.296 C99.6,22.6906686 100.09333,22.888 100.68,22.888 C101.277336,22.888 101.773331,22.6933353 102.168,22.304 C102.562669,21.9146647 102.76,21.4213363 102.76,20.824 C102.76,20.215997 102.560002,19.712 102.16,19.312 C101.759998,18.911998 101.26667,18.712 100.68,18.712 C100.09333,18.712 99.6,18.9146646 99.2,19.32 C98.799998,19.7253354 98.6,20.2266637 98.6,20.824 Z M113.416,22.408 C113.416,23.2400042 113.077337,23.9146641 112.4,24.432 C111.722663,24.9493359 110.856005,25.208 109.8,25.208 C108.786662,25.208 107.95467,24.9946688 107.304,24.568 C106.65333,24.1413312 106.285334,23.5760035 106.2,22.872 C106.178667,22.7226659 106.192,22.6240002 106.24,22.576 C106.288,22.5279998 106.370666,22.504 106.488,22.504 L107.944,22.504 C108.050667,22.504 108.136,22.5226665 108.2,22.56 C108.264,22.5973335 108.328,22.6693328 108.392,22.776 C108.562668,23.0853349 108.767999,23.3039994 109.008,23.432 C109.248001,23.5600006 109.543998,23.624 109.896,23.624 C110.301335,23.624 110.634665,23.5360009 110.896,23.36 C111.157335,23.1839991 111.288,22.9680013 111.288,22.712 C111.288,22.4879989 111.178668,22.3146673 110.96,22.192 C110.785066,22.0938662 110.437762,21.9974402 109.918081,21.9027202 L109.069499,21.7614999 C108.672499,21.6924999 108.364001,21.6280003 108.144,21.568 C107.850665,21.4879996 107.597334,21.3893339 107.384,21.272 C107.021332,21.079999 106.754668,20.8346682 106.584,20.536 C106.413332,20.2373318 106.328,19.8800021 106.328,19.464 C106.328,18.6319958 106.639997,17.9733358 107.264,17.488 C107.888003,17.0026642 108.738661,16.76 109.816,16.76 C110.712004,16.76 111.442664,16.9519981 112.008,17.336 C112.573336,17.7200019 112.941332,18.2693298 113.112,18.984 C113.144,19.1226674 113.133334,19.221333 113.08,19.28 C113.026666,19.338667 112.936001,19.368 112.808,19.368 L111.48,19.368 C111.373333,19.368 111.288,19.3493335 111.224,19.312 C111.16,19.2746665 111.101334,19.2080005 111.048,19.112 C110.909333,18.845332 110.736001,18.6506673 110.528,18.528 C110.319999,18.4053327 110.061335,18.344 109.752,18.344 C109.378665,18.344 109.077334,18.4239992 108.848,18.584 C108.618666,18.7440008 108.504,18.9466654 108.504,19.192 C108.504,19.4053344 108.610666,19.5733327 108.824,19.696 C109.037334,19.8186673 109.51733,19.9386661 110.264,20.056 L110.690501,20.1200001 C111.087501,20.1840001 111.395999,20.2479997 111.616,20.312 C111.909335,20.3973338 112.162666,20.4933328 112.376,20.6 C112.728002,20.792001 112.989332,21.0373318 113.16,21.336 C113.330668,21.6346682 113.416,21.9919979 113.416,22.408 Z M120.8945,24.0874998 L120.84,24.136 C120.423998,24.5200019 120.013335,24.7946658 119.608,24.96 C119.202665,25.1253342 118.754669,25.208 118.264,25.208 C117.165328,25.208 116.23467,24.8000041 115.472,23.984 C114.70933,23.1679959 114.328,22.1680059 114.328,20.984 C114.328,19.7999941 114.714663,18.8000041 115.488,17.984 C116.261337,17.1679959 117.197328,16.76 118.296,16.76 C118.680002,16.76 119.039998,16.8239994 119.376,16.952 C119.644801,17.0544005 119.922133,17.2079993 120.207999,17.4127995 L120.424,17.576 C120.498667,17.6400003 120.568,17.6666667 120.632,17.656 C120.696,17.6453333 120.728,17.5920005 120.728,17.496 L120.728,17.256 C120.728,17.1706662 120.757333,17.1013336 120.816,17.048 C120.874667,16.9946664 120.941333,16.968 121.016,16.968 L122.52,16.968 C122.605334,16.968 122.677333,16.997333 122.736,17.056 C122.794667,17.114667 122.824,17.1866662 122.824,17.272 L122.824,22.568 C122.824,22.76 122.858666,22.9039995 122.928,23 C122.997334,23.0960005 123.101333,23.1493333 123.24,23.16 C123.314667,23.1706667 123.378666,23.1999998 123.432,23.248 C123.485334,23.2960002 123.512,23.3519997 123.512,23.416 L123.512,24.808 C123.512,24.882667 123.485334,24.9466664 123.432,25 C123.378666,25.0533336 123.314667,25.08 123.24,25.08 C122.727997,25.08 122.306668,25.0053341 121.976,24.856 C121.645332,24.7066659 121.389334,24.4773349 121.208,24.168 C121.154666,24.0826662 121.098667,24.0373334 121.04,24.032 C120.996,24.028 120.9475,24.0464998 120.8945,24.0874998 L120.8945,24.0874998 Z M116.52,20.984 C116.52,21.6026698 116.725331,22.1306645 117.136,22.568 C117.546669,23.0053355 118.04533,23.224 118.632,23.224 C119.21867,23.224 119.714665,23.0080022 120.12,22.576 C120.525335,22.1439978 120.728,21.6133365 120.728,20.984 C120.728,20.3546635 120.525335,19.8240022 120.12,19.392 C119.714665,18.9599978 119.21867,18.744 118.632,18.744 C118.04533,18.744 117.546669,18.9626645 117.136,19.4 C116.725331,19.8373355 116.52,20.3653302 116.52,20.984 Z M125.144,24.696 L125.144,19.112 C125.144,19.037333 125.114667,18.970667 125.056,18.912 C124.997333,18.853333 124.925334,18.824 124.84,18.824 L124.296,18.824 C124.221333,18.824 124.152,18.7920003 124.088,18.728 C124.024,18.6639997 123.992,18.594667 123.992,18.52 L123.992,17.256 C123.992,17.181333 124.021333,17.114667 124.08,17.056 C124.138667,16.997333 124.210666,16.968 124.296,16.968 L124.856,16.968 C124.952,16.968 125.024,16.9440002 125.072,16.896 C125.12,16.8479998 125.144,16.7760005 125.144,16.68 L125.144,16.632 C125.144,15.6186616 125.42933,14.8666691 126,14.376 C126.57067,13.8853309 127.447994,13.64 128.632,13.64 L128.792,13.64 C128.866667,13.64 128.928,13.6666664 128.976,13.72 C129.024,13.7733336 129.048,13.8426662 129.048,13.928 L129.048,15.256 C129.048,15.330667 129.024,15.3946664 128.976,15.448 C128.928,15.5013336 128.866667,15.528 128.792,15.528 C128.290664,15.528 127.920001,15.6159991 127.68,15.792 C127.439999,15.9680009 127.32,16.2319982 127.32,16.584 L127.32,16.632 C127.32,16.7173338 127.354666,16.7946663 127.424,16.864 C127.493334,16.9333337 127.576,16.968 127.672,16.968 L129.576,16.968 C129.661334,16.968 129.730666,16.938667 129.784,16.88 C129.837334,16.821333 129.864,16.754667 129.864,16.68 L129.864,15.304 C129.864,15.2186662 129.893333,15.146667 129.952,15.088 C130.010667,15.029333 130.077333,15 130.152,15 L131.736,15 C131.821334,15 131.893333,15.029333 131.952,15.088 C132.010667,15.146667 132.04,15.2186662 132.04,15.304 L132.04,16.68 C132.04,16.754667 132.069333,16.821333 132.128,16.88 C132.186667,16.938667 132.258666,16.968 132.344,16.968 L133.384,16.968 C133.469334,16.968 133.541333,16.997333 133.6,17.056 C133.658667,17.114667 133.688,17.1866662 133.688,17.272 L133.688,18.536 C133.688,18.610667 133.658667,18.677333 133.6,18.736 C133.541333,18.794667 133.469334,18.824 133.384,18.824 L132.344,18.824 C132.269333,18.824 132.2,18.853333 132.136,18.912 C132.072,18.970667 132.04,19.0426662 132.04,19.128 L132.04,21.8 C132.04,22.258669 132.159999,22.6026655 132.4,22.832 C132.640001,23.0613345 132.994664,23.176 133.464,23.176 C133.538667,23.176 133.6,23.1999998 133.648,23.248 C133.696,23.2960002 133.72,23.357333 133.72,23.432 L133.72,24.792 C133.72,24.8773338 133.693334,24.9466664 133.64,25 C133.586666,25.0533336 133.522667,25.08 133.448,25.08 L133.352,25.08 C132.178661,25.08 131.304003,24.8106694 130.728,24.272 C130.151997,23.7333306 129.864,22.9146722 129.864,21.816 L129.864,19.112 C129.864,19.0266662 129.837334,18.9573336 129.784,18.904 C129.730666,18.8506664 129.661334,18.824 129.576,18.824 L127.624,18.824 C127.538666,18.824 127.466667,18.853333 127.408,18.912 C127.349333,18.970667 127.32,19.037333 127.32,19.112 L127.32,24.696 C127.32,24.770667 127.290667,24.8399997 127.232,24.904 C127.173333,24.9680003 127.101334,25 127.016,25 L125.432,25 C125.357333,25 125.290667,24.970667 125.232,24.912 C125.173333,24.853333 125.144,24.7813338 125.144,24.696 Z M141.0385,24.0874998 L140.984,24.136 C140.567998,24.5200019 140.157335,24.7946658 139.752,24.96 C139.346665,25.1253342 138.898669,25.208 138.408,25.208 C137.309328,25.208 136.37867,24.8000041 135.616,23.984 C134.85333,23.1679959 134.472,22.1680059 134.472,20.984 C134.472,19.7999941 134.858663,18.8000041 135.632,17.984 C136.405337,17.1679959 137.341328,16.76 138.44,16.76 C138.824002,16.76 139.183998,16.8239994 139.52,16.952 C139.788801,17.0544005 140.066133,17.2079993 140.351999,17.4127995 L140.568,17.576 C140.642667,17.6400003 140.712,17.6666667 140.776,17.656 C140.84,17.6453333 140.872,17.5920005 140.872,17.496 L140.872,17.256 C140.872,17.1706662 140.901333,17.1013336 140.96,17.048 C141.018667,16.9946664 141.085333,16.968 141.16,16.968 L142.664,16.968 C142.749334,16.968 142.821333,16.997333 142.88,17.056 C142.938667,17.114667 142.968,17.1866662 142.968,17.272 L142.968,22.568 C142.968,22.76 143.002666,22.9039995 143.072,23 C143.141334,23.0960005 143.245333,23.1493333 143.384,23.16 C143.458667,23.1706667 143.522666,23.1999998 143.576,23.248 C143.629334,23.2960002 143.656,23.3519997 143.656,23.416 L143.656,24.808 C143.656,24.882667 143.629334,24.9466664 143.576,25 C143.522666,25.0533336 143.458667,25.08 143.384,25.08 C142.871997,25.08 142.450668,25.0053341 142.12,24.856 C141.789332,24.7066659 141.533334,24.4773349 141.352,24.168 C141.298666,24.0826662 141.242667,24.0373334 141.184,24.032 C141.14,24.028 141.0915,24.0464998 141.0385,24.0874998 L141.0385,24.0874998 Z M136.664,20.984 C136.664,21.6026698 136.869331,22.1306645 137.28,22.568 C137.690669,23.0053355 138.18933,23.224 138.776,23.224 C139.36267,23.224 139.858665,23.0080022 140.264,22.576 C140.669335,22.1439978 140.872,21.6133365 140.872,20.984 C140.872,20.3546635 140.669335,19.8240022 140.264,19.392 C139.858665,18.9599978 139.36267,18.744 138.776,18.744 C138.18933,18.744 137.690669,18.9626645 137.28,19.4 C136.869331,19.8373355 136.664,20.3653302 136.664,20.984 Z M147.848,25.08 C146.759995,25.08 145.994669,24.8693354 145.552,24.448 C145.109331,24.0266646 144.888,23.3040051 144.888,22.28 L144.888,14.424 C144.888,14.3386662 144.917333,14.266667 144.976,14.208 C145.034667,14.149333 145.101333,14.12 145.176,14.12 L146.76,14.12 C146.845334,14.12 146.917333,14.149333 146.976,14.208 C147.034667,14.266667 147.064,14.3386662 147.064,14.424 L147.064,22.328 C147.064,22.6053347 147.130666,22.8159993 147.264,22.96 C147.375112,23.0800006 147.528814,23.1500002 147.725111,23.17 L147.848,23.176 C147.933334,23.176 148.005333,23.205333 148.064,23.264 C148.122667,23.322667 148.152,23.3946662 148.152,23.48 L148.152,24.792 C148.152,24.866667 148.122667,24.933333 148.064,24.992 C148.005333,25.050667 147.933334,25.08 147.848,25.08 Z M153,16.76 C154.184006,16.76 155.167996,17.1679959 155.952,17.984 C156.736004,18.8000041 157.128,19.8213272 157.128,21.048 C157.128,21.2293342 157.098667,21.3626662 157.04,21.448 C156.981333,21.5333338 156.888001,21.576 156.76,21.576 L151.256,21.576 C151.192,21.576 151.144,21.5946665 151.112,21.632 C151.08,21.6693335 151.069333,21.7199997 151.08,21.784 C151.133334,22.242669 151.343998,22.6213318 151.712,22.92 C152.080002,23.2186682 152.519997,23.368 153.032,23.368 C153.330668,23.368 153.610665,23.3093339 153.872,23.192 C154.081068,23.0981329 154.267946,22.9701339 154.43264,22.8080004 L154.552,22.68 C154.637334,22.5839995 154.72,22.5173335 154.8,22.48 C154.88,22.4426665 154.968,22.424 155.064,22.424 L156.536,22.424 C156.664001,22.424 156.752,22.4639996 156.8,22.544 C156.848,22.6240004 156.850667,22.7279994 156.808,22.856 C156.541332,23.5600035 156.053337,24.1279978 155.344,24.56 C154.634663,24.9920022 153.842671,25.208 152.968,25.208 C151.762661,25.208 150.768004,24.8133373 149.984,24.024 C149.199996,23.2346627 148.808,22.2320061 148.808,21.016 C148.808,19.7999939 149.207996,18.7866707 150.008,17.976 C150.808,17.1653293 151.805327,16.76 153,16.76 Z M152.968,18.6 C152.541331,18.6 152.157335,18.7359986 151.816,19.008 C151.474665,19.2800014 151.250667,19.6293312 151.144,20.056 C151.122667,20.130667 151.122667,20.1866665 151.144,20.224 C151.165333,20.2613335 151.208,20.28 151.272,20.28 L151.272,20.28 L154.648,20.28 C154.701334,20.28 154.741333,20.2666668 154.768,20.24 C154.794667,20.2133332 154.802667,20.1680003 154.792,20.104 C154.706666,19.6666645 154.493335,19.3066681 154.152,19.024 C153.810665,18.7413319 153.416002,18.6 152.968,18.6 Z" id="Betalingsafale" fill="#5A78FF" fill-rule="nonzero"></path>
                <g id="Logo-/-Monochrome-/-Icon---MP-Blue" transform="translate(18.599998, 9.000000)" fill="#5A78FF">
                    <g id="Logo_monochrome_lines" transform="translate(0.647059, 0.323529)">
                        <path d="M10.0294118,14.1616609 C11.8215541,13.6154874 13.3377365,13.3408642 14.5779589,13.3377914 C16.6283927,13.3327111 18.3475044,13.7397219 19.7352941,14.5588235 L19.7352941,8.60222539 C18.3404585,7.87995624 16.7644391,7.49440574 15.0072358,7.44557389 C13.2500325,7.39674205 11.5907579,7.75460564 10.0294118,8.51916468 L10.0294118,14.1616609 Z" id="Path-4"></path>
                        <path d="M7.11764706,7.67626863 L9.32948248,12.9411765 L9.32948248,7.89545711 C10.4948405,7.27141609 11.7285529,6.87149072 13.0306196,6.69568101 C14.3326863,6.5198713 15.8126758,6.54821672 17.4705882,6.78071728 L16.267627,3.90650603 C14.5248603,3.79396102 12.864664,4.07473154 11.2870382,4.74881758 C9.7094123,5.42290362 8.31961526,6.39872064 7.11764706,7.67626863 Z" id="Path-4"></path>
                        <path d="M13.9117647,5.51631313 C13.9117647,5.00829462 13.9117647,4.24626686 13.9117647,3.23022985 C13.9117647,2.16094461 13.050212,1.29411765 11.9874328,1.29411765 L5.48315539,1.29411765 C4.42037625,1.29411765 3.55882353,2.16094461 3.55882353,3.23022985 L3.55882353,18.4462407 C3.55882353,19.515526 4.42037625,20.3823529 5.48315539,20.3823529 L11.9874328,20.3823529 C13.050212,20.3823529 13.9117647,19.515526 13.9117647,18.4462407 C13.9117647,17.4826081 13.9117647,16.8538027 13.9117647,16.5598246 C13.6166079,16.4172834 13.3997009,16.315314 13.2610437,16.2539166 C13.1146147,16.1890777 12.9038924,16.1016925 12.6288768,15.9917611 C12.6288768,16.3705593 12.6288768,17.1887191 12.6288768,18.4462407 C12.6288768,18.8026692 12.3416926,19.0916115 11.9874328,19.0916115 L5.48315539,19.0916115 C5.12889568,19.0916115 4.84171144,18.8026692 4.84171144,18.4462407 L4.84171144,3.23022985 C4.84171144,2.87380144 5.12889568,2.58485912 5.48315539,2.58485912 L11.9874328,2.58485912 C12.3416926,2.58485912 12.6288768,2.87380144 12.6288768,3.23022985 L12.6288768,5.54093026 C12.9305556,5.52189711 13.160039,5.51315357 13.3173272,5.51469965 C13.4746154,5.51624573 13.6727612,5.51678356 13.9117647,5.51631313 Z" id="Path-5" fill-rule="nonzero" transform="translate(8.735294, 10.838235) rotate(-22.400000) translate(-8.735294, -10.838235) "></path>
                    </g>
                </g>
            </g>
        </g>
    </g>
</svg>