<?xml version="1.0" encoding="UTF-8"?>
<svg width="138px" height="32px" viewBox="0 0 138 32" version="1.1" xmlns="http://www.w3.org/2000/svg" xmlns:xlink="http://www.w3.org/1999/xlink">
    <!-- Generator: Sketch 58 (84663) - https://sketch.com -->
    <title>danish-blue-small</title>
    <desc>Created with Sketch.</desc>
    <g id="Subscription-assets" stroke="none" stroke-width="1" fill="none" fill-rule="evenodd">
        <g id="Betal-og-tilmeld---editable-Copy" transform="translate(-21.000000, -156.000000)">
            <g id="danish-blue-small" transform="translate(21.000000, 156.000000)">
                <rect id="Background" fill="#5A78FF" x="0" y="0" width="138" height="32" rx="4"></rect>
                <path d="M38.92,20 L34.996,20 C34.9399997,20 34.8900002,19.9780002 34.846,19.934 C34.8019998,19.8899998 34.78,19.8360003 34.78,19.772 L34.78,12.068 C34.78,12.0039997 34.8019998,11.9500002 34.846,11.906 C34.8900002,11.8619998 34.9399997,11.84 34.996,11.84 L38.896,11.84 C39.6080036,11.84 40.2079976,12.0599978 40.696,12.5 C41.1840024,12.9400022 41.428,13.4839968 41.428,14.132 C41.428,14.4520016 41.3620007,14.7499986 41.23,15.026 C41.0979993,15.3020014 40.9080012,15.539999 40.66,15.74 C40.6279998,15.7720002 40.612,15.8059998 40.612,15.842 C40.612,15.8780002 40.6279998,15.9079999 40.66,15.932 C40.9960017,16.1160009 41.2539991,16.3539985 41.434,16.646 C41.6140009,16.9380015 41.704,17.2599982 41.704,17.612 C41.704,18.3000034 41.4420026,18.8699977 40.918,19.322 C40.3939974,19.7740023 39.728004,20 38.92,20 Z M36.664,15.2 L38.716,15.2 C39.0120015,15.2 39.255999,15.104001 39.448,14.912 C39.640001,14.719999 39.736,14.4800014 39.736,14.192 C39.736,13.8959985 39.638001,13.6620009 39.442,13.49 C39.245999,13.3179991 38.9840016,13.232 38.656,13.232 L36.664,13.232 C36.5999997,13.232 36.5500002,13.2499998 36.514,13.286 C36.4779998,13.3220002 36.46,13.3719997 36.46,13.436 L36.46,15.008 C36.46,15.0720003 36.4779998,15.1199998 36.514,15.152 C36.5500002,15.1840002 36.5999997,15.2 36.664,15.2 Z M36.664,18.596 L38.836,18.596 C39.1640016,18.596 39.4399989,18.492001 39.664,18.284 C39.8880011,18.075999 40,17.8240015 40,17.528 C40,17.2479986 39.8920011,17.008 39.676,16.808 C39.46,16.607999 39.1880016,16.508 38.86,16.508 L36.664,16.508 C36.5999997,16.508 36.5500002,16.5239998 36.514,16.556 C36.4779998,16.5880002 36.46,16.6359997 36.46,16.7 L36.46,18.404 C36.46,18.4680003 36.4759998,18.5159998 36.508,18.548 C36.5400002,18.5800002 36.5919996,18.596 36.664,18.596 Z M48.352,18.392 C48.151999,18.9200026 47.7860027,19.3459984 47.254,19.67 C46.7219973,19.9940016 46.1280033,20.156 45.472,20.156 C44.5679955,20.156 43.8220029,19.860003 43.234,19.268 C42.6459971,18.675997 42.352,17.9240046 42.352,17.012 C42.352,16.0999954 42.651997,15.340003 43.252,14.732 C43.852,14.123997 44.5999955,13.82 45.496,13.82 C46.3840044,13.82 47.1219971,14.1259969 47.71,14.738 C48.2980029,15.3500031 48.592,16.1159954 48.592,17.036 C48.592,17.1720007 48.5700002,17.2719997 48.526,17.336 C48.4819998,17.4000003 48.4120005,17.432 48.316,17.432 L44.188,17.432 C44.1399998,17.432 44.1040001,17.4459999 44.08,17.474 C44.0559999,17.5020001 44.048,17.5399998 44.056,17.588 C44.0960002,17.9320017 44.2539986,18.2159989 44.53,18.44 C44.8060014,18.6640011 45.1359981,18.776 45.52,18.776 C45.7440011,18.776 45.953999,18.7320004 46.15,18.644 C46.2970007,18.5779997 46.429375,18.4895003 46.5471248,18.3785003 L46.66,18.26 C46.7240003,18.1879996 46.7859997,18.1380001 46.846,18.11 C46.9060003,18.0819999 46.9719996,18.068 47.044,18.068 L48.148,18.068 C48.2440005,18.068 48.3099998,18.0979997 48.346,18.158 C48.3820002,18.2180003 48.3840002,18.2959995 48.352,18.392 Z M44.104,16.292 C44.0879999,16.3480003 44.0879999,16.3899999 44.104,16.418 C44.1200001,16.4460001 44.1519998,16.46 44.2,16.46 L46.732,16.46 C46.7720002,16.46 46.8019999,16.4500001 46.822,16.43 C46.8420001,16.4099999 46.848,16.3760002 46.84,16.328 C46.7759997,15.9999984 46.6160013,15.7300011 46.36,15.518 C46.1039987,15.3059989 45.8080017,15.2 45.472,15.2 C45.1519984,15.2 44.8640013,15.301999 44.608,15.506 C44.3519987,15.710001 44.1840004,15.9719984 44.104,16.292 Z M52.648,20.06 L52.588,20.06 C51.6999956,20.06 51.0400022,19.858002 50.608,19.454 C50.1759978,19.049998 49.96,18.4360041 49.96,17.612 L49.96,15.584 C49.96,15.5199997 49.9400002,15.4680002 49.9,15.428 C49.8599998,15.3879998 49.8080003,15.368 49.744,15.368 L49.324,15.368 C49.2599997,15.368 49.2060002,15.3460002 49.162,15.302 C49.1179998,15.2579998 49.096,15.2080003 49.096,15.152 L49.096,14.204 C49.096,14.1399997 49.1199998,14.0860002 49.168,14.042 C49.2160002,13.9979998 49.2679997,13.976 49.324,13.976 L49.744,13.976 C49.8080003,13.976 49.8599998,13.9540002 49.9,13.91 C49.9400002,13.8659998 49.96,13.8160003 49.96,13.76 L49.96,12.728 C49.96,12.6639997 49.9819998,12.6100002 50.026,12.566 C50.0700002,12.5219998 50.1199997,12.5 50.176,12.5 L51.364,12.5 C51.4280003,12.5 51.4819998,12.5219998 51.526,12.566 C51.5700002,12.6100002 51.592,12.6639997 51.592,12.728 L51.592,13.76 C51.592,13.8160003 51.6139998,13.8659998 51.658,13.91 C51.7020002,13.9540002 51.7559997,13.976 51.82,13.976 L52.6,13.976 C52.6640003,13.976 52.7179998,13.9979998 52.762,14.042 C52.8060002,14.0860002 52.828,14.1399997 52.828,14.204 L52.828,15.152 C52.828,15.2080003 52.8060002,15.2579998 52.762,15.302 C52.7179998,15.3460002 52.6640003,15.368 52.6,15.368 L51.82,15.368 C51.7639997,15.368 51.7120002,15.3899998 51.664,15.434 C51.6159998,15.4780002 51.592,15.5319997 51.592,15.596 L51.592,17.6 C51.592,17.9360017 51.6819991,18.1919991 51.862,18.368 C52.0420009,18.5440009 52.3039983,18.632 52.648,18.632 C52.7040003,18.632 52.7519998,18.6499998 52.792,18.686 C52.8320002,18.7220002 52.852,18.7679997 52.852,18.824 L52.852,19.844 C52.852,19.9080003 52.8320002,19.9599998 52.792,20 C52.7519998,20.0400002 52.7040003,20.06 52.648,20.06 Z M58.3540001,19.3059999 L58.3,19.352 C57.9879984,19.6400014 57.6800015,19.8459994 57.376,19.97 C57.0719985,20.0940006 56.7360018,20.156 56.368,20.156 C55.5439959,20.156 54.8460029,19.8500031 54.274,19.238 C53.7019971,18.6259969 53.416,17.8760044 53.416,16.988 C53.416,16.0999956 53.7059971,15.3500031 54.286,14.738 C54.8660029,14.1259969 55.5679959,13.82 56.392,13.82 C56.6800014,13.82 56.9499987,13.8679995 57.202,13.964 C57.403601,14.0408004 57.6115995,14.1559995 57.8259996,14.3095996 L57.988,14.432 C58.0440003,14.4800002 58.0959998,14.5 58.144,14.492 C58.1920002,14.484 58.216,14.4440004 58.216,14.372 L58.216,14.192 C58.216,14.1279997 58.2379998,14.0760002 58.282,14.036 C58.3260002,13.9959998 58.3759997,13.976 58.432,13.976 L59.56,13.976 C59.6240003,13.976 59.6779998,13.9979998 59.722,14.042 C59.7660002,14.0860002 59.788,14.1399997 59.788,14.204 L59.788,18.176 C59.788,18.32 59.8139997,18.4279996 59.866,18.5 C59.9180003,18.5720004 59.9959995,18.612 60.1,18.62 C60.1560003,18.628 60.2039998,18.6499998 60.244,18.686 C60.2840002,18.7220002 60.304,18.7639998 60.304,18.812 L60.304,19.856 C60.304,19.9120003 60.2840002,19.9599998 60.244,20 C60.2039998,20.0400002 60.1560003,20.06 60.1,20.06 C59.7159981,20.06 59.4000012,20.0040006 59.152,19.892 C58.9039988,19.7799994 58.7120007,19.6080012 58.576,19.376 C58.5359998,19.3119997 58.4940002,19.278 58.45,19.274 C58.4206665,19.2713333 58.3886667,19.2819999 58.3540001,19.3059999 L58.3540001,19.3059999 Z M55.06,16.988 C55.06,17.4520023 55.2139985,17.8479984 55.522,18.176 C55.8300015,18.5040016 56.2039978,18.668 56.644,18.668 C57.0840022,18.668 57.4559985,18.5060016 57.76,18.182 C58.0640015,17.8579984 58.216,17.4600024 58.216,16.988 C58.216,16.5159976 58.0640015,16.1180016 57.76,15.794 C57.4559985,15.4699984 57.0840022,15.308 56.644,15.308 C56.2039978,15.308 55.8300015,15.4719984 55.522,15.8 C55.2139985,16.1280016 55.06,16.5239977 55.06,16.988 Z M63.448,20.06 C62.6319959,20.06 62.0580017,19.9020016 61.726,19.586 C61.3939983,19.2699984 61.228,18.7280038 61.228,17.96 L61.228,12.068 C61.228,12.0039997 61.2499998,11.9500002 61.294,11.906 C61.3380002,11.8619998 61.3879997,11.84 61.444,11.84 L62.632,11.84 C62.6960003,11.84 62.7499998,11.8619998 62.794,11.906 C62.8380002,11.9500002 62.86,12.0039997 62.86,12.068 L62.86,17.996 C62.86,18.204001 62.9099995,18.3619995 63.01,18.47 C63.1100005,18.5780005 63.255999,18.632 63.448,18.632 C63.5120003,18.632 63.5659998,18.6539998 63.61,18.698 C63.6540002,18.7420002 63.676,18.7959997 63.676,18.86 L63.676,19.844 C63.676,19.9000003 63.6540002,19.9499998 63.61,19.994 C63.5659998,20.0380002 63.5120003,20.06 63.448,20.06 Z M72.856,16.988 C72.856,17.8840045 72.5500031,18.635997 71.938,19.244 C71.3259969,19.852003 70.5600046,20.156 69.64,20.156 C68.7279954,20.156 67.9640031,19.852003 67.348,19.244 C66.7319969,18.635997 66.424,17.8840045 66.424,16.988 C66.424,16.0919955 66.7299969,15.340003 67.342,14.732 C67.9540031,14.123997 68.7199954,13.82 69.64,13.82 C70.5600046,13.82 71.3259969,14.121997 71.938,14.726 C72.5500031,15.330003 72.856,16.0839955 72.856,16.988 Z M68.056,16.988 C68.056,17.4520023 68.2119984,17.8479984 68.524,18.176 C68.8360016,18.5040016 69.2079978,18.668 69.64,18.668 C70.0800022,18.668 70.4539985,18.5040016 70.762,18.176 C71.0700015,17.8479984 71.224,17.4520023 71.224,16.988 C71.224,16.5239977 71.0700015,16.1280016 70.762,15.8 C70.4539985,15.4719984 70.0800022,15.308 69.64,15.308 C69.2079978,15.308 68.8360016,15.4719984 68.524,15.8 C68.2119984,16.1280016 68.056,16.5239977 68.056,16.988 Z M76.9,22.4 C76.1559963,22.4 75.5200026,22.2300017 74.992,21.89 C74.4639974,21.5499983 74.104001,21.0720031 73.912,20.456 C73.8879999,20.3839996 73.8979998,20.3240002 73.942,20.276 C73.9860002,20.2279998 74.0559995,20.204 74.152,20.204 L75.304,20.204 C75.3760004,20.204 75.4379997,20.2179999 75.49,20.246 C75.5246668,20.2646668 75.5584445,20.293111 75.5913333,20.3313332 L75.64,20.396 C75.7680006,20.596001 75.9379989,20.7459995 76.15,20.846 C76.3620011,20.9460005 76.6079986,20.996 76.888,20.996 C77.3280022,20.996 77.6879986,20.8480015 77.968,20.552 C78.2480014,20.2559985 78.388,19.8760023 78.388,19.412 L78.388,19.34 C78.388,19.2599996 78.3640002,19.2100001 78.316,19.19 C78.2799998,19.1749999 78.2372501,19.1791248 78.1877501,19.2023749 L78.136,19.232 C77.8479986,19.4160009 77.5780013,19.5499996 77.326,19.634 C77.0739987,19.7180004 76.8320012,19.76 76.6,19.76 C75.7679958,19.76 75.0740028,19.4820028 74.518,18.926 C73.9619972,18.3699972 73.684,17.6640043 73.684,16.808 C73.684,15.9439957 73.9659972,15.2300028 74.53,14.666 C75.0940028,14.1019972 75.7919958,13.82 76.624,13.82 C76.9360016,13.82 77.2219987,13.8719995 77.482,13.976 C77.690001,14.0592004 77.8890397,14.1756795 78.0791197,14.3254397 L78.22,14.444 C78.2760003,14.5000003 78.3279998,14.5220001 78.376,14.51 C78.4240002,14.4979999 78.448,14.4560004 78.448,14.384 L78.448,14.192 C78.448,14.1279997 78.4699998,14.0760002 78.514,14.036 C78.5580002,13.9959998 78.6079997,13.976 78.664,13.976 L79.792,13.976 C79.8560003,13.976 79.9099998,13.9979998 79.954,14.042 C79.9980002,14.0860002 80.02,14.1399997 80.02,14.204 L80.02,19.268 C80.02,20.1720045 79.7260029,20.919997 79.138,21.512 C78.5499971,22.104003 77.8040045,22.4 76.9,22.4 Z M75.328,16.868 C75.328,17.3080022 75.4779985,17.6759985 75.778,17.972 C76.0780015,18.2680015 76.4479978,18.416 76.888,18.416 C77.3360022,18.416 77.7079985,18.2700015 78.004,17.978 C78.3000015,17.6859985 78.448,17.3160022 78.448,16.868 C78.448,16.4119977 78.2980015,16.0340015 77.998,15.734 C77.6979985,15.4339985 77.328,15.284 76.888,15.284 C76.4479978,15.284 76.0780015,15.4359985 75.778,15.74 C75.4779985,16.0440015 75.328,16.4199978 75.328,16.868 Z M86.584,20.06 L86.524,20.06 C85.6359956,20.06 84.9760022,19.858002 84.544,19.454 C84.1119978,19.049998 83.896,18.4360041 83.896,17.612 L83.896,15.584 C83.896,15.5199997 83.8760002,15.4680002 83.836,15.428 C83.7959998,15.3879998 83.7440003,15.368 83.68,15.368 L83.26,15.368 C83.1959997,15.368 83.1420002,15.3460002 83.098,15.302 C83.0539998,15.2579998 83.032,15.2080003 83.032,15.152 L83.032,14.204 C83.032,14.1399997 83.0559998,14.0860002 83.104,14.042 C83.1520002,13.9979998 83.2039997,13.976 83.26,13.976 L83.68,13.976 C83.7440003,13.976 83.7959998,13.9540002 83.836,13.91 C83.8760002,13.8659998 83.896,13.8160003 83.896,13.76 L83.896,12.728 C83.896,12.6639997 83.9179998,12.6100002 83.962,12.566 C84.0060002,12.5219998 84.0559997,12.5 84.112,12.5 L85.3,12.5 C85.3640003,12.5 85.4179998,12.5219998 85.462,12.566 C85.5060002,12.6100002 85.528,12.6639997 85.528,12.728 L85.528,13.76 C85.528,13.8160003 85.5499998,13.8659998 85.594,13.91 C85.6380002,13.9540002 85.6919997,13.976 85.756,13.976 L86.536,13.976 C86.6000003,13.976 86.6539998,13.9979998 86.698,14.042 C86.7420002,14.0860002 86.764,14.1399997 86.764,14.204 L86.764,15.152 C86.764,15.2080003 86.7420002,15.2579998 86.698,15.302 C86.6539998,15.3460002 86.6000003,15.368 86.536,15.368 L85.756,15.368 C85.6999997,15.368 85.6480002,15.3899998 85.6,15.434 C85.5519998,15.4780002 85.528,15.5319997 85.528,15.596 L85.528,17.6 C85.528,17.9360017 85.6179991,18.1919991 85.798,18.368 C85.9780009,18.5440009 86.2399983,18.632 86.584,18.632 C86.6400003,18.632 86.6879998,18.6499998 86.728,18.686 C86.7680002,18.7220002 86.788,18.7679997 86.788,18.824 L86.788,19.844 C86.788,19.9080003 86.7680002,19.9599998 86.728,20 C86.6879998,20.0400002 86.6400003,20.06 86.584,20.06 Z M89.344,12.404 C89.344,12.6520012 89.2540009,12.8659991 89.074,13.046 C88.8939991,13.2260009 88.6800012,13.316 88.432,13.316 C88.1839988,13.316 87.9700009,13.2260009 87.79,13.046 C87.6099991,12.8659991 87.52,12.6520012 87.52,12.404 C87.52,12.1559988 87.6099991,11.9420009 87.79,11.762 C87.9700009,11.5819991 88.1839988,11.492 88.432,11.492 C88.6800012,11.492 88.8939991,11.5819991 89.074,11.762 C89.2540009,11.9420009 89.344,12.1559988 89.344,12.404 Z M89.008,20 L87.82,20 C87.7639997,20 87.7140002,19.9780002 87.67,19.934 C87.6259998,19.8899998 87.604,19.8360003 87.604,19.772 L87.604,14.204 C87.604,14.1399997 87.6259998,14.0860002 87.67,14.042 C87.7140002,13.9979998 87.7639997,13.976 87.82,13.976 L89.008,13.976 C89.0720003,13.976 89.1259998,13.9979998 89.17,14.042 C89.2140002,14.0860002 89.236,14.1399997 89.236,14.204 L89.236,19.772 C89.236,19.8280003 89.2140002,19.8799998 89.17,19.928 C89.1259998,19.976 89.0720003,20 89.008,20 Z M92.776,20.06 C91.9599959,20.06 91.3860017,19.9020016 91.054,19.586 C90.7219983,19.2699984 90.556,18.7280038 90.556,17.96 L90.556,12.068 C90.556,12.0039997 90.5779998,11.9500002 90.622,11.906 C90.6660002,11.8619998 90.7159997,11.84 90.772,11.84 L91.96,11.84 C92.0240003,11.84 92.0779998,11.8619998 92.122,11.906 C92.1660002,11.9500002 92.188,12.0039997 92.188,12.068 L92.188,17.996 C92.188,18.204001 92.2379995,18.3619995 92.338,18.47 C92.4380005,18.5780005 92.583999,18.632 92.776,18.632 C92.8400003,18.632 92.8939998,18.6539998 92.938,18.698 C92.9820002,18.7420002 93.004,18.7959997 93.004,18.86 L93.004,19.844 C93.004,19.9000003 92.9820002,19.9499998 92.938,19.994 C92.8939998,20.0380002 92.8400003,20.06 92.776,20.06 Z M95.152,20 L93.964,20 C93.9079997,20 93.8580002,19.9780002 93.814,19.934 C93.7699998,19.8899998 93.748,19.8360003 93.748,19.772 L93.748,14.204 C93.748,14.1399997 93.7699998,14.0860002 93.814,14.042 C93.8580002,13.9979998 93.9079997,13.976 93.964,13.976 L95.104,13.976 C95.1680003,13.976 95.2219998,13.9979998 95.266,14.042 C95.3100002,14.0860002 95.332,14.1399997 95.332,14.204 L95.332,14.396 C95.332,14.4680004 95.3579997,14.5099999 95.41,14.522 C95.4490002,14.531 95.4913749,14.5186252 95.5371249,14.4848751 L95.584,14.444 C95.8240012,14.2279989 96.0619988,14.0700005 96.298,13.97 C96.5340012,13.8699995 96.7919986,13.82 97.072,13.82 C97.4240018,13.82 97.7379986,13.8959992 98.014,14.048 C98.2900014,14.2000008 98.531999,14.4279985 98.74,14.732 C98.7720002,14.7800002 98.8039998,14.804 98.836,14.804 C98.8680002,14.804 98.9039998,14.7800002 98.944,14.732 C99.1680011,14.4359985 99.4399984,14.2100008 99.76,14.054 C100.080002,13.8979992 100.435998,13.82 100.828,13.82 C101.468003,13.82 101.989998,14.0419978 102.394,14.486 C102.798002,14.9300022 103,15.5039965 103,16.208 L103,19.772 C103,19.8280003 102.978,19.8799998 102.934,19.928 C102.89,19.9760002 102.836,20 102.772,20 L101.584,20 C101.528,20 101.478,19.9780002 101.434,19.934 C101.39,19.8899998 101.368,19.8360003 101.368,19.772 L101.368,16.496 C101.368,16.103998 101.274001,15.7960011 101.086,15.572 C100.897999,15.3479989 100.636002,15.236 100.3,15.236 C99.9799984,15.236 99.7140011,15.3559988 99.502,15.596 C99.2899989,15.8360012 99.184,16.1239983 99.184,16.46 L99.184,19.772 C99.184,19.8280003 99.1620002,19.8799998 99.118,19.928 C99.0739998,19.9760002 99.0200003,20 98.956,20 L97.768,20 C97.7119997,20 97.6620002,19.9780002 97.618,19.934 C97.5739998,19.8899998 97.552,19.8360003 97.552,19.772 L97.552,16.496 C97.552,16.103998 97.4580009,15.7960011 97.27,15.572 C97.0819991,15.3479989 96.8240016,15.236 96.496,15.236 C96.1679984,15.236 95.900001,15.3539988 95.692,15.59 C95.483999,15.8260012 95.38,16.1199982 95.38,16.472 L95.38,19.772 C95.38,19.8280003 95.3580002,19.8799998 95.314,19.928 C95.2699998,19.9760002 95.2160003,20 95.152,20 Z M110.068,18.392 C109.867999,18.9200026 109.502003,19.3459984 108.97,19.67 C108.437997,19.9940016 107.844003,20.156 107.188,20.156 C106.283995,20.156 105.538003,19.860003 104.95,19.268 C104.361997,18.675997 104.068,17.9240046 104.068,17.012 C104.068,16.0999954 104.367997,15.340003 104.968,14.732 C105.568,14.123997 106.315996,13.82 107.212,13.82 C108.100004,13.82 108.837997,14.1259969 109.426,14.738 C110.014003,15.3500031 110.308,16.1159954 110.308,17.036 C110.308,17.1720007 110.286,17.2719997 110.242,17.336 C110.198,17.4000003 110.128,17.432 110.032,17.432 L105.904,17.432 C105.856,17.432 105.82,17.4459999 105.796,17.474 C105.772,17.5020001 105.764,17.5399998 105.772,17.588 C105.812,17.9320017 105.969999,18.2159989 106.246,18.44 C106.522001,18.6640011 106.851998,18.776 107.236,18.776 C107.460001,18.776 107.669999,18.7320004 107.866,18.644 C108.062001,18.5559996 108.231999,18.4280008 108.376,18.26 C108.44,18.1879996 108.502,18.1380001 108.562,18.11 C108.622,18.0819999 108.688,18.068 108.76,18.068 L109.864,18.068 C109.96,18.068 110.026,18.0979997 110.062,18.158 C110.098,18.2180003 110.1,18.2959995 110.068,18.392 Z M105.82,16.292 C105.804,16.3480003 105.804,16.3899999 105.82,16.418 C105.836,16.4460001 105.868,16.46 105.916,16.46 L108.448,16.46 C108.488,16.46 108.518,16.4500001 108.538,16.43 C108.558,16.4099999 108.564,16.3760002 108.556,16.328 C108.492,15.9999984 108.332001,15.7300011 108.076,15.518 C107.819999,15.3059989 107.524002,15.2 107.188,15.2 C106.867998,15.2 106.580001,15.301999 106.324,15.506 C106.067999,15.710001 105.9,15.9719984 105.82,16.292 Z M113.596,20.06 C112.779996,20.06 112.206002,19.9020016 111.874,19.586 C111.541998,19.2699984 111.376,18.7280038 111.376,17.96 L111.376,12.068 C111.376,12.0039997 111.398,11.9500002 111.442,11.906 C111.486,11.8619998 111.536,11.84 111.592,11.84 L112.78,11.84 C112.844,11.84 112.898,11.8619998 112.942,11.906 C112.986,11.9500002 113.008,12.0039997 113.008,12.068 L113.008,17.996 C113.008,18.204001 113.057999,18.3619995 113.158,18.47 C113.258,18.5780005 113.403999,18.632 113.596,18.632 C113.66,18.632 113.714,18.6539998 113.758,18.698 C113.802,18.7420002 113.824,18.7959997 113.824,18.86 L113.824,19.844 C113.824,19.9000003 113.802,19.9499998 113.758,19.994 C113.714,20.0380002 113.66,20.06 113.596,20.06 Z M120.46,11.84 C120.524,11.84 120.578,11.8619998 120.622,11.906 C120.666,11.9500002 120.688,12.0039997 120.688,12.068 L120.688,18.176 C120.688,18.3200007 120.714,18.4279996 120.766,18.5 C120.818,18.5720004 120.895999,18.612 121,18.62 C121.056,18.628 121.104,18.6499998 121.144,18.686 C121.184,18.7220002 121.204,18.7639998 121.204,18.812 L121.204,19.856 C121.204,19.9120003 121.184,19.9599998 121.144,20 C121.104,20.0400002 121.056,20.06 121,20.06 C120.615998,20.06 120.300001,20.0040006 120.052,19.892 C119.803999,19.7799994 119.612001,19.6080012 119.476,19.376 C119.436,19.3119997 119.394,19.278 119.35,19.274 C119.320667,19.2713333 119.288667,19.2819999 119.254,19.3059999 L119.2,19.352 C118.887998,19.6400014 118.580002,19.8459994 118.276,19.97 C117.971998,20.0940006 117.636002,20.156 117.268,20.156 C116.443996,20.156 115.746003,19.8500031 115.174,19.238 C114.601997,18.6259969 114.316,17.8760044 114.316,16.988 C114.316,16.0999956 114.605997,15.3500031 115.186,14.738 C115.766003,14.1259969 116.467996,13.82 117.292,13.82 C117.572001,13.82 117.837999,13.8639996 118.09,13.952 C118.342001,14.0400004 118.579999,14.1759991 118.804,14.36 C118.86,14.4080002 118.916,14.4220001 118.972,14.402 C119.028,14.3819999 119.056,14.3320004 119.056,14.252 L119.056,12.068 C119.056,12.0039997 119.078,11.9500002 119.122,11.906 C119.166,11.8619998 119.216,11.84 119.272,11.84 L120.46,11.84 Z M117.544,15.308 C117.103998,15.308 116.730002,15.4719984 116.422,15.8 C116.113998,16.1280016 115.96,16.5239977 115.96,16.988 C115.96,17.4520023 116.113998,17.8479984 116.422,18.176 C116.730002,18.5040016 117.103998,18.668 117.544,18.668 C117.984002,18.668 118.355998,18.5060016 118.66,18.182 C118.964002,17.8579984 119.116,17.4600024 119.116,16.988 C119.116,16.5159976 118.964002,16.1180016 118.66,15.794 C118.355998,15.4699984 117.984002,15.308 117.544,15.308 Z" id="Betalogtilmeld" fill="#FFFFFF" fill-rule="nonzero"></path>
                <g id="Logo-/-monochrome-/-symbol-/-white" transform="translate(14.900002, 7.300003)" fill="#FFFFFF">
                    <g id="Logo_monochrome_lines" transform="translate(0.500000, 0.250000)">
                        <path d="M7.75,10.9431016 C9.13483728,10.5210584 10.3064327,10.3088496 11.2647864,10.3064752 C12.8492125,10.3025495 14.1776171,10.6170578 15.25,11.25 L15.25,6.64717416 C14.1721725,6.08905709 12.9543393,5.79113171 11.5965004,5.75339801 C10.2386615,5.71566431 8.95649471,5.99219527 7.75,6.58299089 L7.75,10.9431016 Z" id="Path-4"></path>
                        <path d="M5.5,5.93166212 L7.20914556,10 L7.20914556,6.10103504 C8.10964951,5.61882152 9.06297271,5.30978829 10.0691151,5.17393533 C11.0752576,5.03808237 12.2188859,5.05998565 13.5,5.23964517 L12.5704391,3.01866375 C11.2237557,2.93169716 9.94087675,3.14865619 8.72180222,3.66954086 C7.50272768,4.19042552 6.42879361,4.94446595 5.5,5.93166212 Z" id="Path-4"></path>
                        <path d="M10.75,4.2626056 C10.75,3.87004584 10.75,3.28120621 10.75,2.4960867 C10.75,1.66982083 10.0842547,1 9.26301629,1 L4.23698371,1 C3.41574529,1 2.75,1.66982083 2.75,2.4960867 L2.75,14.2539133 C2.75,15.0801792 3.41574529,15.75 4.23698371,15.75 L9.26301629,15.75 C10.0842547,15.75 10.75,15.0801792 10.75,14.2539133 C10.75,13.5092881 10.75,13.023393 10.75,12.7962281 C10.5219243,12.6860826 10.3543143,12.6072881 10.2471701,12.5598446 C10.1340204,12.5097419 9.97118954,12.442217 9.75867752,12.3572699 C9.75867752,12.6499776 9.75867752,13.2821921 9.75867752,14.2539133 C9.75867752,14.5293353 9.53676243,14.7526089 9.26301629,14.7526089 L4.23698371,14.7526089 C3.96323757,14.7526089 3.74132248,14.5293353 3.74132248,14.2539133 L3.74132248,2.4960867 C3.74132248,2.22066475 3.96323757,1.99739114 4.23698371,1.99739114 L9.26301629,1.99739114 C9.53676243,1.99739114 9.75867752,2.22066475 9.75867752,2.4960867 L9.75867752,4.28162793 C9.99179293,4.26692049 10.1691211,4.26016412 10.2906619,4.26135882 C10.4122028,4.26255352 10.5653155,4.26296911 10.75,4.2626056 Z" id="Path-5" fill-rule="nonzero" transform="translate(6.750000, 8.375000) rotate(-22.400000) translate(-6.750000, -8.375000) "></path>
                    </g>
                </g>
            </g>
        </g>
    </g>
</svg>