<?xml version="1.0" encoding="UTF-8"?>
<svg width="257px" height="48px" viewBox="0 0 257 48" version="1.1" xmlns="http://www.w3.org/2000/svg" xmlns:xlink="http://www.w3.org/1999/xlink">
    <!-- Generator: Sketch 58 (84663) - https://sketch.com -->
    <title>danish/danish-white-large</title>
    <desc>Created with Sketch.</desc>
    <g id="Subscription-assets" stroke="none" stroke-width="1" fill="none" fill-rule="evenodd">
        <g id="Betal-Med-MobilePay-Copy" transform="translate(-21.000000, -582.000000)">
            <g id="danish/danish-white-large" transform="translate(21.000000, 582.000000)">
                <rect id="Background" fill="#FFFFFF" x="0" y="0" width="257" height="48" rx="4"></rect>
                <path d="M58.38,30 L52.494,30 C52.4099996,30 52.3350003,29.9670003 52.269,29.901 C52.2029997,29.8349997 52.17,29.7540005 52.17,29.658 L52.17,18.102 C52.17,18.0059995 52.2029997,17.9250003 52.269,17.859 C52.3350003,17.7929997 52.4099996,17.76 52.494,17.76 L58.344,17.76 C59.4120053,17.76 60.3119963,18.0899967 61.044,18.75 C61.7760037,19.4100033 62.142,20.2259951 62.142,21.198 C62.142,21.6780024 62.043001,22.1249979 61.845,22.539 C61.646999,22.9530021 61.3620019,23.3099985 60.99,23.61 C60.9419998,23.6580002 60.918,23.7089997 60.918,23.763 C60.918,23.8170003 60.9419998,23.8619998 60.99,23.898 C61.4940025,24.1740014 61.8809987,24.5309978 62.151,24.969 C62.4210013,25.4070022 62.556,25.8899974 62.556,26.418 C62.556,27.4500052 62.1630039,28.3049966 61.377,28.983 C60.5909961,29.6610034 59.5920061,30 58.38,30 Z M54.996,22.8 L58.074,22.8 C58.5180022,22.8 58.8839986,22.6560014 59.172,22.368 C59.4600014,22.0799986 59.604,21.7200022 59.604,21.288 C59.604,20.8439978 59.4570015,20.4930013 59.163,20.235 C58.8689985,19.9769987 58.4760025,19.848 57.984,19.848 L54.996,19.848 C54.8999995,19.848 54.8250003,19.8749997 54.771,19.929 C54.7169997,19.9830003 54.69,20.0579995 54.69,20.154 L54.69,22.512 C54.69,22.6080005 54.7169997,22.6799998 54.771,22.728 C54.8250003,22.7760002 54.8999995,22.8 54.996,22.8 Z M54.996,27.894 L58.254,27.894 C58.7460025,27.894 59.1599983,27.7380016 59.496,27.426 C59.8320017,27.1139984 60,26.7360022 60,26.292 C60,25.8719979 59.8380016,25.5120015 59.514,25.212 C59.19,24.9119985 58.7820025,24.762 58.29,24.762 L54.996,24.762 C54.8999995,24.762 54.8250003,24.7859998 54.771,24.834 C54.7169997,24.8820002 54.69,24.9539995 54.69,25.05 L54.69,27.606 C54.69,27.7020005 54.7139998,27.7739998 54.762,27.822 C54.8100002,27.8700002 54.8879995,27.894 54.996,27.894 Z M72.528,27.588 C72.2279985,28.380004 71.679004,29.0189976 70.881,29.505 C70.082996,29.9910024 69.1920049,30.234 68.208,30.234 C66.8519932,30.234 65.7330044,29.7900044 64.851,28.902 C63.9689956,28.0139956 63.528,26.8860068 63.528,25.518 C63.528,24.1499932 63.9779955,23.0100046 64.878,22.098 C65.7780045,21.1859954 66.8999933,20.73 68.244,20.73 C69.5760067,20.73 70.6829956,21.1889954 71.565,22.107 C72.4470044,23.0250046 72.888,24.1739931 72.888,25.554 C72.888,25.758001 72.8550003,25.9079995 72.789,26.004 C72.7229997,26.1000005 72.6180007,26.148 72.474,26.148 L66.282,26.148 C66.2099996,26.148 66.1560002,26.1689998 66.12,26.211 C66.0839998,26.2530002 66.0719999,26.3099996 66.084,26.382 C66.1440003,26.8980026 66.3809979,27.3239983 66.795,27.66 C67.2090021,27.9960017 67.7039971,28.164 68.28,28.164 C68.6160017,28.164 68.9309985,28.0980007 69.225,27.966 C69.4602012,27.8603995 69.6704398,27.7164006 69.8557197,27.5340004 L69.99,27.39 C70.0860005,27.2819995 70.1789996,27.2070002 70.269,27.165 C70.3590004,27.1229998 70.4579995,27.102 70.566,27.102 L72.222,27.102 C72.3660007,27.102 72.4649997,27.1469996 72.519,27.237 C72.5730003,27.3270004 72.5760002,27.4439993 72.528,27.588 Z M66.156,24.438 C66.1319999,24.5220004 66.1319999,24.5849998 66.156,24.627 C66.1800001,24.6690002 66.2279996,24.69 66.3,24.69 L70.098,24.69 C70.1580003,24.69 70.2029998,24.6750001 70.233,24.645 C70.2630002,24.6149999 70.2720001,24.5640004 70.26,24.492 C70.1639995,23.9999975 69.9240019,23.5950016 69.54,23.277 C69.1559981,22.9589984 68.7120025,22.8 68.208,22.8 C67.7279976,22.8 67.2960019,22.9529985 66.912,23.259 C66.5279981,23.5650015 66.2760006,23.9579976 66.156,24.438 Z M78.972,30.09 L78.882,30.09 C77.5499933,30.09 76.5600032,29.787003 75.912,29.181 C75.2639968,28.574997 74.94,27.6540062 74.94,26.418 L74.94,23.376 C74.94,23.2799995 74.9100003,23.2020003 74.85,23.142 C74.7899997,23.0819997 74.7120005,23.052 74.616,23.052 L73.986,23.052 C73.8899995,23.052 73.8090003,23.0190003 73.743,22.953 C73.6769997,22.8869997 73.644,22.8120004 73.644,22.728 L73.644,21.306 C73.644,21.2099995 73.6799996,21.1290003 73.752,21.063 C73.8240004,20.9969997 73.9019996,20.964 73.986,20.964 L74.616,20.964 C74.7120005,20.964 74.7899997,20.9310003 74.85,20.865 C74.9100003,20.7989997 74.94,20.7240004 74.94,20.64 L74.94,19.092 C74.94,18.9959995 74.9729997,18.9150003 75.039,18.849 C75.1050003,18.7829997 75.1799996,18.75 75.264,18.75 L77.046,18.75 C77.1420005,18.75 77.2229997,18.7829997 77.289,18.849 C77.3550003,18.9150003 77.388,18.9959995 77.388,19.092 L77.388,20.64 C77.388,20.7240004 77.4209997,20.7989997 77.487,20.865 C77.5530003,20.9310003 77.6339995,20.964 77.73,20.964 L78.9,20.964 C78.9960005,20.964 79.0769997,20.9969997 79.143,21.063 C79.2090003,21.1290003 79.242,21.2099995 79.242,21.306 L79.242,22.728 C79.242,22.8120004 79.2090003,22.8869997 79.143,22.953 C79.0769997,23.0190003 78.9960005,23.052 78.9,23.052 L77.73,23.052 C77.6459996,23.052 77.5680004,23.0849997 77.496,23.151 C77.4239996,23.2170003 77.388,23.2979995 77.388,23.394 L77.388,26.4 C77.388,26.9040025 77.5229987,27.2879987 77.793,27.552 C78.0630014,27.8160013 78.4559974,27.948 78.972,27.948 C79.0560004,27.948 79.1279997,27.9749997 79.188,28.029 C79.2480003,28.0830003 79.278,28.1519996 79.278,28.236 L79.278,29.766 C79.278,29.8620005 79.2480003,29.9399997 79.188,30 C79.1279997,30.0600003 79.0560004,30.09 78.972,30.09 Z M87.5113126,28.9734373 L87.45,29.028 C86.9819977,29.4600022 86.5200023,29.7689991 86.064,29.955 C85.6079977,30.1410009 85.1040028,30.234 84.552,30.234 C83.3159938,30.234 82.2690043,29.7750046 81.411,28.857 C80.5529957,27.9389954 80.124,26.8140067 80.124,25.482 C80.124,24.1499933 80.5589956,23.0250046 81.429,22.107 C82.2990044,21.1889954 83.3519938,20.73 84.588,20.73 C85.0200022,20.73 85.4249981,20.8019993 85.803,20.946 C86.1180016,21.0660006 86.4434158,21.2484991 86.7792494,21.4934995 L86.982,21.648 C87.0660004,21.7200004 87.1439996,21.7500001 87.216,21.738 C87.2880004,21.7259999 87.324,21.6660005 87.324,21.558 L87.324,21.288 C87.324,21.1919995 87.3569997,21.1140003 87.423,21.054 C87.4890003,20.9939997 87.5639996,20.964 87.648,20.964 L89.34,20.964 C89.4360005,20.964 89.5169997,20.9969997 89.583,21.063 C89.6490003,21.1290003 89.682,21.2099995 89.682,21.306 L89.682,27.264 C89.682,27.4800011 89.7209996,27.6419995 89.799,27.75 C89.8770004,27.8580005 89.9939992,27.9179999 90.15,27.93 C90.2340004,27.9420001 90.3059997,27.9749997 90.366,28.029 C90.4260003,28.0830003 90.456,28.1459996 90.456,28.218 L90.456,29.784 C90.456,29.8680004 90.4260003,29.9399997 90.366,30 C90.3059997,30.0600003 90.2340004,30.09 90.15,30.09 C89.5739971,30.09 89.1000019,30.0060008 88.728,29.838 C88.3559981,29.6699992 88.068001,29.4120017 87.864,29.064 C87.8039997,28.9679995 87.7410003,28.917 87.675,28.911 C87.6254998,28.9065 87.5709376,28.9273123 87.5113126,28.9734373 L87.5113126,28.9734373 Z M82.59,25.482 C82.59,26.1780035 82.8209977,26.7719975 83.283,27.264 C83.7450023,27.7560025 84.3059967,28.002 84.966,28.002 C85.6260033,28.002 86.1839977,27.7590024 86.64,27.273 C87.0960023,26.7869976 87.324,26.1900035 87.324,25.482 C87.324,24.7739965 87.0960023,24.1770024 86.64,23.691 C86.1839977,23.2049976 85.6260033,22.962 84.966,22.962 C84.3059967,22.962 83.7450023,23.2079975 83.283,23.7 C82.8209977,24.1920025 82.59,24.7859965 82.59,25.482 Z M95.172,30.09 C93.9479939,30.09 93.0870025,29.8530024 92.589,29.379 C92.0909975,28.9049976 91.842,28.0920058 91.842,26.94 L91.842,18.102 C91.842,18.0059995 91.8749997,17.9250003 91.941,17.859 C92.0070003,17.7929997 92.0819996,17.76 92.166,17.76 L93.948,17.76 C94.0440005,17.76 94.1249997,17.7929997 94.191,17.859 C94.2570003,17.9250003 94.29,18.0059995 94.29,18.102 L94.29,26.994 C94.29,27.3060016 94.3649993,27.5429992 94.515,27.705 C94.6650008,27.8670008 94.8839986,27.948 95.172,27.948 C95.2680005,27.948 95.3489997,27.9809997 95.415,28.047 C95.4810003,28.1130003 95.514,28.1939995 95.514,28.29 L95.514,29.766 C95.514,29.8500004 95.4810003,29.9249997 95.415,29.991 C95.3489997,30.0570003 95.2680005,30.09 95.172,30.09 Z M102.12,30 L100.338,30 C100.254,30 100.179,29.9670003 100.113,29.901 C100.047,29.8349997 100.014,29.7540005 100.014,29.658 L100.014,21.306 C100.014,21.2099995 100.047,21.1290003 100.113,21.063 C100.179,20.9969997 100.254,20.964 100.338,20.964 L102.048,20.964 C102.144,20.964 102.225,20.9969997 102.291,21.063 C102.357,21.1290003 102.39,21.2099995 102.39,21.306 L102.39,21.594 C102.39,21.7020005 102.429,21.7649999 102.507,21.783 C102.585,21.8010001 102.672,21.7620005 102.768,21.666 C103.128002,21.3419984 103.484998,21.1050008 103.839,20.955 C104.193002,20.8049992 104.579998,20.73 105,20.73 C105.528003,20.73 105.998998,20.8439989 106.413,21.072 C106.767859,21.2674295 107.085244,21.5466108 107.365163,21.9095504 L107.502,22.098 C107.55,22.1700004 107.598,22.206 107.646,22.206 C107.694,22.206 107.748,22.1700004 107.808,22.098 C108.144002,21.6539978 108.551998,21.3150012 109.032,21.081 C109.512002,20.8469988 110.045997,20.73 110.634,20.73 C111.594005,20.73 112.376997,21.0629967 112.983,21.729 C113.589003,22.3950033 113.892,23.2559947 113.892,24.312 L113.892,29.658 C113.892,29.7420004 113.859,29.8199996 113.793,29.892 C113.727,29.9640004 113.646,30 113.55,30 L111.768,30 C111.684,30 111.609,29.9670003 111.543,29.901 C111.477,29.8349997 111.444,29.7540005 111.444,29.658 L111.444,24.744 C111.444,24.1559971 111.303001,23.6940017 111.021,23.358 C110.738999,23.0219983 110.346003,22.854 109.842,22.854 C109.361998,22.854 108.963002,23.0339982 108.645,23.394 C108.326998,23.7540018 108.168,24.1859975 108.168,24.69 L108.168,29.658 C108.168,29.7420004 108.135,29.8199996 108.069,29.892 C108.003,29.9640004 107.922,30 107.826,30 L106.044,30 C105.96,30 105.885,29.9670003 105.819,29.901 C105.753,29.8349997 105.72,29.7540005 105.72,29.658 L105.72,24.744 C105.72,24.1559971 105.579001,23.6940017 105.297,23.358 C105.014999,23.0219983 104.628002,22.854 104.136,22.854 C103.643998,22.854 103.242002,23.0309982 102.93,23.385 C102.617998,23.7390018 102.462,24.1799974 102.462,24.708 L102.462,29.658 C102.462,29.7420004 102.429,29.8199996 102.363,29.892 C102.297,29.9640004 102.216,30 102.12,30 Z M124.494,27.588 C124.193999,28.380004 123.645004,29.0189976 122.847,29.505 C122.048996,29.9910024 121.158005,30.234 120.174,30.234 C118.817993,30.234 117.699004,29.7900044 116.817,28.902 C115.934996,28.0139956 115.494,26.8860068 115.494,25.518 C115.494,24.1499932 115.943995,23.0100046 116.844,22.098 C117.744005,21.1859954 118.865993,20.73 120.21,20.73 C121.542007,20.73 122.648996,21.1889954 123.531,22.107 C124.413004,23.0250046 124.854,24.1739931 124.854,25.554 C124.854,25.758001 124.821,25.9079995 124.755,26.004 C124.689,26.1000005 124.584001,26.148 124.44,26.148 L118.248,26.148 C118.176,26.148 118.122,26.1689998 118.086,26.211 C118.05,26.2530002 118.038,26.3099996 118.05,26.382 C118.11,26.8980026 118.346998,27.3239983 118.761,27.66 C119.175002,27.9960017 119.669997,28.164 120.246,28.164 C120.582002,28.164 120.896999,28.0980007 121.191,27.966 C121.426201,27.8603995 121.63644,27.7164006 121.82172,27.5340004 L121.956,27.39 C122.052,27.2819995 122.145,27.2070002 122.235,27.165 C122.325,27.1229998 122.423999,27.102 122.532,27.102 L124.188,27.102 C124.332001,27.102 124.431,27.1469996 124.485,27.237 C124.539,27.3270004 124.542,27.4439993 124.494,27.588 Z M118.122,24.438 C118.098,24.5220004 118.098,24.5849998 118.122,24.627 C118.146,24.6690002 118.194,24.69 118.266,24.69 L122.064,24.69 C122.124,24.69 122.169,24.6750001 122.199,24.645 C122.229,24.6149999 122.238,24.5640004 122.226,24.492 C122.13,23.9999975 121.890002,23.5950016 121.506,23.277 C121.121998,22.9589984 120.678003,22.8 120.174,22.8 C119.693998,22.8 119.262002,22.9529985 118.878,23.259 C118.493998,23.5650015 118.242001,23.9579976 118.122,24.438 Z M133.465313,28.9734373 L133.404,29.028 C132.935998,29.4600022 132.474002,29.7689991 132.018,29.955 C131.561998,30.1410009 131.058003,30.234 130.506,30.234 C129.269994,30.234 128.223004,29.7750046 127.365,28.857 C126.506996,27.9389954 126.078,26.8140067 126.078,25.482 C126.078,24.1499933 126.512996,23.0250046 127.383,22.107 C128.253004,21.1889954 129.305994,20.73 130.542,20.73 C130.962002,20.73 131.360998,20.7959993 131.739,20.928 C132.117002,21.0600007 132.473998,21.2639986 132.81,21.54 C132.894,21.6120004 132.978,21.6330002 133.062,21.603 C133.146,21.5729999 133.188,21.4980006 133.188,21.378 L133.188,18.102 C133.188,18.0059995 133.221,17.9250003 133.287,17.859 C133.353,17.7929997 133.428,17.76 133.512,17.76 L135.294,17.76 C135.39,17.76 135.471,17.7929997 135.537,17.859 C135.603,17.9250003 135.636,18.0059995 135.636,18.102 L135.636,27.264 C135.636,27.4800011 135.675,27.6419995 135.753,27.75 C135.831,27.8580005 135.947999,27.9179999 136.104,27.93 C136.188,27.9420001 136.26,27.9749997 136.32,28.029 C136.38,28.0830003 136.41,28.1459996 136.41,28.218 L136.41,29.784 C136.41,29.8680004 136.38,29.9399997 136.32,30 C136.26,30.0600003 136.188,30.09 136.104,30.09 C135.527997,30.09 135.054002,30.0060008 134.682,29.838 C134.309998,29.6699992 134.022001,29.4120017 133.818,29.064 C133.758,28.9679995 133.695,28.917 133.629,28.911 C133.5795,28.9065 133.524938,28.9273123 133.465313,28.9734373 L133.465313,28.9734373 Z M128.544,25.482 C128.544,26.1780035 128.774998,26.7719975 129.237,27.264 C129.699002,27.7560025 130.259997,28.002 130.92,28.002 C131.580003,28.002 132.137998,27.7590024 132.594,27.273 C133.050002,26.7869976 133.278,26.1900035 133.278,25.482 C133.278,24.7739965 133.050002,24.1770024 132.594,23.691 C132.137998,23.2049976 131.580003,22.962 130.92,22.962 C130.259997,22.962 129.699002,23.2079975 129.237,23.7 C128.774998,24.1920025 128.544,24.7859965 128.544,25.482 Z M142.476,30 L140.424,30 C140.303999,30 140.22,29.9640004 140.172,29.892 C140.124,29.8199996 140.118,29.7240006 140.154,29.604 L143.808,18.048 C143.832,17.9639996 143.877,17.8950003 143.943,17.841 C144.009,17.7869997 144.078,17.76 144.15,17.76 L145.986,17.76 C146.058,17.76 146.127,17.7869997 146.193,17.841 C146.259,17.8950003 146.31,17.9639996 146.346,18.048 L149.19,25.338 C149.214,25.4100004 149.256,25.449 149.316,25.455 C149.361,25.4595 149.395875,25.4386877 149.420625,25.3925627 L152.268,18.048 C152.304,17.9639996 152.355,17.8950003 152.421,17.841 C152.487,17.7869997 152.556,17.76 152.628,17.76 L154.464,17.76 C154.536,17.76 154.605,17.7869997 154.671,17.841 C154.737,17.8950003 154.782,17.9639996 154.806,18.048 L158.388,29.604 C158.424,29.7120005 158.415,29.8049996 158.361,29.883 C158.307,29.9610004 158.226001,30 158.118,30 L155.94,30 C155.856,30 155.787,29.9790002 155.733,29.937 C155.679,29.8949998 155.64,29.8320004 155.616,29.748 L153.294,22.242 C153.282,22.1699996 153.243,22.134 153.177,22.134 C153.111,22.134 153.066,22.1699996 153.042,22.242 L150.306,29.694 C150.27,29.7900005 150.219,29.8649997 150.153,29.919 C150.087,29.9730003 150.006,30 149.91,30 L148.632,30 C148.536,30 148.458,29.9760002 148.398,29.928 C148.353,29.8919998 148.31475,29.8391252 148.28325,29.7693752 L145.428,22.242 C145.404,22.1699996 145.365,22.134 145.311,22.134 C145.257,22.134 145.218,22.1699996 145.194,22.242 L142.818,29.748 C142.794,29.8320004 142.752,29.8949998 142.692,29.937 C142.632,29.9790002 142.56,30 142.476,30 Z M168.63,25.482 C168.63,26.8260067 168.171005,27.9539954 167.253,28.866 C166.334995,29.7780046 165.186007,30.234 163.806,30.234 C162.437993,30.234 161.292005,29.7780046 160.368,28.866 C159.443995,27.9539954 158.982,26.8260067 158.982,25.482 C158.982,24.1379933 159.440995,23.0100046 160.359,22.098 C161.277005,21.1859954 162.425993,20.73 163.806,20.73 C165.186007,20.73 166.334995,21.1829955 167.253,22.089 C168.171005,22.9950045 168.63,24.1259932 168.63,25.482 Z M161.43,25.482 C161.43,26.1780035 161.663998,26.7719975 162.132,27.264 C162.600002,27.7560025 163.157997,28.002 163.806,28.002 C164.466003,28.002 165.026998,27.7560025 165.489,27.264 C165.951002,26.7719975 166.182,26.1780035 166.182,25.482 C166.182,24.7859965 165.951002,24.1920025 165.489,23.7 C165.026998,23.2079975 164.466003,22.962 163.806,22.962 C163.157997,22.962 162.600002,23.2079975 162.132,23.7 C161.663998,24.1920025 161.43,24.7859965 161.43,25.482 Z M179.826,25.482 C179.826,26.8140067 179.400004,27.9389954 178.548,28.857 C177.695996,29.7750046 176.646006,30.234 175.398,30.234 C174.965998,30.234 174.558002,30.1590008 174.174,30.009 C173.789998,29.8589993 173.382002,29.6100017 172.95,29.262 C172.854,29.1899996 172.773,29.1689998 172.707,29.199 C172.641,29.2290001 172.608,29.3039994 172.608,29.424 L172.608,29.658 C172.608,29.7540005 172.575,29.8349997 172.509,29.901 C172.443,29.9670003 172.368,30 172.284,30 L170.592,30 C170.508,30 170.43,29.9640004 170.358,29.892 C170.286,29.8199996 170.25,29.7420004 170.25,29.658 L170.25,18.102 C170.25,18.0059995 170.286,17.9250003 170.358,17.859 C170.43,17.7929997 170.508,17.76 170.592,17.76 L172.374,17.76 C172.458,17.76 172.533,17.7929997 172.599,17.859 C172.665,17.9250003 172.698,18.0059995 172.698,18.102 L172.698,21.396 C172.698,21.5160006 172.737,21.5879999 172.815,21.612 C172.893,21.6360001 172.991999,21.6060004 173.112,21.522 C173.472002,21.2579987 173.849998,21.0600007 174.246,20.928 C174.642002,20.7959993 175.049998,20.73 175.47,20.73 C176.694006,20.73 177.725996,21.1889954 178.566,22.107 C179.406004,23.0250046 179.826,24.1499933 179.826,25.482 Z M172.626,25.482 C172.626,26.1780035 172.853998,26.7689976 173.31,27.255 C173.766002,27.7410024 174.323997,27.984 174.984,27.984 C175.644003,27.984 176.207998,27.7410024 176.676,27.255 C177.144002,26.7689976 177.378,26.1780035 177.378,25.482 C177.378,24.7859965 177.144002,24.1920025 176.676,23.7 C176.207998,23.2079975 175.644003,22.962 174.984,22.962 C174.335997,22.962 173.781002,23.2079975 173.319,23.7 C172.856998,24.1920025 172.626,24.7859965 172.626,25.482 Z M184.056,18.606 C184.056,18.9780019 183.921001,19.2989986 183.651,19.569 C183.380999,19.8390013 183.060002,19.974 182.688,19.974 C182.315998,19.974 181.995001,19.8390013 181.725,19.569 C181.454999,19.2989986 181.32,18.9780019 181.32,18.606 C181.32,18.2339981 181.454999,17.9130013 181.725,17.643 C181.995001,17.3729986 182.315998,17.238 182.688,17.238 C183.060002,17.238 183.380999,17.3729986 183.651,17.643 C183.921001,17.9130013 184.056,18.2339981 184.056,18.606 Z M183.552,30 L181.77,30 C181.686,30 181.611,29.9670003 181.545,29.901 C181.479,29.8349997 181.446,29.7540005 181.446,29.658 L181.446,21.306 C181.446,21.2099995 181.479,21.1290003 181.545,21.063 C181.611,20.9969997 181.686,20.964 181.77,20.964 L183.552,20.964 C183.648,20.964 183.729,20.9969997 183.795,21.063 C183.861,21.1290003 183.894,21.2099995 183.894,21.306 L183.894,29.658 C183.894,29.7420004 183.861,29.8199996 183.795,29.892 C183.729,29.964 183.648,30 183.552,30 Z M189.204,30.09 C187.979994,30.09 187.119002,29.8530024 186.621,29.379 C186.122998,28.9049976 185.874,28.0920058 185.874,26.94 L185.874,18.102 C185.874,18.0059995 185.907,17.9250003 185.973,17.859 C186.039,17.7929997 186.114,17.76 186.198,17.76 L187.98,17.76 C188.076,17.76 188.157,17.7929997 188.223,17.859 C188.289,17.9250003 188.322,18.0059995 188.322,18.102 L188.322,26.994 C188.322,27.3060016 188.396999,27.5429992 188.547,27.705 C188.697001,27.8670008 188.915999,27.948 189.204,27.948 C189.3,27.948 189.381,27.9809997 189.447,28.047 C189.513,28.1130003 189.546,28.1939995 189.546,28.29 L189.546,29.766 C189.546,29.8500004 189.513,29.9249997 189.447,29.991 C189.381,30.0570003 189.3,30.09 189.204,30.09 Z M199.284,27.588 C198.983999,28.380004 198.435004,29.0189976 197.637,29.505 C196.838996,29.9910024 195.948005,30.234 194.964,30.234 C193.607993,30.234 192.489004,29.7900044 191.607,28.902 C190.724996,28.0139956 190.284,26.8860068 190.284,25.518 C190.284,24.1499932 190.733996,23.0100046 191.634,22.098 C192.534005,21.1859954 193.655993,20.73 195,20.73 C196.332007,20.73 197.438996,21.1889954 198.321,22.107 C199.203004,23.0250046 199.644,24.1739931 199.644,25.554 C199.644,25.758001 199.611,25.9079995 199.545,26.004 C199.479,26.1000005 199.374001,26.148 199.23,26.148 L193.038,26.148 C192.966,26.148 192.912,26.1689998 192.876,26.211 C192.84,26.2530002 192.828,26.3099996 192.84,26.382 C192.9,26.8980026 193.136998,27.3239983 193.551,27.66 C193.965002,27.9960017 194.459997,28.164 195.036,28.164 C195.372002,28.164 195.686999,28.0980007 195.981,27.966 C196.216201,27.8603995 196.42644,27.7164006 196.61172,27.5340004 L196.746,27.39 C196.842,27.2819995 196.935,27.2070002 197.025,27.165 C197.115,27.1229998 197.213999,27.102 197.322,27.102 L198.978,27.102 C199.122001,27.102 199.221,27.1469996 199.275,27.237 C199.329,27.3270004 199.332,27.4439993 199.284,27.588 Z M192.912,24.438 C192.888,24.5220004 192.888,24.5849998 192.912,24.627 C192.936,24.6690002 192.984,24.69 193.056,24.69 L196.854,24.69 C196.914,24.69 196.959,24.6750001 196.989,24.645 C197.019,24.6149999 197.028,24.5640004 197.016,24.492 C196.92,23.9999975 196.680002,23.5950016 196.296,23.277 C195.911998,22.9589984 195.468003,22.8 194.964,22.8 C194.483998,22.8 194.052002,22.9529985 193.668,23.259 C193.283998,23.5650015 193.032001,23.9579976 192.912,24.438 Z M203.622,30 L201.75,30 C201.666,30 201.591,29.9670003 201.525,29.901 C201.459,29.8349997 201.426,29.7540005 201.426,29.658 L201.426,18.102 C201.426,18.0059995 201.459,17.9250003 201.525,17.859 C201.591,17.7929997 201.666,17.76 201.75,17.76 L207.42,17.76 C208.752007,17.76 209.810996,18.1259963 210.597,18.858 C211.383004,19.5900037 211.776,20.5739938 211.776,21.81 C211.776,23.010006 211.350004,23.9939962 210.498,24.762 C209.645996,25.5300038 208.578006,25.914 207.294,25.914 L204.288,25.914 C204.179999,25.914 204.099,25.9439997 204.045,26.004 C203.991,26.0640003 203.964,26.1479995 203.964,26.256 L203.964,29.658 C203.964,29.7420004 203.931,29.8199996 203.865,29.892 C203.799,29.9640004 203.718,30 203.622,30 Z M204.27,23.826 L207.294,23.826 C207.846003,23.826 208.304998,23.628002 208.671,23.232 C209.037002,22.835998 209.22,22.3680027 209.22,21.828 C209.22,21.2759972 209.043002,20.8170018 208.689,20.451 C208.334998,20.0849982 207.870003,19.902 207.294,19.902 L204.27,19.902 C204.161999,19.902 204.084,19.9289997 204.036,19.983 C203.988,20.0370003 203.964,20.1179995 203.964,20.226 L203.964,23.502 C203.964,23.6100005 203.988,23.6909997 204.036,23.745 C204.084,23.7990003 204.161999,23.826 204.27,23.826 Z M220.207313,28.9734373 L220.146,29.028 C219.677998,29.4600022 219.216002,29.7689991 218.76,29.955 C218.303998,30.1410009 217.800003,30.234 217.248,30.234 C216.011994,30.234 214.965004,29.7750046 214.107,28.857 C213.248996,27.9389954 212.82,26.8140067 212.82,25.482 C212.82,24.1499933 213.254996,23.0250046 214.125,22.107 C214.995004,21.1889954 216.047994,20.73 217.284,20.73 C217.716002,20.73 218.120998,20.8019993 218.499,20.946 C218.814002,21.0660006 219.139416,21.2484991 219.475249,21.4934995 L219.678,21.648 C219.762,21.7200004 219.84,21.7500001 219.912,21.738 C219.984,21.7259999 220.02,21.6660005 220.02,21.558 L220.02,21.288 C220.02,21.1919995 220.053,21.1140003 220.119,21.054 C220.185,20.9939997 220.26,20.964 220.344,20.964 L222.036,20.964 C222.132,20.964 222.213,20.9969997 222.279,21.063 C222.345,21.1290003 222.378,21.2099995 222.378,21.306 L222.378,27.264 C222.378,27.4800011 222.417,27.6419995 222.495,27.75 C222.573,27.8580005 222.689999,27.9179999 222.846,27.93 C222.93,27.9420001 223.002,27.9749997 223.062,28.029 C223.122,28.0830003 223.152,28.1459996 223.152,28.218 L223.152,29.784 C223.152,29.8680004 223.122,29.9399997 223.062,30 C223.002,30.0600003 222.93,30.09 222.846,30.09 C222.269997,30.09 221.796002,30.0060008 221.424,29.838 C221.051998,29.6699992 220.764001,29.4120017 220.56,29.064 C220.5,28.9679995 220.437,28.917 220.371,28.911 C220.3215,28.9065 220.266938,28.9273123 220.207313,28.9734373 L220.207313,28.9734373 Z M215.286,25.482 C215.286,26.1780035 215.516998,26.7719975 215.979,27.264 C216.441002,27.7560025 217.001997,28.002 217.662,28.002 C218.322003,28.002 218.879998,27.7590024 219.336,27.273 C219.792002,26.7869976 220.02,26.1900035 220.02,25.482 C220.02,24.7739965 219.792002,24.1770024 219.336,23.691 C218.879998,23.2049976 218.322003,22.962 217.662,22.962 C217.001997,22.962 216.441002,23.2079975 215.979,23.7 C215.516998,24.1920025 215.286,24.7859965 215.286,25.482 Z M224.412,33.51 C224.328,33.51 224.25,33.4770003 224.178,33.411 C224.106,33.3449997 224.07,33.2640005 224.07,33.168 L224.07,31.71 C224.07,31.6259996 224.103,31.5510003 224.169,31.485 C224.235,31.4189997 224.316,31.386 224.412,31.386 C225.048003,31.386 225.608998,31.2270016 226.095,30.909 C226.581002,30.5909984 226.883999,30.1740026 227.004,29.658 C227.04,29.5379994 227.052,29.4240005 227.04,29.316 C227.028,29.2079995 226.992,29.0820007 226.932,28.938 L223.62,21.45 C223.572,21.3179993 223.578,21.2040005 223.638,21.108 C223.698,21.0119995 223.787999,20.964 223.908,20.964 L225.69,20.964 C225.762,20.964 225.828,20.9909997 225.888,21.045 C225.948,21.0990003 226.002,21.1799995 226.05,21.288 L228.12,26.076 C228.204,26.268001 228.294,26.361 228.39,26.355 C228.486,26.349 228.576,26.250001 228.66,26.058 L230.64,21.252 C230.676,21.1439995 230.721,21.0690002 230.775,21.027 C230.829,20.9849998 230.898,20.964 230.982,20.964 L232.692,20.964 C232.812001,20.964 232.905,21.0089995 232.971,21.099 C233.037,21.1890004 233.046,21.2879995 232.998,21.396 L229.596,29.478 C228.959997,30.9780075 228.258004,32.024997 227.49,32.619 C226.721996,33.213003 225.696006,33.51 224.412,33.51 Z" id="BetalmedMobilePay" fill="#5A78FF" fill-rule="nonzero"></path>
                <g id="Logo-/-Monochrome-/-Icon---MP-Blue" transform="translate(22.000000, 11.000000)" fill="#5A78FF">
                    <g id="Logo_monochrome_lines" transform="translate(0.764706, 0.382353)">
                        <path d="M11.8529412,16.7365084 C13.9709276,16.0910306 15.7627795,15.7664759 17.2284968,15.7628444 C19.6517368,15.7568404 21.6834143,16.2378531 23.3235294,17.2058824 L23.3235294,10.1662664 C21.6750873,9.31267556 19.8125189,8.85702497 17.7358241,8.7993146 C15.6591294,8.74160424 13.6981684,9.16453394 11.8529412,10.0681037 L11.8529412,16.7365084 Z" id="Path-4"></path>
                        <path d="M8.41176471,9.07195384 L11.025752,15.2941176 L11.025752,9.33099477 C12.4029934,8.59349174 13.8610171,8.12085267 15.3998232,7.91307756 C16.9386292,7.70530244 18.6877078,7.73880158 20.6470588,8.01357497 L19.2253774,4.61677985 C17.165744,4.48377212 15.2036939,4.81559182 13.3392269,5.61223896 C11.47476,6.4088861 9.83227258,7.56212439 8.41176471,9.07195384 Z" id="Path-4"></path>
                        <path d="M16.4411765,6.51927915 C16.4411765,5.91889364 16.4411765,5.01831538 16.4411765,3.81754437 C16.4411765,2.55384363 15.4229778,1.52941176 14.1669661,1.52941176 L6.48009274,1.52941176 C5.22408102,1.52941176 4.20588235,2.55384363 4.20588235,3.81754437 L4.20588235,21.8001027 C4.20588235,23.0638034 5.22408102,24.0882353 6.48009274,24.0882353 L14.1669661,24.0882353 C15.4229778,24.0882353 16.4411765,23.0638034 16.4411765,21.8001027 C16.4411765,20.6612641 16.4411765,19.9181304 16.4411765,19.5707018 C16.0923547,19.402244 15.8360101,19.2817348 15.6721426,19.2091741 C15.49909,19.1325464 15.2500546,19.029273 14.9250362,18.899354 C14.9250362,19.3470246 14.9250362,20.3139408 14.9250362,21.8001027 C14.9250362,22.2213363 14.5856367,22.5628136 14.1669661,22.5628136 L6.48009274,22.5628136 C6.06142217,22.5628136 5.72202261,22.2213363 5.72202261,21.8001027 L5.72202261,3.81754437 C5.72202261,3.39631079 6.06142217,3.0548335 6.48009274,3.0548335 L14.1669661,3.0548335 C14.5856367,3.0548335 14.9250362,3.39631079 14.9250362,3.81754437 L14.9250362,6.54837213 C15.2815657,6.5258784 15.5527734,6.51554513 15.7386594,6.51737232 C15.9245455,6.5191995 16.1587178,6.51983512 16.4411765,6.51927915 Z" id="Path-5" fill-rule="nonzero" transform="translate(10.323529, 12.808824) rotate(-22.400000) translate(-10.323529, -12.808824) "></path>
                    </g>
                </g>
            </g>
        </g>
    </g>
</svg>