<?xml version="1.0" encoding="UTF-8"?>
<svg width="171px" height="32px" viewBox="0 0 171 32" version="1.1" xmlns="http://www.w3.org/2000/svg" xmlns:xlink="http://www.w3.org/1999/xlink">
    <!-- Generator: Sketch 58 (84663) - https://sketch.com -->
    <title>danish/danish-outline-small</title>
    <desc>Created with Sketch.</desc>
    <g id="Subscription-assets" stroke="none" stroke-width="1" fill="none" fill-rule="evenodd">
        <g id="Betal-Med-MobilePay-Copy" transform="translate(-21.000000, -528.000000)">
            <g id="danish/danish-outline-small" transform="translate(21.000000, 528.000000)">
                <rect id="Background" stroke="#5A78FF" fill="#FFFFFF" x="0.5" y="0.5" width="170" height="31" rx="4"></rect>
                <path d="M38.92,20 L34.996,20 C34.9399997,20 34.8900002,19.9780002 34.846,19.934 C34.8019998,19.8899998 34.78,19.8360003 34.78,19.772 L34.78,12.068 C34.78,12.0039997 34.8019998,11.9500002 34.846,11.906 C34.8900002,11.8619998 34.9399997,11.84 34.996,11.84 L38.896,11.84 C39.6080036,11.84 40.2079976,12.0599978 40.696,12.5 C41.1840024,12.9400022 41.428,13.4839968 41.428,14.132 C41.428,14.4520016 41.3620007,14.7499986 41.23,15.026 C41.0979993,15.3020014 40.9080012,15.539999 40.66,15.74 C40.6279998,15.7720002 40.612,15.8059998 40.612,15.842 C40.612,15.8780002 40.6279998,15.9079999 40.66,15.932 C40.9960017,16.1160009 41.2539991,16.3539985 41.434,16.646 C41.6140009,16.9380015 41.704,17.2599982 41.704,17.612 C41.704,18.3000034 41.4420026,18.8699977 40.918,19.322 C40.3939974,19.7740023 39.728004,20 38.92,20 Z M36.664,15.2 L38.716,15.2 C39.0120015,15.2 39.255999,15.104001 39.448,14.912 C39.640001,14.719999 39.736,14.4800014 39.736,14.192 C39.736,13.8959985 39.638001,13.6620009 39.442,13.49 C39.245999,13.3179991 38.9840016,13.232 38.656,13.232 L36.664,13.232 C36.5999997,13.232 36.5500002,13.2499998 36.514,13.286 C36.4779998,13.3220002 36.46,13.3719997 36.46,13.436 L36.46,15.008 C36.46,15.0720003 36.4779998,15.1199998 36.514,15.152 C36.5500002,15.1840002 36.5999997,15.2 36.664,15.2 Z M36.664,18.596 L38.836,18.596 C39.1640016,18.596 39.4399989,18.492001 39.664,18.284 C39.8880011,18.075999 40,17.8240015 40,17.528 C40,17.2479986 39.8920011,17.008 39.676,16.808 C39.46,16.607999 39.1880016,16.508 38.86,16.508 L36.664,16.508 C36.5999997,16.508 36.5500002,16.5239998 36.514,16.556 C36.4779998,16.5880002 36.46,16.6359997 36.46,16.7 L36.46,18.404 C36.46,18.4680003 36.4759998,18.5159998 36.508,18.548 C36.5400002,18.5800002 36.5919996,18.596 36.664,18.596 Z M48.352,18.392 C48.151999,18.9200026 47.7860027,19.3459984 47.254,19.67 C46.7219973,19.9940016 46.1280033,20.156 45.472,20.156 C44.5679955,20.156 43.8220029,19.860003 43.234,19.268 C42.6459971,18.675997 42.352,17.9240046 42.352,17.012 C42.352,16.0999954 42.651997,15.340003 43.252,14.732 C43.852,14.123997 44.5999955,13.82 45.496,13.82 C46.3840044,13.82 47.1219971,14.1259969 47.71,14.738 C48.2980029,15.3500031 48.592,16.1159954 48.592,17.036 C48.592,17.1720007 48.5700002,17.2719997 48.526,17.336 C48.4819998,17.4000003 48.4120005,17.432 48.316,17.432 L44.188,17.432 C44.1399998,17.432 44.1040001,17.4459999 44.08,17.474 C44.0559999,17.5020001 44.048,17.5399998 44.056,17.588 C44.0960002,17.9320017 44.2539986,18.2159989 44.53,18.44 C44.8060014,18.6640011 45.1359981,18.776 45.52,18.776 C45.7440011,18.776 45.953999,18.7320004 46.15,18.644 C46.2970007,18.5779997 46.429375,18.4895003 46.5471248,18.3785003 L46.66,18.26 C46.7240003,18.1879996 46.7859997,18.1380001 46.846,18.11 C46.9060003,18.0819999 46.9719996,18.068 47.044,18.068 L48.148,18.068 C48.2440005,18.068 48.3099998,18.0979997 48.346,18.158 C48.3820002,18.2180003 48.3840002,18.2959995 48.352,18.392 Z M44.104,16.292 C44.0879999,16.3480003 44.0879999,16.3899999 44.104,16.418 C44.1200001,16.4460001 44.1519998,16.46 44.2,16.46 L46.732,16.46 C46.7720002,16.46 46.8019999,16.4500001 46.822,16.43 C46.8420001,16.4099999 46.848,16.3760002 46.84,16.328 C46.7759997,15.9999984 46.6160013,15.7300011 46.36,15.518 C46.1039987,15.3059989 45.8080017,15.2 45.472,15.2 C45.1519984,15.2 44.8640013,15.301999 44.608,15.506 C44.3519987,15.710001 44.1840004,15.9719984 44.104,16.292 Z M52.648,20.06 L52.588,20.06 C51.6999956,20.06 51.0400022,19.858002 50.608,19.454 C50.1759978,19.049998 49.96,18.4360041 49.96,17.612 L49.96,15.584 C49.96,15.5199997 49.9400002,15.4680002 49.9,15.428 C49.8599998,15.3879998 49.8080003,15.368 49.744,15.368 L49.324,15.368 C49.2599997,15.368 49.2060002,15.3460002 49.162,15.302 C49.1179998,15.2579998 49.096,15.2080003 49.096,15.152 L49.096,14.204 C49.096,14.1399997 49.1199998,14.0860002 49.168,14.042 C49.2160002,13.9979998 49.2679997,13.976 49.324,13.976 L49.744,13.976 C49.8080003,13.976 49.8599998,13.9540002 49.9,13.91 C49.9400002,13.8659998 49.96,13.8160003 49.96,13.76 L49.96,12.728 C49.96,12.6639997 49.9819998,12.6100002 50.026,12.566 C50.0700002,12.5219998 50.1199997,12.5 50.176,12.5 L51.364,12.5 C51.4280003,12.5 51.4819998,12.5219998 51.526,12.566 C51.5700002,12.6100002 51.592,12.6639997 51.592,12.728 L51.592,13.76 C51.592,13.8160003 51.6139998,13.8659998 51.658,13.91 C51.7020002,13.9540002 51.7559997,13.976 51.82,13.976 L52.6,13.976 C52.6640003,13.976 52.7179998,13.9979998 52.762,14.042 C52.8060002,14.0860002 52.828,14.1399997 52.828,14.204 L52.828,15.152 C52.828,15.2080003 52.8060002,15.2579998 52.762,15.302 C52.7179998,15.3460002 52.6640003,15.368 52.6,15.368 L51.82,15.368 C51.7639997,15.368 51.7120002,15.3899998 51.664,15.434 C51.6159998,15.4780002 51.592,15.5319997 51.592,15.596 L51.592,17.6 C51.592,17.9360017 51.6819991,18.1919991 51.862,18.368 C52.0420009,18.5440009 52.3039983,18.632 52.648,18.632 C52.7040003,18.632 52.7519998,18.6499998 52.792,18.686 C52.8320002,18.7220002 52.852,18.7679997 52.852,18.824 L52.852,19.844 C52.852,19.9080003 52.8320002,19.9599998 52.792,20 C52.7519998,20.0400002 52.7040003,20.06 52.648,20.06 Z M58.3540001,19.3059999 L58.3,19.352 C57.9879984,19.6400014 57.6800015,19.8459994 57.376,19.97 C57.0719985,20.0940006 56.7360018,20.156 56.368,20.156 C55.5439959,20.156 54.8460029,19.8500031 54.274,19.238 C53.7019971,18.6259969 53.416,17.8760044 53.416,16.988 C53.416,16.0999956 53.7059971,15.3500031 54.286,14.738 C54.8660029,14.1259969 55.5679959,13.82 56.392,13.82 C56.6800014,13.82 56.9499987,13.8679995 57.202,13.964 C57.403601,14.0408004 57.6115995,14.1559995 57.8259996,14.3095996 L57.988,14.432 C58.0440003,14.4800002 58.0959998,14.5 58.144,14.492 C58.1920002,14.484 58.216,14.4440004 58.216,14.372 L58.216,14.192 C58.216,14.1279997 58.2379998,14.0760002 58.282,14.036 C58.3260002,13.9959998 58.3759997,13.976 58.432,13.976 L59.56,13.976 C59.6240003,13.976 59.6779998,13.9979998 59.722,14.042 C59.7660002,14.0860002 59.788,14.1399997 59.788,14.204 L59.788,18.176 C59.788,18.32 59.8139997,18.4279996 59.866,18.5 C59.9180003,18.5720004 59.9959995,18.612 60.1,18.62 C60.1560003,18.628 60.2039998,18.6499998 60.244,18.686 C60.2840002,18.7220002 60.304,18.7639998 60.304,18.812 L60.304,19.856 C60.304,19.9120003 60.2840002,19.9599998 60.244,20 C60.2039998,20.0400002 60.1560003,20.06 60.1,20.06 C59.7159981,20.06 59.4000012,20.0040006 59.152,19.892 C58.9039988,19.7799994 58.7120007,19.6080012 58.576,19.376 C58.5359998,19.3119997 58.4940002,19.278 58.45,19.274 C58.4206665,19.2713333 58.3886667,19.2819999 58.3540001,19.3059999 L58.3540001,19.3059999 Z M55.06,16.988 C55.06,17.4520023 55.2139985,17.8479984 55.522,18.176 C55.8300015,18.5040016 56.2039978,18.668 56.644,18.668 C57.0840022,18.668 57.4559985,18.5060016 57.76,18.182 C58.0640015,17.8579984 58.216,17.4600024 58.216,16.988 C58.216,16.5159976 58.0640015,16.1180016 57.76,15.794 C57.4559985,15.4699984 57.0840022,15.308 56.644,15.308 C56.2039978,15.308 55.8300015,15.4719984 55.522,15.8 C55.2139985,16.1280016 55.06,16.5239977 55.06,16.988 Z M63.448,20.06 C62.6319959,20.06 62.0580017,19.9020016 61.726,19.586 C61.3939983,19.2699984 61.228,18.7280038 61.228,17.96 L61.228,12.068 C61.228,12.0039997 61.2499998,11.9500002 61.294,11.906 C61.3380002,11.8619998 61.3879997,11.84 61.444,11.84 L62.632,11.84 C62.6960003,11.84 62.7499998,11.8619998 62.794,11.906 C62.8380002,11.9500002 62.86,12.0039997 62.86,12.068 L62.86,17.996 C62.86,18.204001 62.9099995,18.3619995 63.01,18.47 C63.1100005,18.5780005 63.255999,18.632 63.448,18.632 C63.5120003,18.632 63.5659998,18.6539998 63.61,18.698 C63.6540002,18.7420002 63.676,18.7959997 63.676,18.86 L63.676,19.844 C63.676,19.9000003 63.6540002,19.9499998 63.61,19.994 C63.5659998,20.0380002 63.5120003,20.06 63.448,20.06 Z M68.08,20 L66.892,20 C66.8359997,20 66.7860002,19.9780002 66.742,19.934 C66.6979998,19.8899998 66.676,19.8360003 66.676,19.772 L66.676,14.204 C66.676,14.1399997 66.6979998,14.0860002 66.742,14.042 C66.7860002,13.9979998 66.8359997,13.976 66.892,13.976 L68.032,13.976 C68.0960003,13.976 68.1499998,13.9979998 68.194,14.042 C68.2380002,14.0860002 68.26,14.1399997 68.26,14.204 L68.26,14.396 C68.26,14.4680004 68.2859997,14.5099999 68.338,14.522 C68.3770002,14.531 68.4193749,14.5186252 68.4651249,14.4848751 L68.512,14.444 C68.7520012,14.2279989 68.9899988,14.0700005 69.226,13.97 C69.4620012,13.8699995 69.7199986,13.82 70,13.82 C70.3520018,13.82 70.6659986,13.8959992 70.942,14.048 C71.2180014,14.2000008 71.459999,14.4279985 71.668,14.732 C71.7000002,14.7800002 71.7319998,14.804 71.764,14.804 C71.7960002,14.804 71.8319998,14.7800002 71.872,14.732 C72.0960011,14.4359985 72.3679984,14.2100008 72.688,14.054 C73.0080016,13.8979992 73.363998,13.82 73.756,13.82 C74.3960032,13.82 74.917998,14.0419978 75.322,14.486 C75.726002,14.9300022 75.928,15.5039965 75.928,16.208 L75.928,19.772 C75.928,19.8280003 75.9060002,19.8799998 75.862,19.928 C75.8179998,19.9760002 75.7640003,20 75.7,20 L74.512,20 C74.4559997,20 74.4060002,19.9780002 74.362,19.934 C74.3179998,19.8899998 74.296,19.8360003 74.296,19.772 L74.296,16.496 C74.296,16.103998 74.2020009,15.7960011 74.014,15.572 C73.8259991,15.3479989 73.5640017,15.236 73.228,15.236 C72.9079984,15.236 72.6420011,15.3559988 72.43,15.596 C72.2179989,15.8360012 72.112,16.1239983 72.112,16.46 L72.112,19.772 C72.112,19.8280003 72.0900002,19.8799998 72.046,19.928 C72.0019998,19.9760002 71.9480003,20 71.884,20 L70.696,20 C70.6399997,20 70.5900002,19.9780002 70.546,19.934 C70.5019998,19.8899998 70.48,19.8360003 70.48,19.772 L70.48,16.496 C70.48,16.103998 70.3860009,15.7960011 70.198,15.572 C70.0099991,15.3479989 69.7520016,15.236 69.424,15.236 C69.0959984,15.236 68.828001,15.3539988 68.62,15.59 C68.411999,15.8260012 68.308,16.1199982 68.308,16.472 L68.308,19.772 C68.308,19.8280003 68.2860002,19.8799998 68.242,19.928 C68.1979998,19.9760002 68.1440003,20 68.08,20 Z M82.996,18.392 C82.795999,18.9200026 82.4300027,19.3459984 81.898,19.67 C81.3659973,19.9940016 80.7720033,20.156 80.116,20.156 C79.2119955,20.156 78.4660029,19.860003 77.878,19.268 C77.2899971,18.675997 76.996,17.9240046 76.996,17.012 C76.996,16.0999954 77.295997,15.340003 77.896,14.732 C78.496,14.123997 79.2439955,13.82 80.14,13.82 C81.0280044,13.82 81.7659971,14.1259969 82.354,14.738 C82.9420029,15.3500031 83.236,16.1159954 83.236,17.036 C83.236,17.1720007 83.2140002,17.2719997 83.17,17.336 C83.1259998,17.4000003 83.0560005,17.432 82.96,17.432 L78.832,17.432 C78.7839998,17.432 78.7480001,17.4459999 78.724,17.474 C78.6999999,17.5020001 78.692,17.5399998 78.7,17.588 C78.7400002,17.9320017 78.8979986,18.2159989 79.174,18.44 C79.4500014,18.6640011 79.7799981,18.776 80.164,18.776 C80.3880011,18.776 80.597999,18.7320004 80.794,18.644 C80.9410007,18.5779997 81.073375,18.4895003 81.1911248,18.3785003 L81.304,18.26 C81.3680003,18.1879996 81.4299997,18.1380001 81.49,18.11 C81.5500003,18.0819999 81.6159996,18.068 81.688,18.068 L82.792,18.068 C82.8880005,18.068 82.9539998,18.0979997 82.99,18.158 C83.0260002,18.2180003 83.0280002,18.2959995 82.996,18.392 Z M78.748,16.292 C78.7319999,16.3480003 78.7319999,16.3899999 78.748,16.418 C78.7640001,16.4460001 78.7959998,16.46 78.844,16.46 L81.376,16.46 C81.4160002,16.46 81.4459999,16.4500001 81.466,16.43 C81.4860001,16.4099999 81.492,16.3760002 81.484,16.328 C81.4199997,15.9999984 81.2600013,15.7300011 81.004,15.518 C80.7479987,15.3059989 80.4520017,15.2 80.116,15.2 C79.7959984,15.2 79.5080013,15.301999 79.252,15.506 C78.9959987,15.710001 78.8280004,15.9719984 78.748,16.292 Z M88.9900001,19.3059999 L88.936,19.352 C88.6239984,19.6400014 88.3160015,19.8459994 88.012,19.97 C87.7079985,20.0940006 87.3720018,20.156 87.004,20.156 C86.1799959,20.156 85.4820029,19.8500031 84.91,19.238 C84.3379971,18.6259969 84.052,17.8760044 84.052,16.988 C84.052,16.0999956 84.3419971,15.3500031 84.922,14.738 C85.5020029,14.1259969 86.2039959,13.82 87.028,13.82 C87.3080014,13.82 87.5739987,13.8639996 87.826,13.952 C88.0780013,14.0400004 88.3159989,14.1759991 88.54,14.36 C88.5960003,14.4080002 88.6519997,14.4220001 88.708,14.402 C88.7640003,14.3819999 88.792,14.3320004 88.792,14.252 L88.792,12.068 C88.792,12.0039997 88.8139998,11.9500002 88.858,11.906 C88.9020002,11.8619998 88.9519997,11.84 89.008,11.84 L90.196,11.84 C90.2600003,11.84 90.3139998,11.8619998 90.358,11.906 C90.4020002,11.9500002 90.424,12.0039997 90.424,12.068 L90.424,18.176 C90.424,18.3200007 90.4499997,18.4279996 90.502,18.5 C90.5540003,18.5720004 90.6319995,18.612 90.736,18.62 C90.7920003,18.628 90.8399998,18.6499998 90.88,18.686 C90.9200002,18.7220002 90.94,18.7639998 90.94,18.812 L90.94,19.856 C90.94,19.9120003 90.9200002,19.9599998 90.88,20 C90.8399998,20.0400002 90.7920003,20.06 90.736,20.06 C90.3519981,20.06 90.0360012,20.0040006 89.788,19.892 C89.5399988,19.7799994 89.3480007,19.6080012 89.212,19.376 C89.1719998,19.3119997 89.1300002,19.278 89.086,19.274 C89.0566665,19.2713333 89.0246667,19.2819999 88.9900001,19.3059999 L88.9900001,19.3059999 Z M85.696,16.988 C85.696,17.4520023 85.8499985,17.8479984 86.158,18.176 C86.4660015,18.5040016 86.8399978,18.668 87.28,18.668 C87.7200022,18.668 88.0919985,18.5060016 88.396,18.182 C88.7000015,17.8579984 88.852,17.4600024 88.852,16.988 C88.852,16.5159976 88.7000015,16.1180016 88.396,15.794 C88.0919985,15.4699984 87.7200022,15.308 87.28,15.308 C86.8399978,15.308 86.4660015,15.4719984 86.158,15.8 C85.8499985,16.1280016 85.696,16.5239977 85.696,16.988 Z M94.984,20 L93.616,20 C93.5359996,20 93.4800002,19.9760002 93.448,19.928 C93.4159998,19.8799998 93.4119999,19.8160004 93.436,19.736 L95.872,12.032 C95.8880001,11.9759997 95.9179998,11.9300002 95.962,11.894 C96.0060002,11.8579998 96.0519998,11.84 96.1,11.84 L97.324,11.84 C97.3720002,11.84 97.4179998,11.8579998 97.462,11.894 C97.5060002,11.9300002 97.5399999,11.9759997 97.564,12.032 L99.46,16.892 C99.4760001,16.9400002 99.5039998,16.966 99.544,16.97 C99.5740001,16.973 99.59725,16.9591252 99.61375,16.9283751 L101.512,12.032 C101.536,11.9759997 101.57,11.9300002 101.614,11.894 C101.658,11.8579998 101.704,11.84 101.752,11.84 L102.976,11.84 C103.024,11.84 103.07,11.8579998 103.114,11.894 C103.158,11.9300002 103.188,11.9759997 103.204,12.032 L105.592,19.736 C105.616,19.8080004 105.61,19.8699997 105.574,19.922 C105.538,19.9740003 105.484,20 105.412,20 L103.96,20 C103.904,20 103.858,19.9860001 103.822,19.958 C103.786,19.9299999 103.76,19.8880003 103.744,19.832 L102.196,14.828 C102.188,14.7799998 102.162,14.756 102.118,14.756 C102.074,14.756 102.044,14.7799998 102.028,14.828 L100.204,19.796 C100.18,19.8600003 100.146,19.9099998 100.102,19.946 C100.058,19.9820002 100.004,20 99.94,20 L99.088,20 C99.0239997,20 98.9720002,19.9840002 98.932,19.952 C98.8919998,19.9199998 98.8600001,19.8680004 98.836,19.796 L96.952,14.828 C96.9359999,14.7799998 96.9100002,14.756 96.874,14.756 C96.8379998,14.756 96.8120001,14.7799998 96.796,14.828 L95.212,19.832 C95.1959999,19.8880003 95.1680002,19.9299999 95.128,19.958 C95.0879998,19.9860001 95.0400003,20 94.984,20 Z M112.42,16.988 C112.42,17.8840045 112.114003,18.635997 111.502,19.244 C110.889997,19.852003 110.124005,20.156 109.204,20.156 C108.291995,20.156 107.528003,19.852003 106.912,19.244 C106.295997,18.635997 105.988,17.8840045 105.988,16.988 C105.988,16.0919955 106.293997,15.340003 106.906,14.732 C107.518003,14.123997 108.283995,13.82 109.204,13.82 C110.124005,13.82 110.889997,14.121997 111.502,14.726 C112.114003,15.330003 112.42,16.0839955 112.42,16.988 Z M107.62,16.988 C107.62,17.4520023 107.775998,17.8479984 108.088,18.176 C108.400002,18.5040016 108.771998,18.668 109.204,18.668 C109.644002,18.668 110.017998,18.5040016 110.326,18.176 C110.634002,17.8479984 110.788,17.4520023 110.788,16.988 C110.788,16.5239977 110.634002,16.1280016 110.326,15.8 C110.017998,15.4719984 109.644002,15.308 109.204,15.308 C108.771998,15.308 108.400002,15.4719984 108.088,15.8 C107.775998,16.1280016 107.62,16.5239977 107.62,16.988 Z M119.884,16.988 C119.884,17.8760044 119.600003,18.6259969 119.032,19.238 C118.463997,19.8500031 117.764004,20.156 116.932,20.156 C116.643999,20.156 116.372001,20.1060005 116.116,20.006 C115.859999,19.9059995 115.588001,19.7400012 115.3,19.508 C115.236,19.4599998 115.182,19.4459999 115.138,19.466 C115.094,19.4860001 115.072,19.5359996 115.072,19.616 L115.072,19.772 C115.072,19.8360003 115.05,19.8899998 115.006,19.934 C114.962,19.9780002 114.912,20 114.856,20 L113.728,20 C113.672,20 113.62,19.9760002 113.572,19.928 C113.524,19.8799998 113.5,19.8280003 113.5,19.772 L113.5,12.068 C113.5,12.0039997 113.524,11.9500002 113.572,11.906 C113.62,11.8619998 113.672,11.84 113.728,11.84 L114.916,11.84 C114.972,11.84 115.022,11.8619998 115.066,11.906 C115.11,11.9500002 115.132,12.0039997 115.132,12.068 L115.132,14.264 C115.132,14.3440004 115.158,14.3919999 115.21,14.408 C115.262,14.4240001 115.328,14.4040003 115.408,14.348 C115.648001,14.1719991 115.899999,14.0400004 116.164,13.952 C116.428001,13.8639996 116.699999,13.82 116.98,13.82 C117.796004,13.82 118.483997,14.1259969 119.044,14.738 C119.604003,15.3500031 119.884,16.0999956 119.884,16.988 Z M115.084,16.988 C115.084,17.4520023 115.235998,17.8459984 115.54,18.17 C115.844002,18.4940016 116.215998,18.656 116.656,18.656 C117.096002,18.656 117.471998,18.4940016 117.784,18.17 C118.096002,17.8459984 118.252,17.4520023 118.252,16.988 C118.252,16.5239977 118.096002,16.1280016 117.784,15.8 C117.471998,15.4719984 117.096002,15.308 116.656,15.308 C116.223998,15.308 115.854002,15.4719984 115.546,15.8 C115.237998,16.1280016 115.084,16.5239977 115.084,16.988 Z M122.704,12.404 C122.704,12.6520012 122.614001,12.8659991 122.434,13.046 C122.253999,13.2260009 122.040001,13.316 121.792,13.316 C121.543999,13.316 121.330001,13.2260009 121.15,13.046 C120.969999,12.8659991 120.88,12.6520012 120.88,12.404 C120.88,12.1559988 120.969999,11.9420009 121.15,11.762 C121.330001,11.5819991 121.543999,11.492 121.792,11.492 C122.040001,11.492 122.253999,11.5819991 122.434,11.762 C122.614001,11.9420009 122.704,12.1559988 122.704,12.404 Z M122.368,20 L121.18,20 C121.124,20 121.074,19.9780002 121.03,19.934 C120.986,19.8899998 120.964,19.8360003 120.964,19.772 L120.964,14.204 C120.964,14.1399997 120.986,14.0860002 121.03,14.042 C121.074,13.9979998 121.124,13.976 121.18,13.976 L122.368,13.976 C122.432,13.976 122.486,13.9979998 122.53,14.042 C122.574,14.0860002 122.596,14.1399997 122.596,14.204 L122.596,19.772 C122.596,19.8280003 122.574,19.8799998 122.53,19.928 C122.486,19.976 122.432,20 122.368,20 Z M126.136,20.06 C125.319996,20.06 124.746002,19.9020016 124.414,19.586 C124.081998,19.2699984 123.916,18.7280038 123.916,17.96 L123.916,12.068 C123.916,12.0039997 123.938,11.9500002 123.982,11.906 C124.026,11.8619998 124.076,11.84 124.132,11.84 L125.32,11.84 C125.384,11.84 125.438,11.8619998 125.482,11.906 C125.526,11.9500002 125.548,12.0039997 125.548,12.068 L125.548,17.996 C125.548,18.204001 125.598,18.3619995 125.698,18.47 C125.798001,18.5780005 125.943999,18.632 126.136,18.632 C126.2,18.632 126.254,18.6539998 126.298,18.698 C126.342,18.7420002 126.364,18.7959997 126.364,18.86 L126.364,19.844 C126.364,19.9000003 126.342,19.9499998 126.298,19.994 C126.254,20.0380002 126.2,20.06 126.136,20.06 Z M132.856,18.392 C132.655999,18.9200026 132.290003,19.3459984 131.758,19.67 C131.225997,19.9940016 130.632003,20.156 129.976,20.156 C129.071995,20.156 128.326003,19.860003 127.738,19.268 C127.149997,18.675997 126.856,17.9240046 126.856,17.012 C126.856,16.0999954 127.155997,15.340003 127.756,14.732 C128.356,14.123997 129.103996,13.82 130,13.82 C130.888004,13.82 131.625997,14.1259969 132.214,14.738 C132.802003,15.3500031 133.096,16.1159954 133.096,17.036 C133.096,17.1720007 133.074,17.2719997 133.03,17.336 C132.986,17.4000003 132.916,17.432 132.82,17.432 L128.692,17.432 C128.644,17.432 128.608,17.4459999 128.584,17.474 C128.56,17.5020001 128.552,17.5399998 128.56,17.588 C128.6,17.9320017 128.757999,18.2159989 129.034,18.44 C129.310001,18.6640011 129.639998,18.776 130.024,18.776 C130.248001,18.776 130.457999,18.7320004 130.654,18.644 C130.801001,18.5779997 130.933375,18.4895003 131.051125,18.3785003 L131.164,18.26 C131.228,18.1879996 131.29,18.1380001 131.35,18.11 C131.41,18.0819999 131.476,18.068 131.548,18.068 L132.652,18.068 C132.748,18.068 132.814,18.0979997 132.85,18.158 C132.886,18.2180003 132.888,18.2959995 132.856,18.392 Z M128.608,16.292 C128.592,16.3480003 128.592,16.3899999 128.608,16.418 C128.624,16.4460001 128.656,16.46 128.704,16.46 L131.236,16.46 C131.276,16.46 131.306,16.4500001 131.326,16.43 C131.346,16.4099999 131.352,16.3760002 131.344,16.328 C131.28,15.9999984 131.120001,15.7300011 130.864,15.518 C130.607999,15.3059989 130.312002,15.2 129.976,15.2 C129.655998,15.2 129.368001,15.301999 129.112,15.506 C128.855999,15.710001 128.688,15.9719984 128.608,16.292 Z M135.748,20 L134.5,20 C134.444,20 134.394,19.9780002 134.35,19.934 C134.306,19.8899998 134.284,19.8360003 134.284,19.772 L134.284,12.068 C134.284,12.0039997 134.306,11.9500002 134.35,11.906 C134.394,11.8619998 134.444,11.84 134.5,11.84 L138.28,11.84 C139.168004,11.84 139.873997,12.0839976 140.398,12.572 C140.922003,13.0600024 141.184,13.7159959 141.184,14.54 C141.184,15.34 140.900003,15.9959974 140.332,16.508 C139.763997,17.0200026 139.052004,17.276 138.196,17.276 L136.192,17.276 C136.12,17.276 136.066,17.2959998 136.03,17.336 C135.994,17.3760002 135.976,17.4319996 135.976,17.504 L135.976,19.772 C135.976,19.8280003 135.954,19.8799998 135.91,19.928 C135.866,19.9760002 135.812,20 135.748,20 Z M136.18,15.884 L138.196,15.884 C138.564002,15.884 138.869999,15.7520013 139.114,15.488 C139.358001,15.2239987 139.48,14.9120018 139.48,14.552 C139.48,14.1839982 139.362001,13.8780012 139.126,13.634 C138.889999,13.3899988 138.580002,13.268 138.196,13.268 L136.18,13.268 C136.108,13.268 136.056,13.2859998 136.024,13.322 C135.992,13.3580002 135.976,13.4119996 135.976,13.484 L135.976,15.668 C135.976,15.7400004 135.992,15.7939998 136.024,15.83 C136.056,15.8660002 136.108,15.884 136.18,15.884 Z M146.818,19.3059999 L146.764,19.352 C146.451998,19.6400014 146.144002,19.8459994 145.84,19.97 C145.535998,20.0940006 145.200002,20.156 144.832,20.156 C144.007996,20.156 143.310003,19.8500031 142.738,19.238 C142.165997,18.6259969 141.88,17.8760044 141.88,16.988 C141.88,16.0999956 142.169997,15.3500031 142.75,14.738 C143.330003,14.1259969 144.031996,13.82 144.856,13.82 C145.144001,13.82 145.413999,13.8679995 145.666,13.964 C145.867601,14.0408004 146.0756,14.1559995 146.29,14.3095996 L146.452,14.432 C146.508,14.4800002 146.56,14.5 146.608,14.492 C146.656,14.484 146.68,14.4440004 146.68,14.372 L146.68,14.192 C146.68,14.1279997 146.702,14.0760002 146.746,14.036 C146.79,13.9959998 146.84,13.976 146.896,13.976 L148.024,13.976 C148.088,13.976 148.142,13.9979998 148.186,14.042 C148.23,14.0860002 148.252,14.1399997 148.252,14.204 L148.252,18.176 C148.252,18.32 148.278,18.4279996 148.33,18.5 C148.382,18.5720004 148.459999,18.612 148.564,18.62 C148.62,18.628 148.668,18.6499998 148.708,18.686 C148.748,18.7220002 148.768,18.7639998 148.768,18.812 L148.768,19.856 C148.768,19.9120003 148.748,19.9599998 148.708,20 C148.668,20.0400002 148.62,20.06 148.564,20.06 C148.179998,20.06 147.864001,20.0040006 147.616,19.892 C147.367999,19.7799994 147.176001,19.6080012 147.04,19.376 C147,19.3119997 146.958,19.278 146.914,19.274 C146.884667,19.2713333 146.852667,19.2819999 146.818,19.3059999 L146.818,19.3059999 Z M143.524,16.988 C143.524,17.4520023 143.677998,17.8479984 143.986,18.176 C144.294002,18.5040016 144.667998,18.668 145.108,18.668 C145.548002,18.668 145.919998,18.5060016 146.224,18.182 C146.528002,17.8579984 146.68,17.4600024 146.68,16.988 C146.68,16.5159976 146.528002,16.1180016 146.224,15.794 C145.919998,15.4699984 145.548002,15.308 145.108,15.308 C144.667998,15.308 144.294002,15.4719984 143.986,15.8 C143.677998,16.1280016 143.524,16.5239977 143.524,16.988 Z M149.608,22.34 C149.552,22.34 149.5,22.3180002 149.452,22.274 C149.404,22.2299998 149.38,22.1760003 149.38,22.112 L149.38,21.14 C149.38,21.0839997 149.402,21.0340002 149.446,20.99 C149.49,20.9459998 149.544,20.924 149.608,20.924 C150.032002,20.924 150.405998,20.8180011 150.73,20.606 C151.054002,20.3939989 151.256,20.1160017 151.336,19.772 C151.36,19.6919996 151.368,19.6160004 151.36,19.544 C151.352,19.4719996 151.328,19.3880005 151.288,19.292 L149.08,14.3 C149.048,14.2119996 149.052,14.1360003 149.092,14.072 C149.132,14.0079997 149.192,13.976 149.272,13.976 L150.46,13.976 C150.508,13.976 150.552,13.9939998 150.592,14.03 C150.632,14.0660002 150.668,14.1199996 150.7,14.192 L152.08,17.384 C152.136,17.5120006 152.196,17.574 152.26,17.57 C152.324,17.566 152.384,17.5000006 152.44,17.372 L153.76,14.168 C153.784,14.0959996 153.814,14.0460001 153.85,14.018 C153.886,13.9899999 153.932,13.976 153.988,13.976 L155.128,13.976 C155.208,13.976 155.27,14.0059997 155.314,14.066 C155.358,14.1260003 155.364,14.1919996 155.332,14.264 L153.064,19.652 C152.639998,20.652005 152.172003,21.349998 151.66,21.746 C151.147997,22.142002 150.464004,22.34 149.608,22.34 Z" id="BetalmedMobilePay" fill="#5A78FF" fill-rule="nonzero"></path>
                <g id="Logo-/-Monochrome-/-Icon---MP-Blue" transform="translate(14.900002, 7.300003)" fill="#5A78FF">
                    <g id="Logo_monochrome_lines" transform="translate(0.500000, 0.250000)">
                        <path d="M7.75,10.9431016 C9.13483728,10.5210584 10.3064327,10.3088496 11.2647864,10.3064752 C12.8492125,10.3025495 14.1776171,10.6170578 15.25,11.25 L15.25,6.64717416 C14.1721725,6.08905709 12.9543393,5.79113171 11.5965004,5.75339801 C10.2386615,5.71566431 8.95649471,5.99219527 7.75,6.58299089 L7.75,10.9431016 Z" id="Path-4"></path>
                        <path d="M5.5,5.93166212 L7.20914556,10 L7.20914556,6.10103504 C8.10964951,5.61882152 9.06297271,5.30978829 10.0691151,5.17393533 C11.0752576,5.03808237 12.2188859,5.05998565 13.5,5.23964517 L12.5704391,3.01866375 C11.2237557,2.93169716 9.94087675,3.14865619 8.72180222,3.66954086 C7.50272768,4.19042552 6.42879361,4.94446595 5.5,5.93166212 Z" id="Path-4"></path>
                        <path d="M10.75,4.2626056 C10.75,3.87004584 10.75,3.28120621 10.75,2.4960867 C10.75,1.66982083 10.0842547,1 9.26301629,1 L4.23698371,1 C3.41574529,1 2.75,1.66982083 2.75,2.4960867 L2.75,14.2539133 C2.75,15.0801792 3.41574529,15.75 4.23698371,15.75 L9.26301629,15.75 C10.0842547,15.75 10.75,15.0801792 10.75,14.2539133 C10.75,13.5092881 10.75,13.023393 10.75,12.7962281 C10.5219243,12.6860826 10.3543143,12.6072881 10.2471701,12.5598446 C10.1340204,12.5097419 9.97118954,12.442217 9.75867752,12.3572699 C9.75867752,12.6499776 9.75867752,13.2821921 9.75867752,14.2539133 C9.75867752,14.5293353 9.53676243,14.7526089 9.26301629,14.7526089 L4.23698371,14.7526089 C3.96323757,14.7526089 3.74132248,14.5293353 3.74132248,14.2539133 L3.74132248,2.4960867 C3.74132248,2.22066475 3.96323757,1.99739114 4.23698371,1.99739114 L9.26301629,1.99739114 C9.53676243,1.99739114 9.75867752,2.22066475 9.75867752,2.4960867 L9.75867752,4.28162793 C9.99179293,4.26692049 10.1691211,4.26016412 10.2906619,4.26135882 C10.4122028,4.26255352 10.5653155,4.26296911 10.75,4.2626056 Z" id="Path-5" fill-rule="nonzero" transform="translate(6.750000, 8.375000) rotate(-22.400000) translate(-6.750000, -8.375000) "></path>
                    </g>
                </g>
            </g>
        </g>
    </g>
</svg>