<?xml version="1.0" encoding="UTF-8"?>
<svg width="207px" height="48px" viewBox="0 0 207 48" version="1.1" xmlns="http://www.w3.org/2000/svg" xmlns:xlink="http://www.w3.org/1999/xlink">
    <!-- Generator: Sketch 58 (84663) - https://sketch.com -->
    <title>danish-white-large</title>
    <desc>Created with Sketch.</desc>
    <g id="Subscription-assets" stroke="none" stroke-width="1" fill="none" fill-rule="evenodd">
        <g id="Betal-og-tilmeld---editable-Copy" transform="translate(-21.000000, -582.000000)">
            <g id="danish-white-large" transform="translate(21.000000, 582.000000)">
                <rect id="Background" fill="#FFFFFF" x="0" y="0" width="207" height="48" rx="4"></rect>
                <path d="M58.38,30 L52.494,30 C52.4099996,30 52.3350003,29.9670003 52.269,29.901 C52.2029997,29.8349997 52.17,29.7540005 52.17,29.658 L52.17,18.102 C52.17,18.0059995 52.2029997,17.9250003 52.269,17.859 C52.3350003,17.7929997 52.4099996,17.76 52.494,17.76 L58.344,17.76 C59.4120053,17.76 60.3119963,18.0899967 61.044,18.75 C61.7760037,19.4100033 62.142,20.2259951 62.142,21.198 C62.142,21.6780024 62.043001,22.1249979 61.845,22.539 C61.646999,22.9530021 61.3620019,23.3099985 60.99,23.61 C60.9419998,23.6580002 60.918,23.7089997 60.918,23.763 C60.918,23.8170003 60.9419998,23.8619998 60.99,23.898 C61.4940025,24.1740014 61.8809987,24.5309978 62.151,24.969 C62.4210013,25.4070022 62.556,25.8899974 62.556,26.418 C62.556,27.4500052 62.1630039,28.3049966 61.377,28.983 C60.5909961,29.6610034 59.5920061,30 58.38,30 Z M54.996,22.8 L58.074,22.8 C58.5180022,22.8 58.8839986,22.6560014 59.172,22.368 C59.4600014,22.0799986 59.604,21.7200022 59.604,21.288 C59.604,20.8439978 59.4570015,20.4930013 59.163,20.235 C58.8689985,19.9769987 58.4760025,19.848 57.984,19.848 L54.996,19.848 C54.8999995,19.848 54.8250003,19.8749997 54.771,19.929 C54.7169997,19.9830003 54.69,20.0579995 54.69,20.154 L54.69,22.512 C54.69,22.6080005 54.7169997,22.6799998 54.771,22.728 C54.8250003,22.7760002 54.8999995,22.8 54.996,22.8 Z M54.996,27.894 L58.254,27.894 C58.7460025,27.894 59.1599983,27.7380016 59.496,27.426 C59.8320017,27.1139984 60,26.7360022 60,26.292 C60,25.8719979 59.8380016,25.5120015 59.514,25.212 C59.19,24.9119985 58.7820025,24.762 58.29,24.762 L54.996,24.762 C54.8999995,24.762 54.8250003,24.7859998 54.771,24.834 C54.7169997,24.8820002 54.69,24.9539995 54.69,25.05 L54.69,27.606 C54.69,27.7020005 54.7139998,27.7739998 54.762,27.822 C54.8100002,27.8700002 54.8879995,27.894 54.996,27.894 Z M72.528,27.588 C72.2279985,28.380004 71.679004,29.0189976 70.881,29.505 C70.082996,29.9910024 69.1920049,30.234 68.208,30.234 C66.8519932,30.234 65.7330044,29.7900044 64.851,28.902 C63.9689956,28.0139956 63.528,26.8860068 63.528,25.518 C63.528,24.1499932 63.9779955,23.0100046 64.878,22.098 C65.7780045,21.1859954 66.8999933,20.73 68.244,20.73 C69.5760067,20.73 70.6829956,21.1889954 71.565,22.107 C72.4470044,23.0250046 72.888,24.1739931 72.888,25.554 C72.888,25.758001 72.8550003,25.9079995 72.789,26.004 C72.7229997,26.1000005 72.6180007,26.148 72.474,26.148 L66.282,26.148 C66.2099996,26.148 66.1560002,26.1689998 66.12,26.211 C66.0839998,26.2530002 66.0719999,26.3099996 66.084,26.382 C66.1440003,26.8980026 66.3809979,27.3239983 66.795,27.66 C67.2090021,27.9960017 67.7039971,28.164 68.28,28.164 C68.6160017,28.164 68.9309985,28.0980007 69.225,27.966 C69.4602012,27.8603995 69.6704398,27.7164006 69.8557197,27.5340004 L69.99,27.39 C70.0860005,27.2819995 70.1789996,27.2070002 70.269,27.165 C70.3590004,27.1229998 70.4579995,27.102 70.566,27.102 L72.222,27.102 C72.3660007,27.102 72.4649997,27.1469996 72.519,27.237 C72.5730003,27.3270004 72.5760002,27.4439993 72.528,27.588 Z M66.156,24.438 C66.1319999,24.5220004 66.1319999,24.5849998 66.156,24.627 C66.1800001,24.6690002 66.2279996,24.69 66.3,24.69 L70.098,24.69 C70.1580003,24.69 70.2029998,24.6750001 70.233,24.645 C70.2630002,24.6149999 70.2720001,24.5640004 70.26,24.492 C70.1639995,23.9999975 69.9240019,23.5950016 69.54,23.277 C69.1559981,22.9589984 68.7120025,22.8 68.208,22.8 C67.7279976,22.8 67.2960019,22.9529985 66.912,23.259 C66.5279981,23.5650015 66.2760006,23.9579976 66.156,24.438 Z M78.972,30.09 L78.882,30.09 C77.5499933,30.09 76.5600032,29.787003 75.912,29.181 C75.2639968,28.574997 74.94,27.6540062 74.94,26.418 L74.94,23.376 C74.94,23.2799995 74.9100003,23.2020003 74.85,23.142 C74.7899997,23.0819997 74.7120005,23.052 74.616,23.052 L73.986,23.052 C73.8899995,23.052 73.8090003,23.0190003 73.743,22.953 C73.6769997,22.8869997 73.644,22.8120004 73.644,22.728 L73.644,21.306 C73.644,21.2099995 73.6799996,21.1290003 73.752,21.063 C73.8240004,20.9969997 73.9019996,20.964 73.986,20.964 L74.616,20.964 C74.7120005,20.964 74.7899997,20.9310003 74.85,20.865 C74.9100003,20.7989997 74.94,20.7240004 74.94,20.64 L74.94,19.092 C74.94,18.9959995 74.9729997,18.9150003 75.039,18.849 C75.1050003,18.7829997 75.1799996,18.75 75.264,18.75 L77.046,18.75 C77.1420005,18.75 77.2229997,18.7829997 77.289,18.849 C77.3550003,18.9150003 77.388,18.9959995 77.388,19.092 L77.388,20.64 C77.388,20.7240004 77.4209997,20.7989997 77.487,20.865 C77.5530003,20.9310003 77.6339995,20.964 77.73,20.964 L78.9,20.964 C78.9960005,20.964 79.0769997,20.9969997 79.143,21.063 C79.2090003,21.1290003 79.242,21.2099995 79.242,21.306 L79.242,22.728 C79.242,22.8120004 79.2090003,22.8869997 79.143,22.953 C79.0769997,23.0190003 78.9960005,23.052 78.9,23.052 L77.73,23.052 C77.6459996,23.052 77.5680004,23.0849997 77.496,23.151 C77.4239996,23.2170003 77.388,23.2979995 77.388,23.394 L77.388,26.4 C77.388,26.9040025 77.5229987,27.2879987 77.793,27.552 C78.0630014,27.8160013 78.4559974,27.948 78.972,27.948 C79.0560004,27.948 79.1279997,27.9749997 79.188,28.029 C79.2480003,28.0830003 79.278,28.1519996 79.278,28.236 L79.278,29.766 C79.278,29.8620005 79.2480003,29.9399997 79.188,30 C79.1279997,30.0600003 79.0560004,30.09 78.972,30.09 Z M87.5113126,28.9734373 L87.45,29.028 C86.9819977,29.4600022 86.5200023,29.7689991 86.064,29.955 C85.6079977,30.1410009 85.1040028,30.234 84.552,30.234 C83.3159938,30.234 82.2690043,29.7750046 81.411,28.857 C80.5529957,27.9389954 80.124,26.8140067 80.124,25.482 C80.124,24.1499933 80.5589956,23.0250046 81.429,22.107 C82.2990044,21.1889954 83.3519938,20.73 84.588,20.73 C85.0200022,20.73 85.4249981,20.8019993 85.803,20.946 C86.1180016,21.0660006 86.4434158,21.2484991 86.7792494,21.4934995 L86.982,21.648 C87.0660004,21.7200004 87.1439996,21.7500001 87.216,21.738 C87.2880004,21.7259999 87.324,21.6660005 87.324,21.558 L87.324,21.288 C87.324,21.1919995 87.3569997,21.1140003 87.423,21.054 C87.4890003,20.9939997 87.5639996,20.964 87.648,20.964 L89.34,20.964 C89.4360005,20.964 89.5169997,20.9969997 89.583,21.063 C89.6490003,21.1290003 89.682,21.2099995 89.682,21.306 L89.682,27.264 C89.682,27.4800011 89.7209996,27.6419995 89.799,27.75 C89.8770004,27.8580005 89.9939992,27.9179999 90.15,27.93 C90.2340004,27.9420001 90.3059997,27.9749997 90.366,28.029 C90.4260003,28.0830003 90.456,28.1459996 90.456,28.218 L90.456,29.784 C90.456,29.8680004 90.4260003,29.9399997 90.366,30 C90.3059997,30.0600003 90.2340004,30.09 90.15,30.09 C89.5739971,30.09 89.1000019,30.0060008 88.728,29.838 C88.3559981,29.6699992 88.068001,29.4120017 87.864,29.064 C87.8039997,28.9679995 87.7410003,28.917 87.675,28.911 C87.6254998,28.9065 87.5709376,28.9273123 87.5113126,28.9734373 L87.5113126,28.9734373 Z M82.59,25.482 C82.59,26.1780035 82.8209977,26.7719975 83.283,27.264 C83.7450023,27.7560025 84.3059967,28.002 84.966,28.002 C85.6260033,28.002 86.1839977,27.7590024 86.64,27.273 C87.0960023,26.7869976 87.324,26.1900035 87.324,25.482 C87.324,24.7739965 87.0960023,24.1770024 86.64,23.691 C86.1839977,23.2049976 85.6260033,22.962 84.966,22.962 C84.3059967,22.962 83.7450023,23.2079975 83.283,23.7 C82.8209977,24.1920025 82.59,24.7859965 82.59,25.482 Z M95.172,30.09 C93.9479939,30.09 93.0870025,29.8530024 92.589,29.379 C92.0909975,28.9049976 91.842,28.0920058 91.842,26.94 L91.842,18.102 C91.842,18.0059995 91.8749997,17.9250003 91.941,17.859 C92.0070003,17.7929997 92.0819996,17.76 92.166,17.76 L93.948,17.76 C94.0440005,17.76 94.1249997,17.7929997 94.191,17.859 C94.2570003,17.9250003 94.29,18.0059995 94.29,18.102 L94.29,26.994 C94.29,27.3060016 94.3649993,27.5429992 94.515,27.705 C94.6650008,27.8670008 94.8839986,27.948 95.172,27.948 C95.2680005,27.948 95.3489997,27.9809997 95.415,28.047 C95.4810003,28.1130003 95.514,28.1939995 95.514,28.29 L95.514,29.766 C95.514,29.8500004 95.4810003,29.9249997 95.415,29.991 C95.3489997,30.0570003 95.2680005,30.09 95.172,30.09 Z M109.284,25.482 C109.284,26.8260067 108.825005,27.9539954 107.907,28.866 C106.988995,29.7780046 105.840007,30.234 104.46,30.234 C103.091993,30.234 101.946005,29.7780046 101.022,28.866 C100.097995,27.9539954 99.636,26.8260067 99.636,25.482 C99.636,24.1379933 100.094995,23.0100046 101.013,22.098 C101.931005,21.1859954 103.079993,20.73 104.46,20.73 C105.840007,20.73 106.988995,21.1829955 107.907,22.089 C108.825005,22.9950045 109.284,24.1259932 109.284,25.482 Z M102.084,25.482 C102.084,26.1780035 102.317998,26.7719975 102.786,27.264 C103.254002,27.7560025 103.811997,28.002 104.46,28.002 C105.120003,28.002 105.680998,27.7560025 106.143,27.264 C106.605002,26.7719975 106.836,26.1780035 106.836,25.482 C106.836,24.7859965 106.605002,24.1920025 106.143,23.7 C105.680998,23.2079975 105.120003,22.962 104.46,22.962 C103.811997,22.962 103.254002,23.2079975 102.786,23.7 C102.317998,24.1920025 102.084,24.7859965 102.084,25.482 Z M115.35,33.6 C114.233994,33.6 113.280004,33.3450026 112.488,32.835 C111.695996,32.3249974 111.156001,31.6080046 110.868,30.684 C110.832,30.5759995 110.847,30.4860004 110.913,30.414 C110.979,30.3419996 111.083999,30.306 111.228,30.306 L112.956,30.306 C113.064001,30.306 113.157,30.3269998 113.235,30.369 C113.2935,30.4005002 113.350312,30.4505623 113.405437,30.5191873 L113.46,30.594 C113.652001,30.8940015 113.906998,31.1189993 114.225,31.269 C114.543002,31.4190008 114.911998,31.494 115.332,31.494 C115.992003,31.494 116.531998,31.2720022 116.952,30.828 C117.372002,30.3839978 117.582,29.8140035 117.582,29.118 L117.582,29.01 C117.582,28.8899994 117.546,28.8150001 117.474,28.785 C117.4164,28.7609999 117.34728,28.7696397 117.26664,28.8109198 L117.204,28.848 C116.771998,29.1240014 116.367002,29.3249994 115.989,29.451 C115.610998,29.5770006 115.248002,29.64 114.9,29.64 C113.651994,29.64 112.611004,29.2230042 111.777,28.389 C110.942996,27.5549958 110.526,26.4960064 110.526,25.212 C110.526,23.9159935 110.948996,22.8450042 111.795,21.999 C112.641004,21.1529958 113.687994,20.73 114.936,20.73 C115.404002,20.73 115.832998,20.8079992 116.223,20.964 C116.613002,21.1200008 116.981998,21.3539984 117.33,21.666 C117.414,21.7500004 117.492,21.7830001 117.564,21.765 C117.636,21.7469999 117.672,21.6840005 117.672,21.576 L117.672,21.288 C117.672,21.1919995 117.705,21.1140003 117.771,21.054 C117.837,20.9939997 117.912,20.964 117.996,20.964 L119.688,20.964 C119.784,20.964 119.865,20.9969997 119.931,21.063 C119.997,21.1290003 120.03,21.2099995 120.03,21.306 L120.03,28.902 C120.03,30.2580068 119.589004,31.3799956 118.707,32.268 C117.824996,33.1560044 116.706007,33.6 115.35,33.6 Z M112.992,25.302 C112.992,25.9620033 113.216998,26.5139978 113.667,26.958 C114.117002,27.4020022 114.671997,27.624 115.332,27.624 C116.004003,27.624 116.561998,27.4050022 117.006,26.967 C117.450002,26.5289978 117.672,25.9740034 117.672,25.302 C117.672,24.6179966 117.447002,24.0510022 116.997,23.601 C116.546998,23.1509977 115.992,22.926 115.332,22.926 C114.671997,22.926 114.117002,23.1539977 113.667,23.61 C113.216998,24.0660023 112.992,24.6299966 112.992,25.302 Z M129.876,30.09 L129.786,30.09 C128.453993,30.09 127.464003,29.787003 126.816,29.181 C126.167997,28.574997 125.844,27.6540062 125.844,26.418 L125.844,23.376 C125.844,23.2799995 125.814,23.2020003 125.754,23.142 C125.694,23.0819997 125.616,23.052 125.52,23.052 L124.89,23.052 C124.794,23.052 124.713,23.0190003 124.647,22.953 C124.581,22.8869997 124.548,22.8120004 124.548,22.728 L124.548,21.306 C124.548,21.2099995 124.584,21.1290003 124.656,21.063 C124.728,20.9969997 124.806,20.964 124.89,20.964 L125.52,20.964 C125.616,20.964 125.694,20.9310003 125.754,20.865 C125.814,20.7989997 125.844,20.7240004 125.844,20.64 L125.844,19.092 C125.844,18.9959995 125.877,18.9150003 125.943,18.849 C126.009,18.7829997 126.084,18.75 126.168,18.75 L127.95,18.75 C128.046,18.75 128.127,18.7829997 128.193,18.849 C128.259,18.9150003 128.292,18.9959995 128.292,19.092 L128.292,20.64 C128.292,20.7240004 128.325,20.7989997 128.391,20.865 C128.457,20.9310003 128.538,20.964 128.634,20.964 L129.804,20.964 C129.9,20.964 129.981,20.9969997 130.047,21.063 C130.113,21.1290003 130.146,21.2099995 130.146,21.306 L130.146,22.728 C130.146,22.8120004 130.113,22.8869997 130.047,22.953 C129.981,23.0190003 129.9,23.052 129.804,23.052 L128.634,23.052 C128.55,23.052 128.472,23.0849997 128.4,23.151 C128.328,23.2170003 128.292,23.2979995 128.292,23.394 L128.292,26.4 C128.292,26.9040025 128.426999,27.2879987 128.697,27.552 C128.967001,27.8160013 129.359997,27.948 129.876,27.948 C129.96,27.948 130.032,27.9749997 130.092,28.029 C130.152,28.0830003 130.182,28.1519996 130.182,28.236 L130.182,29.766 C130.182,29.8620005 130.152,29.9399997 130.092,30 C130.032,30.0600003 129.96,30.09 129.876,30.09 Z M134.016,18.606 C134.016,18.9780019 133.881001,19.2989986 133.611,19.569 C133.340999,19.8390013 133.020002,19.974 132.648,19.974 C132.275998,19.974 131.955001,19.8390013 131.685,19.569 C131.414999,19.2989986 131.28,18.9780019 131.28,18.606 C131.28,18.2339981 131.414999,17.9130013 131.685,17.643 C131.955001,17.3729986 132.275998,17.238 132.648,17.238 C133.020002,17.238 133.340999,17.3729986 133.611,17.643 C133.881001,17.9130013 134.016,18.2339981 134.016,18.606 Z M133.512,30 L131.73,30 C131.646,30 131.571,29.9670003 131.505,29.901 C131.439,29.8349997 131.406,29.7540005 131.406,29.658 L131.406,21.306 C131.406,21.2099995 131.439,21.1290003 131.505,21.063 C131.571,20.9969997 131.646,20.964 131.73,20.964 L133.512,20.964 C133.608,20.964 133.689,20.9969997 133.755,21.063 C133.821,21.1290003 133.854,21.2099995 133.854,21.306 L133.854,29.658 C133.854,29.7420004 133.821,29.8199996 133.755,29.892 C133.689,29.964 133.608,30 133.512,30 Z M139.164,30.09 C137.939994,30.09 137.079002,29.8530024 136.581,29.379 C136.082998,28.9049976 135.834,28.0920058 135.834,26.94 L135.834,18.102 C135.834,18.0059995 135.867,17.9250003 135.933,17.859 C135.999,17.7929997 136.074,17.76 136.158,17.76 L137.94,17.76 C138.036,17.76 138.117,17.7929997 138.183,17.859 C138.249,17.9250003 138.282,18.0059995 138.282,18.102 L138.282,26.994 C138.282,27.3060016 138.356999,27.5429992 138.507,27.705 C138.657001,27.8670008 138.875999,27.948 139.164,27.948 C139.26,27.948 139.341,27.9809997 139.407,28.047 C139.473,28.1130003 139.506,28.1939995 139.506,28.29 L139.506,29.766 C139.506,29.8500004 139.473,29.9249997 139.407,29.991 C139.341,30.0570003 139.26,30.09 139.164,30.09 Z M142.728,30 L140.946,30 C140.862,30 140.787,29.9670003 140.721,29.901 C140.655,29.8349997 140.622,29.7540005 140.622,29.658 L140.622,21.306 C140.622,21.2099995 140.655,21.1290003 140.721,21.063 C140.787,20.9969997 140.862,20.964 140.946,20.964 L142.656,20.964 C142.752,20.964 142.833,20.9969997 142.899,21.063 C142.965,21.1290003 142.998,21.2099995 142.998,21.306 L142.998,21.594 C142.998,21.7020005 143.037,21.7649999 143.115,21.783 C143.193,21.8010001 143.28,21.7620005 143.376,21.666 C143.736002,21.3419984 144.092998,21.1050008 144.447,20.955 C144.801002,20.8049992 145.187998,20.73 145.608,20.73 C146.136003,20.73 146.606998,20.8439989 147.021,21.072 C147.375859,21.2674295 147.693244,21.5466108 147.973163,21.9095504 L148.11,22.098 C148.158,22.1700004 148.206,22.206 148.254,22.206 C148.302,22.206 148.356,22.1700004 148.416,22.098 C148.752002,21.6539978 149.159998,21.3150012 149.64,21.081 C150.120002,20.8469988 150.653997,20.73 151.242,20.73 C152.202005,20.73 152.984997,21.0629967 153.591,21.729 C154.197003,22.3950033 154.5,23.2559947 154.5,24.312 L154.5,29.658 C154.5,29.7420004 154.467,29.8199996 154.401,29.892 C154.335,29.9640004 154.254,30 154.158,30 L152.376,30 C152.292,30 152.217,29.9670003 152.151,29.901 C152.085,29.8349997 152.052,29.7540005 152.052,29.658 L152.052,24.744 C152.052,24.1559971 151.911001,23.6940017 151.629,23.358 C151.346999,23.0219983 150.954003,22.854 150.45,22.854 C149.969998,22.854 149.571002,23.0339982 149.253,23.394 C148.934998,23.7540018 148.776,24.1859975 148.776,24.69 L148.776,29.658 C148.776,29.7420004 148.743,29.8199996 148.677,29.892 C148.611,29.9640004 148.53,30 148.434,30 L146.652,30 C146.568,30 146.493,29.9670003 146.427,29.901 C146.361,29.8349997 146.328,29.7540005 146.328,29.658 L146.328,24.744 C146.328,24.1559971 146.187001,23.6940017 145.905,23.358 C145.622999,23.0219983 145.236002,22.854 144.744,22.854 C144.251998,22.854 143.850002,23.0309982 143.538,23.385 C143.225998,23.7390018 143.07,24.1799974 143.07,24.708 L143.07,29.658 C143.07,29.7420004 143.037,29.8199996 142.971,29.892 C142.905,29.9640004 142.824,30 142.728,30 Z M165.102,27.588 C164.801999,28.380004 164.253004,29.0189976 163.455,29.505 C162.656996,29.9910024 161.766005,30.234 160.782,30.234 C159.425993,30.234 158.307004,29.7900044 157.425,28.902 C156.542996,28.0139956 156.102,26.8860068 156.102,25.518 C156.102,24.1499932 156.551996,23.0100046 157.452,22.098 C158.352005,21.1859954 159.473993,20.73 160.818,20.73 C162.150007,20.73 163.256996,21.1889954 164.139,22.107 C165.021004,23.0250046 165.462,24.1739931 165.462,25.554 C165.462,25.758001 165.429,25.9079995 165.363,26.004 C165.297,26.1000005 165.192001,26.148 165.048,26.148 L158.856,26.148 C158.784,26.148 158.73,26.1689998 158.694,26.211 C158.658,26.2530002 158.646,26.3099996 158.658,26.382 C158.718,26.8980026 158.954998,27.3239983 159.369,27.66 C159.783002,27.9960017 160.277997,28.164 160.854,28.164 C161.190002,28.164 161.504999,28.0980007 161.799,27.966 C162.034201,27.8603995 162.24444,27.7164006 162.42972,27.5340004 L162.564,27.39 C162.66,27.2819995 162.753,27.2070002 162.843,27.165 C162.933,27.1229998 163.031999,27.102 163.14,27.102 L164.796,27.102 C164.940001,27.102 165.039,27.1469996 165.093,27.237 C165.147,27.3270004 165.15,27.4439993 165.102,27.588 Z M158.73,24.438 C158.706,24.5220004 158.706,24.5849998 158.73,24.627 C158.754,24.6690002 158.802,24.69 158.874,24.69 L162.672,24.69 C162.732,24.69 162.777,24.6750001 162.807,24.645 C162.837,24.6149999 162.846,24.5640004 162.834,24.492 C162.738,23.9999975 162.498002,23.5950016 162.114,23.277 C161.729998,22.9589984 161.286003,22.8 160.782,22.8 C160.301998,22.8 159.870002,22.9529985 159.486,23.259 C159.101998,23.5650015 158.850001,23.9579976 158.73,24.438 Z M170.394,30.09 C169.169994,30.09 168.309002,29.8530024 167.811,29.379 C167.312998,28.9049976 167.064,28.0920058 167.064,26.94 L167.064,18.102 C167.064,18.0059995 167.097,17.9250003 167.163,17.859 C167.229,17.7929997 167.304,17.76 167.388,17.76 L169.17,17.76 C169.266,17.76 169.347,17.7929997 169.413,17.859 C169.479,17.9250003 169.512,18.0059995 169.512,18.102 L169.512,26.994 C169.512,27.3060016 169.586999,27.5429992 169.737,27.705 C169.887001,27.8670008 170.105999,27.948 170.394,27.948 C170.49,27.948 170.571,27.9809997 170.637,28.047 C170.703,28.1130003 170.736,28.1939995 170.736,28.29 L170.736,29.766 C170.736,29.8500004 170.703,29.9249997 170.637,29.991 C170.571,30.0570003 170.49,30.09 170.394,30.09 Z M180.69,17.76 C180.786,17.76 180.867,17.7929997 180.933,17.859 C180.999,17.9250003 181.032,18.0059995 181.032,18.102 L181.032,27.264 C181.032,27.4800011 181.071,27.6419995 181.149,27.75 C181.227,27.8580005 181.343999,27.9179999 181.5,27.93 C181.584,27.9420001 181.656,27.9749997 181.716,28.029 C181.776,28.0830003 181.806,28.1459996 181.806,28.218 L181.806,29.784 C181.806,29.8680004 181.776,29.9399997 181.716,30 C181.656,30.0600003 181.584,30.09 181.5,30.09 C180.923997,30.09 180.450002,30.0060008 180.078,29.838 C179.705998,29.6699992 179.418001,29.4120017 179.214,29.064 C179.154,28.9679995 179.091,28.917 179.025,28.911 C178.9755,28.9065 178.920938,28.9273123 178.861313,28.9734373 L178.8,29.028 C178.331998,29.4600022 177.870002,29.7689991 177.414,29.955 C176.957998,30.1410009 176.454003,30.234 175.902,30.234 C174.665994,30.234 173.619004,29.7750046 172.761,28.857 C171.902996,27.9389954 171.474,26.8140067 171.474,25.482 C171.474,24.1499933 171.908996,23.0250046 172.779,22.107 C173.649004,21.1889954 174.701994,20.73 175.938,20.73 C176.358002,20.73 176.756998,20.7959993 177.135,20.928 C177.513002,21.0600007 177.869998,21.2639986 178.206,21.54 C178.29,21.6120004 178.374,21.6330002 178.458,21.603 C178.542,21.5729999 178.584,21.4980006 178.584,21.378 L178.584,18.102 C178.584,18.0059995 178.617,17.9250003 178.683,17.859 C178.749,17.7929997 178.824,17.76 178.908,17.76 L180.69,17.76 Z M176.316,22.962 C175.655997,22.962 175.095002,23.2079975 174.633,23.7 C174.170998,24.1920025 173.94,24.7859965 173.94,25.482 C173.94,26.1780035 174.170998,26.7719975 174.633,27.264 C175.095002,27.7560025 175.655997,28.002 176.316,28.002 C176.976003,28.002 177.533998,27.7590024 177.99,27.273 C178.446002,26.7869976 178.674,26.1900035 178.674,25.482 C178.674,24.7739965 178.446002,24.1770024 177.99,23.691 C177.533998,23.2049976 176.976003,22.962 176.316,22.962 Z" id="Betalogtilmeld" fill="#5A78FF" fill-rule="nonzero"></path>
                <g id="Logo-/-Monochrome-/-Icon---MP-Blue" transform="translate(22.000000, 11.000000)" fill="#5A78FF">
                    <g id="Logo_monochrome_lines" transform="translate(0.764706, 0.382353)">
                        <path d="M11.8529412,16.7365084 C13.9709276,16.0910306 15.7627795,15.7664759 17.2284968,15.7628444 C19.6517368,15.7568404 21.6834143,16.2378531 23.3235294,17.2058824 L23.3235294,10.1662664 C21.6750873,9.31267556 19.8125189,8.85702497 17.7358241,8.7993146 C15.6591294,8.74160424 13.6981684,9.16453394 11.8529412,10.0681037 L11.8529412,16.7365084 Z" id="Path-4"></path>
                        <path d="M8.41176471,9.07195384 L11.025752,15.2941176 L11.025752,9.33099477 C12.4029934,8.59349174 13.8610171,8.12085267 15.3998232,7.91307756 C16.9386292,7.70530244 18.6877078,7.73880158 20.6470588,8.01357497 L19.2253774,4.61677985 C17.165744,4.48377212 15.2036939,4.81559182 13.3392269,5.61223896 C11.47476,6.4088861 9.83227258,7.56212439 8.41176471,9.07195384 Z" id="Path-4"></path>
                        <path d="M16.4411765,6.51927915 C16.4411765,5.91889364 16.4411765,5.01831538 16.4411765,3.81754437 C16.4411765,2.55384363 15.4229778,1.52941176 14.1669661,1.52941176 L6.48009274,1.52941176 C5.22408102,1.52941176 4.20588235,2.55384363 4.20588235,3.81754437 L4.20588235,21.8001027 C4.20588235,23.0638034 5.22408102,24.0882353 6.48009274,24.0882353 L14.1669661,24.0882353 C15.4229778,24.0882353 16.4411765,23.0638034 16.4411765,21.8001027 C16.4411765,20.6612641 16.4411765,19.9181304 16.4411765,19.5707018 C16.0923547,19.402244 15.8360101,19.2817348 15.6721426,19.2091741 C15.49909,19.1325464 15.2500546,19.029273 14.9250362,18.899354 C14.9250362,19.3470246 14.9250362,20.3139408 14.9250362,21.8001027 C14.9250362,22.2213363 14.5856367,22.5628136 14.1669661,22.5628136 L6.48009274,22.5628136 C6.06142217,22.5628136 5.72202261,22.2213363 5.72202261,21.8001027 L5.72202261,3.81754437 C5.72202261,3.39631079 6.06142217,3.0548335 6.48009274,3.0548335 L14.1669661,3.0548335 C14.5856367,3.0548335 14.9250362,3.39631079 14.9250362,3.81754437 L14.9250362,6.54837213 C15.2815657,6.5258784 15.5527734,6.51554513 15.7386594,6.51737232 C15.9245455,6.5191995 16.1587178,6.51983512 16.4411765,6.51927915 Z" id="Path-5" fill-rule="nonzero" transform="translate(10.323529, 12.808824) rotate(-22.400000) translate(-10.323529, -12.808824) "></path>
                    </g>
                </g>
            </g>
        </g>
    </g>
</svg>